<svg width="118" height="73" viewBox="0 0 118 73" fill="none" xmlns="http://www.w3.org/2000/svg">
<path d="M21.9 73V10.2L10.8 23.5H0.1L19 0.999997H30.2V73H21.9ZM56.5625 73C54.2958 73 52.2292 72.4667 50.3625 71.4C48.5625 70.2667 47.0958 68.8 45.9625 67C44.8958 65.1333 44.3625 63.1 44.3625 60.9V59.3H52.6625V60.9C52.6625 61.9667 53.0292 62.9 53.7625 63.7C54.5625 64.4333 55.4958 64.8 56.5625 64.8H105.063C106.129 64.8 107.029 64.4333 107.763 63.7C108.563 62.9 108.963 61.9667 108.963 60.9V44.2C108.963 43.1333 108.563 42.2333 107.763 41.5C107.029 40.7 106.129 40.3 105.063 40.3H58.1625V32.1H101.863C102.929 32.1 103.829 31.7333 104.563 31C105.363 30.2 105.763 29.2667 105.763 28.2V13.1C105.763 12.0333 105.363 11.1333 104.563 10.4C103.829 9.6 102.929 9.2 101.863 9.2H56.5625C55.4958 9.2 54.5625 9.6 53.7625 10.4C53.0292 11.1333 52.6625 12.0333 52.6625 13.1V15.7H44.3625V13.1C44.3625 10.8333 44.8958 8.8 45.9625 7C47.0958 5.13333 48.5625 3.66666 50.3625 2.59999C52.2292 1.46666 54.2958 0.899998 56.5625 0.899998H101.863C104.129 0.899998 106.163 1.46666 107.963 2.59999C109.829 3.66666 111.296 5.13333 112.363 7C113.429 8.8 113.963 10.8333 113.963 13.1V28.2C113.963 29.1333 113.829 30.0667 113.563 31C113.363 31.8667 113.096 32.6667 112.763 33.4C114.429 35 115.563 36.7667 116.163 38.7C116.829 40.6333 117.163 42.4667 117.163 44.2V60.9C117.163 63.1 116.596 65.1333 115.463 67C114.396 68.8 112.929 70.2667 111.063 71.4C109.263 72.4667 107.263 73 105.063 73H56.5625Z" fill="white"/>
</svg>
