<svg width="157" height="73" viewBox="0 0 157 73" fill="none" xmlns="http://www.w3.org/2000/svg">
<path d="M12.5 73C10.2333 73 8.16667 72.4667 6.3 71.4C4.5 70.2667 3.03333 68.8 1.9 67C0.833334 65.1333 0.3 63.1 0.3 60.9V59.3H8.6V60.9C8.6 61.9667 8.96667 62.9 9.7 63.7C10.5 64.4333 11.4333 64.8 12.5 64.8H61C62.0667 64.8 62.9667 64.4333 63.7 63.7C64.5 62.9 64.9 61.9667 64.9 60.9V44.2C64.9 43.1333 64.5 42.2333 63.7 41.5C62.9667 40.7 62.0667 40.3 61 40.3H14.1V32.1H57.8C58.8667 32.1 59.7667 31.7333 60.5 31C61.3 30.2 61.7 29.2667 61.7 28.2V13.1C61.7 12.0333 61.3 11.1333 60.5 10.4C59.7667 9.6 58.8667 9.2 57.8 9.2H12.5C11.4333 9.2 10.5 9.6 9.7 10.4C8.96667 11.1333 8.6 12.0333 8.6 13.1V15.7H0.3V13.1C0.3 10.8333 0.833334 8.8 1.9 7C3.03333 5.13333 4.5 3.66666 6.3 2.59999C8.16667 1.46666 10.2333 0.899998 12.5 0.899998H57.8C60.0667 0.899998 62.1 1.46666 63.9 2.59999C65.7667 3.66666 67.2333 5.13333 68.3 7C69.3667 8.8 69.9 10.8333 69.9 13.1V28.2C69.9 29.1333 69.7667 30.0667 69.5 31C69.3 31.8667 69.0333 32.6667 68.7 33.4C70.3667 35 71.5 36.7667 72.1 38.7C72.7667 40.6333 73.1 42.4667 73.1 44.2V60.9C73.1 63.1 72.5333 65.1333 71.4 67C70.3333 68.8 68.8667 70.2667 67 71.4C65.2 72.4667 63.2 73 61 73H12.5ZM95.4172 73C93.1505 73 91.0839 72.4667 89.2172 71.4C87.4172 70.2667 85.9839 68.8 84.9172 67C83.8505 65.1333 83.3172 63.1 83.3172 60.9V58H91.5172V60.9C91.5172 61.9667 91.8839 62.9 92.6172 63.7C93.4172 64.4333 94.3505 64.8 95.4172 64.8H143.917C144.984 64.8 145.884 64.4333 146.617 63.7C147.417 62.9 147.817 61.9667 147.817 60.9V43.9C147.817 42.8333 147.417 41.9333 146.617 41.2C145.884 40.4 144.984 40 143.917 40H83.3172V0.899998H156.017V9.2H95.4172C94.3505 9.2 93.4172 9.6 92.6172 10.4C91.8839 11.1333 91.5172 12.0333 91.5172 13.1V27.8C91.5172 28.8667 91.8839 29.8 92.6172 30.6C93.4172 31.4 94.3505 31.8 95.4172 31.8H143.917C146.117 31.8 148.117 32.3333 149.917 33.4C151.784 34.4667 153.251 35.9333 154.317 37.8C155.451 39.6 156.017 41.6333 156.017 43.9V60.9C156.017 63.1 155.451 65.1333 154.317 67C153.251 68.8 151.784 70.2667 149.917 71.4C148.117 72.4667 146.117 73 143.917 73H95.4172Z" fill="white"/>
</svg>
