<svg width="296" height="26" viewBox="0 0 296 26" fill="none" xmlns="http://www.w3.org/2000/svg">
<path d="M15.6882 22V16.42H0.628242V13.66L15.3882 0.37H18.1482V13.96H21.5082V16.42H18.1482V22H15.6882ZM3.77824 13.96H15.6882V3.7L3.77824 13.96ZM32.2761 22V4C32.2761 3.34 32.4361 2.74 32.7561 2.2C33.0761 1.64 33.5061 1.2 34.0461 0.879998C34.6061 0.559999 35.2161 0.399999 35.8761 0.399999H50.2761C50.9361 0.399999 51.5361 0.559999 52.0761 0.879998C52.6361 1.2 53.0761 1.64 53.3961 2.2C53.7161 2.74 53.8761 3.34 53.8761 4V22H51.4461V14.11H34.7061V22H32.2761ZM34.7061 11.68H51.4461V4C51.4461 3.68 51.3261 3.41 51.0861 3.19C50.8661 2.95 50.5961 2.83 50.2761 2.83H35.8761C35.5561 2.83 35.2761 2.95 35.0361 3.19C34.8161 3.41 34.7061 3.68 34.7061 4V11.68ZM57.2943 22V0.429999H75.2943C75.9543 0.429999 76.5543 0.599999 77.0943 0.939999C77.6543 1.26 78.0943 1.69 78.4143 2.23C78.7343 2.77 78.8943 3.37 78.8943 4.03V10.36C78.8943 11.02 78.7343 11.62 78.4143 12.16C78.0943 12.7 77.6543 13.14 77.0943 13.48C76.5543 13.8 75.9543 13.96 75.2943 13.96H59.7243V22H57.2943ZM60.8943 11.5H75.2943C75.6143 11.5 75.8843 11.39 76.1043 11.17C76.3443 10.95 76.4643 10.68 76.4643 10.36V4.03C76.4643 3.71 76.3443 3.44 76.1043 3.22C75.8843 2.98 75.6143 2.86 75.2943 2.86H60.8943C60.5743 2.86 60.2943 2.98 60.0543 3.22C59.8343 3.44 59.7243 3.71 59.7243 4.03V10.36C59.7243 10.68 59.8343 10.95 60.0543 11.17C60.2943 11.39 60.5743 11.5 60.8943 11.5ZM99.2647 22L92.2147 13.6H95.3947L102.475 21.97V22H99.2647ZM81.0247 22V0.429999H99.0247C99.6847 0.429999 100.285 0.599999 100.825 0.939999C101.385 1.26 101.825 1.69 102.145 2.23C102.465 2.77 102.625 3.37 102.625 4.03V10.36C102.625 11.02 102.465 11.62 102.145 12.16C101.825 12.7 101.385 13.14 100.825 13.48C100.285 13.8 99.6847 13.96 99.0247 13.96H83.4547V22H81.0247ZM84.6247 11.5H99.0247C99.3447 11.5 99.6147 11.39 99.8347 11.17C100.075 10.95 100.195 10.68 100.195 10.36V4.03C100.195 3.71 100.075 3.44 99.8347 3.22C99.6147 2.98 99.3447 2.86 99.0247 2.86H84.6247C84.3047 2.86 84.0247 2.98 83.7847 3.22C83.5647 3.44 83.4547 3.71 83.4547 4.03V10.36C83.4547 10.68 83.5647 10.95 83.7847 11.17C84.0247 11.39 84.3047 11.5 84.6247 11.5ZM113.984 22V13.9C113.984 13.22 114.144 12.61 114.464 12.07C114.784 11.51 115.214 11.07 115.754 10.75C116.314 10.43 116.934 10.27 117.614 10.27H132.164C132.484 10.27 132.754 10.16 132.974 9.94C133.214 9.7 133.334 9.42 133.334 9.1V4.03C133.334 3.71 133.214 3.44 132.974 3.22C132.754 2.98 132.484 2.86 132.164 2.86H117.614C117.294 2.86 117.014 2.98 116.774 3.22C116.554 3.44 116.444 3.71 116.444 4.03V4.87H113.984V4.03C113.984 3.35 114.144 2.74 114.464 2.2C114.784 1.64 115.214 1.2 115.754 0.879998C116.314 0.539999 116.934 0.37 117.614 0.37H132.164C132.824 0.37 133.424 0.539999 133.964 0.879998C134.524 1.2 134.964 1.64 135.284 2.2C135.624 2.74 135.794 3.35 135.794 4.03V9.1C135.794 9.76 135.624 10.37 135.284 10.93C134.964 11.47 134.524 11.91 133.964 12.25C133.424 12.57 132.824 12.73 132.164 12.73H117.614C117.294 12.73 117.014 12.85 116.774 13.09C116.554 13.31 116.444 13.58 116.444 13.9V18.37C116.444 18.69 116.554 18.97 116.774 19.21C117.014 19.43 117.294 19.54 117.614 19.54H135.794V22H113.984ZM142.517 22C141.837 22 141.217 21.84 140.657 21.52C140.117 21.18 139.687 20.74 139.367 20.2C139.047 19.64 138.887 19.03 138.887 18.37V4.06C138.887 3.38 139.047 2.77 139.367 2.23C139.687 1.67 140.117 1.23 140.657 0.91C141.217 0.569999 141.837 0.399999 142.517 0.399999H157.067C157.727 0.399999 158.327 0.569999 158.867 0.91C159.427 1.23 159.867 1.67 160.187 2.23C160.527 2.77 160.697 3.38 160.697 4.06V18.37C160.697 19.03 160.527 19.64 160.187 20.2C159.867 20.74 159.427 21.18 158.867 21.52C158.327 21.84 157.727 22 157.067 22H142.517ZM141.647 19.54H157.067C157.387 19.54 157.657 19.43 157.877 19.21C158.117 18.97 158.237 18.69 158.237 18.37V5.86L141.647 19.54ZM141.347 16.57L157.907 2.89H142.517C142.197 2.89 141.917 3.01 141.677 3.25C141.457 3.47 141.347 3.74 141.347 4.06V16.57ZM163.906 22V13.9C163.906 13.22 164.066 12.61 164.386 12.07C164.706 11.51 165.136 11.07 165.676 10.75C166.236 10.43 166.856 10.27 167.536 10.27H182.086C182.406 10.27 182.676 10.16 182.896 9.94C183.136 9.7 183.256 9.42 183.256 9.1V4.03C183.256 3.71 183.136 3.44 182.896 3.22C182.676 2.98 182.406 2.86 182.086 2.86H167.536C167.216 2.86 166.936 2.98 166.696 3.22C166.476 3.44 166.366 3.71 166.366 4.03V4.87H163.906V4.03C163.906 3.35 164.066 2.74 164.386 2.2C164.706 1.64 165.136 1.2 165.676 0.879998C166.236 0.539999 166.856 0.37 167.536 0.37H182.086C182.746 0.37 183.346 0.539999 183.886 0.879998C184.446 1.2 184.886 1.64 185.206 2.2C185.546 2.74 185.716 3.35 185.716 4.03V9.1C185.716 9.76 185.546 10.37 185.206 10.93C184.886 11.47 184.446 11.91 183.886 12.25C183.346 12.57 182.746 12.73 182.086 12.73H167.536C167.216 12.73 166.936 12.85 166.696 13.09C166.476 13.31 166.366 13.58 166.366 13.9V18.37C166.366 18.69 166.476 18.97 166.696 19.21C166.936 19.43 167.216 19.54 167.536 19.54H185.716V22H163.906ZM188.809 22V13.9C188.809 13.22 188.969 12.61 189.289 12.07C189.609 11.51 190.039 11.07 190.579 10.75C191.139 10.43 191.759 10.27 192.439 10.27H206.989C207.309 10.27 207.579 10.16 207.799 9.94C208.039 9.7 208.159 9.42 208.159 9.1V4.03C208.159 3.71 208.039 3.44 207.799 3.22C207.579 2.98 207.309 2.86 206.989 2.86H192.439C192.119 2.86 191.839 2.98 191.599 3.22C191.379 3.44 191.269 3.71 191.269 4.03V4.87H188.809V4.03C188.809 3.35 188.969 2.74 189.289 2.2C189.609 1.64 190.039 1.2 190.579 0.879998C191.139 0.539999 191.759 0.37 192.439 0.37H206.989C207.649 0.37 208.249 0.539999 208.789 0.879998C209.349 1.2 209.789 1.64 210.109 2.2C210.449 2.74 210.619 3.35 210.619 4.03V9.1C210.619 9.76 210.449 10.37 210.109 10.93C209.789 11.47 209.349 11.91 208.789 12.25C208.249 12.57 207.649 12.73 206.989 12.73H192.439C192.119 12.73 191.839 12.85 191.599 13.09C191.379 13.31 191.269 13.58 191.269 13.9V18.37C191.269 18.69 191.379 18.97 191.599 19.21C191.839 19.43 192.119 19.54 192.439 19.54H210.619V22H188.809ZM213.621 25.93V19.54H216.081V22.48C216.081 23.02 215.971 23.52 215.751 23.98C215.551 24.44 215.261 24.84 214.881 25.18C214.521 25.52 214.101 25.77 213.621 25.93ZM236.176 22V2.83H226.576V0.399999H248.176V2.83H238.606V22H236.176ZM253.959 22C253.299 22 252.689 21.84 252.129 21.52C251.589 21.2 251.159 20.77 250.839 20.23C250.519 19.67 250.359 19.06 250.359 18.4V0.399999H252.789V18.4C252.789 18.72 252.899 19 253.119 19.24C253.359 19.46 253.639 19.57 253.959 19.57H268.359C268.679 19.57 268.949 19.46 269.169 19.24C269.409 19 269.529 18.72 269.529 18.4V0.399999H271.959V18.4C271.959 19.06 271.799 19.67 271.479 20.23C271.159 20.77 270.719 21.2 270.159 21.52C269.619 21.84 269.019 22 268.359 22H253.959ZM275.323 22V0.399999H295.033V2.83H277.753V9.97H291.643V12.43H277.753V19.57H295.033V22H275.323Z" fill="#0C7FBD"/>
</svg>
