<svg width="903" height="75" viewBox="0 0 903 75" fill="none" xmlns="http://www.w3.org/2000/svg">
<g filter="url(#filter0_dd_35_399)">
<path d="M20.124 50V24.08H40.284C41.124 24.08 41.904 24.296 42.624 24.728C43.344 25.136 43.908 25.7 44.316 26.42C44.748 27.116 44.964 27.896 44.964 28.76V34.052C44.964 34.364 44.928 34.676 44.856 34.988C44.808 35.3 44.712 35.588 44.568 35.852C45.048 36.524 45.408 37.16 45.648 37.76C45.912 38.336 46.044 38.924 46.044 39.524V45.32C46.044 46.184 45.828 46.976 45.396 47.696C44.988 48.392 44.424 48.956 43.704 49.388C42.984 49.796 42.192 50 41.328 50H20.124ZM24.912 46.112H41.256C41.496 46.112 41.7 46.028 41.868 45.86C42.036 45.668 42.12 45.452 42.12 45.212V39.632C42.12 39.392 42.036 39.188 41.868 39.02C41.7 38.828 41.496 38.732 41.256 38.732H24.912C24.672 38.732 24.456 38.828 24.264 39.02C24.096 39.188 24.012 39.392 24.012 39.632V45.212C24.012 45.452 24.096 45.668 24.264 45.86C24.456 46.028 24.672 46.112 24.912 46.112ZM24.912 34.844H40.176C40.416 34.844 40.62 34.76 40.788 34.592C40.956 34.4 41.04 34.184 41.04 33.944V28.868C41.04 28.628 40.956 28.424 40.788 28.256C40.62 28.064 40.416 27.968 40.176 27.968H24.912C24.672 27.968 24.456 28.064 24.264 28.256C24.096 28.424 24.012 28.628 24.012 28.868V33.944C24.012 34.184 24.096 34.4 24.264 34.592C24.456 34.76 24.672 34.844 24.912 34.844ZM51.0851 50V24.044H54.9731V46.112H77.0051V50H51.0851ZM84.7918 50C83.9278 50 83.1358 49.796 82.4158 49.388C81.7198 48.956 81.1558 48.392 80.7238 47.696C80.3158 46.976 80.1118 46.184 80.1118 45.32V28.76C80.1118 27.896 80.3158 27.116 80.7238 26.42C81.1558 25.7 81.7198 25.136 82.4158 24.728C83.1358 24.296 83.9278 24.08 84.7918 24.08H101.352C102.192 24.08 102.972 24.296 103.692 24.728C104.412 25.136 104.976 25.7 105.384 26.42C105.816 27.116 106.032 27.896 106.032 28.76V45.32C106.032 46.184 105.816 46.976 105.384 47.696C104.976 48.392 104.412 48.956 103.692 49.388C102.972 49.796 102.192 50 101.352 50H84.7918ZM84.8998 46.112H101.244C101.484 46.112 101.688 46.028 101.856 45.86C102.024 45.668 102.108 45.452 102.108 45.212V28.868C102.108 28.628 102.024 28.424 101.856 28.256C101.688 28.064 101.484 27.968 101.244 27.968H84.8998C84.6598 27.968 84.4438 28.064 84.2518 28.256C84.0838 28.424 83.9998 28.628 83.9998 28.868V45.212C83.9998 45.452 84.0838 45.668 84.2518 45.86C84.4438 46.028 84.6598 46.112 84.8998 46.112ZM115.756 50C114.892 50 114.1 49.796 113.38 49.388C112.684 48.956 112.12 48.392 111.688 47.696C111.28 46.976 111.076 46.184 111.076 45.32V28.76C111.076 27.896 111.28 27.116 111.688 26.42C112.12 25.7 112.684 25.136 113.38 24.728C114.1 24.296 114.892 24.08 115.756 24.08H136.924V27.968H116.296C115.912 27.968 115.588 28.1 115.324 28.364C115.084 28.604 114.964 28.916 114.964 29.3V44.78C114.964 45.164 115.084 45.488 115.324 45.752C115.588 45.992 115.912 46.112 116.296 46.112H136.924V50H115.756ZM141.794 50V24.08H145.718V35.096H152.882L162.098 24.08H166.598V24.8L156.338 37.04L166.634 49.28V50H162.098L152.882 38.984H145.718V50H141.794ZM183.083 50V24.08H186.971V35.096H205.691V24.08H209.615V50H205.691V38.984H186.971V50H183.083ZM214.82 50V24.08H238.58V27.968H218.744V35.096H234.692V38.984H218.744V46.112H238.58V50H214.82ZM243.462 50V28.76C243.462 27.896 243.666 27.116 244.074 26.42C244.506 25.7 245.07 25.136 245.766 24.728C246.486 24.296 247.278 24.08 248.142 24.08H264.666C265.53 24.08 266.322 24.296 267.042 24.728C267.762 25.136 268.326 25.7 268.734 26.42C269.166 27.116 269.382 27.896 269.382 28.76V50H265.458V40.928H247.35V50H243.462ZM247.35 37.04H265.458V28.868C265.458 28.628 265.374 28.424 265.206 28.256C265.038 28.064 264.834 27.968 264.594 27.968H248.25C248.01 27.968 247.794 28.064 247.602 28.256C247.434 28.424 247.35 28.628 247.35 28.868V37.04ZM274.636 50V24.08H295.84C296.704 24.08 297.496 24.296 298.216 24.728C298.936 25.136 299.5 25.7 299.908 26.42C300.34 27.116 300.556 27.896 300.556 28.76V45.32C300.556 46.184 300.34 46.976 299.908 47.696C299.5 48.392 298.936 48.956 298.216 49.388C297.496 49.796 296.704 50 295.84 50H274.636ZM279.388 46.112H295.768C296.008 46.112 296.212 46.028 296.38 45.86C296.548 45.668 296.632 45.452 296.632 45.212V28.868C296.632 28.628 296.548 28.424 296.38 28.256C296.212 28.064 296.008 27.968 295.768 27.968H279.388C279.148 27.968 278.944 28.064 278.776 28.256C278.608 28.424 278.524 28.628 278.524 28.868V45.212C278.524 45.452 278.608 45.668 278.776 45.86C278.944 46.028 279.148 46.112 279.388 46.112ZM305.74 50V24.08H329.5V27.968H309.664V35.096H325.612V38.984H309.664V46.112H329.5V50H305.74ZM355.55 50L347.45 40.316H352.526L360.086 49.28V50H355.55ZM334.31 50V24.116H355.514C356.378 24.116 357.17 24.332 357.89 24.764C358.61 25.196 359.174 25.772 359.582 26.492C360.014 27.188 360.23 27.956 360.23 28.796V36.068C360.23 36.932 360.014 37.724 359.582 38.444C359.174 39.14 358.61 39.704 357.89 40.136C357.17 40.544 356.378 40.748 355.514 40.748L338.198 40.784V50H334.31ZM339.098 36.824H355.442C355.682 36.824 355.886 36.74 356.054 36.572C356.222 36.404 356.306 36.2 356.306 35.96V28.904C356.306 28.664 356.222 28.46 356.054 28.292C355.886 28.1 355.682 28.004 355.442 28.004H339.098C338.858 28.004 338.642 28.1 338.45 28.292C338.282 28.46 338.198 28.664 338.198 28.904V35.96C338.198 36.2 338.282 36.404 338.45 36.572C338.642 36.74 338.858 36.824 339.098 36.824ZM386.339 50V27.968H375.323V24.08H401.243V27.968H390.227V50H386.339ZM405.087 50V24.08H428.847V27.968H409.011V35.096H424.959V38.984H409.011V46.112H428.847V50H405.087ZM433.297 50V49.28L443.593 37.04L433.297 24.8V24.08H437.797L446.149 33.98L454.465 24.08H458.965V24.8L448.669 37.04L459.001 49.28V50H454.465L446.113 40.1L437.797 50H433.297ZM473.672 50V27.968H462.656V24.08H488.576V27.968H477.56V50H473.672ZM503.798 53.924V20.192H507.686V53.924H503.798ZM528.779 50C527.915 50 527.123 49.796 526.403 49.388C525.707 48.956 525.143 48.392 524.711 47.696C524.303 46.976 524.099 46.184 524.099 45.32V28.76C524.099 27.896 524.303 27.116 524.711 26.42C525.143 25.7 525.707 25.136 526.403 24.728C527.123 24.296 527.915 24.08 528.779 24.08H545.339C546.179 24.08 546.959 24.296 547.679 24.728C548.399 25.136 548.963 25.7 549.371 26.42C549.803 27.116 550.019 27.896 550.019 28.76V45.32C550.019 46.184 549.803 46.976 549.371 47.696C548.963 48.392 548.399 48.956 547.679 49.388C546.959 49.796 546.179 50 545.339 50H528.779ZM528.887 46.112H545.231C545.471 46.112 545.675 46.028 545.843 45.86C546.011 45.668 546.095 45.452 546.095 45.212V28.868C546.095 28.628 546.011 28.424 545.843 28.256C545.675 28.064 545.471 27.968 545.231 27.968H528.887C528.647 27.968 528.431 28.064 528.239 28.256C528.071 28.424 527.987 28.628 527.987 28.868V45.212C527.987 45.452 528.071 45.668 528.239 45.86C528.431 46.028 528.647 46.112 528.887 46.112ZM576.303 50L568.203 40.316H573.279L580.839 49.28V50H576.303ZM555.063 50V24.116H576.267C577.131 24.116 577.923 24.332 578.643 24.764C579.363 25.196 579.927 25.772 580.335 26.492C580.767 27.188 580.983 27.956 580.983 28.796V36.068C580.983 36.932 580.767 37.724 580.335 38.444C579.927 39.14 579.363 39.704 578.643 40.136C577.923 40.544 577.131 40.748 576.267 40.748L558.951 40.784V50H555.063ZM559.851 36.824H576.195C576.435 36.824 576.639 36.74 576.807 36.572C576.975 36.404 577.059 36.2 577.059 35.96V28.904C577.059 28.664 576.975 28.46 576.807 28.292C576.639 28.1 576.435 28.004 576.195 28.004H559.851C559.611 28.004 559.395 28.1 559.203 28.292C559.035 28.46 558.951 28.664 558.951 28.904V35.96C558.951 36.2 559.035 36.404 559.203 36.572C559.395 36.74 559.611 36.824 559.851 36.824ZM585.958 50V24.08H606.118C606.958 24.08 607.738 24.296 608.458 24.728C609.178 25.136 609.742 25.7 610.15 26.42C610.582 27.116 610.798 27.896 610.798 28.76V34.052C610.798 34.364 610.762 34.676 610.69 34.988C610.642 35.3 610.546 35.588 610.402 35.852C610.882 36.524 611.242 37.16 611.482 37.76C611.746 38.336 611.878 38.924 611.878 39.524V45.32C611.878 46.184 611.662 46.976 611.23 47.696C610.822 48.392 610.258 48.956 609.538 49.388C608.818 49.796 608.026 50 607.162 50H585.958ZM590.746 46.112H607.09C607.33 46.112 607.534 46.028 607.702 45.86C607.87 45.668 607.954 45.452 607.954 45.212V39.632C607.954 39.392 607.87 39.188 607.702 39.02C607.534 38.828 607.33 38.732 607.09 38.732H590.746C590.506 38.732 590.29 38.828 590.098 39.02C589.93 39.188 589.846 39.392 589.846 39.632V45.212C589.846 45.452 589.93 45.668 590.098 45.86C590.29 46.028 590.506 46.112 590.746 46.112ZM590.746 34.844H606.01C606.25 34.844 606.454 34.76 606.622 34.592C606.79 34.4 606.874 34.184 606.874 33.944V28.868C606.874 28.628 606.79 28.424 606.622 28.256C606.454 28.064 606.25 27.968 606.01 27.968H590.746C590.506 27.968 590.29 28.064 590.098 28.256C589.93 28.424 589.846 28.628 589.846 28.868V33.944C589.846 34.184 589.93 34.4 590.098 34.592C590.29 34.76 590.506 34.844 590.746 34.844ZM616.775 50V24.08H620.663V50H616.775ZM635.629 50V27.968H624.613V24.08H650.533V27.968H639.517V50H635.629ZM675.545 50L667.445 40.316H672.521L680.081 49.28V50H675.545ZM654.305 50V24.116H675.509C676.373 24.116 677.165 24.332 677.885 24.764C678.605 25.196 679.169 25.772 679.577 26.492C680.009 27.188 680.225 27.956 680.225 28.796V36.068C680.225 36.932 680.009 37.724 679.577 38.444C679.169 39.14 678.605 39.704 677.885 40.136C677.165 40.544 676.373 40.748 675.509 40.748L658.193 40.784V50H654.305ZM659.093 36.824H675.437C675.677 36.824 675.881 36.74 676.049 36.572C676.217 36.404 676.301 36.2 676.301 35.96V28.904C676.301 28.664 676.217 28.46 676.049 28.292C675.881 28.1 675.677 28.004 675.437 28.004H659.093C658.853 28.004 658.637 28.1 658.445 28.292C658.277 28.46 658.193 28.664 658.193 28.904V35.96C658.193 36.2 658.277 36.404 658.445 36.572C658.637 36.74 658.853 36.824 659.093 36.824ZM689.7 50C688.836 50 688.044 49.796 687.324 49.388C686.628 48.956 686.064 48.392 685.632 47.696C685.224 46.976 685.02 46.184 685.02 45.32V28.76C685.02 27.896 685.224 27.116 685.632 26.42C686.064 25.7 686.628 25.136 687.324 24.728C688.044 24.296 688.836 24.08 689.7 24.08H706.26C707.1 24.08 707.88 24.296 708.6 24.728C709.32 25.136 709.884 25.7 710.292 26.42C710.724 27.116 710.94 27.896 710.94 28.76V45.32C710.94 46.184 710.724 46.976 710.292 47.696C709.884 48.392 709.32 48.956 708.6 49.388C707.88 49.796 707.1 50 706.26 50H689.7ZM689.808 46.112H706.152C706.392 46.112 706.596 46.028 706.764 45.86C706.932 45.668 707.016 45.452 707.016 45.212V28.868C707.016 28.628 706.932 28.424 706.764 28.256C706.596 28.064 706.392 27.968 706.152 27.968H689.808C689.568 27.968 689.352 28.064 689.16 28.256C688.992 28.424 688.908 28.628 688.908 28.868V45.212C688.908 45.452 688.992 45.668 689.16 45.86C689.352 46.028 689.568 46.112 689.808 46.112ZM715.985 50V24.08H720.629L737.981 44.744V24.08H741.905V50H737.261L719.873 29.3V50H715.985ZM746.946 54.752V46.256H750.834V50.144C750.834 50.888 750.666 51.56 750.33 52.16C749.994 52.784 749.526 53.324 748.926 53.78C748.35 54.236 747.69 54.56 746.946 54.752ZM771.821 50C770.933 50 770.141 49.784 769.445 49.352C768.749 48.92 768.185 48.356 767.753 47.66C767.321 46.964 767.105 46.184 767.105 45.32V44.24H771.029V45.212C771.029 45.452 771.113 45.668 771.281 45.86C771.449 46.028 771.653 46.112 771.893 46.112H788.273C788.513 46.112 788.717 46.028 788.885 45.86C789.053 45.668 789.137 45.452 789.137 45.212V39.668C789.137 39.428 789.053 39.224 788.885 39.056C788.717 38.864 788.513 38.768 788.273 38.768H771.821V34.88H787.157C787.421 34.88 787.637 34.796 787.805 34.628C787.973 34.436 788.057 34.22 788.057 33.98V28.868C788.057 28.628 787.973 28.424 787.805 28.256C787.637 28.064 787.421 27.968 787.157 27.968H771.893C771.653 27.968 771.449 28.064 771.281 28.256C771.113 28.424 771.029 28.628 771.029 28.868V30.2H767.105V28.76C767.105 27.872 767.309 27.08 767.717 26.384C768.149 25.688 768.725 25.124 769.445 24.692C770.165 24.26 770.957 24.044 771.821 24.044H787.265C788.153 24.044 788.945 24.26 789.641 24.692C790.361 25.124 790.925 25.688 791.333 26.384C791.741 27.08 791.945 27.872 791.945 28.76V34.088C791.945 34.4 791.909 34.712 791.837 35.024C791.789 35.336 791.705 35.624 791.585 35.888C792.113 36.416 792.485 37.004 792.701 37.652C792.917 38.3 793.025 38.936 793.025 39.56V45.32C793.025 46.184 792.809 46.964 792.377 47.66C791.969 48.356 791.405 48.92 790.685 49.352C789.989 49.784 789.221 50 788.381 50H771.821ZM802.751 50C801.887 50 801.095 49.784 800.375 49.352C799.679 48.92 799.115 48.356 798.683 47.66C798.275 46.964 798.071 46.184 798.071 45.32V28.76C798.071 27.872 798.275 27.08 798.683 26.384C799.115 25.688 799.679 25.124 800.375 24.692C801.095 24.26 801.887 24.044 802.751 24.044H819.671V27.968H802.859C802.619 27.968 802.403 28.064 802.211 28.256C802.043 28.424 801.959 28.628 801.959 28.868V33.8C801.959 34.04 802.043 34.256 802.211 34.448C802.403 34.616 802.619 34.7 802.859 34.7H819.311C820.151 34.7 820.919 34.916 821.615 35.348C822.335 35.756 822.911 36.32 823.343 37.04C823.775 37.736 823.991 38.516 823.991 39.38V45.32C823.991 46.184 823.775 46.964 823.343 47.66C822.911 48.356 822.335 48.92 821.615 49.352C820.919 49.784 820.151 50 819.311 50H802.751ZM802.859 46.112H819.203C819.443 46.112 819.647 46.028 819.815 45.86C820.007 45.668 820.103 45.452 820.103 45.212V39.488C820.103 39.248 820.007 39.044 819.815 38.876C819.647 38.684 819.443 38.588 819.203 38.588H801.959V45.212C801.959 45.452 802.043 45.668 802.211 45.86C802.403 46.028 802.619 46.112 802.859 46.112ZM828.646 50V24.116H849.85C850.714 24.116 851.506 24.332 852.226 24.764C852.946 25.196 853.51 25.772 853.918 26.492C854.35 27.188 854.566 27.956 854.566 28.796V36.068C854.566 36.932 854.35 37.724 853.918 38.444C853.51 39.14 852.946 39.704 852.226 40.136C851.506 40.544 850.714 40.748 849.85 40.748L832.534 40.784V50H828.646ZM833.434 36.824H849.778C850.018 36.824 850.222 36.74 850.39 36.572C850.558 36.404 850.642 36.2 850.642 35.96V28.904C850.642 28.664 850.558 28.46 850.39 28.292C850.222 28.1 850.018 28.004 849.778 28.004H833.434C833.194 28.004 832.978 28.1 832.786 28.292C832.618 28.46 832.534 28.664 832.534 28.904V35.96C832.534 36.2 832.618 36.404 832.786 36.572C832.978 36.74 833.194 36.824 833.434 36.824ZM867.923 50V27.968H856.907V24.08H882.827V27.968H871.811V50H867.923Z" fill="#A6F6FF"/>
</g>
<defs>
<filter id="filter0_dd_35_399" x="0.123993" y="0.192017" width="902.703" height="74.5599" filterUnits="userSpaceOnUse" color-interpolation-filters="sRGB">
<feFlood flood-opacity="0" result="BackgroundImageFix"/>
<feColorMatrix in="SourceAlpha" type="matrix" values="0 0 0 0 0 0 0 0 0 0 0 0 0 0 0 0 0 0 127 0" result="hardAlpha"/>
<feOffset/>
<feGaussianBlur stdDeviation="10"/>
<feComposite in2="hardAlpha" operator="out"/>
<feColorMatrix type="matrix" values="0 0 0 0 0 0 0 0 0 0.94 0 0 0 0 1 0 0 0 1 0"/>
<feBlend mode="normal" in2="BackgroundImageFix" result="effect1_dropShadow_35_399"/>
<feColorMatrix in="SourceAlpha" type="matrix" values="0 0 0 0 0 0 0 0 0 0 0 0 0 0 0 0 0 0 127 0" result="hardAlpha"/>
<feOffset/>
<feGaussianBlur stdDeviation="1"/>
<feComposite in2="hardAlpha" operator="out"/>
<feColorMatrix type="matrix" values="0 0 0 0 0.108333 0 0 0 0 1 0 0 0 0 0.893 0 0 0 1 0"/>
<feBlend mode="normal" in2="effect1_dropShadow_35_399" result="effect2_dropShadow_35_399"/>
<feBlend mode="normal" in="SourceGraphic" in2="effect2_dropShadow_35_399" result="shape"/>
</filter>
</defs>
</svg>
