<svg width="981" height="35" viewBox="0 0 981 35" fill="none" xmlns="http://www.w3.org/2000/svg">
<path d="M0.0880001 30V4.08H21.292C22.156 4.08 22.948 4.296 23.668 4.728C24.388 5.136 24.952 5.7 25.36 6.42C25.792 7.116 26.008 7.896 26.008 8.76V25.32C26.008 26.184 25.792 26.976 25.36 27.696C24.952 28.392 24.388 28.956 23.668 29.388C22.948 29.796 22.156 30 21.292 30H0.0880001ZM4.84 26.112H21.22C21.46 26.112 21.664 26.028 21.832 25.86C22 25.668 22.084 25.452 22.084 25.212V8.868C22.084 8.628 22 8.424 21.832 8.256C21.664 8.064 21.46 7.968 21.22 7.968H4.84C4.6 7.968 4.396 8.064 4.228 8.256C4.06 8.424 3.976 8.628 3.976 8.868V25.212C3.976 25.452 4.06 25.668 4.228 25.86C4.396 26.028 4.6 26.112 4.84 26.112ZM31.1914 30V8.76C31.1914 7.896 31.3954 7.116 31.8034 6.42C32.2354 5.7 32.7994 5.136 33.4954 4.728C34.2154 4.296 35.0074 4.08 35.8714 4.08H52.3954C53.2594 4.08 54.0514 4.296 54.7714 4.728C55.4914 5.136 56.0554 5.7 56.4634 6.42C56.8954 7.116 57.1114 7.896 57.1114 8.76V30H53.1874V20.928H35.0794V30H31.1914ZM35.0794 17.04H53.1874V8.868C53.1874 8.628 53.1034 8.424 52.9354 8.256C52.7674 8.064 52.5634 7.968 52.3234 7.968H35.9794C35.7394 7.968 35.5234 8.064 35.3314 8.256C35.1634 8.424 35.0794 8.628 35.0794 8.868V17.04ZM72.0132 30V7.968H60.9972V4.08H86.9172V7.968H75.9012V30H72.0132ZM90.7616 30V8.76C90.7616 7.896 90.9656 7.116 91.3736 6.42C91.8056 5.7 92.3696 5.136 93.0656 4.728C93.7856 4.296 94.5776 4.08 95.4416 4.08H111.966C112.83 4.08 113.622 4.296 114.342 4.728C115.062 5.136 115.626 5.7 116.034 6.42C116.466 7.116 116.682 7.896 116.682 8.76V30H112.758V20.928H94.6496V30H90.7616ZM94.6496 17.04H112.758V8.868C112.758 8.628 112.674 8.424 112.506 8.256C112.338 8.064 112.134 7.968 111.894 7.968H95.5496C95.3096 7.968 95.0936 8.064 94.9016 8.256C94.7336 8.424 94.6496 8.628 94.6496 8.868V17.04ZM143.105 30V7.968H132.089V4.08H158.009V7.968H146.993V30H143.105ZM161.853 30V4.08H185.613V7.968H165.777V15.096H181.725V18.984H165.777V26.112H185.613V30H161.853ZM190.064 30V29.28L200.36 17.04L190.064 4.8V4.08H194.564L202.916 13.98L211.232 4.08H215.732V4.8L205.436 17.04L215.768 29.28V30H211.232L202.88 20.1L194.564 30H190.064ZM230.438 30V7.968H219.422V4.08H245.342V7.968H234.326V30H230.438ZM260.564 33.924V0.191998H264.452V33.924H260.564ZM285.545 30C284.681 30 283.889 29.796 283.169 29.388C282.473 28.956 281.909 28.392 281.477 27.696C281.069 26.976 280.865 26.184 280.865 25.32V8.76C280.865 7.896 281.069 7.116 281.477 6.42C281.909 5.7 282.473 5.136 283.169 4.728C283.889 4.296 284.681 4.08 285.545 4.08H302.105C302.945 4.08 303.725 4.296 304.445 4.728C305.165 5.136 305.729 5.7 306.137 6.42C306.569 7.116 306.785 7.896 306.785 8.76V25.32C306.785 26.184 306.569 26.976 306.137 27.696C305.729 28.392 305.165 28.956 304.445 29.388C303.725 29.796 302.945 30 302.105 30H285.545ZM285.653 26.112H301.997C302.237 26.112 302.441 26.028 302.609 25.86C302.777 25.668 302.861 25.452 302.861 25.212V8.868C302.861 8.628 302.777 8.424 302.609 8.256C302.441 8.064 302.237 7.968 301.997 7.968H285.653C285.413 7.968 285.197 8.064 285.005 8.256C284.837 8.424 284.753 8.628 284.753 8.868V25.212C284.753 25.452 284.837 25.668 285.005 25.86C285.197 26.028 285.413 26.112 285.653 26.112ZM333.069 30L324.969 20.316H330.045L337.605 29.28V30H333.069ZM311.829 30V4.116H333.033C333.897 4.116 334.689 4.332 335.409 4.764C336.129 5.196 336.693 5.772 337.101 6.492C337.533 7.188 337.749 7.956 337.749 8.796V16.068C337.749 16.932 337.533 17.724 337.101 18.444C336.693 19.14 336.129 19.704 335.409 20.136C334.689 20.544 333.897 20.748 333.033 20.748L315.717 20.784V30H311.829ZM316.617 16.824H332.961C333.201 16.824 333.405 16.74 333.573 16.572C333.741 16.404 333.825 16.2 333.825 15.96V8.904C333.825 8.664 333.741 8.46 333.573 8.292C333.405 8.1 333.201 8.004 332.961 8.004H316.617C316.377 8.004 316.161 8.1 315.969 8.292C315.801 8.46 315.717 8.664 315.717 8.904V15.96C315.717 16.2 315.801 16.404 315.969 16.572C316.161 16.74 316.377 16.824 316.617 16.824ZM342.508 30V4.08H346.396V30H342.508ZM361.362 30V7.968H350.346V4.08H376.266V7.968H365.25V30H361.362ZM401.278 30L393.178 20.316H398.254L405.814 29.28V30H401.278ZM380.038 30V4.116H401.242C402.106 4.116 402.898 4.332 403.618 4.764C404.338 5.196 404.902 5.772 405.31 6.492C405.742 7.188 405.958 7.956 405.958 8.796V16.068C405.958 16.932 405.742 17.724 405.31 18.444C404.902 19.14 404.338 19.704 403.618 20.136C402.898 20.544 402.106 20.748 401.242 20.748L383.926 20.784V30H380.038ZM384.826 16.824H401.17C401.41 16.824 401.614 16.74 401.782 16.572C401.95 16.404 402.034 16.2 402.034 15.96V8.904C402.034 8.664 401.95 8.46 401.782 8.292C401.614 8.1 401.41 8.004 401.17 8.004H384.826C384.586 8.004 384.37 8.1 384.178 8.292C384.01 8.46 383.926 8.664 383.926 8.904V15.96C383.926 16.2 384.01 16.404 384.178 16.572C384.37 16.74 384.586 16.824 384.826 16.824ZM415.433 30C414.569 30 413.777 29.796 413.057 29.388C412.361 28.956 411.797 28.392 411.365 27.696C410.957 26.976 410.753 26.184 410.753 25.32V8.76C410.753 7.896 410.957 7.116 411.365 6.42C411.797 5.7 412.361 5.136 413.057 4.728C413.777 4.296 414.569 4.08 415.433 4.08H431.993C432.833 4.08 433.613 4.296 434.333 4.728C435.053 5.136 435.617 5.7 436.025 6.42C436.457 7.116 436.673 7.896 436.673 8.76V25.32C436.673 26.184 436.457 26.976 436.025 27.696C435.617 28.392 435.053 28.956 434.333 29.388C433.613 29.796 432.833 30 431.993 30H415.433ZM415.541 26.112H431.885C432.125 26.112 432.329 26.028 432.497 25.86C432.665 25.668 432.749 25.452 432.749 25.212V8.868C432.749 8.628 432.665 8.424 432.497 8.256C432.329 8.064 432.125 7.968 431.885 7.968H415.541C415.301 7.968 415.085 8.064 414.893 8.256C414.725 8.424 414.641 8.628 414.641 8.868V25.212C414.641 25.452 414.725 25.668 414.893 25.86C415.085 26.028 415.301 26.112 415.541 26.112ZM441.718 30V4.08H446.362L463.714 24.744V4.08H467.638V30H462.994L445.606 9.3V30H441.718ZM472.679 34.752V26.256H476.567V30.144C476.567 30.888 476.399 31.56 476.063 32.16C475.727 32.784 475.259 33.324 474.659 33.78C474.083 34.236 473.423 34.56 472.679 34.752ZM497.554 30C496.666 30 495.874 29.784 495.178 29.352C494.482 28.92 493.918 28.356 493.486 27.66C493.054 26.964 492.838 26.184 492.838 25.32V24.24H496.762V25.212C496.762 25.452 496.846 25.668 497.014 25.86C497.182 26.028 497.386 26.112 497.626 26.112H514.006C514.246 26.112 514.45 26.028 514.618 25.86C514.786 25.668 514.87 25.452 514.87 25.212V19.668C514.87 19.428 514.786 19.224 514.618 19.056C514.45 18.864 514.246 18.768 514.006 18.768H497.554V14.88H512.89C513.154 14.88 513.37 14.796 513.538 14.628C513.706 14.436 513.79 14.22 513.79 13.98V8.868C513.79 8.628 513.706 8.424 513.538 8.256C513.37 8.064 513.154 7.968 512.89 7.968H497.626C497.386 7.968 497.182 8.064 497.014 8.256C496.846 8.424 496.762 8.628 496.762 8.868V10.2H492.838V8.76C492.838 7.872 493.042 7.08 493.45 6.384C493.882 5.688 494.458 5.124 495.178 4.692C495.898 4.26 496.69 4.044 497.554 4.044H512.998C513.886 4.044 514.678 4.26 515.374 4.692C516.094 5.124 516.658 5.688 517.066 6.384C517.474 7.08 517.678 7.872 517.678 8.76V14.088C517.678 14.4 517.642 14.712 517.57 15.024C517.522 15.336 517.438 15.624 517.318 15.888C517.846 16.416 518.218 17.004 518.434 17.652C518.65 18.3 518.758 18.936 518.758 19.56V25.32C518.758 26.184 518.542 26.964 518.11 27.66C517.702 28.356 517.138 28.92 516.418 29.352C515.722 29.784 514.954 30 514.114 30H497.554ZM528.484 30C527.62 30 526.828 29.784 526.108 29.352C525.412 28.92 524.848 28.356 524.416 27.66C524.008 26.964 523.804 26.184 523.804 25.32V8.76C523.804 7.872 524.008 7.08 524.416 6.384C524.848 5.688 525.412 5.124 526.108 4.692C526.828 4.26 527.62 4.044 528.484 4.044H545.404V7.968H528.592C528.352 7.968 528.136 8.064 527.944 8.256C527.776 8.424 527.692 8.628 527.692 8.868V13.8C527.692 14.04 527.776 14.256 527.944 14.448C528.136 14.616 528.352 14.7 528.592 14.7H545.044C545.884 14.7 546.652 14.916 547.348 15.348C548.068 15.756 548.644 16.32 549.076 17.04C549.508 17.736 549.724 18.516 549.724 19.38V25.32C549.724 26.184 549.508 26.964 549.076 27.66C548.644 28.356 548.068 28.92 547.348 29.352C546.652 29.784 545.884 30 545.044 30H528.484ZM528.592 26.112H544.936C545.176 26.112 545.38 26.028 545.548 25.86C545.74 25.668 545.836 25.452 545.836 25.212V19.488C545.836 19.248 545.74 19.044 545.548 18.876C545.38 18.684 545.176 18.588 544.936 18.588H527.692V25.212C527.692 25.452 527.776 25.668 527.944 25.86C528.136 26.028 528.352 26.112 528.592 26.112ZM554.379 30V4.116H575.583C576.447 4.116 577.239 4.332 577.959 4.764C578.679 5.196 579.243 5.772 579.651 6.492C580.083 7.188 580.299 7.956 580.299 8.796V16.068C580.299 16.932 580.083 17.724 579.651 18.444C579.243 19.14 578.679 19.704 577.959 20.136C577.239 20.544 576.447 20.748 575.583 20.748L558.267 20.784V30H554.379ZM559.167 16.824H575.511C575.751 16.824 575.955 16.74 576.123 16.572C576.291 16.404 576.375 16.2 576.375 15.96V8.904C576.375 8.664 576.291 8.46 576.123 8.292C575.955 8.1 575.751 8.004 575.511 8.004H559.167C558.927 8.004 558.711 8.1 558.519 8.292C558.351 8.46 558.267 8.664 558.267 8.904V15.96C558.267 16.2 558.351 16.404 558.519 16.572C558.711 16.74 558.927 16.824 559.167 16.824ZM593.656 30V7.968H582.64V4.08H608.56V7.968H597.544V30H593.656ZM612.26 34.752V26.256H616.148V30.144C616.148 30.888 615.98 31.56 615.644 32.16C615.308 32.784 614.84 33.324 614.24 33.78C613.664 34.236 613.004 34.56 612.26 34.752ZM632.528 30V4.08H637.172L647.216 16.032L657.224 4.08H661.904V30H657.98V9.3L647.216 22.116L636.416 9.3V30H632.528ZM667.078 30V4.08H690.838V7.968H671.002V15.096H686.95V18.984H671.002V26.112H690.838V30H667.078ZM695.721 30V4.08H716.925C717.789 4.08 718.581 4.296 719.301 4.728C720.021 5.136 720.585 5.7 720.993 6.42C721.425 7.116 721.641 7.896 721.641 8.76V25.32C721.641 26.184 721.425 26.976 720.993 27.696C720.585 28.392 720.021 28.956 719.301 29.388C718.581 29.796 717.789 30 716.925 30H695.721ZM700.473 26.112H716.853C717.093 26.112 717.297 26.028 717.465 25.86C717.633 25.668 717.717 25.452 717.717 25.212V8.868C717.717 8.628 717.633 8.424 717.465 8.256C717.297 8.064 717.093 7.968 716.853 7.968H700.473C700.233 7.968 700.029 8.064 699.861 8.256C699.693 8.424 699.609 8.628 699.609 8.868V25.212C699.609 25.452 699.693 25.668 699.861 25.86C700.029 26.028 700.233 26.112 700.473 26.112ZM726.644 30V4.08H730.532V30H726.644ZM740.139 30C739.275 30 738.483 29.796 737.763 29.388C737.067 28.956 736.503 28.392 736.071 27.696C735.663 26.976 735.459 26.184 735.459 25.32V4.08H739.347V25.212C739.347 25.452 739.431 25.668 739.599 25.86C739.791 26.028 740.007 26.112 740.247 26.112H756.591C756.831 26.112 757.035 26.028 757.203 25.86C757.371 25.668 757.455 25.452 757.455 25.212V4.08H761.379V25.32C761.379 26.184 761.163 26.976 760.731 27.696C760.323 28.392 759.759 28.956 759.039 29.388C758.319 29.796 757.539 30 756.699 30H740.139ZM766.424 30V4.08H771.068L781.112 16.032L791.12 4.08H795.8V30H791.876V9.3L781.112 22.116L770.312 9.3V30H766.424ZM821.1 30L811.668 4.08H815.808L822.684 22.944L829.56 4.08H833.664L840.576 22.944L847.416 4.08H851.592L842.16 30H838.956L831.612 9.84L824.268 30H821.1ZM856.009 30V4.08H879.769V7.968H859.933V15.096H875.881V18.984H859.933V26.112H879.769V30H856.009ZM884.472 30V4.08H888.36V30H884.472ZM898.039 30C897.175 30 896.383 29.796 895.663 29.388C894.967 28.956 894.403 28.392 893.971 27.696C893.563 26.976 893.359 26.184 893.359 25.32V8.76C893.359 7.896 893.563 7.116 893.971 6.42C894.403 5.7 894.967 5.136 895.663 4.728C896.383 4.296 897.175 4.08 898.039 4.08H914.563C915.427 4.08 916.219 4.296 916.939 4.728C917.659 5.136 918.223 5.7 918.631 6.42C919.063 7.116 919.279 7.896 919.279 8.76V10.308H915.355V8.868C915.355 8.628 915.271 8.424 915.103 8.256C914.935 8.064 914.731 7.968 914.491 7.968H898.147C897.907 7.968 897.691 8.064 897.499 8.256C897.331 8.424 897.247 8.628 897.247 8.868V25.212C897.247 25.452 897.331 25.668 897.499 25.86C897.691 26.028 897.907 26.112 898.147 26.112H914.491C914.731 26.112 914.935 26.028 915.103 25.86C915.271 25.668 915.355 25.452 915.355 25.212V19.704H909.235V15.78H919.279V25.32C919.279 26.184 919.063 26.976 918.631 27.696C918.223 28.392 917.659 28.956 916.939 29.388C916.219 29.796 915.427 30 914.563 30H898.039ZM924.358 30V4.08H928.246V15.096H946.966V4.08H950.89V30H946.966V18.984H928.246V30H924.358ZM965.743 30V7.968H954.727V4.08H980.647V7.968H969.631V30H965.743Z" fill="white"/>
</svg>
