<svg width="1372" height="44" viewBox="0 0 1372 44" fill="none" xmlns="http://www.w3.org/2000/svg">
<path d="M0.769063 44V0.799998H36.7691C38.0891 0.799998 39.2891 1.12 40.3691 1.76C41.4891 2.4 42.3691 3.28 43.0091 4.4C43.6491 5.48 43.9691 6.68 43.9691 8V36.8C43.9691 38.12 43.6491 39.34 43.0091 40.46C42.3691 41.54 41.4891 42.4 40.3691 43.04C39.2891 43.68 38.0891 44 36.7691 44H0.769063ZM7.96906 39.14H36.7691C37.4091 39.14 37.9491 38.92 38.3891 38.48C38.8691 38 39.1091 37.44 39.1091 36.8V8C39.1091 7.36 38.8691 6.82 38.3891 6.38C37.9491 5.9 37.4091 5.66 36.7691 5.66H7.96906C7.32906 5.66 6.76906 5.9 6.28906 6.38C5.84906 6.82 5.62906 7.36 5.62906 8V36.8C5.62906 37.44 5.84906 38 6.28906 38.48C6.76906 38.92 7.32906 39.14 7.96906 39.14ZM57.7681 44C56.4481 44 55.2281 43.68 54.1081 43.04C53.0281 42.4 52.1681 41.54 51.5281 40.46C50.8881 39.34 50.5681 38.12 50.5681 36.8V0.799998H55.4281V36.8C55.4281 37.44 55.6481 38 56.0881 38.48C56.5681 38.92 57.1281 39.14 57.7681 39.14H86.5681C87.2081 39.14 87.7481 38.92 88.1881 38.48C88.6681 38 88.9081 37.44 88.9081 36.8V0.799998H93.7681V36.8C93.7681 38.12 93.4481 39.34 92.8081 40.46C92.1681 41.54 91.2881 42.4 90.1681 43.04C89.0881 43.68 87.8881 44 86.5681 44H57.7681ZM100.556 44V0.799998H134.696C136.016 0.799998 137.216 1.12 138.296 1.76C139.416 2.4 140.296 3.28 140.936 4.4C141.576 5.48 141.896 6.68 141.896 8V17.18C141.896 17.74 141.816 18.3 141.656 18.86C141.536 19.38 141.356 19.88 141.116 20.36C141.996 21.68 142.656 22.82 143.096 23.78C143.536 24.74 143.756 25.72 143.756 26.72V36.8C143.756 38.12 143.436 39.34 142.796 40.46C142.156 41.54 141.276 42.4 140.156 43.04C139.076 43.68 137.876 44 136.556 44H100.556ZM107.756 39.14H136.556C137.196 39.14 137.736 38.92 138.176 38.48C138.656 38 138.896 37.44 138.896 36.8V26.72C138.896 26.08 138.656 25.54 138.176 25.1C137.736 24.62 137.196 24.38 136.556 24.38H107.756C107.116 24.38 106.556 24.62 106.076 25.1C105.636 25.54 105.416 26.08 105.416 26.72V36.8C105.416 37.44 105.636 38 106.076 38.48C106.556 38.92 107.116 39.14 107.756 39.14ZM107.756 19.52H134.696C135.336 19.52 135.876 19.3 136.316 18.86C136.756 18.38 136.976 17.82 136.976 17.18V8C136.976 7.36 136.756 6.82 136.316 6.38C135.876 5.9 135.336 5.66 134.696 5.66H107.756C107.116 5.66 106.556 5.9 106.076 6.38C105.636 6.82 105.416 7.36 105.416 8V17.18C105.416 17.82 105.636 18.38 106.076 18.86C106.556 19.3 107.116 19.52 107.756 19.52ZM150.418 44V8C150.418 6.68 150.738 5.48 151.378 4.4C152.018 3.28 152.878 2.4 153.958 1.76C155.078 1.12 156.298 0.799998 157.618 0.799998H186.418C187.738 0.799998 188.938 1.12 190.018 1.76C191.138 2.4 192.018 3.28 192.658 4.4C193.298 5.48 193.618 6.68 193.618 8V44H188.758V28.22H155.278V44H150.418ZM155.278 23.36H188.758V8C188.758 7.36 188.518 6.82 188.038 6.38C187.598 5.9 187.058 5.66 186.418 5.66H157.618C156.978 5.66 156.418 5.9 155.938 6.38C155.498 6.82 155.278 7.36 155.278 8V23.36ZM201.054 44V0.799998H205.974V44H201.054ZM229.633 44V0.799998H236.293L254.233 22.16L272.173 0.799998H278.833V44H273.973V6.32L254.233 29.78L234.493 6.32V44H229.633ZM292.378 44C291.058 44 289.838 43.68 288.718 43.04C287.638 42.4 286.778 41.54 286.138 40.46C285.498 39.34 285.178 38.12 285.178 36.8V0.799998H290.038V36.8C290.038 37.44 290.258 38 290.698 38.48C291.178 38.92 291.738 39.14 292.378 39.14H321.178C321.818 39.14 322.358 38.92 322.798 38.48C323.278 38 323.518 37.44 323.518 36.8V0.799998H328.378V36.8C328.378 38.12 328.058 39.34 327.418 40.46C326.778 41.54 325.898 42.4 324.778 43.04C323.698 43.68 322.498 44 321.178 44H292.378ZM334.985 44V0.799998H341.645L373.325 38.48V0.799998H378.185V44H371.525L339.845 6.32V44H334.985ZM392.107 44C390.787 44 389.567 43.68 388.447 43.04C387.367 42.4 386.507 41.54 385.867 40.46C385.227 39.34 384.907 38.12 384.907 36.8V8C384.907 6.68 385.227 5.48 385.867 4.4C386.507 3.28 387.367 2.4 388.447 1.76C389.567 1.12 390.787 0.799998 392.107 0.799998H427.987V5.66H392.107C391.467 5.66 390.907 5.9 390.427 6.38C389.987 6.82 389.767 7.36 389.767 8V36.8C389.767 37.44 389.987 38 390.427 38.48C390.907 38.92 391.467 39.14 392.107 39.14H427.987V44H392.107ZM434.843 44V0.799998H439.763V44H434.843ZM447.075 44V0.859998H483.075C484.395 0.859998 485.595 1.2 486.675 1.88C487.795 2.52 488.675 3.38 489.315 4.46C489.955 5.54 490.275 6.74 490.275 8.06V20.72C490.275 22.04 489.955 23.24 489.315 24.32C488.675 25.4 487.795 26.28 486.675 26.96C485.595 27.6 484.395 27.92 483.075 27.92H451.935V44H447.075ZM454.275 23H483.075C483.715 23 484.255 22.78 484.695 22.34C485.175 21.9 485.415 21.36 485.415 20.72V8.06C485.415 7.42 485.175 6.88 484.695 6.44C484.255 5.96 483.715 5.72 483.075 5.72H454.275C453.635 5.72 453.075 5.96 452.595 6.44C452.155 6.88 451.935 7.42 451.935 8.06V20.72C451.935 21.36 452.155 21.9 452.595 22.34C453.075 22.78 453.635 23 454.275 23ZM495.242 44V8C495.242 6.68 495.562 5.48 496.202 4.4C496.842 3.28 497.702 2.4 498.782 1.76C499.902 1.12 501.122 0.799998 502.442 0.799998H531.242C532.562 0.799998 533.762 1.12 534.842 1.76C535.962 2.4 536.842 3.28 537.482 4.4C538.122 5.48 538.442 6.68 538.442 8V44H533.582V28.22H500.102V44H495.242ZM500.102 23.36H533.582V8C533.582 7.36 533.342 6.82 532.862 6.38C532.422 5.9 531.882 5.66 531.242 5.66H502.442C501.802 5.66 501.242 5.9 500.762 6.38C500.322 6.82 500.102 7.36 500.102 8V23.36ZM545.338 44V0.739999H550.198V39.14H588.538V44H545.338ZM592.636 44V0.799998H597.556V44H592.636ZM621.908 44V5.66H602.708V0.799998H645.908V5.66H626.768V44H621.908ZM668.815 44V27.74L648.955 0.799998H654.535L671.275 21.92L687.835 0.799998H693.535L673.675 27.74V44H668.815ZM722.283 44C720.963 44 719.743 43.68 718.623 43.04C717.543 42.4 716.683 41.54 716.043 40.46C715.403 39.34 715.083 38.12 715.083 36.8V8C715.083 6.68 715.403 5.48 716.043 4.4C716.683 3.28 717.543 2.4 718.623 1.76C719.743 1.12 720.963 0.799998 722.283 0.799998H758.163V5.66H722.283C721.643 5.66 721.083 5.9 720.603 6.38C720.163 6.82 719.943 7.36 719.943 8V36.8C719.943 37.44 720.163 38 720.603 38.48C721.083 38.92 721.643 39.14 722.283 39.14H758.163V44H722.283ZM771.499 44C770.179 44 768.959 43.68 767.839 43.04C766.759 42.4 765.899 41.54 765.259 40.46C764.619 39.34 764.299 38.12 764.299 36.8V8C764.299 6.68 764.619 5.48 765.259 4.4C765.899 3.28 766.759 2.4 767.839 1.76C768.959 1.12 770.179 0.799998 771.499 0.799998H800.299C801.619 0.799998 802.819 1.12 803.899 1.76C805.019 2.4 805.899 3.28 806.539 4.4C807.179 5.48 807.499 6.68 807.499 8V36.8C807.499 38.12 807.179 39.34 806.539 40.46C805.899 41.54 805.019 42.4 803.899 43.04C802.819 43.68 801.619 44 800.299 44H771.499ZM771.499 39.14H800.299C800.939 39.14 801.479 38.92 801.919 38.48C802.399 38 802.639 37.44 802.639 36.8V8C802.639 7.36 802.399 6.82 801.919 6.38C801.479 5.9 800.939 5.66 800.299 5.66H771.499C770.859 5.66 770.299 5.9 769.819 6.38C769.379 6.82 769.159 7.36 769.159 8V36.8C769.159 37.44 769.379 38 769.819 38.48C770.299 38.92 770.859 39.14 771.499 39.14ZM814.106 44V0.799998H820.766L838.706 22.16L856.646 0.799998H863.306V44H858.446V6.32L838.706 29.78L818.966 6.32V44H814.106ZM869.77 44V0.799998H876.43L894.37 22.16L912.31 0.799998H918.97V44H914.11V6.32L894.37 29.78L874.63 6.32V44H869.77ZM925.554 44V8C925.554 6.68 925.874 5.48 926.514 4.4C927.154 3.28 928.014 2.4 929.094 1.76C930.214 1.12 931.434 0.799998 932.754 0.799998H961.554C962.874 0.799998 964.074 1.12 965.154 1.76C966.274 2.4 967.154 3.28 967.794 4.4C968.434 5.48 968.754 6.68 968.754 8V44H963.894V28.22H930.414V44H925.554ZM930.414 23.36H963.894V8C963.894 7.36 963.654 6.82 963.174 6.38C962.734 5.9 962.194 5.66 961.554 5.66H932.754C932.114 5.66 931.554 5.9 931.074 6.38C930.634 6.82 930.414 7.36 930.414 8V23.36ZM975.59 44V0.799998H982.25L1013.93 38.48V0.799998H1018.79V44H1012.13L980.45 6.32V44H975.59ZM1025.63 44V0.799998H1061.63C1062.95 0.799998 1064.15 1.12 1065.23 1.76C1066.35 2.4 1067.23 3.28 1067.87 4.4C1068.51 5.48 1068.83 6.68 1068.83 8V36.8C1068.83 38.12 1068.51 39.34 1067.87 40.46C1067.23 41.54 1066.35 42.4 1065.23 43.04C1064.15 43.68 1062.95 44 1061.63 44H1025.63ZM1032.83 39.14H1061.63C1062.27 39.14 1062.81 38.92 1063.25 38.48C1063.73 38 1063.97 37.44 1063.97 36.8V8C1063.97 7.36 1063.73 6.82 1063.25 6.38C1062.81 5.9 1062.27 5.66 1061.63 5.66H1032.83C1032.19 5.66 1031.63 5.9 1031.15 6.38C1030.71 6.82 1030.49 7.36 1030.49 8V36.8C1030.49 37.44 1030.71 38 1031.15 38.48C1031.63 38.92 1032.19 39.14 1032.83 39.14ZM1099.1 44C1097.78 44 1096.56 43.68 1095.44 43.04C1094.36 42.4 1093.5 41.54 1092.86 40.46C1092.22 39.34 1091.9 38.12 1091.9 36.8V8C1091.9 6.68 1092.22 5.48 1092.86 4.4C1093.5 3.28 1094.36 2.4 1095.44 1.76C1096.56 1.12 1097.78 0.799998 1099.1 0.799998H1134.98V5.66H1099.1C1098.46 5.66 1097.9 5.9 1097.42 6.38C1096.98 6.82 1096.76 7.36 1096.76 8V36.8C1096.76 37.44 1096.98 38 1097.42 38.48C1097.9 38.92 1098.46 39.14 1099.1 39.14H1134.98V44H1099.1ZM1141.36 44V0.799998H1180.78V5.66H1146.22V19.94H1174V24.86H1146.22V39.14H1180.78V44H1141.36ZM1187.17 44V0.799998H1193.83L1225.51 38.48V0.799998H1230.37V44H1223.71L1192.03 6.32V44H1187.17ZM1254.13 44V5.66H1234.93V0.799998H1278.13V5.66H1258.99V44H1254.13ZM1282.74 44V0.799998H1322.16V5.66H1287.6V19.94H1315.38V24.86H1287.6V39.14H1322.16V44H1282.74ZM1365.04 44L1350.94 27.2H1357.3L1371.46 43.94V44H1365.04ZM1328.56 44V0.859998H1364.56C1365.88 0.859998 1367.08 1.2 1368.16 1.88C1369.28 2.52 1370.16 3.38 1370.8 4.46C1371.44 5.54 1371.76 6.74 1371.76 8.06V20.72C1371.76 22.04 1371.44 23.24 1370.8 24.32C1370.16 25.4 1369.28 26.28 1368.16 26.96C1367.08 27.6 1365.88 27.92 1364.56 27.92H1333.42V44H1328.56ZM1335.76 23H1364.56C1365.2 23 1365.74 22.78 1366.18 22.34C1366.66 21.9 1366.9 21.36 1366.9 20.72V8.06C1366.9 7.42 1366.66 6.88 1366.18 6.44C1365.74 5.96 1365.2 5.72 1364.56 5.72H1335.76C1335.12 5.72 1334.56 5.96 1334.08 6.44C1333.64 6.88 1333.42 7.42 1333.42 8.06V20.72C1333.42 21.36 1333.64 21.9 1334.08 22.34C1334.56 22.78 1335.12 23 1335.76 23Z" fill="white"/>
</svg>
