<svg width="510" height="27" viewBox="0 0 510 27" fill="none" xmlns="http://www.w3.org/2000/svg">
<path d="M1.448 22C1.288 22 1.152 21.944 1.04 21.832C0.928 21.72 0.872 21.584 0.872 21.424V5.8C0.872 5.624 0.928 5.48 1.04 5.368C1.152 5.256 1.288 5.2 1.448 5.2H11.864C12.04 5.2 12.184 5.256 12.296 5.368C12.408 5.48 12.464 5.624 12.464 5.8V7.48C12.464 7.656 12.408 7.8 12.296 7.912C12.184 8.008 12.04 8.056 11.864 8.056H4.16V12.616H11.384C11.56 12.616 11.704 12.672 11.816 12.784C11.928 12.896 11.984 13.04 11.984 13.216V14.896C11.984 15.056 11.928 15.192 11.816 15.304C11.704 15.416 11.56 15.472 11.384 15.472H4.16V21.424C4.16 21.584 4.104 21.72 3.992 21.832C3.88 21.944 3.736 22 3.56 22H1.448ZM15.8621 22C15.7021 22 15.5661 21.944 15.4541 21.832C15.3421 21.72 15.2861 21.584 15.2861 21.424V5.776C15.2861 5.616 15.3421 5.48 15.4541 5.368C15.5661 5.256 15.7021 5.2 15.8621 5.2H18.1181C18.2941 5.2 18.4301 5.256 18.5261 5.368C18.6381 5.48 18.6941 5.616 18.6941 5.776V21.424C18.6941 21.584 18.6381 21.72 18.5261 21.832C18.4301 21.944 18.2941 22 18.1181 22H15.8621ZM23.0339 22C22.8739 22 22.7379 21.944 22.6259 21.832C22.5139 21.72 22.4579 21.584 22.4579 21.424V5.776C22.4579 5.616 22.5139 5.48 22.6259 5.368C22.7379 5.256 22.8739 5.2 23.0339 5.2H25.2659C25.4259 5.2 25.5619 5.256 25.6739 5.368C25.7859 5.48 25.8419 5.616 25.8419 5.776V19.144H33.4499C33.6259 19.144 33.7699 19.2 33.8819 19.312C33.9939 19.424 34.0499 19.568 34.0499 19.744V21.424C34.0499 21.584 33.9939 21.72 33.8819 21.832C33.7699 21.944 33.6259 22 33.4499 22H23.0339ZM37.9331 22C37.7731 22 37.6371 21.944 37.5251 21.832C37.4131 21.72 37.3571 21.584 37.3571 21.424V8.152H32.9171C32.7571 8.152 32.6211 8.096 32.5091 7.984C32.3971 7.872 32.3411 7.736 32.3411 7.576V5.8C32.3411 5.624 32.3971 5.48 32.5091 5.368C32.6211 5.256 32.7571 5.2 32.9171 5.2H45.1571C45.3331 5.2 45.4771 5.256 45.5891 5.368C45.7011 5.48 45.7571 5.624 45.7571 5.8V7.576C45.7571 7.736 45.7011 7.872 45.5891 7.984C45.4771 8.096 45.3331 8.152 45.1571 8.152H40.7411V21.424C40.7411 21.584 40.6851 21.72 40.5731 21.832C40.4611 21.944 40.3171 22 40.1411 22H37.9331ZM48.7683 22C48.6083 22 48.4723 21.944 48.3603 21.832C48.2483 21.72 48.1923 21.584 48.1923 21.424V5.8C48.1923 5.624 48.2483 5.48 48.3603 5.368C48.4723 5.256 48.6083 5.2 48.7683 5.2H59.3283C59.5043 5.2 59.6483 5.256 59.7603 5.368C59.8723 5.48 59.9283 5.624 59.9283 5.8V7.384C59.9283 7.544 59.8723 7.68 59.7603 7.792C59.6483 7.904 59.5043 7.96 59.3283 7.96H51.4323V12.208H58.8003C58.9763 12.208 59.1203 12.264 59.2323 12.376C59.3443 12.472 59.4003 12.608 59.4003 12.784V14.272C59.4003 14.448 59.3443 14.592 59.2323 14.704C59.1203 14.8 58.9763 14.848 58.8003 14.848H51.4323V19.24H59.5203C59.6963 19.24 59.8403 19.296 59.9523 19.408C60.0643 19.52 60.1203 19.664 60.1203 19.84V21.424C60.1203 21.584 60.0643 21.72 59.9523 21.832C59.8403 21.944 59.6963 22 59.5203 22H48.7683ZM63.698 22C63.538 22 63.402 21.944 63.29 21.832C63.178 21.72 63.122 21.584 63.122 21.424V5.8C63.122 5.624 63.178 5.48 63.29 5.368C63.402 5.256 63.538 5.2 63.698 5.2H69.914C71.85 5.2 73.378 5.648 74.498 6.544C75.618 7.44 76.178 8.744 76.178 10.456C76.178 11.64 75.882 12.624 75.29 13.408C74.714 14.192 73.938 14.76 72.962 15.112L76.466 21.232C76.514 21.328 76.538 21.416 76.538 21.496C76.538 21.64 76.482 21.76 76.37 21.856C76.274 21.952 76.162 22 76.034 22H73.85C73.578 22 73.37 21.928 73.226 21.784C73.082 21.64 72.97 21.496 72.89 21.352L69.794 15.664H66.458V21.424C66.458 21.584 66.402 21.72 66.29 21.832C66.194 21.944 66.058 22 65.882 22H63.698ZM66.458 12.952H69.842C70.818 12.952 71.546 12.736 72.026 12.304C72.506 11.856 72.746 11.232 72.746 10.432C72.746 9.632 72.506 9.008 72.026 8.56C71.562 8.096 70.834 7.864 69.842 7.864H66.458V12.952ZM88.4409 22C88.2809 22 88.1449 21.944 88.0329 21.832C87.9209 21.72 87.8649 21.584 87.8649 21.424V8.152H83.4249C83.2649 8.152 83.1289 8.096 83.0169 7.984C82.9049 7.872 82.8489 7.736 82.8489 7.576V5.8C82.8489 5.624 82.9049 5.48 83.0169 5.368C83.1289 5.256 83.2649 5.2 83.4249 5.2H95.6649C95.8409 5.2 95.9849 5.256 96.0969 5.368C96.2089 5.48 96.2649 5.624 96.2649 5.8V7.576C96.2649 7.736 96.2089 7.872 96.0969 7.984C95.9849 8.096 95.8409 8.152 95.6649 8.152H91.2489V21.424C91.2489 21.584 91.1929 21.72 91.0809 21.832C90.9689 21.944 90.8249 22 90.6489 22H88.4409ZM99.2761 22C99.1161 22 98.9801 21.944 98.8681 21.832C98.7561 21.72 98.7001 21.584 98.7001 21.424V5.8C98.7001 5.624 98.7561 5.48 98.8681 5.368C98.9801 5.256 99.1161 5.2 99.2761 5.2H109.836C110.012 5.2 110.156 5.256 110.268 5.368C110.38 5.48 110.436 5.624 110.436 5.8V7.384C110.436 7.544 110.38 7.68 110.268 7.792C110.156 7.904 110.012 7.96 109.836 7.96H101.94V12.208H109.308C109.484 12.208 109.628 12.264 109.74 12.376C109.852 12.472 109.908 12.608 109.908 12.784V14.272C109.908 14.448 109.852 14.592 109.74 14.704C109.628 14.8 109.484 14.848 109.308 14.848H101.94V19.24H110.028C110.204 19.24 110.348 19.296 110.46 19.408C110.572 19.52 110.628 19.664 110.628 19.84V21.424C110.628 21.584 110.572 21.72 110.46 21.832C110.348 21.944 110.204 22 110.028 22H99.2761ZM112.694 22C112.55 22 112.43 21.952 112.334 21.856C112.238 21.76 112.19 21.64 112.19 21.496C112.19 21.448 112.198 21.4 112.214 21.352C112.23 21.304 112.246 21.256 112.262 21.208L117.638 13.432L112.598 5.992C112.55 5.896 112.526 5.8 112.526 5.704C112.526 5.56 112.574 5.44 112.67 5.344C112.766 5.248 112.878 5.2 113.006 5.2H115.478C115.67 5.2 115.822 5.248 115.934 5.344C116.046 5.44 116.142 5.544 116.222 5.656L119.75 10.84L123.302 5.656C123.366 5.544 123.454 5.44 123.566 5.344C123.694 5.248 123.854 5.2 124.046 5.2H126.374C126.518 5.2 126.638 5.248 126.734 5.344C126.83 5.44 126.878 5.56 126.878 5.704C126.878 5.8 126.846 5.896 126.782 5.992L121.766 13.432L127.142 21.208C127.174 21.256 127.198 21.304 127.214 21.352C127.23 21.4 127.238 21.448 127.238 21.496C127.238 21.64 127.182 21.76 127.07 21.856C126.974 21.952 126.862 22 126.734 22H124.19C123.998 22 123.846 21.952 123.734 21.856C123.622 21.76 123.534 21.664 123.47 21.568L119.63 16.144L115.862 21.568C115.798 21.664 115.71 21.76 115.598 21.856C115.486 21.952 115.326 22 115.118 22H112.694ZM133.792 22C133.632 22 133.496 21.944 133.384 21.832C133.272 21.72 133.216 21.584 133.216 21.424V8.152H128.776C128.616 8.152 128.48 8.096 128.368 7.984C128.256 7.872 128.2 7.736 128.2 7.576V5.8C128.2 5.624 128.256 5.48 128.368 5.368C128.48 5.256 128.616 5.2 128.776 5.2H141.016C141.192 5.2 141.336 5.256 141.448 5.368C141.56 5.48 141.616 5.624 141.616 5.8V7.576C141.616 7.736 141.56 7.872 141.448 7.984C141.336 8.096 141.192 8.152 141.016 8.152H136.6V21.424C136.6 21.584 136.544 21.72 136.432 21.832C136.32 21.944 136.176 22 136 22H133.792ZM154.771 26.992C154.611 26.992 154.475 26.936 154.363 26.824C154.251 26.712 154.195 26.576 154.195 26.416V1.072C154.195 0.911999 154.251 0.775999 154.363 0.663999C154.475 0.551999 154.611 0.495999 154.771 0.495999H156.331C156.491 0.495999 156.627 0.551999 156.739 0.663999C156.851 0.775999 156.907 0.911999 156.907 1.072V26.416C156.907 26.576 156.851 26.712 156.739 26.824C156.627 26.936 156.491 26.992 156.331 26.992H154.771ZM166.471 22C166.311 22 166.175 21.944 166.063 21.832C165.951 21.72 165.895 21.584 165.895 21.424V5.8C165.895 5.624 165.951 5.48 166.063 5.368C166.175 5.256 166.311 5.2 166.471 5.2H172.687C174.623 5.2 176.151 5.648 177.271 6.544C178.391 7.44 178.951 8.744 178.951 10.456C178.951 11.64 178.655 12.624 178.063 13.408C177.487 14.192 176.711 14.76 175.735 15.112L179.239 21.232C179.287 21.328 179.311 21.416 179.311 21.496C179.311 21.64 179.255 21.76 179.143 21.856C179.047 21.952 178.935 22 178.807 22H176.623C176.351 22 176.143 21.928 175.999 21.784C175.855 21.64 175.743 21.496 175.663 21.352L172.567 15.664H169.231V21.424C169.231 21.584 169.175 21.72 169.063 21.832C168.967 21.944 168.831 22 168.655 22H166.471ZM169.231 12.952H172.615C173.591 12.952 174.319 12.736 174.799 12.304C175.279 11.856 175.519 11.232 175.519 10.432C175.519 9.632 175.279 9.008 174.799 8.56C174.335 8.096 173.607 7.864 172.615 7.864H169.231V12.952ZM188.74 22.24C187.348 22.24 186.14 22.008 185.116 21.544C184.092 21.064 183.3 20.336 182.74 19.36C182.18 18.368 181.9 17.104 181.9 15.568V5.8C181.9 5.624 181.956 5.48 182.068 5.368C182.18 5.256 182.316 5.2 182.476 5.2H184.66C184.836 5.2 184.972 5.256 185.068 5.368C185.18 5.48 185.236 5.624 185.236 5.8V15.568C185.236 16.88 185.548 17.856 186.172 18.496C186.796 19.12 187.652 19.432 188.74 19.432C189.828 19.432 190.676 19.12 191.284 18.496C191.908 17.856 192.22 16.88 192.22 15.568V5.8C192.22 5.624 192.276 5.48 192.388 5.368C192.5 5.256 192.644 5.2 192.82 5.2H194.98C195.156 5.2 195.292 5.256 195.388 5.368C195.5 5.48 195.556 5.624 195.556 5.8V15.568C195.556 17.104 195.276 18.368 194.716 19.36C194.172 20.336 193.388 21.064 192.364 21.544C191.356 22.008 190.148 22.24 188.74 22.24ZM199.729 22C199.569 22 199.433 21.944 199.321 21.832C199.209 21.72 199.153 21.584 199.153 21.424V5.8C199.153 5.624 199.209 5.48 199.321 5.368C199.433 5.256 199.569 5.2 199.729 5.2H206.689C207.985 5.2 209.041 5.4 209.857 5.8C210.673 6.184 211.273 6.72 211.657 7.408C212.057 8.096 212.257 8.896 212.257 9.808C212.257 10.416 212.145 10.952 211.921 11.416C211.713 11.864 211.449 12.232 211.129 12.52C210.825 12.808 210.521 13.032 210.217 13.192C210.841 13.48 211.393 13.96 211.873 14.632C212.353 15.304 212.593 16.104 212.593 17.032C212.593 17.992 212.377 18.848 211.945 19.6C211.513 20.352 210.873 20.944 210.025 21.376C209.177 21.792 208.129 22 206.881 22H199.729ZM202.489 19.456H206.497C207.361 19.456 208.017 19.224 208.465 18.76C208.913 18.28 209.137 17.704 209.137 17.032C209.137 16.328 208.905 15.744 208.441 15.28C207.993 14.816 207.345 14.584 206.497 14.584H202.489V19.456ZM202.489 12.088H206.257C207.105 12.088 207.737 11.888 208.153 11.488C208.585 11.072 208.801 10.536 208.801 9.88C208.801 9.208 208.585 8.688 208.153 8.32C207.737 7.936 207.105 7.744 206.257 7.744H202.489V12.088ZM216.182 22C216.022 22 215.886 21.944 215.774 21.832C215.662 21.72 215.606 21.584 215.606 21.424V5.776C215.606 5.616 215.662 5.48 215.774 5.368C215.886 5.256 216.022 5.2 216.182 5.2H218.438C218.614 5.2 218.75 5.256 218.846 5.368C218.958 5.48 219.014 5.616 219.014 5.776V21.424C219.014 21.584 218.958 21.72 218.846 21.832C218.75 21.944 218.614 22 218.438 22H216.182ZM223.354 22C223.194 22 223.058 21.944 222.946 21.832C222.834 21.72 222.778 21.584 222.778 21.424V5.8C222.778 5.624 222.834 5.48 222.946 5.368C223.058 5.256 223.194 5.2 223.354 5.2H225.466C225.642 5.2 225.786 5.256 225.898 5.368C226.01 5.48 226.066 5.624 226.066 5.8V11.416L231.49 5.632C231.554 5.552 231.658 5.464 231.802 5.368C231.962 5.256 232.17 5.2 232.426 5.2H234.802C234.93 5.2 235.042 5.248 235.138 5.344C235.25 5.44 235.306 5.56 235.306 5.704C235.306 5.816 235.274 5.912 235.21 5.992L228.61 13.24L235.666 21.184C235.746 21.28 235.786 21.384 235.786 21.496C235.786 21.64 235.73 21.76 235.618 21.856C235.522 21.952 235.41 22 235.282 22H232.81C232.538 22 232.322 21.944 232.162 21.832C232.018 21.704 231.922 21.616 231.874 21.568L226.066 15.208V21.424C226.066 21.584 226.01 21.72 225.898 21.832C225.786 21.944 225.642 22 225.466 22H223.354ZM237.51 23.8C237.366 23.8 237.254 23.752 237.174 23.656C237.094 23.56 237.062 23.44 237.078 23.296L237.726 19.216C237.758 19.008 237.83 18.832 237.942 18.688C238.07 18.528 238.254 18.448 238.494 18.448H240.702C240.83 18.448 240.934 18.496 241.014 18.592C241.094 18.672 241.134 18.776 241.134 18.904C241.134 19.016 241.11 19.12 241.062 19.216L239.526 23.2C239.462 23.36 239.366 23.496 239.238 23.608C239.126 23.736 238.958 23.8 238.734 23.8H237.51ZM249.539 22C249.379 22 249.243 21.944 249.131 21.832C249.019 21.72 248.963 21.584 248.963 21.424V20.2C248.963 20.056 248.995 19.888 249.059 19.696C249.139 19.488 249.307 19.28 249.563 19.072L253.355 15.304C254.411 14.472 255.259 13.768 255.899 13.192C256.555 12.6 257.027 12.064 257.315 11.584C257.619 11.088 257.771 10.6 257.771 10.12C257.771 9.4 257.571 8.816 257.171 8.368C256.787 7.92 256.171 7.696 255.323 7.696C254.763 7.696 254.291 7.816 253.907 8.056C253.523 8.28 253.219 8.584 252.995 8.968C252.787 9.352 252.643 9.776 252.563 10.24C252.531 10.448 252.443 10.592 252.299 10.672C252.155 10.752 252.011 10.792 251.867 10.792H249.731C249.587 10.792 249.467 10.744 249.371 10.648C249.275 10.552 249.227 10.44 249.227 10.312C249.243 9.624 249.387 8.96 249.659 8.32C249.931 7.664 250.323 7.088 250.835 6.592C251.363 6.08 252.003 5.672 252.755 5.368C253.507 5.064 254.355 4.912 255.299 4.912C256.627 4.912 257.723 5.136 258.587 5.584C259.467 6.032 260.123 6.64 260.555 7.408C261.003 8.176 261.227 9.04 261.227 10C261.227 10.752 261.083 11.448 260.795 12.088C260.507 12.712 260.091 13.32 259.547 13.912C259.003 14.488 258.347 15.08 257.579 15.688L254.171 19.144H261.011C261.187 19.144 261.323 19.2 261.419 19.312C261.531 19.408 261.587 19.544 261.587 19.72V21.424C261.587 21.584 261.531 21.72 261.419 21.832C261.323 21.944 261.187 22 261.011 22H249.539ZM272.058 22C271.898 22 271.762 21.944 271.65 21.832C271.538 21.72 271.482 21.584 271.482 21.424V18.352H263.874C263.698 18.352 263.554 18.296 263.442 18.184C263.346 18.072 263.298 17.936 263.298 17.776V16.144C263.298 16.048 263.314 15.936 263.346 15.808C263.394 15.664 263.466 15.536 263.562 15.424L270.642 5.608C270.85 5.336 271.146 5.2 271.53 5.2H274.146C274.306 5.2 274.442 5.256 274.554 5.368C274.666 5.48 274.722 5.616 274.722 5.776V15.52H276.858C277.05 15.52 277.194 15.576 277.29 15.688C277.402 15.784 277.458 15.92 277.458 16.096V17.776C277.458 17.936 277.402 18.072 277.29 18.184C277.178 18.296 277.042 18.352 276.882 18.352H274.722V21.424C274.722 21.584 274.666 21.72 274.554 21.832C274.442 21.944 274.306 22 274.146 22H272.058ZM266.634 15.616H271.554V8.68L266.634 15.616ZM280.682 22C280.522 22 280.386 21.944 280.274 21.832C280.162 21.72 280.106 21.584 280.106 21.424V5.8C280.106 5.624 280.162 5.48 280.274 5.368C280.386 5.256 280.522 5.2 280.682 5.2H287.114C288.362 5.2 289.45 5.4 290.378 5.8C291.306 6.184 292.026 6.776 292.538 7.576C293.05 8.36 293.306 9.344 293.306 10.528C293.306 11.728 293.05 12.72 292.538 13.504C292.026 14.272 291.306 14.848 290.378 15.232C289.45 15.616 288.362 15.808 287.114 15.808H283.538V21.424C283.538 21.584 283.482 21.72 283.37 21.832C283.274 21.944 283.138 22 282.962 22H280.682ZM283.49 13.144H286.994C287.922 13.144 288.634 12.928 289.13 12.496C289.626 12.048 289.874 11.392 289.874 10.528C289.874 9.728 289.642 9.088 289.178 8.608C288.714 8.112 287.986 7.864 286.994 7.864H283.49V13.144ZM300.199 22C300.039 22 299.903 21.944 299.791 21.832C299.679 21.72 299.623 21.584 299.623 21.424V8.152H295.183C295.023 8.152 294.887 8.096 294.775 7.984C294.663 7.872 294.607 7.736 294.607 7.576V5.8C294.607 5.624 294.663 5.48 294.775 5.368C294.887 5.256 295.023 5.2 295.183 5.2H307.423C307.599 5.2 307.743 5.256 307.855 5.368C307.967 5.48 308.023 5.624 308.023 5.8V7.576C308.023 7.736 307.967 7.872 307.855 7.984C307.743 8.096 307.599 8.152 307.423 8.152H303.007V21.424C303.007 21.584 302.951 21.72 302.839 21.832C302.727 21.944 302.583 22 302.407 22H300.199ZM308.503 23.8C308.359 23.8 308.247 23.752 308.167 23.656C308.087 23.56 308.055 23.44 308.071 23.296L308.719 19.216C308.751 19.008 308.823 18.832 308.935 18.688C309.063 18.528 309.247 18.448 309.487 18.448H311.695C311.823 18.448 311.927 18.496 312.007 18.592C312.087 18.672 312.127 18.776 312.127 18.904C312.127 19.016 312.103 19.12 312.055 19.216L310.519 23.2C310.455 23.36 310.359 23.496 310.23 23.608C310.118 23.736 309.951 23.8 309.727 23.8H308.503ZM321.347 22C321.171 22 321.027 21.944 320.915 21.832C320.803 21.72 320.747 21.584 320.747 21.424V5.8C320.747 5.624 320.803 5.48 320.915 5.368C321.027 5.256 321.171 5.2 321.347 5.2H323.243C323.467 5.2 323.635 5.264 323.747 5.392C323.859 5.504 323.931 5.592 323.963 5.656L328.595 14.296L333.275 5.656C333.307 5.592 333.379 5.504 333.491 5.392C333.603 5.264 333.771 5.2 333.995 5.2H335.867C336.043 5.2 336.187 5.256 336.299 5.368C336.411 5.48 336.467 5.624 336.467 5.8V21.424C336.467 21.584 336.411 21.72 336.299 21.832C336.187 21.944 336.043 22 335.867 22H333.851C333.675 22 333.531 21.944 333.419 21.832C333.323 21.72 333.275 21.584 333.275 21.424V11.032L329.915 17.44C329.835 17.584 329.731 17.712 329.603 17.824C329.475 17.92 329.307 17.968 329.099 17.968H328.115C327.891 17.968 327.715 17.92 327.587 17.824C327.475 17.712 327.379 17.584 327.299 17.44L323.939 11.032V21.424C323.939 21.584 323.883 21.72 323.771 21.832C323.659 21.944 323.523 22 323.363 22H321.347ZM340.776 22C340.616 22 340.48 21.944 340.368 21.832C340.256 21.72 340.2 21.584 340.2 21.424V5.8C340.2 5.624 340.256 5.48 340.368 5.368C340.48 5.256 340.616 5.2 340.776 5.2H351.336C351.512 5.2 351.656 5.256 351.768 5.368C351.88 5.48 351.936 5.624 351.936 5.8V7.384C351.936 7.544 351.88 7.68 351.768 7.792C351.656 7.904 351.512 7.96 351.336 7.96H343.44V12.208H350.808C350.984 12.208 351.128 12.264 351.24 12.376C351.352 12.472 351.408 12.608 351.408 12.784V14.272C351.408 14.448 351.352 14.592 351.24 14.704C351.128 14.8 350.984 14.848 350.808 14.848H343.44V19.24H351.528C351.704 19.24 351.848 19.296 351.96 19.408C352.072 19.52 352.128 19.664 352.128 19.84V21.424C352.128 21.584 352.072 21.72 351.96 21.832C351.848 21.944 351.704 22 351.528 22H340.776ZM355.706 22C355.546 22 355.41 21.944 355.298 21.832C355.186 21.72 355.13 21.584 355.13 21.424V5.8C355.13 5.624 355.186 5.48 355.298 5.368C355.41 5.256 355.546 5.2 355.706 5.2H361.562C363.178 5.2 364.506 5.448 365.546 5.944C366.602 6.44 367.394 7.176 367.922 8.152C368.466 9.128 368.746 10.32 368.762 11.728C368.794 12.432 368.81 13.056 368.81 13.6C368.81 14.144 368.794 14.76 368.762 15.448C368.73 16.936 368.458 18.168 367.946 19.144C367.434 20.104 366.658 20.824 365.618 21.304C364.594 21.768 363.282 22 361.682 22H355.706ZM358.466 19.24H361.562C362.458 19.24 363.186 19.112 363.746 18.856C364.306 18.6 364.714 18.192 364.97 17.632C365.242 17.056 365.386 16.304 365.402 15.376C365.418 14.896 365.426 14.48 365.426 14.128C365.442 13.76 365.442 13.4 365.426 13.048C365.426 12.68 365.418 12.264 365.402 11.8C365.37 10.488 365.042 9.52 364.418 8.896C363.794 8.272 362.802 7.96 361.442 7.96H358.466V19.24ZM372.581 22C372.421 22 372.285 21.944 372.173 21.832C372.061 21.72 372.005 21.584 372.005 21.424V5.776C372.005 5.616 372.061 5.48 372.173 5.368C372.285 5.256 372.421 5.2 372.581 5.2H374.837C375.013 5.2 375.149 5.256 375.245 5.368C375.357 5.48 375.413 5.616 375.413 5.776V21.424C375.413 21.584 375.357 21.72 375.245 21.832C375.149 21.944 375.013 22 374.837 22H372.581ZM385.873 22.24C384.481 22.24 383.273 22.008 382.249 21.544C381.225 21.064 380.433 20.336 379.873 19.36C379.313 18.368 379.033 17.104 379.033 15.568V5.8C379.033 5.624 379.089 5.48 379.201 5.368C379.313 5.256 379.449 5.2 379.609 5.2H381.793C381.969 5.2 382.105 5.256 382.201 5.368C382.313 5.48 382.369 5.624 382.369 5.8V15.568C382.369 16.88 382.681 17.856 383.305 18.496C383.929 19.12 384.785 19.432 385.873 19.432C386.961 19.432 387.809 19.12 388.417 18.496C389.041 17.856 389.353 16.88 389.353 15.568V5.8C389.353 5.624 389.409 5.48 389.521 5.368C389.633 5.256 389.777 5.2 389.953 5.2H392.113C392.289 5.2 392.425 5.256 392.521 5.368C392.633 5.48 392.689 5.624 392.689 5.8V15.568C392.689 17.104 392.409 18.368 391.849 19.36C391.305 20.336 390.521 21.064 389.497 21.544C388.489 22.008 387.281 22.24 385.873 22.24ZM396.886 22C396.71 22 396.566 21.944 396.454 21.832C396.342 21.72 396.286 21.584 396.286 21.424V5.8C396.286 5.624 396.342 5.48 396.454 5.368C396.566 5.256 396.71 5.2 396.886 5.2H398.782C399.006 5.2 399.174 5.264 399.286 5.392C399.398 5.504 399.47 5.592 399.502 5.656L404.134 14.296L408.814 5.656C408.846 5.592 408.918 5.504 409.03 5.392C409.142 5.264 409.31 5.2 409.534 5.2H411.406C411.582 5.2 411.726 5.256 411.838 5.368C411.95 5.48 412.006 5.624 412.006 5.8V21.424C412.006 21.584 411.95 21.72 411.838 21.832C411.726 21.944 411.582 22 411.406 22H409.39C409.214 22 409.07 21.944 408.958 21.832C408.862 21.72 408.814 21.584 408.814 21.424V11.032L405.454 17.44C405.374 17.584 405.27 17.712 405.142 17.824C405.014 17.92 404.846 17.968 404.638 17.968H403.654C403.43 17.968 403.254 17.92 403.126 17.824C403.014 17.712 402.918 17.584 402.838 17.44L399.478 11.032V21.424C399.478 21.584 399.422 21.72 399.31 21.832C399.198 21.944 399.062 22 398.902 22H396.886ZM423.702 22C423.462 22 423.27 21.936 423.126 21.808C422.998 21.664 422.91 21.488 422.862 21.28L420.006 5.896C420.006 5.848 419.998 5.808 419.982 5.776C419.982 5.744 419.982 5.72 419.982 5.704C419.982 5.56 420.03 5.44 420.126 5.344C420.238 5.248 420.358 5.2 420.486 5.2H422.598C422.998 5.2 423.222 5.36 423.27 5.68L425.262 16.552L427.422 9.52C427.47 9.392 427.55 9.264 427.662 9.136C427.79 8.992 427.974 8.92 428.214 8.92H429.51C429.766 8.92 429.95 8.992 430.062 9.136C430.174 9.264 430.246 9.392 430.278 9.52L432.462 16.528L434.454 5.68C434.502 5.36 434.726 5.2 435.126 5.2H437.238C437.366 5.2 437.478 5.248 437.574 5.344C437.67 5.44 437.718 5.56 437.718 5.704C437.718 5.72 437.718 5.744 437.718 5.776C437.718 5.808 437.71 5.848 437.694 5.896L434.838 21.28C434.806 21.488 434.718 21.664 434.574 21.808C434.43 21.936 434.238 22 433.998 22H432.39C432.15 22 431.958 21.936 431.814 21.808C431.686 21.68 431.598 21.544 431.55 21.4L428.862 13.384L426.174 21.4C426.11 21.544 426.014 21.68 425.886 21.808C425.758 21.936 425.566 22 425.31 22H423.702ZM441.112 22C440.952 22 440.816 21.944 440.704 21.832C440.592 21.72 440.536 21.584 440.536 21.424V5.8C440.536 5.624 440.592 5.48 440.704 5.368C440.816 5.256 440.952 5.2 441.112 5.2H451.672C451.848 5.2 451.992 5.256 452.104 5.368C452.216 5.48 452.272 5.624 452.272 5.8V7.384C452.272 7.544 452.216 7.68 452.104 7.792C451.992 7.904 451.848 7.96 451.672 7.96H443.776V12.208H451.144C451.32 12.208 451.464 12.264 451.576 12.376C451.688 12.472 451.744 12.608 451.744 12.784V14.272C451.744 14.448 451.688 14.592 451.576 14.704C451.464 14.8 451.32 14.848 451.144 14.848H443.776V19.24H451.864C452.04 19.24 452.184 19.296 452.296 19.408C452.408 19.52 452.464 19.664 452.464 19.84V21.424C452.464 21.584 452.408 21.72 452.296 21.832C452.184 21.944 452.04 22 451.864 22H441.112ZM456.042 22C455.882 22 455.746 21.944 455.634 21.832C455.522 21.72 455.466 21.584 455.466 21.424V5.776C455.466 5.616 455.522 5.48 455.634 5.368C455.746 5.256 455.882 5.2 456.042 5.2H458.298C458.474 5.2 458.61 5.256 458.706 5.368C458.818 5.48 458.874 5.616 458.874 5.776V21.424C458.874 21.584 458.818 21.72 458.706 21.832C458.61 21.944 458.474 22 458.298 22H456.042ZM469.166 22.24C467.694 22.24 466.438 21.984 465.398 21.472C464.374 20.96 463.574 20.224 462.998 19.264C462.438 18.288 462.134 17.128 462.086 15.784C462.07 15.096 462.062 14.36 462.062 13.576C462.062 12.776 462.07 12.024 462.086 11.32C462.134 9.992 462.438 8.856 462.998 7.912C463.574 6.968 464.382 6.24 465.422 5.728C466.478 5.216 467.726 4.96 469.166 4.96C470.334 4.96 471.358 5.12 472.238 5.44C473.118 5.744 473.846 6.144 474.422 6.64C475.014 7.12 475.454 7.64 475.742 8.2C476.046 8.76 476.206 9.28 476.222 9.76C476.238 9.904 476.198 10.024 476.102 10.12C476.006 10.216 475.878 10.264 475.718 10.264H473.246C473.086 10.264 472.966 10.232 472.886 10.168C472.806 10.104 472.734 10.008 472.67 9.88C472.542 9.544 472.342 9.216 472.07 8.896C471.798 8.56 471.43 8.28 470.966 8.056C470.502 7.832 469.902 7.72 469.166 7.72C468.078 7.72 467.206 8.008 466.55 8.584C465.91 9.16 465.566 10.112 465.518 11.44C465.47 12.832 465.47 14.24 465.518 15.664C465.566 17.024 465.918 18 466.574 18.592C467.246 19.184 468.126 19.48 469.214 19.48C469.934 19.48 470.574 19.352 471.134 19.096C471.71 18.84 472.158 18.44 472.478 17.896C472.814 17.352 472.982 16.656 472.982 15.808V15.064H470.054C469.894 15.064 469.758 15.008 469.646 14.896C469.534 14.784 469.478 14.64 469.478 14.464V13.192C469.478 13.016 469.534 12.872 469.646 12.76C469.758 12.648 469.894 12.592 470.054 12.592H475.79C475.966 12.592 476.102 12.648 476.198 12.76C476.31 12.872 476.366 13.016 476.366 13.192V15.712C476.366 17.056 476.07 18.216 475.478 19.192C474.902 20.168 474.07 20.92 472.982 21.448C471.91 21.976 470.638 22.24 469.166 22.24ZM480.018 22C479.858 22 479.722 21.952 479.61 21.856C479.498 21.744 479.442 21.6 479.442 21.424V5.8C479.442 5.624 479.498 5.48 479.61 5.368C479.722 5.256 479.858 5.2 480.018 5.2H482.202C482.378 5.2 482.514 5.256 482.61 5.368C482.722 5.48 482.778 5.624 482.778 5.8V11.992H489.858V5.8C489.858 5.624 489.914 5.48 490.026 5.368C490.138 5.256 490.274 5.2 490.434 5.2H492.594C492.77 5.2 492.914 5.256 493.026 5.368C493.138 5.48 493.194 5.624 493.194 5.8V21.424C493.194 21.584 493.138 21.72 493.026 21.832C492.914 21.944 492.77 22 492.594 22H490.434C490.274 22 490.138 21.944 490.026 21.832C489.914 21.72 489.858 21.584 489.858 21.424V14.992H482.778V21.424C482.778 21.584 482.722 21.72 482.61 21.832C482.514 21.944 482.378 22 482.202 22H480.018ZM501.199 22C501.039 22 500.903 21.944 500.791 21.832C500.679 21.72 500.623 21.584 500.623 21.424V8.152H496.183C496.023 8.152 495.887 8.096 495.775 7.984C495.663 7.872 495.607 7.736 495.607 7.576V5.8C495.607 5.624 495.663 5.48 495.775 5.368C495.887 5.256 496.023 5.2 496.183 5.2H508.423C508.599 5.2 508.743 5.256 508.855 5.368C508.967 5.48 509.023 5.624 509.023 5.8V7.576C509.023 7.736 508.967 7.872 508.855 7.984C508.743 8.096 508.599 8.152 508.423 8.152H504.007V21.424C504.007 21.584 503.951 21.72 503.839 21.832C503.727 21.944 503.583 22 503.407 22H501.199Z" fill="#0C7FBD"/>
</svg>
