<svg width="352" height="22" viewBox="0 0 352 22" fill="none" xmlns="http://www.w3.org/2000/svg">
<path d="M4.58 22C3.86 22 3.2 21.83 2.6 21.49C2.02 21.13 1.55 20.66 1.19 20.08C0.85 19.48 0.68 18.82 0.68 18.1V4.3C0.68 3.58 0.85 2.93 1.19 2.35C1.55 1.75 2.02 1.28 2.6 0.939999C3.2 0.579999 3.86 0.399999 4.58 0.399999H18.35C19.07 0.399999 19.73 0.579999 20.33 0.939999C20.93 1.28 21.4 1.75 21.74 2.35C22.1 2.93 22.28 3.58 22.28 4.3V5.59H19.01V4.39C19.01 4.19 18.94 4.02 18.8 3.88C18.66 3.72 18.49 3.64 18.29 3.64H4.67C4.47 3.64 4.29 3.72 4.13 3.88C3.99 4.02 3.92 4.19 3.92 4.39V18.01C3.92 18.21 3.99 18.39 4.13 18.55C4.29 18.69 4.47 18.76 4.67 18.76H18.29C18.49 18.76 18.66 18.69 18.8 18.55C18.94 18.39 19.01 18.21 19.01 18.01V13.42H13.91V10.15H22.28V18.1C22.28 18.82 22.1 19.48 21.74 20.08C21.4 20.66 20.93 21.13 20.33 21.49C19.73 21.83 19.07 22 18.35 22H4.58ZM28.9123 22V0.37H32.1523V18.76H50.5123V22H28.9123ZM59.4012 22C58.6812 22 58.0212 21.83 57.4212 21.49C56.8412 21.13 56.3712 20.66 56.0112 20.08C55.6712 19.48 55.5012 18.82 55.5012 18.1V4.3C55.5012 3.58 55.6712 2.93 56.0112 2.35C56.3712 1.75 56.8412 1.28 57.4212 0.939999C58.0212 0.579999 58.6812 0.399999 59.4012 0.399999H73.2013C73.9012 0.399999 74.5512 0.579999 75.1513 0.939999C75.7512 1.28 76.2212 1.75 76.5612 2.35C76.9212 2.93 77.1012 3.58 77.1012 4.3V18.1C77.1012 18.82 76.9212 19.48 76.5612 20.08C76.2212 20.66 75.7512 21.13 75.1513 21.49C74.5512 21.83 73.9012 22 73.2013 22H59.4012ZM59.4912 18.76H73.1112C73.3112 18.76 73.4812 18.69 73.6213 18.55C73.7612 18.39 73.8312 18.21 73.8312 18.01V4.39C73.8312 4.19 73.7612 4.02 73.6213 3.88C73.4812 3.72 73.3112 3.64 73.1112 3.64H59.4912C59.2912 3.64 59.1112 3.72 58.9512 3.88C58.8112 4.02 58.7412 4.19 58.7412 4.39V18.01C58.7412 18.21 58.8112 18.39 58.9512 18.55C59.1112 18.69 59.2912 18.76 59.4912 18.76ZM83.795 22V0.399999H100.595C101.295 0.399999 101.945 0.579999 102.545 0.939999C103.145 1.28 103.615 1.75 103.955 2.35C104.315 2.93 104.495 3.58 104.495 4.3V8.71C104.495 8.97 104.465 9.23 104.405 9.49C104.365 9.75 104.285 9.99 104.165 10.21C104.565 10.77 104.865 11.3 105.065 11.8C105.285 12.28 105.395 12.77 105.395 13.27V18.1C105.395 18.82 105.215 19.48 104.855 20.08C104.515 20.66 104.045 21.13 103.445 21.49C102.845 21.83 102.185 22 101.465 22H83.795ZM87.785 18.76H101.405C101.605 18.76 101.775 18.69 101.915 18.55C102.055 18.39 102.125 18.21 102.125 18.01V13.36C102.125 13.16 102.055 12.99 101.915 12.85C101.775 12.69 101.605 12.61 101.405 12.61H87.785C87.585 12.61 87.405 12.69 87.245 12.85C87.105 12.99 87.035 13.16 87.035 13.36V18.01C87.035 18.21 87.105 18.39 87.245 18.55C87.405 18.69 87.585 18.76 87.785 18.76ZM87.785 9.37H100.505C100.705 9.37 100.875 9.3 101.015 9.16C101.155 9 101.225 8.82 101.225 8.62V4.39C101.225 4.19 101.155 4.02 101.015 3.88C100.875 3.72 100.705 3.64 100.505 3.64H87.785C87.585 3.64 87.405 3.72 87.245 3.88C87.105 4.02 87.035 4.19 87.035 4.39V8.62C87.035 8.82 87.105 9 87.245 9.16C87.405 9.3 87.585 9.37 87.785 9.37ZM112.026 22V4.3C112.026 3.58 112.196 2.93 112.536 2.35C112.896 1.75 113.366 1.28 113.946 0.939999C114.546 0.579999 115.206 0.399999 115.926 0.399999H129.696C130.416 0.399999 131.076 0.579999 131.676 0.939999C132.276 1.28 132.746 1.75 133.086 2.35C133.446 2.93 133.626 3.58 133.626 4.3V22H130.356V14.44H115.266V22H112.026ZM115.266 11.2H130.356V4.39C130.356 4.19 130.286 4.02 130.146 3.88C130.006 3.72 129.836 3.64 129.636 3.64H116.016C115.816 3.64 115.636 3.72 115.476 3.88C115.336 4.02 115.266 4.19 115.266 4.39V11.2ZM140.374 22V0.37H143.614V18.76H161.974V22H140.374ZM190.904 22L178.394 0.399999H182.174L192.524 18.34L202.814 0.399999H206.594L194.114 22H190.904ZM212.322 22V0.399999H215.562V22H212.322ZM222.158 22V0.37H225.398V18.76H243.758V22H222.158ZM248.837 22V0.37H252.077V18.76H270.437V22H248.837ZM275.546 22V4.3C275.546 3.58 275.716 2.93 276.056 2.35C276.416 1.75 276.886 1.28 277.466 0.939999C278.066 0.579999 278.726 0.399999 279.446 0.399999H293.216C293.936 0.399999 294.596 0.579999 295.196 0.939999C295.796 1.28 296.266 1.75 296.606 2.35C296.966 2.93 297.146 3.58 297.146 4.3V22H293.876V14.44H278.786V22H275.546ZM278.786 11.2H293.876V4.39C293.876 4.19 293.806 4.02 293.666 3.88C293.526 3.72 293.356 3.64 293.156 3.64H279.536C279.336 3.64 279.156 3.72 278.996 3.88C278.856 4.02 278.786 4.19 278.786 4.39V11.2ZM307.764 22C307.044 22 306.384 21.83 305.784 21.49C305.204 21.13 304.734 20.66 304.374 20.08C304.034 19.48 303.864 18.82 303.864 18.1V4.3C303.864 3.58 304.034 2.93 304.374 2.35C304.734 1.75 305.204 1.28 305.784 0.939999C306.384 0.579999 307.044 0.399999 307.764 0.399999H321.534C322.254 0.399999 322.914 0.579999 323.514 0.939999C324.114 1.28 324.584 1.75 324.924 2.35C325.284 2.93 325.464 3.58 325.464 4.3V5.59H322.194V4.39C322.194 4.19 322.124 4.02 321.984 3.88C321.844 3.72 321.674 3.64 321.474 3.64H307.854C307.654 3.64 307.474 3.72 307.314 3.88C307.174 4.02 307.104 4.19 307.104 4.39V18.01C307.104 18.21 307.174 18.39 307.314 18.55C307.474 18.69 307.654 18.76 307.854 18.76H321.474C321.674 18.76 321.844 18.69 321.984 18.55C322.124 18.39 322.194 18.21 322.194 18.01V13.42H317.094V10.15H325.464V18.1C325.464 18.82 325.284 19.48 324.924 20.08C324.584 20.66 324.114 21.13 323.514 21.49C322.914 21.83 322.254 22 321.534 22H307.764ZM332.126 22V0.399999H351.926V3.64H335.396V9.58H348.686V12.82H335.396V18.76H351.926V22H332.126Z" fill="#0C7FBD"/>
</svg>
