<svg width="537" height="401" viewBox="0 0 537 401" fill="none" xmlns="http://www.w3.org/2000/svg">
<rect x="266" y="315" width="4" height="66" rx="2" fill="#FE0000"/>
<ellipse opacity="0.5" cx="268" cy="381" rx="60" ry="20" fill="url(#paint0_radial_21_458)"/>
<mask id="path-3-inside-1_21_458" fill="white">
<path fill-rule="evenodd" clip-rule="evenodd" d="M536.511 10C536.511 4.47715 532.034 0 526.511 0H10C4.47715 0 0 4.47715 0 10V306.697C0 312.22 4.47715 316.697 10 316.697H232.165C234.909 316.697 237.532 317.824 239.421 319.815L260.686 342.234C264.629 346.391 271.253 346.391 275.196 342.234L296.462 319.815C298.35 317.824 300.973 316.697 303.717 316.697H526.511C532.034 316.697 536.511 312.22 536.511 306.697V10Z"/>
</mask>
<path fill-rule="evenodd" clip-rule="evenodd" d="M536.511 10C536.511 4.47715 532.034 0 526.511 0H10C4.47715 0 0 4.47715 0 10V306.697C0 312.22 4.47715 316.697 10 316.697H232.165C234.909 316.697 237.532 317.824 239.421 319.815L260.686 342.234C264.629 346.391 271.253 346.391 275.196 342.234L296.462 319.815C298.35 317.824 300.973 316.697 303.717 316.697H526.511C532.034 316.697 536.511 312.22 536.511 306.697V10Z" fill="url(#paint1_linear_21_458)"/>
<path d="M296.462 319.815L295.011 318.439L296.462 319.815ZM260.686 342.234L259.235 343.61L260.686 342.234ZM275.196 342.234L276.647 343.61L275.196 342.234ZM239.421 319.815L240.872 318.439L239.421 319.815ZM10 2H526.511V-2H10V2ZM2 306.697V10H-2V306.697H2ZM232.165 314.697H10V318.697H232.165V314.697ZM262.137 340.857L240.872 318.439L237.97 321.191L259.235 343.61L262.137 340.857ZM295.011 318.439L273.745 340.857L276.647 343.61L297.913 321.191L295.011 318.439ZM526.511 314.697H303.717V318.697H526.511V314.697ZM534.511 10V306.697H538.511V10H534.511ZM526.511 318.697C533.139 318.697 538.511 313.324 538.511 306.697H534.511C534.511 311.115 530.93 314.697 526.511 314.697V318.697ZM297.913 321.191C299.423 319.599 301.522 318.697 303.717 318.697V314.697C300.424 314.697 297.276 316.05 295.011 318.439L297.913 321.191ZM259.235 343.61C263.967 348.599 271.915 348.599 276.647 343.61L273.745 340.857C270.591 344.183 265.292 344.183 262.137 340.857L259.235 343.61ZM232.165 318.697C234.36 318.697 236.459 319.599 237.97 321.191L240.872 318.439C238.606 316.05 235.458 314.697 232.165 314.697V318.697ZM-2 306.697C-2 313.324 3.37258 318.697 10 318.697V314.697C5.58172 314.697 2 311.115 2 306.697H-2ZM526.511 2C530.93 2 534.511 5.58172 534.511 10H538.511C538.511 3.37259 533.139 -2 526.511 -2V2ZM10 -2C3.37258 -2 -2 3.37258 -2 10H2C2 5.58172 5.58172 2 10 2V-2Z" fill="url(#paint2_linear_21_458)" mask="url(#path-3-inside-1_21_458)"/>
<defs>
<radialGradient id="paint0_radial_21_458" cx="0" cy="0" r="1" gradientUnits="userSpaceOnUse" gradientTransform="translate(267.401 380.691) rotate(90) scale(19.6911 59.0733)">
<stop stop-color="#FF0606"/>
<stop offset="1" stop-color="#FF0000" stop-opacity="0"/>
</radialGradient>
<linearGradient id="paint1_linear_21_458" x1="268.256" y1="0" x2="268.256" y2="345.352" gradientUnits="userSpaceOnUse">
<stop stop-color="#1D5C9F"/>
<stop offset="1" stop-color="#0F1E3D"/>
</linearGradient>
<linearGradient id="paint2_linear_21_458" x1="268.256" y1="0" x2="268.256" y2="345.352" gradientUnits="userSpaceOnUse">
<stop stop-color="#06A5FF"/>
<stop offset="1" stop-opacity="0"/>
</linearGradient>
</defs>
</svg>
