<svg width="182" height="75" viewBox="0 0 182 75" fill="none" xmlns="http://www.w3.org/2000/svg">
<path d="M10.68 61C9.32 61 8.08 60.68 6.96 60.04C5.88 59.36 5.02 58.48 4.38 57.4C3.74 56.28 3.42 55.06 3.42 53.74V52H8.34V53.74C8.34 54.38 8.56 54.94 9 55.42C9.48 55.86 10.04 56.08 10.68 56.08H39.78C40.42 56.08 40.96 55.86 41.4 55.42C41.88 54.94 42.12 54.38 42.12 53.74V43.54C42.12 42.9 41.88 42.36 41.4 41.92C40.96 41.44 40.42 41.2 39.78 41.2H3.42V17.74H47.04V22.72H10.68C10.04 22.72 9.48 22.96 9 23.44C8.56 23.88 8.34 24.42 8.34 25.06V33.88C8.34 34.52 8.56 35.08 9 35.56C9.48 36.04 10.04 36.28 10.68 36.28H39.78C41.1 36.28 42.3 36.6 43.38 37.24C44.5 37.88 45.38 38.76 46.02 39.88C46.7 40.96 47.04 42.18 47.04 43.54V53.74C47.04 55.06 46.7 56.28 46.02 57.4C45.38 58.48 44.5 59.36 43.38 60.04C42.3 60.68 41.1 61 39.78 61H10.68ZM60.4847 61C59.1247 61 57.8847 60.68 56.7647 60.04C55.6847 59.36 54.8247 58.48 54.1847 57.4C53.5447 56.28 53.2247 55.06 53.2247 53.74V25.12C53.2247 23.76 53.5447 22.54 54.1847 21.46C54.8247 20.34 55.6847 19.46 56.7647 18.82C57.8847 18.14 59.1247 17.8 60.4847 17.8H89.5847C90.9047 17.8 92.1047 18.14 93.1847 18.82C94.3047 19.46 95.1847 20.34 95.8247 21.46C96.5047 22.54 96.8447 23.76 96.8447 25.12V53.74C96.8447 55.06 96.5047 56.28 95.8247 57.4C95.1847 58.48 94.3047 59.36 93.1847 60.04C92.1047 60.68 90.9047 61 89.5847 61H60.4847ZM58.7447 56.08H89.5847C90.2247 56.08 90.7647 55.86 91.2047 55.42C91.6847 54.94 91.9247 54.38 91.9247 53.74V28.72L58.7447 56.08ZM58.1447 50.14L91.2647 22.78H60.4847C59.8447 22.78 59.2847 23.02 58.8047 23.5C58.3647 23.94 58.1447 24.48 58.1447 25.12V50.14ZM143.099 61C141.779 61 140.559 60.68 139.439 60.04C138.359 59.4 137.499 58.54 136.859 57.46C136.219 56.34 135.899 55.12 135.899 53.8V25C135.899 23.68 136.219 22.48 136.859 21.4C137.499 20.28 138.359 19.4 139.439 18.76C140.559 18.12 141.779 17.8 143.099 17.8H178.979V22.66H143.099C142.459 22.66 141.899 22.9 141.419 23.38C140.979 23.82 140.759 24.36 140.759 25V53.8C140.759 54.44 140.979 55 141.419 55.48C141.899 55.92 142.459 56.14 143.099 56.14H178.979V61H143.099Z" fill="white"/>
<circle cx="104.17" cy="11.1715" r="6.34073" stroke="white" stroke-width="2.41551"/>
</svg>
