<svg width="175" height="175" viewBox="0 0 175 175" fill="none" xmlns="http://www.w3.org/2000/svg">
<g filter="url(#filter0_dd_54_450)">
<path d="M87.5 20C78.6358 20 69.8584 21.7459 61.6689 25.1381C53.4794 28.5303 46.0383 33.5023 39.7703 39.7703C33.5023 46.0382 28.5303 53.4794 25.1381 61.6689C21.7459 69.8583 20 78.6358 20 87.5C20 96.3642 21.7459 105.142 25.1381 113.331C28.5303 121.521 33.5023 128.962 39.7703 135.23C46.0383 141.498 53.4794 146.47 61.6689 149.862C69.8584 153.254 78.6358 155 87.5 155L87.5 87.5L87.5 20Z" fill="#3D3D3D" fill-opacity="0.4" style="mix-blend-mode:multiply"/>
<path d="M47.0898 79.8125L39.1797 87.7451L47.0898 95.6777" stroke="#A6F6FF" stroke-width="2.06" stroke-linecap="round" stroke-linejoin="round"/>
<path d="M67.0898 95.6777L75 87.7451L67.0898 79.8125" stroke="#A6F6FF" stroke-width="2.06" stroke-linecap="round" stroke-linejoin="round"/>
<path d="M60.2422 76L60.2422 99.4885" stroke="#A6F6FF" stroke-width="2.06" stroke-linecap="round" stroke-linejoin="round"/>
<path d="M52.6641 76L52.6641 99.4884" stroke="#A6F6FF" stroke-width="2.06" stroke-linecap="round" stroke-linejoin="round"/>
<mask id="path-6-inside-1_54_450" fill="white">
<path d="M87.5 20C78.6358 20 69.8584 21.7459 61.6689 25.1381C53.4794 28.5303 46.0383 33.5023 39.7703 39.7703C33.5023 46.0382 28.5303 53.4794 25.1381 61.6689C21.7459 69.8583 20 78.6358 20 87.5C20 96.3642 21.7459 105.142 25.1381 113.331C28.5303 121.521 33.5023 128.962 39.7703 135.23C46.0383 141.498 53.4794 146.47 61.6689 149.862C69.8584 153.254 78.6358 155 87.5 155L87.5 87.5L87.5 20Z"/>
</mask>
<path d="M87.5 20C78.6358 20 69.8584 21.7459 61.6689 25.1381C53.4794 28.5303 46.0383 33.5023 39.7703 39.7703C33.5023 46.0382 28.5303 53.4794 25.1381 61.6689C21.7459 69.8583 20 78.6358 20 87.5C20 96.3642 21.7459 105.142 25.1381 113.331C28.5303 121.521 33.5023 128.962 39.7703 135.23C46.0383 141.498 53.4794 146.47 61.6689 149.862C69.8584 153.254 78.6358 155 87.5 155L87.5 87.5L87.5 20Z" stroke="#A6F6FF" stroke-width="8" mask="url(#path-6-inside-1_54_450)"/>
</g>
<defs>
<filter id="filter0_dd_54_450" x="0" y="0" width="175" height="175" filterUnits="userSpaceOnUse" color-interpolation-filters="sRGB">
<feFlood flood-opacity="0" result="BackgroundImageFix"/>
<feColorMatrix in="SourceAlpha" type="matrix" values="0 0 0 0 0 0 0 0 0 0 0 0 0 0 0 0 0 0 127 0" result="hardAlpha"/>
<feOffset/>
<feGaussianBlur stdDeviation="10"/>
<feComposite in2="hardAlpha" operator="out"/>
<feColorMatrix type="matrix" values="0 0 0 0 0 0 0 0 0 0.94 0 0 0 0 1 0 0 0 1 0"/>
<feBlend mode="normal" in2="BackgroundImageFix" result="effect1_dropShadow_54_450"/>
<feColorMatrix in="SourceAlpha" type="matrix" values="0 0 0 0 0 0 0 0 0 0 0 0 0 0 0 0 0 0 127 0" result="hardAlpha"/>
<feOffset/>
<feGaussianBlur stdDeviation="1"/>
<feComposite in2="hardAlpha" operator="out"/>
<feColorMatrix type="matrix" values="0 0 0 0 0.108333 0 0 0 0 1 0 0 0 0 0.893 0 0 0 1 0"/>
<feBlend mode="normal" in2="effect1_dropShadow_54_450" result="effect2_dropShadow_54_450"/>
<feBlend mode="normal" in="SourceGraphic" in2="effect2_dropShadow_54_450" result="shape"/>
</filter>
</defs>
</svg>
