<svg width="537" height="401" viewBox="0 0 537 401" fill="none" xmlns="http://www.w3.org/2000/svg">
<rect x="266" y="315" width="4" height="66" rx="2" fill="url(#paint0_linear_21_459)"/>
<ellipse opacity="0.5" cx="268" cy="381" rx="60" ry="20" fill="url(#paint1_radial_21_459)"/>
<mask id="path-3-inside-1_21_459" fill="white">
<path fill-rule="evenodd" clip-rule="evenodd" d="M536.511 10C536.511 4.47715 532.034 0 526.511 0H10C4.47715 0 0 4.47715 0 10V306.697C0 312.22 4.47715 316.697 10 316.697H232.165C234.909 316.697 237.532 317.824 239.421 319.815L260.686 342.234C264.629 346.391 271.253 346.391 275.196 342.234L296.462 319.815C298.35 317.824 300.973 316.697 303.717 316.697H526.511C532.034 316.697 536.511 312.22 536.511 306.697V10Z"/>
</mask>
<path fill-rule="evenodd" clip-rule="evenodd" d="M536.511 10C536.511 4.47715 532.034 0 526.511 0H10C4.47715 0 0 4.47715 0 10V306.697C0 312.22 4.47715 316.697 10 316.697H232.165C234.909 316.697 237.532 317.824 239.421 319.815L260.686 342.234C264.629 346.391 271.253 346.391 275.196 342.234L296.462 319.815C298.35 317.824 300.973 316.697 303.717 316.697H526.511C532.034 316.697 536.511 312.22 536.511 306.697V10Z" fill="url(#paint2_linear_21_459)"/>
<path d="M296.462 319.815L295.736 319.127L296.462 319.815ZM260.686 342.234L259.96 342.922L260.686 342.234ZM275.196 342.234L275.922 342.922L275.196 342.234ZM239.421 319.815L240.146 319.127L239.421 319.815ZM10 1H526.511V-1H10V1ZM1 306.697V10H-1V306.697H1ZM232.165 315.697H10V317.697H232.165V315.697ZM261.411 341.545L240.146 319.127L238.695 320.503L259.96 342.922L261.411 341.545ZM295.736 319.127L274.471 341.545L275.922 342.922L297.187 320.503L295.736 319.127ZM526.511 315.697H303.717V317.697H526.511V315.697ZM535.511 10V306.697H537.511V10H535.511ZM526.511 317.697C532.586 317.697 537.511 312.772 537.511 306.697H535.511C535.511 311.667 531.482 315.697 526.511 315.697V317.697ZM297.187 320.503C298.887 318.712 301.247 317.697 303.717 317.697V315.697C300.699 315.697 297.813 316.937 295.736 319.127L297.187 320.503ZM259.96 342.922C264.298 347.495 271.584 347.495 275.922 342.922L274.471 341.545C270.922 345.287 264.961 345.287 261.411 341.545L259.96 342.922ZM232.165 317.697C234.635 317.697 236.996 318.712 238.695 320.503L240.146 319.127C238.069 316.937 235.184 315.697 232.165 315.697V317.697ZM-1 306.697C-1 312.772 3.92487 317.697 10 317.697V315.697C5.02944 315.697 1 311.667 1 306.697H-1ZM526.511 1C531.482 1 535.511 5.02944 535.511 10H537.511C537.511 3.92487 532.586 -1 526.511 -1V1ZM10 -1C3.92487 -1 -1 3.92486 -1 10H1C1 5.02943 5.02944 1 10 1V-1Z" fill="url(#paint3_linear_21_459)" mask="url(#path-3-inside-1_21_459)"/>
<defs>
<linearGradient id="paint0_linear_21_459" x1="268" y1="315" x2="268" y2="381" gradientUnits="userSpaceOnUse">
<stop stop-color="#3ED907"/>
<stop offset="1" stop-color="#BDFF00"/>
</linearGradient>
<radialGradient id="paint1_radial_21_459" cx="0" cy="0" r="1" gradientUnits="userSpaceOnUse" gradientTransform="translate(267.401 380.691) rotate(90) scale(19.6911 59.0733)">
<stop stop-color="#4AFE2D"/>
<stop offset="1" stop-opacity="0"/>
</radialGradient>
<linearGradient id="paint2_linear_21_459" x1="268.256" y1="0" x2="268.256" y2="345.352" gradientUnits="userSpaceOnUse">
<stop stop-color="#1D5C9F"/>
<stop offset="1" stop-color="#0F1E3D"/>
</linearGradient>
<linearGradient id="paint3_linear_21_459" x1="-8.91806e-06" y1="-0.150126" x2="553.66" y2="315.423" gradientUnits="userSpaceOnUse">
<stop stop-color="#B0D0FF"/>
<stop offset="0.5625" stop-color="#BAD5FF" stop-opacity="0"/>
<stop offset="1" stop-color="#A4C8FF"/>
</linearGradient>
</defs>
</svg>
