<svg width="400" height="21" viewBox="0 0 400 21" fill="none" xmlns="http://www.w3.org/2000/svg">
<path d="M0.836 17C0.716 17 0.614 16.958 0.53 16.874C0.446 16.79 0.404 16.688 0.404 16.568V4.832C0.404 4.712 0.446 4.61 0.53 4.526C0.614 4.442 0.716 4.4 0.836 4.4H2.528C2.66 4.4 2.762 4.442 2.834 4.526C2.918 4.61 2.96 4.712 2.96 4.832V16.568C2.96 16.688 2.918 16.79 2.834 16.874C2.762 16.958 2.66 17 2.528 17H0.836ZM6.53891 17C6.41891 17 6.31691 16.958 6.23291 16.874C6.14891 16.79 6.10691 16.688 6.10691 16.568V8.072C6.10691 7.952 6.14891 7.85 6.23291 7.766C6.31691 7.682 6.41891 7.64 6.53891 7.64H8.01491C8.13491 7.64 8.23691 7.682 8.32091 7.766C8.40491 7.85 8.44691 7.952 8.44691 8.072V8.81C8.75891 8.426 9.15491 8.108 9.63491 7.856C10.1269 7.592 10.7329 7.46 11.4529 7.46C12.1849 7.46 12.8209 7.628 13.3609 7.964C13.9009 8.288 14.3149 8.75 14.6029 9.35C14.9029 9.95 15.0529 10.67 15.0529 11.51V16.568C15.0529 16.688 15.0109 16.79 14.9269 16.874C14.8429 16.958 14.7409 17 14.6209 17H13.0369C12.9169 17 12.8149 16.958 12.7309 16.874C12.6469 16.79 12.6049 16.688 12.6049 16.568V11.618C12.6049 10.922 12.4309 10.376 12.0829 9.98C11.7469 9.584 11.2549 9.386 10.6069 9.386C9.98291 9.386 9.48491 9.584 9.11291 9.98C8.74091 10.376 8.55491 10.922 8.55491 11.618V16.568C8.55491 16.688 8.51291 16.79 8.42891 16.874C8.34491 16.958 8.24291 17 8.12291 17H6.53891ZM21.3533 17.18C20.7293 17.18 20.1773 17.078 19.6973 16.874C19.2293 16.658 18.8393 16.358 18.5273 15.974C18.2153 15.59 17.9753 15.14 17.8073 14.624C17.6393 14.096 17.5433 13.52 17.5193 12.896C17.5073 12.68 17.5013 12.488 17.5013 12.32C17.5013 12.14 17.5073 11.942 17.5193 11.726C17.5433 11.126 17.6333 10.568 17.7893 10.052C17.9573 9.536 18.1973 9.086 18.5093 8.702C18.8333 8.306 19.2293 8 19.6973 7.784C20.1773 7.568 20.7293 7.46 21.3533 7.46C22.0013 7.46 22.5473 7.574 22.9913 7.802C23.4473 8.018 23.8253 8.3 24.1253 8.648V4.652C24.1253 4.532 24.1613 4.43 24.2333 4.346C24.3173 4.262 24.4253 4.22 24.5573 4.22H26.0873C26.2073 4.22 26.3093 4.262 26.3933 4.346C26.4773 4.43 26.5193 4.532 26.5193 4.652V16.568C26.5193 16.688 26.4773 16.79 26.3933 16.874C26.3093 16.958 26.2073 17 26.0873 17H24.6653C24.5333 17 24.4253 16.958 24.3413 16.874C24.2693 16.79 24.2333 16.688 24.2333 16.568V15.902C23.9333 16.274 23.5493 16.58 23.0813 16.82C22.6253 17.06 22.0493 17.18 21.3533 17.18ZM22.0193 15.254C22.5233 15.254 22.9253 15.14 23.2253 14.912C23.5253 14.684 23.7473 14.396 23.8913 14.048C24.0353 13.688 24.1133 13.322 24.1253 12.95C24.1373 12.734 24.1433 12.506 24.1433 12.266C24.1433 12.014 24.1373 11.78 24.1253 11.564C24.1133 11.204 24.0293 10.862 23.8733 10.538C23.7173 10.202 23.4893 9.926 23.1893 9.71C22.8893 9.494 22.4993 9.386 22.0193 9.386C21.5153 9.386 21.1133 9.5 20.8133 9.728C20.5253 9.944 20.3153 10.232 20.1833 10.592C20.0513 10.952 19.9733 11.348 19.9493 11.78C19.9373 12.14 19.9373 12.5 19.9493 12.86C19.9733 13.292 20.0513 13.688 20.1833 14.048C20.3153 14.408 20.5253 14.702 20.8133 14.93C21.1133 15.146 21.5153 15.254 22.0193 15.254ZM29.8904 17C29.7704 17 29.6684 16.958 29.5844 16.874C29.5004 16.79 29.4584 16.688 29.4584 16.568V8.072C29.4584 7.952 29.5004 7.85 29.5844 7.766C29.6684 7.682 29.7704 7.64 29.8904 7.64H31.3844C31.5164 7.64 31.6184 7.682 31.6904 7.766C31.7744 7.85 31.8164 7.952 31.8164 8.072V16.568C31.8164 16.688 31.7744 16.79 31.6904 16.874C31.6184 16.958 31.5164 17 31.3844 17H29.8904ZM29.8184 6.092C29.6864 6.092 29.5784 6.056 29.4944 5.984C29.4224 5.9 29.3864 5.792 29.3864 5.66V4.364C29.3864 4.244 29.4224 4.142 29.4944 4.058C29.5784 3.974 29.6864 3.932 29.8184 3.932H31.4564C31.5884 3.932 31.6964 3.974 31.7804 4.058C31.8644 4.142 31.9064 4.244 31.9064 4.364V5.66C31.9064 5.792 31.8644 5.9 31.7804 5.984C31.6964 6.056 31.5884 6.092 31.4564 6.092H29.8184ZM38.8472 17.18C37.9832 17.18 37.2212 17.018 36.5612 16.694C35.9132 16.37 35.4032 15.902 35.0312 15.29C34.6712 14.666 34.4732 13.916 34.4372 13.04C34.4252 12.86 34.4192 12.626 34.4192 12.338C34.4192 12.038 34.4252 11.792 34.4372 11.6C34.4732 10.724 34.6712 9.98 35.0312 9.368C35.4032 8.744 35.9132 8.27 36.5612 7.946C37.2212 7.622 37.9832 7.46 38.8472 7.46C39.6152 7.46 40.2692 7.568 40.8092 7.784C41.3492 8 41.7932 8.27 42.1412 8.594C42.4892 8.918 42.7472 9.26 42.9152 9.62C43.0952 9.968 43.1912 10.286 43.2032 10.574C43.2152 10.706 43.1732 10.814 43.0772 10.898C42.9932 10.97 42.8912 11.006 42.7712 11.006H41.1872C41.0672 11.006 40.9712 10.976 40.8992 10.916C40.8392 10.856 40.7792 10.766 40.7192 10.646C40.5392 10.166 40.2992 9.83 39.9992 9.638C39.7112 9.434 39.3392 9.332 38.8832 9.332C38.2832 9.332 37.8032 9.524 37.4432 9.908C37.0952 10.28 36.9092 10.874 36.8852 11.69C36.8612 12.146 36.8612 12.566 36.8852 12.95C36.9092 13.778 37.0952 14.378 37.4432 14.75C37.8032 15.122 38.2832 15.308 38.8832 15.308C39.3512 15.308 39.7292 15.212 40.0172 15.02C40.3052 14.816 40.5392 14.474 40.7192 13.994C40.7792 13.874 40.8392 13.784 40.8992 13.724C40.9712 13.664 41.0672 13.634 41.1872 13.634H42.7712C42.8912 13.634 42.9932 13.676 43.0772 13.76C43.1732 13.832 43.2152 13.934 43.2032 14.066C43.1912 14.282 43.1312 14.528 43.0232 14.804C42.9272 15.068 42.7652 15.344 42.5372 15.632C42.3212 15.908 42.0452 16.166 41.7092 16.406C41.3732 16.634 40.9652 16.82 40.4852 16.964C40.0172 17.108 39.4712 17.18 38.8472 17.18ZM48.3384 17.18C47.7144 17.18 47.1504 17.06 46.6464 16.82C46.1424 16.568 45.7404 16.238 45.4404 15.83C45.1524 15.41 45.0084 14.942 45.0084 14.426C45.0084 13.586 45.3444 12.92 46.0164 12.428C46.7004 11.924 47.6004 11.588 48.7164 11.42L51.1824 11.06V10.682C51.1824 10.178 51.0564 9.788 50.8044 9.512C50.5524 9.236 50.1204 9.098 49.5084 9.098C49.0764 9.098 48.7224 9.188 48.4464 9.368C48.1824 9.536 47.9844 9.764 47.8524 10.052C47.7564 10.208 47.6184 10.286 47.4384 10.286H46.0164C45.8844 10.286 45.7824 10.25 45.7104 10.178C45.6504 10.106 45.6204 10.01 45.6204 9.89C45.6324 9.698 45.7104 9.464 45.8544 9.188C45.9984 8.912 46.2264 8.648 46.5384 8.396C46.8504 8.132 47.2524 7.91 47.7444 7.73C48.2364 7.55 48.8304 7.46 49.5264 7.46C50.2824 7.46 50.9184 7.556 51.4344 7.748C51.9624 7.928 52.3824 8.174 52.6944 8.486C53.0064 8.798 53.2344 9.164 53.3784 9.584C53.5224 10.004 53.5944 10.448 53.5944 10.916V16.568C53.5944 16.688 53.5524 16.79 53.4684 16.874C53.3844 16.958 53.2824 17 53.1624 17H51.7044C51.5724 17 51.4644 16.958 51.3804 16.874C51.3084 16.79 51.2724 16.688 51.2724 16.568V15.866C51.1164 16.094 50.9064 16.31 50.6424 16.514C50.3784 16.706 50.0544 16.868 49.6704 17C49.2984 17.12 48.8544 17.18 48.3384 17.18ZM48.9504 15.47C49.3704 15.47 49.7484 15.38 50.0844 15.2C50.4324 15.02 50.7024 14.744 50.8944 14.372C51.0984 13.988 51.2004 13.508 51.2004 12.932V12.554L49.4004 12.842C48.6924 12.95 48.1644 13.124 47.8164 13.364C47.4684 13.604 47.2944 13.898 47.2944 14.246C47.2944 14.51 47.3724 14.738 47.5284 14.93C47.6964 15.11 47.9064 15.248 48.1584 15.344C48.4104 15.428 48.6744 15.47 48.9504 15.47ZM60.5857 17C59.8657 17 59.2597 16.874 58.7677 16.622C58.2757 16.37 57.9097 15.998 57.6697 15.506C57.4297 15.002 57.3097 14.378 57.3097 13.634V9.548H55.8877C55.7677 9.548 55.6657 9.506 55.5817 9.422C55.4977 9.338 55.4557 9.236 55.4557 9.116V8.072C55.4557 7.952 55.4977 7.85 55.5817 7.766C55.6657 7.682 55.7677 7.64 55.8877 7.64H57.3097V4.652C57.3097 4.532 57.3457 4.43 57.4177 4.346C57.5017 4.262 57.6097 4.22 57.7417 4.22H59.1997C59.3197 4.22 59.4217 4.262 59.5057 4.346C59.5897 4.43 59.6317 4.532 59.6317 4.652V7.64H61.8817C62.0017 7.64 62.1037 7.682 62.1877 7.766C62.2717 7.85 62.3137 7.952 62.3137 8.072V9.116C62.3137 9.236 62.2717 9.338 62.1877 9.422C62.1037 9.506 62.0017 9.548 61.8817 9.548H59.6317V13.454C59.6317 13.946 59.7157 14.33 59.8837 14.606C60.0637 14.882 60.3697 15.02 60.8017 15.02H62.0437C62.1637 15.02 62.2657 15.062 62.3497 15.146C62.4337 15.23 62.4757 15.332 62.4757 15.452V16.568C62.4757 16.688 62.4337 16.79 62.3497 16.874C62.2657 16.958 62.1637 17 62.0437 17H60.5857ZM65.0445 17C64.9245 17 64.8225 16.958 64.7385 16.874C64.6545 16.79 64.6125 16.688 64.6125 16.568V8.072C64.6125 7.952 64.6545 7.85 64.7385 7.766C64.8225 7.682 64.9245 7.64 65.0445 7.64H66.5385C66.6705 7.64 66.7725 7.682 66.8445 7.766C66.9285 7.85 66.9705 7.952 66.9705 8.072V16.568C66.9705 16.688 66.9285 16.79 66.8445 16.874C66.7725 16.958 66.6705 17 66.5385 17H65.0445ZM64.9725 6.092C64.8405 6.092 64.7325 6.056 64.6485 5.984C64.5765 5.9 64.5405 5.792 64.5405 5.66V4.364C64.5405 4.244 64.5765 4.142 64.6485 4.058C64.7325 3.974 64.8405 3.932 64.9725 3.932H66.6105C66.7425 3.932 66.8505 3.974 66.9345 4.058C67.0185 4.142 67.0605 4.244 67.0605 4.364V5.66C67.0605 5.792 67.0185 5.9 66.9345 5.984C66.8505 6.056 66.7425 6.092 66.6105 6.092H64.9725ZM74.0914 17.18C73.1314 17.18 72.3214 17.012 71.6614 16.676C71.0134 16.34 70.5154 15.866 70.1674 15.254C69.8314 14.642 69.6394 13.928 69.5914 13.112C69.5794 12.896 69.5734 12.632 69.5734 12.32C69.5734 12.008 69.5794 11.744 69.5914 11.528C69.6394 10.7 69.8374 9.986 70.1854 9.386C70.5454 8.774 71.0494 8.3 71.6974 7.964C72.3574 7.628 73.1554 7.46 74.0914 7.46C75.0274 7.46 75.8194 7.628 76.4674 7.964C77.1274 8.3 77.6314 8.774 77.9794 9.386C78.3394 9.986 78.5434 10.7 78.5914 11.528C78.6034 11.744 78.6094 12.008 78.6094 12.32C78.6094 12.632 78.6034 12.896 78.5914 13.112C78.5434 13.928 78.3454 14.642 77.9974 15.254C77.6614 15.866 77.1634 16.34 76.5034 16.676C75.8554 17.012 75.0514 17.18 74.0914 17.18ZM74.0914 15.398C74.7274 15.398 75.2194 15.2 75.5674 14.804C75.9154 14.396 76.1074 13.802 76.1434 13.022C76.1554 12.842 76.1614 12.608 76.1614 12.32C76.1614 12.032 76.1554 11.798 76.1434 11.618C76.1074 10.85 75.9154 10.262 75.5674 9.854C75.2194 9.446 74.7274 9.242 74.0914 9.242C73.4554 9.242 72.9634 9.446 72.6154 9.854C72.2674 10.262 72.0754 10.85 72.0394 11.618C72.0274 11.798 72.0214 12.032 72.0214 12.32C72.0214 12.608 72.0274 12.842 72.0394 13.022C72.0754 13.802 72.2674 14.396 72.6154 14.804C72.9634 15.2 73.4554 15.398 74.0914 15.398ZM81.5757 17C81.4557 17 81.3537 16.958 81.2697 16.874C81.1857 16.79 81.1437 16.688 81.1437 16.568V8.072C81.1437 7.952 81.1857 7.85 81.2697 7.766C81.3537 7.682 81.4557 7.64 81.5757 7.64H83.0517C83.1717 7.64 83.2737 7.682 83.3577 7.766C83.4417 7.85 83.4837 7.952 83.4837 8.072V8.81C83.7957 8.426 84.1917 8.108 84.6717 7.856C85.1637 7.592 85.7697 7.46 86.4897 7.46C87.2217 7.46 87.8577 7.628 88.3977 7.964C88.9377 8.288 89.3517 8.75 89.6397 9.35C89.9397 9.95 90.0897 10.67 90.0897 11.51V16.568C90.0897 16.688 90.0477 16.79 89.9637 16.874C89.8797 16.958 89.7777 17 89.6577 17H88.0737C87.9537 17 87.8517 16.958 87.7677 16.874C87.6837 16.79 87.6417 16.688 87.6417 16.568V11.618C87.6417 10.922 87.4677 10.376 87.1197 9.98C86.7837 9.584 86.2917 9.386 85.6437 9.386C85.0197 9.386 84.5217 9.584 84.1497 9.98C83.7777 10.376 83.5917 10.922 83.5917 11.618V16.568C83.5917 16.688 83.5497 16.79 83.4657 16.874C83.3817 16.958 83.2797 17 83.1597 17H81.5757ZM100.55 17C100.43 17 100.328 16.958 100.244 16.874C100.16 16.79 100.118 16.688 100.118 16.568V6.614H96.788C96.668 6.614 96.566 6.572 96.482 6.488C96.398 6.404 96.356 6.302 96.356 6.182V4.85C96.356 4.718 96.398 4.61 96.482 4.526C96.566 4.442 96.668 4.4 96.788 4.4H105.968C106.1 4.4 106.208 4.442 106.292 4.526C106.376 4.61 106.418 4.718 106.418 4.85V6.182C106.418 6.302 106.376 6.404 106.292 6.488C106.208 6.572 106.1 6.614 105.968 6.614H102.656V16.568C102.656 16.688 102.614 16.79 102.53 16.874C102.446 16.958 102.338 17 102.206 17H100.55ZM110.948 17.18C109.616 17.18 108.56 16.796 107.78 16.028C107 15.26 106.58 14.168 106.52 12.752C106.508 12.632 106.502 12.482 106.502 12.302C106.502 12.11 106.508 11.96 106.52 11.852C106.568 10.952 106.772 10.172 107.132 9.512C107.504 8.852 108.014 8.348 108.662 8C109.31 7.64 110.072 7.46 110.948 7.46C111.92 7.46 112.736 7.664 113.396 8.072C114.056 8.468 114.554 9.026 114.89 9.746C115.226 10.454 115.394 11.276 115.394 12.212V12.59C115.394 12.71 115.352 12.812 115.268 12.896C115.184 12.98 115.076 13.022 114.944 13.022H108.968C108.968 13.022 108.968 13.04 108.968 13.076C108.968 13.112 108.968 13.142 108.968 13.166C108.98 13.586 109.058 13.976 109.202 14.336C109.358 14.684 109.58 14.966 109.868 15.182C110.168 15.398 110.522 15.506 110.93 15.506C111.266 15.506 111.548 15.458 111.776 15.362C112.004 15.254 112.19 15.134 112.334 15.002C112.478 14.87 112.58 14.762 112.64 14.678C112.748 14.534 112.832 14.45 112.892 14.426C112.964 14.39 113.066 14.372 113.198 14.372H114.746C114.866 14.372 114.962 14.408 115.034 14.48C115.118 14.552 115.154 14.642 115.142 14.75C115.13 14.942 115.028 15.176 114.836 15.452C114.656 15.728 114.392 15.998 114.044 16.262C113.696 16.526 113.258 16.748 112.73 16.928C112.214 17.096 111.62 17.18 110.948 17.18ZM108.968 11.51H112.946V11.456C112.946 10.988 112.868 10.58 112.712 10.232C112.556 9.884 112.328 9.608 112.028 9.404C111.728 9.2 111.368 9.098 110.948 9.098C110.528 9.098 110.168 9.2 109.868 9.404C109.568 9.608 109.34 9.884 109.184 10.232C109.04 10.58 108.968 10.988 108.968 11.456V11.51ZM117.203 17C117.095 17 116.999 16.964 116.915 16.892C116.843 16.808 116.807 16.712 116.807 16.604C116.807 16.568 116.813 16.526 116.825 16.478C116.849 16.43 116.885 16.37 116.933 16.298L119.993 12.194L117.149 8.342C117.113 8.282 117.083 8.228 117.059 8.18C117.047 8.132 117.041 8.084 117.041 8.036C117.041 7.928 117.077 7.838 117.149 7.766C117.233 7.682 117.329 7.64 117.437 7.64H119.003C119.147 7.64 119.255 7.676 119.327 7.748C119.399 7.82 119.453 7.886 119.489 7.946L121.523 10.646L123.557 7.946C123.605 7.886 123.659 7.82 123.719 7.748C123.791 7.676 123.899 7.64 124.043 7.64H125.537C125.645 7.64 125.735 7.682 125.807 7.766C125.891 7.838 125.933 7.922 125.933 8.018C125.933 8.078 125.921 8.132 125.897 8.18C125.885 8.228 125.861 8.282 125.825 8.342L122.945 12.23L126.023 16.298C126.071 16.37 126.101 16.43 126.113 16.478C126.137 16.526 126.149 16.568 126.149 16.604C126.149 16.712 126.107 16.808 126.023 16.892C125.951 16.964 125.861 17 125.753 17H124.115C123.983 17 123.881 16.97 123.809 16.91C123.737 16.838 123.677 16.772 123.629 16.712L121.469 13.85L119.273 16.712C119.225 16.772 119.165 16.838 119.093 16.91C119.033 16.97 118.931 17 118.787 17H117.203ZM132.529 17C131.809 17 131.203 16.874 130.711 16.622C130.219 16.37 129.853 15.998 129.613 15.506C129.373 15.002 129.253 14.378 129.253 13.634V9.548H127.831C127.711 9.548 127.609 9.506 127.525 9.422C127.441 9.338 127.399 9.236 127.399 9.116V8.072C127.399 7.952 127.441 7.85 127.525 7.766C127.609 7.682 127.711 7.64 127.831 7.64H129.253V4.652C129.253 4.532 129.289 4.43 129.361 4.346C129.445 4.262 129.553 4.22 129.685 4.22H131.143C131.263 4.22 131.365 4.262 131.449 4.346C131.533 4.43 131.575 4.532 131.575 4.652V7.64H133.825C133.945 7.64 134.047 7.682 134.131 7.766C134.215 7.85 134.257 7.952 134.257 8.072V9.116C134.257 9.236 134.215 9.338 134.131 9.422C134.047 9.506 133.945 9.548 133.825 9.548H131.575V13.454C131.575 13.946 131.659 14.33 131.827 14.606C132.007 14.882 132.313 15.02 132.745 15.02H133.987C134.107 15.02 134.209 15.062 134.293 15.146C134.377 15.23 134.419 15.332 134.419 15.452V16.568C134.419 16.688 134.377 16.79 134.293 16.874C134.209 16.958 134.107 17 133.987 17H132.529ZM141.677 20.744C141.557 20.744 141.455 20.702 141.371 20.618C141.287 20.534 141.245 20.432 141.245 20.312V1.304C141.245 1.184 141.287 1.082 141.371 0.997999C141.455 0.913999 141.557 0.872 141.677 0.872H142.847C142.967 0.872 143.069 0.913999 143.153 0.997999C143.237 1.082 143.279 1.184 143.279 1.304V20.312C143.279 20.432 143.237 20.534 143.153 20.618C143.069 20.702 142.967 20.744 142.847 20.744H141.677ZM151.533 17C151.413 17 151.311 16.958 151.227 16.874C151.143 16.79 151.101 16.688 151.101 16.568V4.85C151.101 4.718 151.143 4.61 151.227 4.526C151.311 4.442 151.413 4.4 151.533 4.4H156.195C157.647 4.4 158.793 4.736 159.633 5.408C160.473 6.08 160.893 7.058 160.893 8.342C160.893 9.23 160.671 9.968 160.227 10.556C159.795 11.144 159.213 11.57 158.481 11.834L161.109 16.424C161.145 16.496 161.163 16.562 161.163 16.622C161.163 16.73 161.121 16.82 161.037 16.892C160.965 16.964 160.881 17 160.785 17H159.147C158.943 17 158.787 16.946 158.679 16.838C158.571 16.73 158.487 16.622 158.427 16.514L156.105 12.248H153.603V16.568C153.603 16.688 153.561 16.79 153.477 16.874C153.405 16.958 153.303 17 153.171 17H151.533ZM153.603 10.214H156.141C156.873 10.214 157.419 10.052 157.779 9.728C158.139 9.392 158.319 8.924 158.319 8.324C158.319 7.724 158.139 7.256 157.779 6.92C157.431 6.572 156.885 6.398 156.141 6.398H153.603V10.214ZM167.01 17.18C166.278 17.18 165.642 17.018 165.102 16.694C164.574 16.358 164.166 15.89 163.878 15.29C163.59 14.678 163.446 13.958 163.446 13.13V8.072C163.446 7.952 163.488 7.85 163.572 7.766C163.656 7.682 163.758 7.64 163.878 7.64H165.462C165.594 7.64 165.696 7.682 165.768 7.766C165.852 7.85 165.894 7.952 165.894 8.072V13.022C165.894 14.51 166.548 15.254 167.856 15.254C168.48 15.254 168.972 15.056 169.332 14.66C169.704 14.264 169.89 13.718 169.89 13.022V8.072C169.89 7.952 169.932 7.85 170.016 7.766C170.1 7.682 170.202 7.64 170.322 7.64H171.906C172.026 7.64 172.128 7.682 172.212 7.766C172.296 7.85 172.338 7.952 172.338 8.072V16.568C172.338 16.688 172.296 16.79 172.212 16.874C172.128 16.958 172.026 17 171.906 17H170.448C170.316 17 170.208 16.958 170.124 16.874C170.052 16.79 170.016 16.688 170.016 16.568V15.83C169.692 16.25 169.29 16.58 168.81 16.82C168.33 17.06 167.73 17.18 167.01 17.18ZM180.44 17.18C179.744 17.18 179.162 17.06 178.694 16.82C178.238 16.58 177.86 16.274 177.56 15.902V16.568C177.56 16.688 177.518 16.79 177.434 16.874C177.362 16.958 177.26 17 177.128 17H175.706C175.586 17 175.484 16.958 175.4 16.874C175.316 16.79 175.274 16.688 175.274 16.568V4.652C175.274 4.532 175.316 4.43 175.4 4.346C175.484 4.262 175.586 4.22 175.706 4.22H177.236C177.368 4.22 177.47 4.262 177.542 4.346C177.626 4.43 177.668 4.532 177.668 4.652V8.648C177.968 8.3 178.34 8.018 178.784 7.802C179.24 7.574 179.792 7.46 180.44 7.46C181.076 7.46 181.628 7.568 182.096 7.784C182.564 8 182.954 8.306 183.266 8.702C183.59 9.086 183.836 9.536 184.004 10.052C184.172 10.568 184.262 11.126 184.274 11.726C184.286 11.942 184.292 12.14 184.292 12.32C184.292 12.488 184.286 12.68 184.274 12.896C184.25 13.52 184.154 14.096 183.986 14.624C183.818 15.14 183.578 15.59 183.266 15.974C182.954 16.358 182.564 16.658 182.096 16.874C181.628 17.078 181.076 17.18 180.44 17.18ZM179.774 15.254C180.29 15.254 180.692 15.146 180.98 14.93C181.268 14.702 181.472 14.408 181.592 14.048C181.724 13.688 181.802 13.292 181.826 12.86C181.85 12.5 181.85 12.14 181.826 11.78C181.802 11.348 181.724 10.952 181.592 10.592C181.472 10.232 181.268 9.944 180.98 9.728C180.692 9.5 180.29 9.386 179.774 9.386C179.294 9.386 178.904 9.494 178.604 9.71C178.304 9.926 178.076 10.202 177.92 10.538C177.764 10.862 177.68 11.204 177.668 11.564C177.656 11.78 177.65 12.014 177.65 12.266C177.65 12.506 177.656 12.734 177.668 12.95C177.692 13.322 177.77 13.688 177.902 14.048C178.046 14.396 178.268 14.684 178.568 14.912C178.88 15.14 179.282 15.254 179.774 15.254ZM187.267 17C187.147 17 187.045 16.958 186.961 16.874C186.877 16.79 186.835 16.688 186.835 16.568V8.072C186.835 7.952 186.877 7.85 186.961 7.766C187.045 7.682 187.147 7.64 187.267 7.64H188.761C188.893 7.64 188.995 7.682 189.067 7.766C189.151 7.85 189.193 7.952 189.193 8.072V16.568C189.193 16.688 189.151 16.79 189.067 16.874C188.995 16.958 188.893 17 188.761 17H187.267ZM187.195 6.092C187.063 6.092 186.955 6.056 186.871 5.984C186.799 5.9 186.763 5.792 186.763 5.66V4.364C186.763 4.244 186.799 4.142 186.871 4.058C186.955 3.974 187.063 3.932 187.195 3.932H188.833C188.965 3.932 189.073 3.974 189.157 4.058C189.241 4.142 189.283 4.244 189.283 4.364V5.66C189.283 5.792 189.241 5.9 189.157 5.984C189.073 6.056 188.965 6.092 188.833 6.092H187.195ZM192.571 17C192.451 17 192.349 16.958 192.265 16.874C192.181 16.79 192.139 16.688 192.139 16.568V4.652C192.139 4.532 192.181 4.43 192.265 4.346C192.349 4.262 192.451 4.22 192.571 4.22H194.029C194.161 4.22 194.263 4.262 194.335 4.346C194.419 4.43 194.461 4.532 194.461 4.652V10.808L197.485 7.946C197.593 7.85 197.689 7.778 197.773 7.73C197.857 7.67 197.983 7.64 198.151 7.64H199.825C199.945 7.64 200.041 7.676 200.113 7.748C200.185 7.82 200.221 7.916 200.221 8.036C200.221 8.084 200.209 8.138 200.185 8.198C200.161 8.258 200.113 8.312 200.041 8.36L196.333 11.834L200.491 16.298C200.611 16.418 200.671 16.52 200.671 16.604C200.671 16.724 200.629 16.82 200.545 16.892C200.473 16.964 200.383 17 200.275 17H198.565C198.385 17 198.253 16.976 198.169 16.928C198.097 16.868 198.007 16.79 197.899 16.694L194.461 13.076V16.568C194.461 16.688 194.419 16.79 194.335 16.874C194.263 16.958 194.161 17 194.029 17H192.571ZM202.449 18.35C202.341 18.35 202.257 18.314 202.197 18.242C202.137 18.17 202.113 18.08 202.125 17.972L202.611 14.912C202.635 14.756 202.689 14.624 202.773 14.516C202.869 14.396 203.007 14.336 203.187 14.336H204.843C204.939 14.336 205.017 14.372 205.077 14.444C205.137 14.504 205.167 14.582 205.167 14.678C205.167 14.762 205.149 14.84 205.113 14.912L203.961 17.9C203.913 18.02 203.841 18.122 203.745 18.206C203.661 18.302 203.535 18.35 203.367 18.35H202.449ZM216.295 17C216.163 17 216.055 16.958 215.971 16.874C215.899 16.79 215.863 16.688 215.863 16.568V7.244L213.127 9.35C213.019 9.422 212.911 9.452 212.803 9.44C212.695 9.416 212.599 9.35 212.515 9.242L211.759 8.27C211.687 8.162 211.657 8.048 211.669 7.928C211.693 7.808 211.759 7.712 211.867 7.64L215.899 4.526C215.971 4.466 216.043 4.43 216.115 4.418C216.187 4.406 216.265 4.4 216.349 4.4H217.933C218.053 4.4 218.155 4.442 218.239 4.526C218.323 4.61 218.365 4.712 218.365 4.832V16.568C218.365 16.688 218.323 16.79 218.239 16.874C218.155 16.958 218.053 17 217.933 17H216.295ZM226.085 17.18C225.293 17.18 224.585 17.084 223.961 16.892C223.337 16.7 222.809 16.43 222.377 16.082C221.957 15.734 221.633 15.326 221.405 14.858C221.189 14.39 221.081 13.868 221.081 13.292C221.081 12.596 221.249 11.996 221.585 11.492C221.933 10.976 222.383 10.58 222.935 10.304C222.491 10.028 222.143 9.674 221.891 9.242C221.651 8.81 221.531 8.306 221.531 7.73C221.531 7.034 221.705 6.428 222.053 5.912C222.413 5.384 222.929 4.97 223.601 4.67C224.285 4.37 225.113 4.22 226.085 4.22C227.057 4.22 227.879 4.37 228.551 4.67C229.223 4.958 229.733 5.366 230.081 5.894C230.429 6.41 230.603 7.016 230.603 7.712C230.603 8.288 230.483 8.792 230.243 9.224C230.003 9.656 229.667 10.016 229.235 10.304C229.799 10.568 230.249 10.964 230.585 11.492C230.921 12.008 231.089 12.614 231.089 13.31C231.089 14.066 230.891 14.738 230.495 15.326C230.111 15.902 229.541 16.358 228.785 16.694C228.041 17.018 227.141 17.18 226.085 17.18ZM226.085 15.308C226.553 15.308 226.973 15.23 227.345 15.074C227.729 14.906 228.029 14.672 228.245 14.372C228.473 14.072 228.587 13.718 228.587 13.31C228.587 12.89 228.473 12.536 228.245 12.248C228.029 11.948 227.729 11.72 227.345 11.564C226.973 11.396 226.553 11.312 226.085 11.312C225.617 11.312 225.191 11.396 224.807 11.564C224.435 11.72 224.135 11.948 223.907 12.248C223.691 12.536 223.583 12.89 223.583 13.31C223.583 13.718 223.691 14.072 223.907 14.372C224.135 14.672 224.435 14.906 224.807 15.074C225.191 15.23 225.617 15.308 226.085 15.308ZM226.085 9.53C226.481 9.518 226.841 9.44 227.165 9.296C227.501 9.152 227.765 8.96 227.957 8.72C228.161 8.468 228.263 8.168 228.263 7.82C228.263 7.472 228.167 7.172 227.975 6.92C227.795 6.656 227.537 6.452 227.201 6.308C226.877 6.164 226.505 6.092 226.085 6.092C225.665 6.092 225.287 6.164 224.951 6.308C224.627 6.452 224.369 6.656 224.177 6.92C223.997 7.172 223.907 7.472 223.907 7.82C223.907 8.168 223.997 8.468 224.177 8.72C224.369 8.972 224.627 9.17 224.951 9.314C225.287 9.458 225.665 9.53 226.085 9.53ZM234.171 20.42C234.051 20.42 233.949 20.378 233.865 20.294C233.781 20.21 233.739 20.108 233.739 19.988V8.072C233.739 7.952 233.781 7.85 233.865 7.766C233.949 7.682 234.051 7.64 234.171 7.64H235.593C235.725 7.64 235.827 7.682 235.899 7.766C235.983 7.85 236.025 7.952 236.025 8.072V8.792C236.313 8.408 236.691 8.09 237.159 7.838C237.627 7.586 238.209 7.46 238.905 7.46C239.541 7.46 240.093 7.562 240.561 7.766C241.029 7.97 241.419 8.264 241.731 8.648C242.043 9.02 242.283 9.464 242.451 9.98C242.619 10.496 242.715 11.066 242.739 11.69C242.751 11.894 242.757 12.104 242.757 12.32C242.757 12.536 242.751 12.752 242.739 12.968C242.727 13.568 242.637 14.126 242.469 14.642C242.301 15.146 242.055 15.59 241.731 15.974C241.419 16.346 241.029 16.64 240.561 16.856C240.093 17.072 239.541 17.18 238.905 17.18C238.257 17.18 237.705 17.066 237.249 16.838C236.793 16.598 236.421 16.286 236.133 15.902V19.988C236.133 20.108 236.091 20.21 236.007 20.294C235.935 20.378 235.833 20.42 235.701 20.42H234.171ZM238.239 15.254C238.755 15.254 239.157 15.146 239.445 14.93C239.733 14.702 239.937 14.408 240.057 14.048C240.189 13.688 240.267 13.292 240.291 12.86C240.315 12.5 240.315 12.14 240.291 11.78C240.267 11.348 240.189 10.952 240.057 10.592C239.937 10.232 239.733 9.944 239.445 9.728C239.157 9.5 238.755 9.386 238.239 9.386C237.747 9.386 237.345 9.5 237.033 9.728C236.733 9.956 236.511 10.25 236.367 10.61C236.235 10.958 236.157 11.318 236.133 11.69C236.121 11.906 236.115 12.134 236.115 12.374C236.115 12.614 236.121 12.848 236.133 13.076C236.145 13.436 236.229 13.784 236.385 14.12C236.541 14.444 236.769 14.714 237.069 14.93C237.369 15.146 237.759 15.254 238.239 15.254ZM249.477 17C248.757 17 248.151 16.874 247.659 16.622C247.167 16.37 246.801 15.998 246.561 15.506C246.321 15.002 246.201 14.378 246.201 13.634V9.548H244.779C244.659 9.548 244.557 9.506 244.473 9.422C244.389 9.338 244.347 9.236 244.347 9.116V8.072C244.347 7.952 244.389 7.85 244.473 7.766C244.557 7.682 244.659 7.64 244.779 7.64H246.201V4.652C246.201 4.532 246.237 4.43 246.309 4.346C246.393 4.262 246.501 4.22 246.633 4.22H248.091C248.211 4.22 248.313 4.262 248.397 4.346C248.481 4.43 248.523 4.532 248.523 4.652V7.64H250.773C250.893 7.64 250.995 7.682 251.079 7.766C251.163 7.85 251.205 7.952 251.205 8.072V9.116C251.205 9.236 251.163 9.338 251.079 9.422C250.995 9.506 250.893 9.548 250.773 9.548H248.523V13.454C248.523 13.946 248.607 14.33 248.775 14.606C248.955 14.882 249.261 15.02 249.693 15.02H250.935C251.055 15.02 251.157 15.062 251.241 15.146C251.325 15.23 251.367 15.332 251.367 15.452V16.568C251.367 16.688 251.325 16.79 251.241 16.874C251.157 16.958 251.055 17 250.935 17H249.477ZM253.396 18.35C253.288 18.35 253.204 18.314 253.144 18.242C253.084 18.17 253.06 18.08 253.072 17.972L253.558 14.912C253.582 14.756 253.636 14.624 253.72 14.516C253.816 14.396 253.954 14.336 254.134 14.336H255.79C255.886 14.336 255.964 14.372 256.024 14.444C256.084 14.504 256.114 14.582 256.114 14.678C256.114 14.762 256.096 14.84 256.06 14.912L254.908 17.9C254.86 18.02 254.788 18.122 254.692 18.206C254.608 18.302 254.482 18.35 254.314 18.35H253.396ZM264.11 17C263.978 17 263.87 16.958 263.786 16.874C263.702 16.79 263.66 16.688 263.66 16.568V4.85C263.66 4.718 263.702 4.61 263.786 4.526C263.87 4.442 263.978 4.4 264.11 4.4H265.532C265.7 4.4 265.826 4.448 265.91 4.544C265.994 4.628 266.048 4.694 266.072 4.742L269.546 11.222L273.056 4.742C273.08 4.694 273.134 4.628 273.218 4.544C273.302 4.448 273.428 4.4 273.596 4.4H275C275.132 4.4 275.24 4.442 275.324 4.526C275.408 4.61 275.45 4.718 275.45 4.85V16.568C275.45 16.688 275.408 16.79 275.324 16.874C275.24 16.958 275.132 17 275 17H273.488C273.356 17 273.248 16.958 273.164 16.874C273.092 16.79 273.056 16.688 273.056 16.568V8.774L270.536 13.58C270.476 13.688 270.398 13.784 270.302 13.868C270.206 13.94 270.08 13.976 269.924 13.976H269.186C269.018 13.976 268.886 13.94 268.79 13.868C268.706 13.784 268.634 13.688 268.574 13.58L266.054 8.774V16.568C266.054 16.688 266.012 16.79 265.928 16.874C265.844 16.958 265.742 17 265.622 17H264.11ZM282.605 17.18C281.273 17.18 280.217 16.796 279.437 16.028C278.657 15.26 278.237 14.168 278.177 12.752C278.165 12.632 278.159 12.482 278.159 12.302C278.159 12.11 278.165 11.96 278.177 11.852C278.225 10.952 278.429 10.172 278.789 9.512C279.161 8.852 279.671 8.348 280.319 8C280.967 7.64 281.729 7.46 282.605 7.46C283.577 7.46 284.393 7.664 285.053 8.072C285.713 8.468 286.211 9.026 286.547 9.746C286.883 10.454 287.051 11.276 287.051 12.212V12.59C287.051 12.71 287.009 12.812 286.925 12.896C286.841 12.98 286.733 13.022 286.601 13.022H280.625C280.625 13.022 280.625 13.04 280.625 13.076C280.625 13.112 280.625 13.142 280.625 13.166C280.637 13.586 280.715 13.976 280.859 14.336C281.015 14.684 281.237 14.966 281.525 15.182C281.825 15.398 282.179 15.506 282.587 15.506C282.923 15.506 283.205 15.458 283.433 15.362C283.661 15.254 283.847 15.134 283.991 15.002C284.135 14.87 284.237 14.762 284.297 14.678C284.405 14.534 284.489 14.45 284.549 14.426C284.621 14.39 284.723 14.372 284.855 14.372H286.403C286.523 14.372 286.619 14.408 286.691 14.48C286.775 14.552 286.811 14.642 286.799 14.75C286.787 14.942 286.685 15.176 286.493 15.452C286.313 15.728 286.049 15.998 285.701 16.262C285.353 16.526 284.915 16.748 284.387 16.928C283.871 17.096 283.277 17.18 282.605 17.18ZM280.625 11.51H284.603V11.456C284.603 10.988 284.525 10.58 284.369 10.232C284.213 9.884 283.985 9.608 283.685 9.404C283.385 9.2 283.025 9.098 282.605 9.098C282.185 9.098 281.825 9.2 281.525 9.404C281.225 9.608 280.997 9.884 280.841 10.232C280.697 10.58 280.625 10.988 280.625 11.456V11.51ZM292.976 17.18C292.352 17.18 291.8 17.078 291.32 16.874C290.852 16.658 290.462 16.358 290.15 15.974C289.838 15.59 289.598 15.14 289.43 14.624C289.262 14.096 289.166 13.52 289.142 12.896C289.13 12.68 289.124 12.488 289.124 12.32C289.124 12.14 289.13 11.942 289.142 11.726C289.166 11.126 289.256 10.568 289.412 10.052C289.58 9.536 289.82 9.086 290.132 8.702C290.456 8.306 290.852 8 291.32 7.784C291.8 7.568 292.352 7.46 292.976 7.46C293.624 7.46 294.17 7.574 294.614 7.802C295.07 8.018 295.448 8.3 295.748 8.648V4.652C295.748 4.532 295.784 4.43 295.856 4.346C295.94 4.262 296.048 4.22 296.18 4.22H297.71C297.83 4.22 297.932 4.262 298.016 4.346C298.1 4.43 298.142 4.532 298.142 4.652V16.568C298.142 16.688 298.1 16.79 298.016 16.874C297.932 16.958 297.83 17 297.71 17H296.288C296.156 17 296.048 16.958 295.964 16.874C295.892 16.79 295.856 16.688 295.856 16.568V15.902C295.556 16.274 295.172 16.58 294.704 16.82C294.248 17.06 293.672 17.18 292.976 17.18ZM293.642 15.254C294.146 15.254 294.548 15.14 294.848 14.912C295.148 14.684 295.37 14.396 295.514 14.048C295.658 13.688 295.736 13.322 295.748 12.95C295.76 12.734 295.766 12.506 295.766 12.266C295.766 12.014 295.76 11.78 295.748 11.564C295.736 11.204 295.652 10.862 295.496 10.538C295.34 10.202 295.112 9.926 294.812 9.71C294.512 9.494 294.122 9.386 293.642 9.386C293.138 9.386 292.736 9.5 292.436 9.728C292.148 9.944 291.938 10.232 291.806 10.592C291.674 10.952 291.596 11.348 291.572 11.78C291.56 12.14 291.56 12.5 291.572 12.86C291.596 13.292 291.674 13.688 291.806 14.048C291.938 14.408 292.148 14.702 292.436 14.93C292.736 15.146 293.138 15.254 293.642 15.254ZM301.513 17C301.393 17 301.291 16.958 301.207 16.874C301.123 16.79 301.081 16.688 301.081 16.568V8.072C301.081 7.952 301.123 7.85 301.207 7.766C301.291 7.682 301.393 7.64 301.513 7.64H303.007C303.139 7.64 303.241 7.682 303.313 7.766C303.397 7.85 303.439 7.952 303.439 8.072V16.568C303.439 16.688 303.397 16.79 303.313 16.874C303.241 16.958 303.139 17 303.007 17H301.513ZM301.441 6.092C301.309 6.092 301.201 6.056 301.117 5.984C301.045 5.9 301.009 5.792 301.009 5.66V4.364C301.009 4.244 301.045 4.142 301.117 4.058C301.201 3.974 301.309 3.932 301.441 3.932H303.079C303.211 3.932 303.319 3.974 303.403 4.058C303.487 4.142 303.529 4.244 303.529 4.364V5.66C303.529 5.792 303.487 5.9 303.403 5.984C303.319 6.056 303.211 6.092 303.079 6.092H301.441ZM309.841 17.18C309.109 17.18 308.473 17.018 307.933 16.694C307.405 16.358 306.997 15.89 306.709 15.29C306.421 14.678 306.277 13.958 306.277 13.13V8.072C306.277 7.952 306.319 7.85 306.403 7.766C306.487 7.682 306.589 7.64 306.709 7.64H308.293C308.425 7.64 308.527 7.682 308.599 7.766C308.683 7.85 308.725 7.952 308.725 8.072V13.022C308.725 14.51 309.379 15.254 310.687 15.254C311.311 15.254 311.803 15.056 312.163 14.66C312.535 14.264 312.721 13.718 312.721 13.022V8.072C312.721 7.952 312.763 7.85 312.847 7.766C312.931 7.682 313.033 7.64 313.153 7.64H314.737C314.857 7.64 314.959 7.682 315.043 7.766C315.127 7.85 315.169 7.952 315.169 8.072V16.568C315.169 16.688 315.127 16.79 315.043 16.874C314.959 16.958 314.857 17 314.737 17H313.279C313.147 17 313.039 16.958 312.955 16.874C312.883 16.79 312.847 16.688 312.847 16.568V15.83C312.523 16.25 312.121 16.58 311.641 16.82C311.161 17.06 310.561 17.18 309.841 17.18ZM318.519 17C318.399 17 318.297 16.958 318.213 16.874C318.129 16.79 318.087 16.688 318.087 16.568V8.072C318.087 7.952 318.129 7.85 318.213 7.766C318.297 7.682 318.399 7.64 318.519 7.64H319.923C320.043 7.64 320.145 7.682 320.229 7.766C320.313 7.85 320.355 7.952 320.355 8.072V8.684C320.607 8.348 320.943 8.066 321.363 7.838C321.795 7.598 322.305 7.472 322.893 7.46C324.261 7.436 325.215 7.97 325.755 9.062C326.031 8.582 326.427 8.198 326.943 7.91C327.471 7.61 328.053 7.46 328.689 7.46C329.313 7.46 329.877 7.604 330.381 7.892C330.897 8.18 331.299 8.618 331.587 9.206C331.887 9.782 332.037 10.514 332.037 11.402V16.568C332.037 16.688 331.995 16.79 331.911 16.874C331.827 16.958 331.725 17 331.605 17H330.129C330.009 17 329.907 16.958 329.823 16.874C329.739 16.79 329.697 16.688 329.697 16.568V11.546C329.697 11.006 329.619 10.58 329.463 10.268C329.307 9.944 329.097 9.716 328.833 9.584C328.569 9.452 328.275 9.386 327.951 9.386C327.687 9.386 327.423 9.452 327.159 9.584C326.895 9.716 326.679 9.944 326.511 10.268C326.343 10.58 326.259 11.006 326.259 11.546V16.568C326.259 16.688 326.217 16.79 326.133 16.874C326.049 16.958 325.947 17 325.827 17H324.351C324.219 17 324.111 16.958 324.027 16.874C323.955 16.79 323.919 16.688 323.919 16.568V11.546C323.919 11.006 323.835 10.58 323.667 10.268C323.499 9.944 323.283 9.716 323.019 9.584C322.755 9.452 322.473 9.386 322.173 9.386C321.897 9.386 321.627 9.458 321.363 9.602C321.099 9.734 320.883 9.956 320.715 10.268C320.547 10.58 320.463 11.006 320.463 11.546V16.568C320.463 16.688 320.421 16.79 320.337 16.874C320.253 16.958 320.151 17 320.031 17H318.519ZM341.598 17C341.418 17 341.274 16.952 341.166 16.856C341.07 16.748 341.004 16.616 340.968 16.46L338.826 4.922C338.826 4.886 338.82 4.856 338.808 4.832C338.808 4.808 338.808 4.79 338.808 4.778C338.808 4.67 338.844 4.58 338.916 4.508C339 4.436 339.09 4.4 339.186 4.4H340.77C341.07 4.4 341.238 4.52 341.274 4.76L342.768 12.914L344.388 7.64C344.424 7.544 344.484 7.448 344.568 7.352C344.664 7.244 344.802 7.19 344.982 7.19H345.954C346.146 7.19 346.284 7.244 346.368 7.352C346.452 7.448 346.506 7.544 346.53 7.64L348.168 12.896L349.662 4.76C349.698 4.52 349.866 4.4 350.166 4.4H351.75C351.846 4.4 351.93 4.436 352.002 4.508C352.074 4.58 352.11 4.67 352.11 4.778C352.11 4.79 352.11 4.808 352.11 4.832C352.11 4.856 352.104 4.886 352.092 4.922L349.95 16.46C349.926 16.616 349.86 16.748 349.752 16.856C349.644 16.952 349.5 17 349.32 17H348.114C347.934 17 347.79 16.952 347.682 16.856C347.586 16.76 347.52 16.658 347.484 16.55L345.468 10.538L343.452 16.55C343.404 16.658 343.332 16.76 343.236 16.856C343.14 16.952 342.996 17 342.804 17H341.598ZM358.21 17.18C356.878 17.18 355.822 16.796 355.042 16.028C354.262 15.26 353.842 14.168 353.782 12.752C353.77 12.632 353.764 12.482 353.764 12.302C353.764 12.11 353.77 11.96 353.782 11.852C353.83 10.952 354.034 10.172 354.394 9.512C354.766 8.852 355.276 8.348 355.924 8C356.572 7.64 357.334 7.46 358.21 7.46C359.182 7.46 359.998 7.664 360.658 8.072C361.318 8.468 361.816 9.026 362.152 9.746C362.488 10.454 362.656 11.276 362.656 12.212V12.59C362.656 12.71 362.614 12.812 362.53 12.896C362.446 12.98 362.338 13.022 362.206 13.022H356.23C356.23 13.022 356.23 13.04 356.23 13.076C356.23 13.112 356.23 13.142 356.23 13.166C356.242 13.586 356.32 13.976 356.464 14.336C356.62 14.684 356.842 14.966 357.13 15.182C357.43 15.398 357.784 15.506 358.192 15.506C358.528 15.506 358.81 15.458 359.038 15.362C359.266 15.254 359.452 15.134 359.596 15.002C359.74 14.87 359.842 14.762 359.902 14.678C360.01 14.534 360.094 14.45 360.154 14.426C360.226 14.39 360.328 14.372 360.46 14.372H362.008C362.128 14.372 362.224 14.408 362.296 14.48C362.38 14.552 362.416 14.642 362.404 14.75C362.392 14.942 362.29 15.176 362.098 15.452C361.918 15.728 361.654 15.998 361.306 16.262C360.958 16.526 360.52 16.748 359.992 16.928C359.476 17.096 358.882 17.18 358.21 17.18ZM356.23 11.51H360.208V11.456C360.208 10.988 360.13 10.58 359.974 10.232C359.818 9.884 359.59 9.608 359.29 9.404C358.99 9.2 358.63 9.098 358.21 9.098C357.79 9.098 357.43 9.2 357.13 9.404C356.83 9.608 356.602 9.884 356.446 10.232C356.302 10.58 356.23 10.988 356.23 11.456V11.51ZM365.538 17C365.418 17 365.316 16.958 365.232 16.874C365.148 16.79 365.106 16.688 365.106 16.568V8.072C365.106 7.952 365.148 7.85 365.232 7.766C365.316 7.682 365.418 7.64 365.538 7.64H367.032C367.164 7.64 367.266 7.682 367.338 7.766C367.422 7.85 367.464 7.952 367.464 8.072V16.568C367.464 16.688 367.422 16.79 367.338 16.874C367.266 16.958 367.164 17 367.032 17H365.538ZM365.466 6.092C365.334 6.092 365.226 6.056 365.142 5.984C365.07 5.9 365.034 5.792 365.034 5.66V4.364C365.034 4.244 365.07 4.142 365.142 4.058C365.226 3.974 365.334 3.932 365.466 3.932H367.104C367.236 3.932 367.344 3.974 367.428 4.058C367.512 4.142 367.554 4.244 367.554 4.364V5.66C367.554 5.792 367.512 5.9 367.428 5.984C367.344 6.056 367.236 6.092 367.104 6.092H365.466ZM374.622 20.96C373.746 20.96 373.026 20.846 372.462 20.618C371.898 20.39 371.454 20.114 371.13 19.79C370.806 19.466 370.572 19.142 370.428 18.818C370.296 18.506 370.224 18.26 370.212 18.08C370.2 17.96 370.236 17.852 370.32 17.756C370.416 17.672 370.524 17.63 370.644 17.63H372.21C372.33 17.63 372.426 17.654 372.498 17.702C372.57 17.762 372.63 17.864 372.678 18.008C372.75 18.164 372.846 18.332 372.966 18.512C373.086 18.692 373.266 18.842 373.506 18.962C373.758 19.094 374.1 19.16 374.532 19.16C374.988 19.16 375.372 19.094 375.684 18.962C375.996 18.83 376.23 18.608 376.386 18.296C376.554 17.984 376.638 17.552 376.638 17V15.776C376.35 16.124 375.978 16.406 375.522 16.622C375.078 16.838 374.526 16.946 373.866 16.946C373.218 16.946 372.66 16.844 372.192 16.64C371.724 16.424 371.334 16.13 371.022 15.758C370.71 15.374 370.47 14.924 370.302 14.408C370.146 13.892 370.056 13.322 370.032 12.698C370.02 12.374 370.02 12.05 370.032 11.726C370.056 11.126 370.146 10.568 370.302 10.052C370.458 9.536 370.692 9.086 371.004 8.702C371.328 8.306 371.724 8 372.192 7.784C372.66 7.568 373.218 7.46 373.866 7.46C374.55 7.46 375.126 7.592 375.594 7.856C376.062 8.108 376.446 8.426 376.746 8.81V8.09C376.746 7.958 376.788 7.85 376.872 7.766C376.956 7.682 377.058 7.64 377.178 7.64H378.636C378.756 7.64 378.858 7.682 378.942 7.766C379.026 7.85 379.068 7.958 379.068 8.09L379.086 16.766C379.086 17.63 378.924 18.374 378.6 18.998C378.276 19.622 377.784 20.102 377.124 20.438C376.476 20.786 375.642 20.96 374.622 20.96ZM374.532 15.038C375.024 15.038 375.42 14.93 375.72 14.714C376.02 14.498 376.242 14.216 376.386 13.868C376.53 13.52 376.614 13.166 376.638 12.806C376.65 12.65 376.656 12.452 376.656 12.212C376.656 11.972 376.65 11.78 376.638 11.636C376.614 11.264 376.53 10.91 376.386 10.574C376.242 10.226 376.02 9.944 375.72 9.728C375.42 9.5 375.024 9.386 374.532 9.386C374.04 9.386 373.644 9.5 373.344 9.728C373.044 9.944 372.828 10.232 372.696 10.592C372.576 10.952 372.504 11.348 372.48 11.78C372.456 12.068 372.456 12.362 372.48 12.662C372.504 13.082 372.576 13.478 372.696 13.85C372.828 14.21 373.044 14.498 373.344 14.714C373.644 14.93 374.04 15.038 374.532 15.038ZM382.474 17C382.354 17 382.252 16.958 382.168 16.874C382.084 16.79 382.042 16.688 382.042 16.568V4.652C382.042 4.532 382.084 4.43 382.168 4.346C382.252 4.262 382.354 4.22 382.474 4.22H384.076C384.208 4.22 384.31 4.262 384.382 4.346C384.466 4.43 384.508 4.532 384.508 4.652V8.756C384.832 8.372 385.228 8.06 385.696 7.82C386.164 7.58 386.74 7.46 387.424 7.46C388.156 7.46 388.792 7.628 389.332 7.964C389.884 8.288 390.31 8.75 390.61 9.35C390.91 9.95 391.06 10.67 391.06 11.51V16.568C391.06 16.688 391.018 16.79 390.934 16.874C390.85 16.958 390.748 17 390.628 17H389.008C388.888 17 388.786 16.958 388.702 16.874C388.618 16.79 388.576 16.688 388.576 16.568V11.618C388.576 10.922 388.402 10.376 388.054 9.98C387.718 9.584 387.226 9.386 386.578 9.386C385.954 9.386 385.45 9.584 385.066 9.98C384.694 10.376 384.508 10.922 384.508 11.618V16.568C384.508 16.688 384.466 16.79 384.382 16.874C384.31 16.958 384.208 17 384.076 17H382.474ZM398.009 17C397.289 17 396.683 16.874 396.191 16.622C395.699 16.37 395.333 15.998 395.093 15.506C394.853 15.002 394.733 14.378 394.733 13.634V9.548H393.311C393.191 9.548 393.089 9.506 393.005 9.422C392.921 9.338 392.879 9.236 392.879 9.116V8.072C392.879 7.952 392.921 7.85 393.005 7.766C393.089 7.682 393.191 7.64 393.311 7.64H394.733V4.652C394.733 4.532 394.769 4.43 394.841 4.346C394.925 4.262 395.033 4.22 395.165 4.22H396.623C396.743 4.22 396.845 4.262 396.929 4.346C397.013 4.43 397.055 4.532 397.055 4.652V7.64H399.305C399.425 7.64 399.527 7.682 399.611 7.766C399.695 7.85 399.737 7.952 399.737 8.072V9.116C399.737 9.236 399.695 9.338 399.611 9.422C399.527 9.506 399.425 9.548 399.305 9.548H397.055V13.454C397.055 13.946 397.139 14.33 397.307 14.606C397.487 14.882 397.793 15.02 398.225 15.02H399.467C399.587 15.02 399.689 15.062 399.773 15.146C399.857 15.23 399.899 15.332 399.899 15.452V16.568C399.899 16.688 399.857 16.79 399.773 16.874C399.689 16.958 399.587 17 399.467 17H398.009Z" fill="#0C7FBD"/>
</svg>
