<svg width="871" height="85" viewBox="0 0 871 85" fill="none" xmlns="http://www.w3.org/2000/svg">
<g filter="url(#filter0_dd_54_464)">
<path d="M21.12 56C20.8267 56 20.5867 55.9067 20.4 55.72C20.2133 55.5333 20.12 55.3067 20.12 55.04V29C20.12 28.7067 20.2133 28.4667 20.4 28.28C20.5867 28.0933 20.8267 28 21.12 28H24.28C24.6533 28 24.9333 28.1067 25.12 28.32C25.3067 28.5067 25.4267 28.6533 25.48 28.76L33.2 43.16L41 28.76C41.0533 28.6533 41.1733 28.5067 41.36 28.32C41.5467 28.1067 41.8267 28 42.2 28H45.32C45.6133 28 45.8533 28.0933 46.04 28.28C46.2267 28.4667 46.32 28.7067 46.32 29V55.04C46.32 55.3067 46.2267 55.5333 46.04 55.72C45.8533 55.9067 45.6133 56 45.32 56H41.96C41.6667 56 41.4267 55.9067 41.24 55.72C41.08 55.5333 41 55.3067 41 55.04V37.72L35.4 48.4C35.2667 48.64 35.0933 48.8533 34.88 49.04C34.6667 49.2 34.3867 49.28 34.04 49.28H32.4C32.0267 49.28 31.7333 49.2 31.52 49.04C31.3333 48.8533 31.1733 48.64 31.04 48.4L25.44 37.72V55.04C25.44 55.3067 25.3467 55.5333 25.16 55.72C24.9733 55.9067 24.7467 56 24.48 56H21.12ZM57.3019 56.4C55.9152 56.4 54.6619 56.1333 53.5419 55.6C52.4219 55.04 51.5285 54.3067 50.8619 53.4C50.2219 52.4667 49.9019 51.4267 49.9019 50.28C49.9019 48.4133 50.6485 46.9333 52.1419 45.84C53.6619 44.72 55.6619 43.9733 58.1419 43.6L63.6219 42.8V41.96C63.6219 40.84 63.3419 39.9733 62.7819 39.36C62.2219 38.7467 61.2619 38.44 59.9019 38.44C58.9419 38.44 58.1552 38.64 57.5419 39.04C56.9552 39.4133 56.5152 39.92 56.2219 40.56C56.0085 40.9067 55.7019 41.08 55.3019 41.08H52.1419C51.8485 41.08 51.6219 41 51.4619 40.84C51.3285 40.68 51.2619 40.4667 51.2619 40.2C51.2885 39.7733 51.4619 39.2533 51.7819 38.64C52.1019 38.0267 52.6085 37.44 53.3019 36.88C53.9952 36.2933 54.8885 35.8 55.9819 35.4C57.0752 35 58.3952 34.8 59.9419 34.8C61.6219 34.8 63.0352 35.0133 64.1819 35.44C65.3552 35.84 66.2885 36.3867 66.9819 37.08C67.6752 37.7733 68.1819 38.5867 68.5019 39.52C68.8219 40.4533 68.9819 41.44 68.9819 42.48V55.04C68.9819 55.3067 68.8885 55.5333 68.7019 55.72C68.5152 55.9067 68.2885 56 68.0219 56H64.7819C64.4885 56 64.2485 55.9067 64.0619 55.72C63.9019 55.5333 63.8219 55.3067 63.8219 55.04V53.48C63.4752 53.9867 63.0085 54.4667 62.4219 54.92C61.8352 55.3467 61.1152 55.7067 60.2619 56C59.4352 56.2667 58.4485 56.4 57.3019 56.4ZM58.6619 52.6C59.5952 52.6 60.4352 52.4 61.1819 52C61.9552 51.6 62.5552 50.9867 62.9819 50.16C63.4352 49.3067 63.6619 48.24 63.6619 46.96V46.12L59.6619 46.76C58.0885 47 56.9152 47.3867 56.1419 47.92C55.3685 48.4533 54.9819 49.1067 54.9819 49.88C54.9819 50.4667 55.1552 50.9733 55.5019 51.4C55.8752 51.8 56.3419 52.1067 56.9019 52.32C57.4619 52.5067 58.0485 52.6 58.6619 52.6ZM74.3134 63.6C74.0468 63.6 73.8201 63.5067 73.6334 63.32C73.4468 63.1333 73.3534 62.9067 73.3534 62.64V36.16C73.3534 35.8933 73.4468 35.6667 73.6334 35.48C73.8201 35.2933 74.0468 35.2 74.3134 35.2H77.4734C77.7668 35.2 77.9934 35.2933 78.1534 35.48C78.3401 35.6667 78.4334 35.8933 78.4334 36.16V37.76C79.0734 36.9067 79.9134 36.2 80.9534 35.64C81.9934 35.08 83.2868 34.8 84.8334 34.8C86.2468 34.8 87.4734 35.0267 88.5134 35.48C89.5534 35.9333 90.4201 36.5867 91.1134 37.44C91.8068 38.2667 92.3401 39.2533 92.7134 40.4C93.0868 41.5467 93.3001 42.8133 93.3534 44.2C93.3801 44.6533 93.3934 45.12 93.3934 45.6C93.3934 46.08 93.3801 46.56 93.3534 47.04C93.3268 48.3733 93.1268 49.6133 92.7534 50.76C92.3801 51.88 91.8334 52.8667 91.1134 53.72C90.4201 54.5467 89.5534 55.2 88.5134 55.68C87.4734 56.16 86.2468 56.4 84.8334 56.4C83.3934 56.4 82.1668 56.1467 81.1534 55.64C80.1401 55.1067 79.3134 54.4133 78.6734 53.56V62.64C78.6734 62.9067 78.5801 63.1333 78.3934 63.32C78.2334 63.5067 78.0068 63.6 77.7134 63.6H74.3134ZM83.3534 52.12C84.5001 52.12 85.3934 51.88 86.0334 51.4C86.6734 50.8933 87.1268 50.24 87.3934 49.44C87.6868 48.64 87.8601 47.76 87.9134 46.8C87.9668 46 87.9668 45.2 87.9134 44.4C87.8601 43.44 87.6868 42.56 87.3934 41.76C87.1268 40.96 86.6734 40.32 86.0334 39.84C85.3934 39.3333 84.5001 39.08 83.3534 39.08C82.2601 39.08 81.3668 39.3333 80.6734 39.84C80.0068 40.3467 79.5134 41 79.1934 41.8C78.9001 42.5733 78.7268 43.3733 78.6734 44.2C78.6468 44.68 78.6334 45.1867 78.6334 45.72C78.6334 46.2533 78.6468 46.7733 78.6734 47.28C78.7001 48.08 78.8868 48.8533 79.2334 49.6C79.5801 50.32 80.0868 50.92 80.7534 51.4C81.4201 51.88 82.2868 52.12 83.3534 52.12ZM106.464 64.32C106.198 64.32 105.971 64.2267 105.784 64.04C105.598 63.8533 105.504 63.6267 105.504 63.36V21.12C105.504 20.8533 105.598 20.6267 105.784 20.44C105.971 20.2533 106.198 20.16 106.464 20.16H109.064C109.331 20.16 109.558 20.2533 109.744 20.44C109.931 20.6267 110.024 20.8533 110.024 21.12V63.36C110.024 63.6267 109.931 63.8533 109.744 64.04C109.558 64.2267 109.331 64.32 109.064 64.32H106.464ZM124.366 56C124.099 56 123.873 55.92 123.686 55.76C123.499 55.5733 123.406 55.3333 123.406 55.04V29C123.406 28.7067 123.499 28.4667 123.686 28.28C123.873 28.0933 124.099 28 124.366 28H128.006C128.299 28 128.526 28.0933 128.686 28.28C128.873 28.4667 128.966 28.7067 128.966 29V39.32H140.766V29C140.766 28.7067 140.859 28.4667 141.046 28.28C141.233 28.0933 141.459 28 141.726 28H145.326C145.619 28 145.859 28.0933 146.046 28.28C146.233 28.4667 146.326 28.7067 146.326 29V55.04C146.326 55.3067 146.233 55.5333 146.046 55.72C145.859 55.9067 145.619 56 145.326 56H141.726C141.459 56 141.233 55.9067 141.046 55.72C140.859 55.5333 140.766 55.3067 140.766 55.04V44.32H128.966V55.04C128.966 55.3067 128.873 55.5333 128.686 55.72C128.526 55.9067 128.299 56 128.006 56H124.366ZM152.227 56C151.96 56 151.733 55.9067 151.547 55.72C151.36 55.5333 151.267 55.3067 151.267 55.04V36.16C151.267 35.8933 151.36 35.6667 151.547 35.48C151.733 35.2933 151.96 35.2 152.227 35.2H155.547C155.84 35.2 156.067 35.2933 156.227 35.48C156.413 35.6667 156.507 35.8933 156.507 36.16V55.04C156.507 55.3067 156.413 55.5333 156.227 55.72C156.067 55.9067 155.84 56 155.547 56H152.227ZM152.067 31.76C151.773 31.76 151.533 31.68 151.347 31.52C151.187 31.3333 151.107 31.0933 151.107 30.8V27.92C151.107 27.6533 151.187 27.4267 151.347 27.24C151.533 27.0533 151.773 26.96 152.067 26.96H155.707C156 26.96 156.24 27.0533 156.427 27.24C156.613 27.4267 156.707 27.6533 156.707 27.92V30.8C156.707 31.0933 156.613 31.3333 156.427 31.52C156.24 31.68 156 31.76 155.707 31.76H152.067ZM170.413 64.8C168.467 64.8 166.867 64.5467 165.613 64.04C164.36 63.5333 163.373 62.92 162.653 62.2C161.933 61.48 161.413 60.76 161.093 60.04C160.8 59.3467 160.64 58.8 160.613 58.4C160.587 58.1333 160.667 57.8933 160.853 57.68C161.067 57.4933 161.307 57.4 161.573 57.4H165.053C165.32 57.4 165.533 57.4533 165.693 57.56C165.853 57.6933 165.987 57.92 166.093 58.24C166.253 58.5867 166.467 58.96 166.733 59.36C167 59.76 167.4 60.0933 167.933 60.36C168.493 60.6533 169.253 60.8 170.213 60.8C171.227 60.8 172.08 60.6533 172.773 60.36C173.467 60.0667 173.987 59.5733 174.333 58.88C174.707 58.1867 174.893 57.2267 174.893 56V53.28C174.253 54.0533 173.427 54.68 172.413 55.16C171.427 55.64 170.2 55.88 168.733 55.88C167.293 55.88 166.053 55.6533 165.013 55.2C163.973 54.72 163.107 54.0667 162.413 53.24C161.72 52.3867 161.187 51.3867 160.813 50.24C160.467 49.0933 160.267 47.8267 160.213 46.44C160.187 45.72 160.187 45 160.213 44.28C160.267 42.9467 160.467 41.7067 160.813 40.56C161.16 39.4133 161.68 38.4133 162.373 37.56C163.093 36.68 163.973 36 165.013 35.52C166.053 35.04 167.293 34.8 168.733 34.8C170.253 34.8 171.533 35.0933 172.573 35.68C173.613 36.24 174.467 36.9467 175.133 37.8V36.2C175.133 35.9067 175.227 35.6667 175.413 35.48C175.6 35.2933 175.827 35.2 176.093 35.2H179.333C179.6 35.2 179.827 35.2933 180.013 35.48C180.2 35.6667 180.293 35.9067 180.293 36.2L180.333 55.48C180.333 57.4 179.973 59.0533 179.253 60.44C178.533 61.8267 177.44 62.8933 175.973 63.64C174.533 64.4133 172.68 64.8 170.413 64.8ZM170.213 51.64C171.307 51.64 172.187 51.4 172.853 50.92C173.52 50.44 174.013 49.8133 174.333 49.04C174.653 48.2667 174.84 47.48 174.893 46.68C174.92 46.3333 174.933 45.8933 174.933 45.36C174.933 44.8267 174.92 44.4 174.893 44.08C174.84 43.2533 174.653 42.4667 174.333 41.72C174.013 40.9467 173.52 40.32 172.853 39.84C172.187 39.3333 171.307 39.08 170.213 39.08C169.12 39.08 168.24 39.3333 167.573 39.84C166.907 40.32 166.427 40.96 166.133 41.76C165.867 42.56 165.707 43.44 165.653 44.4C165.6 45.04 165.6 45.6933 165.653 46.36C165.707 47.2933 165.867 48.1733 166.133 49C166.427 49.8 166.907 50.44 167.573 50.92C168.24 51.4 169.12 51.64 170.213 51.64ZM185.862 56C185.595 56 185.369 55.9067 185.182 55.72C184.995 55.5333 184.902 55.3067 184.902 55.04V28.56C184.902 28.2933 184.995 28.0667 185.182 27.88C185.369 27.6933 185.595 27.6 185.862 27.6H189.422C189.715 27.6 189.942 27.6933 190.102 27.88C190.289 28.0667 190.382 28.2933 190.382 28.56V37.68C191.102 36.8267 191.982 36.1333 193.022 35.6C194.062 35.0667 195.342 34.8 196.862 34.8C198.489 34.8 199.902 35.1733 201.102 35.92C202.329 36.64 203.275 37.6667 203.942 39C204.609 40.3333 204.942 41.9333 204.942 43.8V55.04C204.942 55.3067 204.849 55.5333 204.662 55.72C204.475 55.9067 204.249 56 203.982 56H200.382C200.115 56 199.889 55.9067 199.702 55.72C199.515 55.5333 199.422 55.3067 199.422 55.04V44.04C199.422 42.4933 199.035 41.28 198.262 40.4C197.515 39.52 196.422 39.08 194.982 39.08C193.595 39.08 192.475 39.52 191.622 40.4C190.795 41.28 190.382 42.4933 190.382 44.04V55.04C190.382 55.3067 190.289 55.5333 190.102 55.72C189.942 55.9067 189.715 56 189.422 56H185.862ZM210.218 56C209.951 56 209.725 55.9067 209.538 55.72C209.351 55.5333 209.258 55.3067 209.258 55.04V28.56C209.258 28.2933 209.351 28.0667 209.538 27.88C209.725 27.6933 209.951 27.6 210.218 27.6H213.538C213.805 27.6 214.031 27.6933 214.218 27.88C214.405 28.0667 214.498 28.2933 214.498 28.56V55.04C214.498 55.3067 214.405 55.5333 214.218 55.72C214.031 55.9067 213.805 56 213.538 56H210.218ZM220.823 56C220.557 56 220.33 55.9067 220.143 55.72C219.957 55.5333 219.863 55.3067 219.863 55.04V36.16C219.863 35.8933 219.957 35.6667 220.143 35.48C220.33 35.2933 220.557 35.2 220.823 35.2H224.143C224.437 35.2 224.663 35.2933 224.823 35.48C225.01 35.6667 225.103 35.8933 225.103 36.16V55.04C225.103 55.3067 225.01 55.5333 224.823 55.72C224.663 55.9067 224.437 56 224.143 56H220.823ZM220.663 31.76C220.37 31.76 220.13 31.68 219.943 31.52C219.783 31.3333 219.703 31.0933 219.703 30.8V27.92C219.703 27.6533 219.783 27.4267 219.943 27.24C220.13 27.0533 220.37 26.96 220.663 26.96H224.303C224.597 26.96 224.837 27.0533 225.023 27.24C225.21 27.4267 225.303 27.6533 225.303 27.92V30.8C225.303 31.0933 225.21 31.3333 225.023 31.52C224.837 31.68 224.597 31.76 224.303 31.76H220.663ZM239.01 64.8C237.064 64.8 235.464 64.5467 234.21 64.04C232.957 63.5333 231.97 62.92 231.25 62.2C230.53 61.48 230.01 60.76 229.69 60.04C229.397 59.3467 229.237 58.8 229.21 58.4C229.184 58.1333 229.264 57.8933 229.45 57.68C229.664 57.4933 229.904 57.4 230.17 57.4H233.65C233.917 57.4 234.13 57.4533 234.29 57.56C234.45 57.6933 234.584 57.92 234.69 58.24C234.85 58.5867 235.064 58.96 235.33 59.36C235.597 59.76 235.997 60.0933 236.53 60.36C237.09 60.6533 237.85 60.8 238.81 60.8C239.824 60.8 240.677 60.6533 241.37 60.36C242.064 60.0667 242.584 59.5733 242.93 58.88C243.304 58.1867 243.49 57.2267 243.49 56V53.28C242.85 54.0533 242.024 54.68 241.01 55.16C240.024 55.64 238.797 55.88 237.33 55.88C235.89 55.88 234.65 55.6533 233.61 55.2C232.57 54.72 231.704 54.0667 231.01 53.24C230.317 52.3867 229.784 51.3867 229.41 50.24C229.064 49.0933 228.864 47.8267 228.81 46.44C228.784 45.72 228.784 45 228.81 44.28C228.864 42.9467 229.064 41.7067 229.41 40.56C229.757 39.4133 230.277 38.4133 230.97 37.56C231.69 36.68 232.57 36 233.61 35.52C234.65 35.04 235.89 34.8 237.33 34.8C238.85 34.8 240.13 35.0933 241.17 35.68C242.21 36.24 243.064 36.9467 243.73 37.8V36.2C243.73 35.9067 243.824 35.6667 244.01 35.48C244.197 35.2933 244.424 35.2 244.69 35.2H247.93C248.197 35.2 248.424 35.2933 248.61 35.48C248.797 35.6667 248.89 35.9067 248.89 36.2L248.93 55.48C248.93 57.4 248.57 59.0533 247.85 60.44C247.13 61.8267 246.037 62.8933 244.57 63.64C243.13 64.4133 241.277 64.8 239.01 64.8ZM238.81 51.64C239.904 51.64 240.784 51.4 241.45 50.92C242.117 50.44 242.61 49.8133 242.93 49.04C243.25 48.2667 243.437 47.48 243.49 46.68C243.517 46.3333 243.53 45.8933 243.53 45.36C243.53 44.8267 243.517 44.4 243.49 44.08C243.437 43.2533 243.25 42.4667 242.93 41.72C242.61 40.9467 242.117 40.32 241.45 39.84C240.784 39.3333 239.904 39.08 238.81 39.08C237.717 39.08 236.837 39.3333 236.17 39.84C235.504 40.32 235.024 40.96 234.73 41.76C234.464 42.56 234.304 43.44 234.25 44.4C234.197 45.04 234.197 45.6933 234.25 46.36C234.304 47.2933 234.464 48.1733 234.73 49C235.024 49.8 235.504 50.44 236.17 50.92C236.837 51.4 237.717 51.64 238.81 51.64ZM254.459 56C254.192 56 253.965 55.9067 253.779 55.72C253.592 55.5333 253.499 55.3067 253.499 55.04V28.56C253.499 28.2933 253.592 28.0667 253.779 27.88C253.965 27.6933 254.192 27.6 254.459 27.6H258.019C258.312 27.6 258.539 27.6933 258.699 27.88C258.885 28.0667 258.979 28.2933 258.979 28.56V37.68C259.699 36.8267 260.579 36.1333 261.619 35.6C262.659 35.0667 263.939 34.8 265.459 34.8C267.085 34.8 268.499 35.1733 269.699 35.92C270.925 36.64 271.872 37.6667 272.539 39C273.205 40.3333 273.539 41.9333 273.539 43.8V55.04C273.539 55.3067 273.445 55.5333 273.259 55.72C273.072 55.9067 272.845 56 272.579 56H268.979C268.712 56 268.485 55.9067 268.299 55.72C268.112 55.5333 268.019 55.3067 268.019 55.04V44.04C268.019 42.4933 267.632 41.28 266.859 40.4C266.112 39.52 265.019 39.08 263.579 39.08C262.192 39.08 261.072 39.52 260.219 40.4C259.392 41.28 258.979 42.4933 258.979 44.04V55.04C258.979 55.3067 258.885 55.5333 258.699 55.72C258.539 55.9067 258.312 56 258.019 56H254.459ZM286.981 56C285.381 56 284.034 55.72 282.941 55.16C281.847 54.6 281.034 53.7733 280.501 52.68C279.967 51.56 279.701 50.1733 279.701 48.52V39.44H276.541C276.274 39.44 276.047 39.3467 275.861 39.16C275.674 38.9733 275.581 38.7467 275.581 38.48V36.16C275.581 35.8933 275.674 35.6667 275.861 35.48C276.047 35.2933 276.274 35.2 276.541 35.2H279.701V28.56C279.701 28.2933 279.781 28.0667 279.941 27.88C280.127 27.6933 280.367 27.6 280.661 27.6H283.901C284.167 27.6 284.394 27.6933 284.581 27.88C284.767 28.0667 284.861 28.2933 284.861 28.56V35.2H289.861C290.127 35.2 290.354 35.2933 290.541 35.48C290.727 35.6667 290.821 35.8933 290.821 36.16V38.48C290.821 38.7467 290.727 38.9733 290.541 39.16C290.354 39.3467 290.127 39.44 289.861 39.44H284.861V48.12C284.861 49.2133 285.047 50.0667 285.421 50.68C285.821 51.2933 286.501 51.6 287.461 51.6H290.221C290.487 51.6 290.714 51.6933 290.901 51.88C291.087 52.0667 291.181 52.2933 291.181 52.56V55.04C291.181 55.3067 291.087 55.5333 290.901 55.72C290.714 55.9067 290.487 56 290.221 56H286.981ZM302.889 56.4C299.929 56.4 297.582 55.5467 295.849 53.84C294.116 52.1333 293.182 49.7067 293.049 46.56C293.022 46.2933 293.009 45.96 293.009 45.56C293.009 45.1333 293.022 44.8 293.049 44.56C293.156 42.56 293.609 40.8267 294.409 39.36C295.236 37.8933 296.369 36.7733 297.809 36C299.249 35.2 300.942 34.8 302.889 34.8C305.049 34.8 306.862 35.2533 308.329 36.16C309.796 37.04 310.902 38.28 311.649 39.88C312.396 41.4533 312.769 43.28 312.769 45.36V46.2C312.769 46.4667 312.676 46.6933 312.489 46.88C312.302 47.0667 312.062 47.16 311.769 47.16H298.489C298.489 47.16 298.489 47.2 298.489 47.28C298.489 47.36 298.489 47.4267 298.489 47.48C298.516 48.4133 298.689 49.28 299.009 50.08C299.356 50.8533 299.849 51.48 300.489 51.96C301.156 52.44 301.942 52.68 302.849 52.68C303.596 52.68 304.222 52.5733 304.729 52.36C305.236 52.12 305.649 51.8533 305.969 51.56C306.289 51.2667 306.516 51.0267 306.649 50.84C306.889 50.52 307.076 50.3333 307.209 50.28C307.369 50.2 307.596 50.16 307.889 50.16H311.329C311.596 50.16 311.809 50.24 311.969 50.4C312.156 50.56 312.236 50.76 312.209 51C312.182 51.4267 311.956 51.9467 311.529 52.56C311.129 53.1733 310.542 53.7733 309.769 54.36C308.996 54.9467 308.022 55.44 306.849 55.84C305.702 56.2133 304.382 56.4 302.889 56.4ZM298.489 43.8H307.329V43.68C307.329 42.64 307.156 41.7333 306.809 40.96C306.462 40.1867 305.956 39.5733 305.289 39.12C304.622 38.6667 303.822 38.44 302.889 38.44C301.956 38.44 301.156 38.6667 300.489 39.12C299.822 39.5733 299.316 40.1867 298.969 40.96C298.649 41.7333 298.489 42.64 298.489 43.68V43.8ZM323.935 56.4C322.548 56.4 321.322 56.1733 320.255 55.72C319.215 55.24 318.348 54.5733 317.655 53.72C316.962 52.8667 316.428 51.8667 316.055 50.72C315.682 49.5467 315.468 48.2667 315.415 46.88C315.388 46.4 315.375 45.9733 315.375 45.6C315.375 45.2 315.388 44.76 315.415 44.28C315.468 42.9467 315.668 41.7067 316.015 40.56C316.388 39.4133 316.922 38.4133 317.615 37.56C318.335 36.68 319.215 36 320.255 35.52C321.322 35.04 322.548 34.8 323.935 34.8C325.375 34.8 326.588 35.0533 327.575 35.56C328.588 36.04 329.428 36.6667 330.095 37.44V28.56C330.095 28.2933 330.175 28.0667 330.335 27.88C330.522 27.6933 330.762 27.6 331.055 27.6H334.455C334.722 27.6 334.948 27.6933 335.135 27.88C335.322 28.0667 335.415 28.2933 335.415 28.56V55.04C335.415 55.3067 335.322 55.5333 335.135 55.72C334.948 55.9067 334.722 56 334.455 56H331.295C331.002 56 330.762 55.9067 330.575 55.72C330.415 55.5333 330.335 55.3067 330.335 55.04V53.56C329.668 54.3867 328.815 55.0667 327.775 55.6C326.762 56.1333 325.482 56.4 323.935 56.4ZM325.415 52.12C326.535 52.12 327.428 51.8667 328.095 51.36C328.762 50.8533 329.255 50.2133 329.575 49.44C329.895 48.64 330.068 47.8267 330.095 47C330.122 46.52 330.135 46.0133 330.135 45.48C330.135 44.92 330.122 44.4 330.095 43.92C330.068 43.12 329.882 42.36 329.535 41.64C329.188 40.8933 328.682 40.28 328.015 39.8C327.348 39.32 326.482 39.08 325.415 39.08C324.295 39.08 323.402 39.3333 322.735 39.84C322.095 40.32 321.628 40.96 321.335 41.76C321.042 42.56 320.868 43.44 320.815 44.4C320.788 45.2 320.788 46 320.815 46.8C320.868 47.76 321.042 48.64 321.335 49.44C321.628 50.24 322.095 50.8933 322.735 51.4C323.402 51.88 324.295 52.12 325.415 52.12ZM354.91 56C354.644 56 354.417 55.9067 354.23 55.72C354.044 55.5333 353.95 55.3067 353.95 55.04V32.92H346.55C346.284 32.92 346.057 32.8267 345.87 32.64C345.684 32.4533 345.59 32.2267 345.59 31.96V29C345.59 28.7067 345.684 28.4667 345.87 28.28C346.057 28.0933 346.284 28 346.55 28H366.95C367.244 28 367.484 28.0933 367.67 28.28C367.857 28.4667 367.95 28.7067 367.95 29V31.96C367.95 32.2267 367.857 32.4533 367.67 32.64C367.484 32.8267 367.244 32.92 366.95 32.92H359.59V55.04C359.59 55.3067 359.497 55.5333 359.31 55.72C359.124 55.9067 358.884 56 358.59 56H354.91ZM376.017 56.4C373.057 56.4 370.711 55.5467 368.977 53.84C367.244 52.1333 366.311 49.7067 366.177 46.56C366.151 46.2933 366.137 45.96 366.137 45.56C366.137 45.1333 366.151 44.8 366.177 44.56C366.284 42.56 366.737 40.8267 367.537 39.36C368.364 37.8933 369.497 36.7733 370.937 36C372.377 35.2 374.071 34.8 376.017 34.8C378.177 34.8 379.991 35.2533 381.457 36.16C382.924 37.04 384.031 38.28 384.777 39.88C385.524 41.4533 385.897 43.28 385.897 45.36V46.2C385.897 46.4667 385.804 46.6933 385.617 46.88C385.431 47.0667 385.191 47.16 384.897 47.16H371.617C371.617 47.16 371.617 47.2 371.617 47.28C371.617 47.36 371.617 47.4267 371.617 47.48C371.644 48.4133 371.817 49.28 372.137 50.08C372.484 50.8533 372.977 51.48 373.617 51.96C374.284 52.44 375.071 52.68 375.977 52.68C376.724 52.68 377.351 52.5733 377.857 52.36C378.364 52.12 378.777 51.8533 379.097 51.56C379.417 51.2667 379.644 51.0267 379.777 50.84C380.017 50.52 380.204 50.3333 380.337 50.28C380.497 50.2 380.724 50.16 381.017 50.16H384.457C384.724 50.16 384.937 50.24 385.097 50.4C385.284 50.56 385.364 50.76 385.337 51C385.311 51.4267 385.084 51.9467 384.657 52.56C384.257 53.1733 383.671 53.7733 382.897 54.36C382.124 54.9467 381.151 55.44 379.977 55.84C378.831 56.2133 377.511 56.4 376.017 56.4ZM371.617 43.8H380.457V43.68C380.457 42.64 380.284 41.7333 379.937 40.96C379.591 40.1867 379.084 39.5733 378.417 39.12C377.751 38.6667 376.951 38.44 376.017 38.44C375.084 38.44 374.284 38.6667 373.617 39.12C372.951 39.5733 372.444 40.1867 372.097 40.96C371.777 41.7333 371.617 42.64 371.617 43.68V43.8ZM387.916 56C387.676 56 387.463 55.92 387.276 55.76C387.116 55.5733 387.036 55.36 387.036 55.12C387.036 55.04 387.05 54.9467 387.076 54.84C387.13 54.7333 387.21 54.6 387.316 54.44L394.116 45.32L387.796 36.76C387.716 36.6267 387.65 36.5067 387.596 36.4C387.57 36.2933 387.556 36.1867 387.556 36.08C387.556 35.84 387.636 35.64 387.796 35.48C387.983 35.2933 388.196 35.2 388.436 35.2H391.916C392.236 35.2 392.476 35.28 392.636 35.44C392.796 35.6 392.916 35.7467 392.996 35.88L397.516 41.88L402.036 35.88C402.143 35.7467 402.263 35.6 402.396 35.44C402.556 35.28 402.796 35.2 403.116 35.2H406.436C406.676 35.2 406.876 35.2933 407.036 35.48C407.223 35.64 407.316 35.8267 407.316 36.04C407.316 36.1733 407.29 36.2933 407.236 36.4C407.21 36.5067 407.156 36.6267 407.076 36.76L400.676 45.4L407.516 54.44C407.623 54.6 407.69 54.7333 407.716 54.84C407.77 54.9467 407.796 55.04 407.796 55.12C407.796 55.36 407.703 55.5733 407.516 55.76C407.356 55.92 407.156 56 406.916 56H403.276C402.983 56 402.756 55.9333 402.596 55.8C402.436 55.64 402.303 55.4933 402.196 55.36L397.396 49L392.516 55.36C392.41 55.4933 392.276 55.64 392.116 55.8C391.983 55.9333 391.756 56 391.436 56H387.916ZM419.974 56C418.374 56 417.028 55.72 415.934 55.16C414.841 54.6 414.028 53.7733 413.494 52.68C412.961 51.56 412.694 50.1733 412.694 48.52V39.44H409.534C409.268 39.44 409.041 39.3467 408.854 39.16C408.668 38.9733 408.574 38.7467 408.574 38.48V36.16C408.574 35.8933 408.668 35.6667 408.854 35.48C409.041 35.2933 409.268 35.2 409.534 35.2H412.694V28.56C412.694 28.2933 412.774 28.0667 412.934 27.88C413.121 27.6933 413.361 27.6 413.654 27.6H416.894C417.161 27.6 417.388 27.6933 417.574 27.88C417.761 28.0667 417.854 28.2933 417.854 28.56V35.2H422.854C423.121 35.2 423.348 35.2933 423.534 35.48C423.721 35.6667 423.814 35.8933 423.814 36.16V38.48C423.814 38.7467 423.721 38.9733 423.534 39.16C423.348 39.3467 423.121 39.44 422.854 39.44H417.854V48.12C417.854 49.2133 418.041 50.0667 418.414 50.68C418.814 51.2933 419.494 51.6 420.454 51.6H423.214C423.481 51.6 423.708 51.6933 423.894 51.88C424.081 52.0667 424.174 52.2933 424.174 52.56V55.04C424.174 55.3067 424.081 55.5333 423.894 55.72C423.708 55.9067 423.481 56 423.214 56H419.974ZM436.303 64.32C436.037 64.32 435.81 64.2267 435.623 64.04C435.437 63.8533 435.343 63.6267 435.343 63.36V21.12C435.343 20.8533 435.437 20.6267 435.623 20.44C435.81 20.2533 436.037 20.16 436.303 20.16H438.903C439.17 20.16 439.397 20.2533 439.583 20.44C439.77 20.6267 439.863 20.8533 439.863 21.12V63.36C439.863 63.6267 439.77 63.8533 439.583 64.04C439.397 64.2267 439.17 64.32 438.903 64.32H436.303ZM454.205 56C453.938 56 453.712 55.9067 453.525 55.72C453.338 55.5333 453.245 55.3067 453.245 55.04V29C453.245 28.7067 453.338 28.4667 453.525 28.28C453.712 28.0933 453.938 28 454.205 28H464.565C467.792 28 470.338 28.7467 472.205 30.24C474.072 31.7333 475.005 33.9067 475.005 36.76C475.005 38.7333 474.512 40.3733 473.525 41.68C472.565 42.9867 471.272 43.9333 469.645 44.52L475.485 54.72C475.565 54.88 475.605 55.0267 475.605 55.16C475.605 55.4 475.512 55.6 475.325 55.76C475.165 55.92 474.978 56 474.765 56H471.125C470.672 56 470.325 55.88 470.085 55.64C469.845 55.4 469.658 55.16 469.525 54.92L464.365 45.44H458.805V55.04C458.805 55.3067 458.712 55.5333 458.525 55.72C458.365 55.9067 458.138 56 457.845 56H454.205ZM458.805 40.92H464.445C466.072 40.92 467.285 40.56 468.085 39.84C468.885 39.0933 469.285 38.0533 469.285 36.72C469.285 35.3867 468.885 34.3467 468.085 33.6C467.312 32.8267 466.098 32.44 464.445 32.44H458.805V40.92ZM490.519 56.4C488.199 56.4 486.186 56.0133 484.479 55.24C482.772 54.44 481.452 53.2267 480.519 51.6C479.586 49.9467 479.119 47.84 479.119 45.28V29C479.119 28.7067 479.212 28.4667 479.399 28.28C479.586 28.0933 479.812 28 480.079 28H483.719C484.012 28 484.239 28.0933 484.399 28.28C484.586 28.4667 484.679 28.7067 484.679 29V45.28C484.679 47.4667 485.199 49.0933 486.239 50.16C487.279 51.2 488.706 51.72 490.519 51.72C492.332 51.72 493.746 51.2 494.759 50.16C495.799 49.0933 496.319 47.4667 496.319 45.28V29C496.319 28.7067 496.412 28.4667 496.599 28.28C496.786 28.0933 497.026 28 497.319 28H500.919C501.212 28 501.439 28.0933 501.599 28.28C501.786 28.4667 501.879 28.7067 501.879 29V45.28C501.879 47.84 501.412 49.9467 500.479 51.6C499.572 53.2267 498.266 54.44 496.559 55.24C494.879 56.0133 492.866 56.4 490.519 56.4ZM508.035 56C507.768 56 507.541 55.9067 507.355 55.72C507.168 55.5333 507.075 55.3067 507.075 55.04V29C507.075 28.7067 507.168 28.4667 507.355 28.28C507.541 28.0933 507.768 28 508.035 28H519.635C521.795 28 523.555 28.3333 524.915 29C526.275 29.64 527.275 30.5333 527.915 31.68C528.581 32.8267 528.915 34.16 528.915 35.68C528.915 36.6933 528.728 37.5867 528.355 38.36C528.008 39.1067 527.568 39.72 527.035 40.2C526.528 40.68 526.021 41.0533 525.515 41.32C526.555 41.8 527.475 42.6 528.275 43.72C529.075 44.84 529.475 46.1733 529.475 47.72C529.475 49.32 529.115 50.7467 528.395 52C527.675 53.2533 526.608 54.24 525.195 54.96C523.781 55.6533 522.035 56 519.955 56H508.035ZM512.635 51.76H519.315C520.755 51.76 521.848 51.3733 522.595 50.6C523.341 49.8 523.715 48.84 523.715 47.72C523.715 46.5467 523.328 45.5733 522.555 44.8C521.808 44.0267 520.728 43.64 519.315 43.64H512.635V51.76ZM512.635 39.48H518.915C520.328 39.48 521.381 39.1467 522.075 38.48C522.795 37.7867 523.155 36.8933 523.155 35.8C523.155 34.68 522.795 33.8133 522.075 33.2C521.381 32.56 520.328 32.24 518.915 32.24H512.635V39.48ZM534.657 56C534.39 56 534.163 55.9067 533.977 55.72C533.79 55.5333 533.697 55.3067 533.697 55.04V28.96C533.697 28.6933 533.79 28.4667 533.977 28.28C534.163 28.0933 534.39 28 534.657 28H538.417C538.71 28 538.937 28.0933 539.097 28.28C539.283 28.4667 539.377 28.6933 539.377 28.96V55.04C539.377 55.3067 539.283 55.5333 539.097 55.72C538.937 55.9067 538.71 56 538.417 56H534.657ZM545.81 56C545.543 56 545.316 55.9067 545.13 55.72C544.943 55.5333 544.85 55.3067 544.85 55.04V29C544.85 28.7067 544.943 28.4667 545.13 28.28C545.316 28.0933 545.543 28 545.81 28H549.33C549.623 28 549.863 28.0933 550.05 28.28C550.236 28.4667 550.33 28.7067 550.33 29V38.36L559.37 28.72C559.476 28.5867 559.65 28.44 559.89 28.28C560.156 28.0933 560.503 28 560.93 28H564.89C565.103 28 565.29 28.08 565.45 28.24C565.636 28.4 565.73 28.6 565.73 28.84C565.73 29.0267 565.676 29.1867 565.57 29.32L554.57 41.4L566.33 54.64C566.463 54.8 566.53 54.9733 566.53 55.16C566.53 55.4 566.436 55.6 566.25 55.76C566.09 55.92 565.903 56 565.69 56H561.57C561.116 56 560.756 55.9067 560.49 55.72C560.25 55.5067 560.09 55.36 560.01 55.28L550.33 44.68V55.04C550.33 55.3067 550.236 55.5333 550.05 55.72C549.863 55.9067 549.623 56 549.33 56H545.81ZM568.603 59C568.363 59 568.176 58.92 568.043 58.76C567.91 58.6 567.856 58.4 567.883 58.16L568.963 51.36C569.016 51.0133 569.136 50.72 569.323 50.48C569.536 50.2133 569.843 50.08 570.243 50.08H573.923C574.136 50.08 574.31 50.16 574.443 50.32C574.576 50.4533 574.643 50.6267 574.643 50.84C574.643 51.0267 574.603 51.2 574.523 51.36L571.963 58C571.856 58.2667 571.696 58.4933 571.483 58.68C571.296 58.8933 571.016 59 570.643 59H568.603ZM600.091 56C599.824 56 599.597 55.9067 599.411 55.72C599.224 55.5333 599.131 55.3067 599.131 55.04V49.92H586.451C586.157 49.92 585.917 49.8267 585.731 49.64C585.571 49.4533 585.491 49.2267 585.491 48.96V46.24C585.491 46.08 585.517 45.8933 585.571 45.68C585.651 45.44 585.771 45.2267 585.931 45.04L597.731 28.68C598.077 28.2267 598.571 28 599.211 28H603.571C603.837 28 604.064 28.0933 604.251 28.28C604.437 28.4667 604.531 28.6933 604.531 28.96V45.2H608.091C608.411 45.2 608.651 45.2933 608.811 45.48C608.997 45.64 609.091 45.8667 609.091 46.16V48.96C609.091 49.2267 608.997 49.4533 608.811 49.64C608.624 49.8267 608.397 49.92 608.131 49.92H604.531V55.04C604.531 55.3067 604.437 55.5333 604.251 55.72C604.064 55.9067 603.837 56 603.571 56H600.091ZM591.051 45.36H599.251V33.8L591.051 45.36ZM622.704 56.4C620.811 56.4 619.198 56.12 617.864 55.56C616.531 55 615.438 54.2267 614.584 53.24C613.731 52.2533 613.091 51.12 612.664 49.84C612.238 48.5333 611.984 47.1467 611.904 45.68C611.878 44.96 611.851 44.1733 611.824 43.32C611.824 42.44 611.824 41.56 611.824 40.68C611.851 39.8 611.878 38.9867 611.904 38.24C611.958 36.7733 612.211 35.4 612.664 34.12C613.118 32.8133 613.771 31.68 614.624 30.72C615.504 29.76 616.611 29 617.944 28.44C619.278 27.88 620.864 27.6 622.704 27.6C624.571 27.6 626.171 27.88 627.504 28.44C628.838 29 629.931 29.76 630.784 30.72C631.664 31.68 632.318 32.8133 632.744 34.12C633.198 35.4 633.451 36.7733 633.504 38.24C633.558 38.9867 633.584 39.8 633.584 40.68C633.584 41.56 633.584 42.44 633.584 43.32C633.584 44.1733 633.558 44.96 633.504 45.68C633.451 47.1467 633.211 48.5333 632.784 49.84C632.358 51.12 631.718 52.2533 630.864 53.24C630.011 54.2267 628.904 55 627.544 55.56C626.211 56.12 624.598 56.4 622.704 56.4ZM622.704 51.8C624.438 51.8 625.704 51.24 626.504 50.12C627.331 48.9733 627.758 47.4267 627.784 45.48C627.838 44.7067 627.864 43.9333 627.864 43.16C627.864 42.36 627.864 41.56 627.864 40.76C627.864 39.96 627.838 39.2 627.784 38.48C627.758 36.5867 627.331 35.0667 626.504 33.92C625.704 32.7467 624.438 32.16 622.704 32.16C620.998 32.16 619.731 32.7467 618.904 33.92C618.104 35.0667 617.678 36.5867 617.624 38.48C617.624 39.2 617.611 39.96 617.584 40.76C617.584 41.56 617.584 42.36 617.584 43.16C617.611 43.9333 617.624 44.7067 617.624 45.48C617.678 47.4267 618.118 48.9733 618.944 50.12C619.771 51.24 621.024 51.8 622.704 51.8ZM639.153 56C638.887 56 638.66 55.9067 638.473 55.72C638.287 55.5333 638.193 55.3067 638.193 55.04V29C638.193 28.7067 638.287 28.4667 638.473 28.28C638.66 28.0933 638.887 28 639.153 28H649.873C651.953 28 653.767 28.3333 655.313 29C656.86 29.64 658.06 30.6267 658.913 31.96C659.767 33.2667 660.193 34.9067 660.193 36.88C660.193 38.88 659.767 40.5333 658.913 41.84C658.06 43.12 656.86 44.08 655.313 44.72C653.767 45.36 651.953 45.68 649.873 45.68H643.913V55.04C643.913 55.3067 643.82 55.5333 643.633 55.72C643.473 55.9067 643.247 56 642.953 56H639.153ZM643.833 41.24H649.673C651.22 41.24 652.407 40.88 653.233 40.16C654.06 39.4133 654.473 38.32 654.473 36.88C654.473 35.5467 654.087 34.48 653.313 33.68C652.54 32.8533 651.327 32.44 649.673 32.44H643.833V41.24ZM670.881 56C670.614 56 670.387 55.9067 670.201 55.72C670.014 55.5333 669.921 55.3067 669.921 55.04V32.92H662.521C662.254 32.92 662.027 32.8267 661.841 32.64C661.654 32.4533 661.561 32.2267 661.561 31.96V29C661.561 28.7067 661.654 28.4667 661.841 28.28C662.027 28.0933 662.254 28 662.521 28H682.921C683.214 28 683.454 28.0933 683.641 28.28C683.827 28.4667 683.921 28.7067 683.921 29V31.96C683.921 32.2267 683.827 32.4533 683.641 32.64C683.454 32.8267 683.214 32.92 682.921 32.92H675.561V55.04C675.561 55.3067 675.467 55.5333 675.281 55.72C675.094 55.9067 674.854 56 674.561 56H670.881ZM683.92 59C683.68 59 683.494 58.92 683.36 58.76C683.227 58.6 683.174 58.4 683.2 58.16L684.28 51.36C684.334 51.0133 684.454 50.72 684.64 50.48C684.854 50.2133 685.16 50.08 685.56 50.08H689.24C689.454 50.08 689.627 50.16 689.76 50.32C689.894 50.4533 689.96 50.6267 689.96 50.84C689.96 51.0267 689.92 51.2 689.84 51.36L687.28 58C687.174 58.2667 687.014 58.4933 686.8 58.68C686.614 58.8933 686.334 59 685.96 59H683.92ZM703.728 56C703.434 56 703.194 55.9067 703.008 55.72C702.821 55.5333 702.728 55.3067 702.728 55.04V29C702.728 28.7067 702.821 28.4667 703.008 28.28C703.194 28.0933 703.434 28 703.728 28H706.888C707.261 28 707.541 28.1067 707.728 28.32C707.914 28.5067 708.034 28.6533 708.088 28.76L715.808 43.16L723.608 28.76C723.661 28.6533 723.781 28.5067 723.968 28.32C724.154 28.1067 724.434 28 724.808 28H727.928C728.221 28 728.461 28.0933 728.648 28.28C728.834 28.4667 728.928 28.7067 728.928 29V55.04C728.928 55.3067 728.834 55.5333 728.648 55.72C728.461 55.9067 728.221 56 727.928 56H724.568C724.274 56 724.034 55.9067 723.848 55.72C723.688 55.5333 723.608 55.3067 723.608 55.04V37.72L718.008 48.4C717.874 48.64 717.701 48.8533 717.488 49.04C717.274 49.2 716.994 49.28 716.648 49.28H715.008C714.634 49.28 714.341 49.2 714.128 49.04C713.941 48.8533 713.781 48.64 713.648 48.4L708.048 37.72V55.04C708.048 55.3067 707.954 55.5333 707.768 55.72C707.581 55.9067 707.354 56 707.088 56H703.728ZM735.31 56C735.043 56 734.816 55.9067 734.63 55.72C734.443 55.5333 734.35 55.3067 734.35 55.04V29C734.35 28.7067 734.443 28.4667 734.63 28.28C734.816 28.0933 735.043 28 735.31 28H752.91C753.203 28 753.443 28.0933 753.63 28.28C753.816 28.4667 753.91 28.7067 753.91 29V31.64C753.91 31.9067 753.816 32.1333 753.63 32.32C753.443 32.5067 753.203 32.6 752.91 32.6H739.75V39.68H752.03C752.323 39.68 752.563 39.7733 752.75 39.96C752.936 40.12 753.03 40.3467 753.03 40.64V43.12C753.03 43.4133 752.936 43.6533 752.75 43.84C752.563 44 752.323 44.08 752.03 44.08H739.75V51.4H753.23C753.523 51.4 753.763 51.4933 753.95 51.68C754.136 51.8667 754.23 52.1067 754.23 52.4V55.04C754.23 55.3067 754.136 55.5333 753.95 55.72C753.763 55.9067 753.523 56 753.23 56H735.31ZM759.393 56C759.126 56 758.899 55.9067 758.713 55.72C758.526 55.5333 758.433 55.3067 758.433 55.04V29C758.433 28.7067 758.526 28.4667 758.713 28.28C758.899 28.0933 759.126 28 759.393 28H769.153C771.846 28 774.059 28.4133 775.793 29.24C777.553 30.0667 778.873 31.2933 779.753 32.92C780.659 34.5467 781.126 36.5333 781.153 38.88C781.206 40.0533 781.233 41.0933 781.233 42C781.233 42.9067 781.206 43.9333 781.153 45.08C781.099 47.56 780.646 49.6133 779.793 51.24C778.939 52.84 777.646 54.04 775.913 54.84C774.206 55.6133 772.019 56 769.353 56H759.393ZM763.993 51.4H769.153C770.646 51.4 771.859 51.1867 772.793 50.76C773.726 50.3333 774.406 49.6533 774.833 48.72C775.286 47.76 775.526 46.5067 775.553 44.96C775.579 44.16 775.593 43.4667 775.593 42.88C775.619 42.2667 775.619 41.6667 775.593 41.08C775.593 40.4667 775.579 39.7733 775.553 39C775.499 36.8133 774.953 35.2 773.913 34.16C772.873 33.12 771.219 32.6 768.953 32.6H763.993V51.4ZM786.718 56C786.451 56 786.224 55.9067 786.038 55.72C785.851 55.5333 785.758 55.3067 785.758 55.04V28.96C785.758 28.6933 785.851 28.4667 786.038 28.28C786.224 28.0933 786.451 28 786.718 28H790.478C790.771 28 790.998 28.0933 791.158 28.28C791.344 28.4667 791.438 28.6933 791.438 28.96V55.04C791.438 55.3067 791.344 55.5333 791.158 55.72C790.998 55.9067 790.771 56 790.478 56H786.718ZM808.071 56.4C805.751 56.4 803.737 56.0133 802.031 55.24C800.324 54.44 799.004 53.2267 798.071 51.6C797.137 49.9467 796.671 47.84 796.671 45.28V29C796.671 28.7067 796.764 28.4667 796.951 28.28C797.137 28.0933 797.364 28 797.631 28H801.271C801.564 28 801.791 28.0933 801.951 28.28C802.137 28.4667 802.231 28.7067 802.231 29V45.28C802.231 47.4667 802.751 49.0933 803.791 50.16C804.831 51.2 806.257 51.72 808.071 51.72C809.884 51.72 811.297 51.2 812.311 50.16C813.351 49.0933 813.871 47.4667 813.871 45.28V29C813.871 28.7067 813.964 28.4667 814.151 28.28C814.337 28.0933 814.577 28 814.871 28H818.471C818.764 28 818.991 28.0933 819.151 28.28C819.337 28.4667 819.431 28.7067 819.431 29V45.28C819.431 47.84 818.964 49.9467 818.031 51.6C817.124 53.2267 815.817 54.44 814.111 55.24C812.431 56.0133 810.417 56.4 808.071 56.4ZM825.626 56C825.333 56 825.093 55.9067 824.906 55.72C824.72 55.5333 824.626 55.3067 824.626 55.04V29C824.626 28.7067 824.72 28.4667 824.906 28.28C825.093 28.0933 825.333 28 825.626 28H828.786C829.16 28 829.44 28.1067 829.626 28.32C829.813 28.5067 829.933 28.6533 829.986 28.76L837.706 43.16L845.506 28.76C845.56 28.6533 845.68 28.5067 845.866 28.32C846.053 28.1067 846.333 28 846.706 28H849.826C850.12 28 850.36 28.0933 850.546 28.28C850.733 28.4667 850.826 28.7067 850.826 29V55.04C850.826 55.3067 850.733 55.5333 850.546 55.72C850.36 55.9067 850.12 56 849.826 56H846.466C846.173 56 845.933 55.9067 845.746 55.72C845.586 55.5333 845.506 55.3067 845.506 55.04V37.72L839.906 48.4C839.773 48.64 839.6 48.8533 839.386 49.04C839.173 49.2 838.893 49.28 838.546 49.28H836.906C836.533 49.28 836.24 49.2 836.026 49.04C835.84 48.8533 835.68 48.64 835.546 48.4L829.946 37.72V55.04C829.946 55.3067 829.853 55.5333 829.666 55.72C829.48 55.9067 829.253 56 828.986 56H825.626Z" fill="#A6F6FF"/>
</g>
<defs>
<filter id="filter0_dd_54_464" x="0.119995" y="0.160156" width="870.706" height="84.6396" filterUnits="userSpaceOnUse" color-interpolation-filters="sRGB">
<feFlood flood-opacity="0" result="BackgroundImageFix"/>
<feColorMatrix in="SourceAlpha" type="matrix" values="0 0 0 0 0 0 0 0 0 0 0 0 0 0 0 0 0 0 127 0" result="hardAlpha"/>
<feOffset/>
<feGaussianBlur stdDeviation="10"/>
<feComposite in2="hardAlpha" operator="out"/>
<feColorMatrix type="matrix" values="0 0 0 0 0 0 0 0 0 0.94 0 0 0 0 1 0 0 0 1 0"/>
<feBlend mode="normal" in2="BackgroundImageFix" result="effect1_dropShadow_54_464"/>
<feColorMatrix in="SourceAlpha" type="matrix" values="0 0 0 0 0 0 0 0 0 0 0 0 0 0 0 0 0 0 127 0" result="hardAlpha"/>
<feOffset/>
<feGaussianBlur stdDeviation="1"/>
<feComposite in2="hardAlpha" operator="out"/>
<feColorMatrix type="matrix" values="0 0 0 0 0.108333 0 0 0 0 1 0 0 0 0 0.893 0 0 0 1 0"/>
<feBlend mode="normal" in2="effect1_dropShadow_54_464" result="effect2_dropShadow_54_464"/>
<feBlend mode="normal" in="SourceGraphic" in2="effect2_dropShadow_54_464" result="shape"/>
</filter>
</defs>
</svg>
