<svg width="850" height="45" viewBox="0 0 850 45" fill="none" xmlns="http://www.w3.org/2000/svg">
<path d="M1.4 36C1.10667 36 0.88 35.92 0.72 35.76C0.56 35.5733 0.48 35.3467 0.48 35.08V8.96C0.48 8.66666 0.56 8.44 0.72 8.28C0.88 8.09333 1.10667 8 1.4 8H3.24C3.56 8 3.8 8.08 3.96 8.24C4.12 8.37333 4.21333 8.48 4.24 8.56L17.52 28.96V8.96C17.52 8.66666 17.6 8.44 17.76 8.28C17.92 8.09333 18.1467 8 18.44 8H20.36C20.6533 8 20.88 8.09333 21.04 8.28C21.2267 8.44 21.32 8.66666 21.32 8.96V35.04C21.32 35.3067 21.2267 35.5333 21.04 35.72C20.88 35.9067 20.6667 36 20.4 36H18.48C18.1867 36 17.96 35.92 17.8 35.76C17.6667 35.6 17.5733 35.4933 17.52 35.44L4.28 15.24V35.08C4.28 35.3467 4.18667 35.5733 4 35.76C3.84 35.92 3.61333 36 3.32 36H1.4ZM25.5734 36C25.3601 36 25.1734 35.92 25.0134 35.76C24.8534 35.6 24.7734 35.4133 24.7734 35.2C24.7734 35.0667 24.7868 34.92 24.8134 34.76L34.7334 8.88C34.8401 8.61333 34.9868 8.4 35.1734 8.24C35.3601 8.08 35.6401 8 36.0134 8H38.7334C39.0801 8 39.3468 8.08 39.5334 8.24C39.7468 8.4 39.9068 8.61333 40.0134 8.88L49.8934 34.76C49.9468 34.92 49.9734 35.0667 49.9734 35.2C49.9734 35.4133 49.8934 35.6 49.7334 35.76C49.5734 35.92 49.3868 36 49.1734 36H47.1334C46.8134 36 46.5734 35.92 46.4134 35.76C46.2801 35.6 46.1868 35.4533 46.1334 35.32L43.9334 29.64H30.8134L28.6134 35.32C28.5868 35.4533 28.4934 35.6 28.3334 35.76C28.1734 35.92 27.9334 36 27.6134 36H25.5734ZM31.9734 26.2H42.7734L37.3734 12L31.9734 26.2ZM59.8172 36C59.4172 36 59.0972 35.9067 58.8572 35.72C58.6439 35.5333 58.4705 35.28 58.3372 34.96L49.4172 9.24C49.3639 9.08 49.3372 8.93333 49.3372 8.8C49.3372 8.58667 49.4172 8.4 49.5772 8.24C49.7372 8.08 49.9239 8 50.1372 8H52.2172C52.5372 8 52.7772 8.09333 52.9372 8.28C53.1239 8.44 53.2305 8.58667 53.2572 8.72L61.0972 31.4L68.9372 8.72C68.9905 8.58667 69.0972 8.44 69.2572 8.28C69.4172 8.09333 69.6572 8 69.9772 8H72.0572C72.2705 8 72.4572 8.08 72.6172 8.24C72.8039 8.4 72.8972 8.58667 72.8972 8.8C72.8972 8.93333 72.8705 9.08 72.8172 9.24L63.8572 34.96C63.7505 35.28 63.5772 35.5333 63.3372 35.72C63.1239 35.9067 62.8172 36 62.4172 36H59.8172ZM85.18 44.32C84.9133 44.32 84.6867 44.2267 84.5 44.04C84.34 43.88 84.26 43.6667 84.26 43.4V1.08C84.26 0.813333 84.34 0.599999 84.5 0.439998C84.6867 0.253332 84.9133 0.159999 85.18 0.159999H86.74C87.0067 0.159999 87.22 0.253332 87.38 0.439998C87.5667 0.599999 87.66 0.813333 87.66 1.08V43.4C87.66 43.6667 87.5667 43.88 87.38 44.04C87.22 44.2267 87.0067 44.32 86.74 44.32H85.18ZM103.241 36C102.947 36 102.721 35.92 102.561 35.76C102.401 35.5733 102.321 35.3467 102.321 35.08V8.96C102.321 8.66666 102.401 8.44 102.561 8.28C102.721 8.09333 102.947 8 103.241 8H105.081C105.401 8 105.641 8.08 105.801 8.24C105.961 8.37333 106.054 8.48 106.081 8.56L119.361 28.96V8.96C119.361 8.66666 119.441 8.44 119.601 8.28C119.761 8.09333 119.987 8 120.281 8H122.201C122.494 8 122.721 8.09333 122.881 8.28C123.067 8.44 123.161 8.66666 123.161 8.96V35.04C123.161 35.3067 123.067 35.5333 122.881 35.72C122.721 35.9067 122.507 36 122.241 36H120.321C120.027 36 119.801 35.92 119.641 35.76C119.507 35.6 119.414 35.4933 119.361 35.44L106.121 15.24V35.08C106.121 35.3467 106.027 35.5733 105.841 35.76C105.681 35.92 105.454 36 105.161 36H103.241ZM137.294 36.4C135.267 36.4 133.574 36.0133 132.214 35.24C130.854 34.4667 129.814 33.4 129.094 32.04C128.374 30.6533 127.974 29.08 127.894 27.32C127.867 26.8667 127.854 26.2933 127.854 25.6C127.854 24.88 127.867 24.3067 127.894 23.88C127.974 22.0933 128.374 20.52 129.094 19.16C129.841 17.8 130.894 16.7333 132.254 15.96C133.614 15.1867 135.294 14.8 137.294 14.8C139.294 14.8 140.974 15.1867 142.334 15.96C143.694 16.7333 144.734 17.8 145.454 19.16C146.201 20.52 146.614 22.0933 146.694 23.88C146.721 24.3067 146.734 24.88 146.734 25.6C146.734 26.2933 146.721 26.8667 146.694 27.32C146.614 29.08 146.214 30.6533 145.494 32.04C144.774 33.4 143.734 34.4667 142.374 35.24C141.014 36.0133 139.321 36.4 137.294 36.4ZM137.294 33.32C138.947 33.32 140.267 32.8 141.254 31.76C142.241 30.6933 142.774 29.1467 142.854 27.12C142.881 26.72 142.894 26.2133 142.894 25.6C142.894 24.9867 142.881 24.48 142.854 24.08C142.774 22.0533 142.241 20.52 141.254 19.48C140.267 18.4133 138.947 17.88 137.294 17.88C135.641 17.88 134.307 18.4133 133.294 19.48C132.307 20.52 131.787 22.0533 131.734 24.08C131.707 24.48 131.694 24.9867 131.694 25.6C131.694 26.2133 131.707 26.72 131.734 27.12C131.787 29.1467 132.307 30.6933 133.294 31.76C134.307 32.8 135.641 33.32 137.294 33.32ZM158.868 36C157.374 36 156.161 35.72 155.228 35.16C154.294 34.5733 153.614 33.76 153.188 32.72C152.761 31.6533 152.548 30.4 152.548 28.96V18.4H149.428C149.161 18.4 148.934 18.32 148.748 18.16C148.588 17.9733 148.508 17.7467 148.508 17.48V16.12C148.508 15.8533 148.588 15.64 148.748 15.48C148.934 15.2933 149.161 15.2 149.428 15.2H152.548V8.52C152.548 8.25333 152.628 8.04 152.788 7.88C152.974 7.69333 153.201 7.6 153.468 7.6H155.348C155.614 7.6 155.828 7.69333 155.988 7.88C156.174 8.04 156.268 8.25333 156.268 8.52V15.2H161.228C161.494 15.2 161.708 15.2933 161.868 15.48C162.054 15.64 162.148 15.8533 162.148 16.12V17.48C162.148 17.7467 162.054 17.9733 161.868 18.16C161.708 18.32 161.494 18.4 161.228 18.4H156.268V28.68C156.268 29.9333 156.481 30.92 156.908 31.64C157.334 32.36 158.094 32.72 159.188 32.72H161.628C161.894 32.72 162.108 32.8133 162.268 33C162.454 33.16 162.548 33.3733 162.548 33.64V35.08C162.548 35.3467 162.454 35.5733 162.268 35.76C162.108 35.92 161.894 36 161.628 36H158.868ZM176.017 36C175.724 36 175.497 35.92 175.337 35.76C175.177 35.5733 175.097 35.3467 175.097 35.08V8.96C175.097 8.66666 175.177 8.44 175.337 8.28C175.497 8.09333 175.724 8 176.017 8H178.057C178.351 8 178.577 8.09333 178.737 8.28C178.924 8.44 179.017 8.66666 179.017 8.96V20H192.777V8.96C192.777 8.66666 192.857 8.44 193.017 8.28C193.204 8.09333 193.431 8 193.697 8H195.737C196.031 8 196.257 8.09333 196.417 8.28C196.604 8.44 196.697 8.66666 196.697 8.96V35.08C196.697 35.3467 196.604 35.5733 196.417 35.76C196.257 35.92 196.031 36 195.737 36H193.697C193.431 36 193.204 35.92 193.017 35.76C192.857 35.5733 192.777 35.3467 192.777 35.08V23.6H179.017V35.08C179.017 35.3467 178.924 35.5733 178.737 35.76C178.577 35.92 178.351 36 178.057 36H176.017ZM203.213 36C202.946 36 202.719 35.92 202.533 35.76C202.373 35.5733 202.293 35.3467 202.293 35.08V16.12C202.293 15.8533 202.373 15.64 202.533 15.48C202.719 15.2933 202.946 15.2 203.213 15.2H205.133C205.399 15.2 205.613 15.2933 205.773 15.48C205.933 15.64 206.013 15.8533 206.013 16.12V35.08C206.013 35.3467 205.933 35.5733 205.773 35.76C205.613 35.92 205.399 36 205.133 36H203.213ZM202.893 11.32C202.626 11.32 202.399 11.24 202.213 11.08C202.053 10.8933 201.973 10.6667 201.973 10.4V8.24C201.973 7.97333 202.053 7.76 202.213 7.6C202.399 7.41333 202.626 7.32 202.893 7.32H205.413C205.679 7.32 205.893 7.41333 206.053 7.6C206.239 7.76 206.333 7.97333 206.333 8.24V10.4C206.333 10.6667 206.239 10.8933 206.053 11.08C205.893 11.24 205.679 11.32 205.413 11.32H202.893ZM219.7 44.8C217.887 44.8 216.394 44.56 215.22 44.08C214.074 43.6 213.167 43.0133 212.5 42.32C211.86 41.6533 211.394 40.9733 211.1 40.28C210.834 39.6133 210.687 39.08 210.66 38.68C210.634 38.4133 210.714 38.1867 210.9 38C211.114 37.8133 211.34 37.72 211.58 37.72H213.5C213.74 37.72 213.94 37.7733 214.1 37.88C214.26 37.9867 214.394 38.2133 214.5 38.56C214.66 38.96 214.9 39.4 215.22 39.88C215.54 40.3867 216.034 40.8133 216.7 41.16C217.367 41.5333 218.3 41.72 219.5 41.72C220.754 41.72 221.807 41.5467 222.66 41.2C223.514 40.88 224.154 40.2933 224.58 39.44C225.034 38.6133 225.26 37.4667 225.26 36V33.28C224.62 34.1067 223.78 34.8 222.74 35.36C221.7 35.8933 220.394 36.16 218.82 36.16C217.327 36.16 216.047 35.9067 214.98 35.4C213.914 34.8667 213.034 34.16 212.34 33.28C211.674 32.3733 211.167 31.3467 210.82 30.2C210.5 29.0533 210.314 27.8533 210.26 26.6C210.234 25.8533 210.234 25.12 210.26 24.4C210.314 23.1467 210.5 21.9467 210.82 20.8C211.167 19.6533 211.674 18.6267 212.34 17.72C213.034 16.8133 213.914 16.1067 214.98 15.6C216.047 15.0667 217.327 14.8 218.82 14.8C220.42 14.8 221.74 15.1067 222.78 15.72C223.847 16.3067 224.714 17.0267 225.38 17.88V16.16C225.38 15.8933 225.46 15.6667 225.62 15.48C225.807 15.2933 226.034 15.2 226.3 15.2H228.14C228.407 15.2 228.634 15.2933 228.82 15.48C229.007 15.6667 229.1 15.8933 229.1 16.16V35.56C229.1 37.3467 228.794 38.9333 228.18 40.32C227.594 41.7067 226.607 42.8 225.22 43.6C223.86 44.4 222.02 44.8 219.7 44.8ZM219.62 32.96C220.954 32.96 222.02 32.6533 222.82 32.04C223.647 31.4267 224.247 30.6533 224.62 29.72C225.02 28.7867 225.234 27.84 225.26 26.88C225.287 26.5067 225.3 26.0533 225.3 25.52C225.3 24.96 225.287 24.4933 225.26 24.12C225.234 23.16 225.02 22.2133 224.62 21.28C224.247 20.3467 223.647 19.5733 222.82 18.96C222.02 18.3467 220.954 18.04 219.62 18.04C218.287 18.04 217.22 18.3467 216.42 18.96C215.62 19.5467 215.047 20.3333 214.7 21.32C214.354 22.28 214.154 23.32 214.1 24.44C214.074 25.1333 214.074 25.84 214.1 26.56C214.154 27.68 214.354 28.7333 214.7 29.72C215.047 30.68 215.62 31.4667 216.42 32.08C217.22 32.6667 218.287 32.96 219.62 32.96ZM235.208 36C234.941 36 234.714 35.92 234.528 35.76C234.368 35.5733 234.288 35.3467 234.288 35.08V8.52C234.288 8.25333 234.368 8.04 234.528 7.88C234.714 7.69333 234.941 7.6 235.208 7.6H237.208C237.501 7.6 237.728 7.69333 237.888 7.88C238.048 8.04 238.128 8.25333 238.128 8.52V17.84C238.848 16.9333 239.728 16.2 240.768 15.64C241.808 15.08 243.128 14.8 244.728 14.8C246.461 14.8 247.928 15.1867 249.128 15.96C250.354 16.7067 251.274 17.76 251.888 19.12C252.528 20.4533 252.848 22.0133 252.848 23.8V35.08C252.848 35.3467 252.768 35.5733 252.608 35.76C252.448 35.92 252.221 36 251.928 36H249.928C249.661 36 249.434 35.92 249.248 35.76C249.088 35.5733 249.008 35.3467 249.008 35.08V24C249.008 22.1333 248.554 20.68 247.648 19.64C246.741 18.5733 245.408 18.04 243.648 18.04C241.994 18.04 240.661 18.5733 239.648 19.64C238.634 20.68 238.128 22.1333 238.128 24V35.08C238.128 35.3467 238.048 35.5733 237.888 35.76C237.728 35.92 237.501 36 237.208 36H235.208ZM258.782 36C258.516 36 258.289 35.92 258.102 35.76C257.942 35.5733 257.862 35.3467 257.862 35.08V8.52C257.862 8.25333 257.942 8.04 258.102 7.88C258.289 7.69333 258.516 7.6 258.782 7.6H260.662C260.956 7.6 261.182 7.69333 261.342 7.88C261.502 8.04 261.582 8.25333 261.582 8.52V35.08C261.582 35.3467 261.502 35.5733 261.342 35.76C261.182 35.92 260.956 36 260.662 36H258.782ZM268.06 36C267.793 36 267.566 35.92 267.38 35.76C267.22 35.5733 267.14 35.3467 267.14 35.08V16.12C267.14 15.8533 267.22 15.64 267.38 15.48C267.566 15.2933 267.793 15.2 268.06 15.2H269.98C270.246 15.2 270.46 15.2933 270.62 15.48C270.78 15.64 270.86 15.8533 270.86 16.12V35.08C270.86 35.3467 270.78 35.5733 270.62 35.76C270.46 35.92 270.246 36 269.98 36H268.06ZM267.74 11.32C267.473 11.32 267.246 11.24 267.06 11.08C266.9 10.8933 266.82 10.6667 266.82 10.4V8.24C266.82 7.97333 266.9 7.76 267.06 7.6C267.246 7.41333 267.473 7.32 267.74 7.32H270.26C270.526 7.32 270.74 7.41333 270.9 7.6C271.086 7.76 271.18 7.97333 271.18 8.24V10.4C271.18 10.6667 271.086 10.8933 270.9 11.08C270.74 11.24 270.526 11.32 270.26 11.32H267.74ZM284.547 44.8C282.734 44.8 281.241 44.56 280.067 44.08C278.921 43.6 278.014 43.0133 277.347 42.32C276.707 41.6533 276.241 40.9733 275.947 40.28C275.681 39.6133 275.534 39.08 275.507 38.68C275.481 38.4133 275.561 38.1867 275.747 38C275.961 37.8133 276.187 37.72 276.427 37.72H278.347C278.587 37.72 278.787 37.7733 278.947 37.88C279.107 37.9867 279.241 38.2133 279.347 38.56C279.507 38.96 279.747 39.4 280.067 39.88C280.387 40.3867 280.881 40.8133 281.547 41.16C282.214 41.5333 283.147 41.72 284.347 41.72C285.601 41.72 286.654 41.5467 287.507 41.2C288.361 40.88 289.001 40.2933 289.427 39.44C289.881 38.6133 290.107 37.4667 290.107 36V33.28C289.467 34.1067 288.627 34.8 287.587 35.36C286.547 35.8933 285.241 36.16 283.667 36.16C282.174 36.16 280.894 35.9067 279.827 35.4C278.761 34.8667 277.881 34.16 277.187 33.28C276.521 32.3733 276.014 31.3467 275.667 30.2C275.347 29.0533 275.161 27.8533 275.107 26.6C275.081 25.8533 275.081 25.12 275.107 24.4C275.161 23.1467 275.347 21.9467 275.667 20.8C276.014 19.6533 276.521 18.6267 277.187 17.72C277.881 16.8133 278.761 16.1067 279.827 15.6C280.894 15.0667 282.174 14.8 283.667 14.8C285.267 14.8 286.587 15.1067 287.627 15.72C288.694 16.3067 289.561 17.0267 290.227 17.88V16.16C290.227 15.8933 290.307 15.6667 290.467 15.48C290.654 15.2933 290.881 15.2 291.147 15.2H292.987C293.254 15.2 293.481 15.2933 293.667 15.48C293.854 15.6667 293.947 15.8933 293.947 16.16V35.56C293.947 37.3467 293.641 38.9333 293.027 40.32C292.441 41.7067 291.454 42.8 290.067 43.6C288.707 44.4 286.867 44.8 284.547 44.8ZM284.467 32.96C285.801 32.96 286.867 32.6533 287.667 32.04C288.494 31.4267 289.094 30.6533 289.467 29.72C289.867 28.7867 290.081 27.84 290.107 26.88C290.134 26.5067 290.147 26.0533 290.147 25.52C290.147 24.96 290.134 24.4933 290.107 24.12C290.081 23.16 289.867 22.2133 289.467 21.28C289.094 20.3467 288.494 19.5733 287.667 18.96C286.867 18.3467 285.801 18.04 284.467 18.04C283.134 18.04 282.067 18.3467 281.267 18.96C280.467 19.5467 279.894 20.3333 279.547 21.32C279.201 22.28 279.001 23.32 278.947 24.44C278.921 25.1333 278.921 25.84 278.947 26.56C279.001 27.68 279.201 28.7333 279.547 29.72C279.894 30.68 280.467 31.4667 281.267 32.08C282.067 32.6667 283.134 32.96 284.467 32.96ZM300.054 36C299.788 36 299.561 35.92 299.374 35.76C299.214 35.5733 299.134 35.3467 299.134 35.08V8.52C299.134 8.25333 299.214 8.04 299.374 7.88C299.561 7.69333 299.788 7.6 300.054 7.6H302.054C302.348 7.6 302.574 7.69333 302.734 7.88C302.894 8.04 302.974 8.25333 302.974 8.52V17.84C303.694 16.9333 304.574 16.2 305.614 15.64C306.654 15.08 307.974 14.8 309.574 14.8C311.308 14.8 312.774 15.1867 313.974 15.96C315.201 16.7067 316.121 17.76 316.734 19.12C317.374 20.4533 317.694 22.0133 317.694 23.8V35.08C317.694 35.3467 317.614 35.5733 317.454 35.76C317.294 35.92 317.068 36 316.774 36H314.774C314.508 36 314.281 35.92 314.094 35.76C313.934 35.5733 313.854 35.3467 313.854 35.08V24C313.854 22.1333 313.401 20.68 312.494 19.64C311.588 18.5733 310.254 18.04 308.494 18.04C306.841 18.04 305.508 18.5733 304.494 19.64C303.481 20.68 302.974 22.1333 302.974 24V35.08C302.974 35.3467 302.894 35.5733 302.734 35.76C302.574 35.92 302.348 36 302.054 36H300.054ZM330.516 36C329.023 36 327.809 35.72 326.876 35.16C325.943 34.5733 325.263 33.76 324.836 32.72C324.409 31.6533 324.196 30.4 324.196 28.96V18.4H321.076C320.809 18.4 320.583 18.32 320.396 18.16C320.236 17.9733 320.156 17.7467 320.156 17.48V16.12C320.156 15.8533 320.236 15.64 320.396 15.48C320.583 15.2933 320.809 15.2 321.076 15.2H324.196V8.52C324.196 8.25333 324.276 8.04 324.436 7.88C324.623 7.69333 324.849 7.6 325.116 7.6H326.996C327.263 7.6 327.476 7.69333 327.636 7.88C327.823 8.04 327.916 8.25333 327.916 8.52V15.2H332.876C333.143 15.2 333.356 15.2933 333.516 15.48C333.703 15.64 333.796 15.8533 333.796 16.12V17.48C333.796 17.7467 333.703 17.9733 333.516 18.16C333.356 18.32 333.143 18.4 332.876 18.4H327.916V28.68C327.916 29.9333 328.129 30.92 328.556 31.64C328.983 32.36 329.743 32.72 330.836 32.72H333.276C333.543 32.72 333.756 32.8133 333.916 33C334.103 33.16 334.196 33.3733 334.196 33.64V35.08C334.196 35.3467 334.103 35.5733 333.916 35.76C333.756 35.92 333.543 36 333.276 36H330.516ZM345.501 36.4C342.754 36.4 340.568 35.56 338.941 33.88C337.314 32.1733 336.421 29.8533 336.261 26.92C336.234 26.5733 336.221 26.1333 336.221 25.6C336.221 25.04 336.234 24.5867 336.261 24.24C336.368 22.3467 336.808 20.6933 337.581 19.28C338.354 17.84 339.408 16.7333 340.741 15.96C342.101 15.1867 343.688 14.8 345.501 14.8C347.528 14.8 349.221 15.2267 350.581 16.08C351.968 16.9333 353.021 18.1467 353.741 19.72C354.461 21.2933 354.821 23.1333 354.821 25.24V25.92C354.821 26.2133 354.728 26.44 354.541 26.6C354.381 26.76 354.168 26.84 353.901 26.84H340.061C340.061 26.8667 340.061 26.92 340.061 27C340.061 27.08 340.061 27.1467 340.061 27.2C340.114 28.2933 340.354 29.32 340.781 30.28C341.208 31.2133 341.821 31.9733 342.621 32.56C343.421 33.1467 344.381 33.44 345.501 33.44C346.461 33.44 347.261 33.2933 347.901 33C348.541 32.7067 349.061 32.3867 349.461 32.04C349.861 31.6667 350.128 31.3867 350.261 31.2C350.501 30.8533 350.688 30.6533 350.821 30.6C350.954 30.52 351.168 30.48 351.461 30.48H353.381C353.648 30.48 353.861 30.56 354.021 30.72C354.208 30.8533 354.288 31.0533 354.261 31.32C354.234 31.72 354.021 32.2133 353.621 32.8C353.221 33.36 352.648 33.92 351.901 34.48C351.154 35.04 350.248 35.5067 349.181 35.88C348.114 36.2267 346.888 36.4 345.501 36.4ZM340.061 24.08H351.021V23.96C351.021 22.76 350.794 21.6933 350.341 20.76C349.914 19.8267 349.288 19.0933 348.461 18.56C347.634 18 346.648 17.72 345.501 17.72C344.354 17.72 343.368 18 342.541 18.56C341.741 19.0933 341.128 19.8267 340.701 20.76C340.274 21.6933 340.061 22.76 340.061 23.96V24.08ZM366.404 36.4C364.937 36.4 363.67 36.1467 362.604 35.64C361.537 35.1067 360.657 34.4 359.964 33.52C359.297 32.6133 358.79 31.5867 358.444 30.44C358.124 29.2933 357.937 28.08 357.884 26.8C357.857 26.3733 357.844 25.9733 357.844 25.6C357.844 25.2267 357.857 24.8267 357.884 24.4C357.937 23.1467 358.124 21.9467 358.444 20.8C358.79 19.6533 359.297 18.6267 359.964 17.72C360.657 16.8133 361.537 16.1067 362.604 15.6C363.67 15.0667 364.937 14.8 366.404 14.8C367.977 14.8 369.284 15.08 370.324 15.64C371.364 16.2 372.217 16.8933 372.884 17.72V8.52C372.884 8.25333 372.964 8.04 373.124 7.88C373.31 7.69333 373.537 7.6 373.804 7.6H375.724C375.99 7.6 376.204 7.69333 376.364 7.88C376.55 8.04 376.644 8.25333 376.644 8.52V35.08C376.644 35.3467 376.55 35.5733 376.364 35.76C376.204 35.92 375.99 36 375.724 36H373.924C373.63 36 373.404 35.92 373.244 35.76C373.084 35.5733 373.004 35.3467 373.004 35.08V33.4C372.337 34.2533 371.47 34.9733 370.404 35.56C369.337 36.12 368.004 36.4 366.404 36.4ZM367.244 33.16C368.577 33.16 369.644 32.8533 370.444 32.24C371.244 31.6267 371.844 30.8533 372.244 29.92C372.644 28.96 372.857 27.9867 372.884 27C372.91 26.5733 372.924 26.0667 372.924 25.48C372.924 24.8667 372.91 24.3467 372.884 23.92C372.857 22.9867 372.63 22.0667 372.204 21.16C371.804 20.2533 371.19 19.5067 370.364 18.92C369.564 18.3333 368.524 18.04 367.244 18.04C365.884 18.04 364.804 18.3467 364.004 18.96C363.204 19.5467 362.63 20.3333 362.284 21.32C361.937 22.28 361.737 23.32 361.684 24.44C361.657 25.2133 361.657 25.9867 361.684 26.76C361.737 27.88 361.937 28.9333 362.284 29.92C362.63 30.88 363.204 31.6667 364.004 32.28C364.804 32.8667 365.884 33.16 367.244 33.16ZM397.342 36C397.075 36 396.849 35.92 396.662 35.76C396.502 35.5733 396.422 35.3467 396.422 35.08V11.56H388.742C388.475 11.56 388.249 11.48 388.062 11.32C387.902 11.1333 387.822 10.9067 387.822 10.64V8.96C387.822 8.66666 387.902 8.44 388.062 8.28C388.249 8.09333 388.475 8 388.742 8H408.022C408.315 8 408.542 8.09333 408.702 8.28C408.889 8.44 408.982 8.66666 408.982 8.96V10.64C408.982 10.9067 408.889 11.1333 408.702 11.32C408.542 11.48 408.315 11.56 408.022 11.56H400.382V35.08C400.382 35.3467 400.289 35.5733 400.102 35.76C399.942 35.92 399.715 36 399.422 36H397.342ZM416.598 36.4C413.851 36.4 411.664 35.56 410.038 33.88C408.411 32.1733 407.518 29.8533 407.358 26.92C407.331 26.5733 407.318 26.1333 407.318 25.6C407.318 25.04 407.331 24.5867 407.358 24.24C407.464 22.3467 407.904 20.6933 408.678 19.28C409.451 17.84 410.504 16.7333 411.838 15.96C413.198 15.1867 414.784 14.8 416.598 14.8C418.624 14.8 420.318 15.2267 421.678 16.08C423.064 16.9333 424.118 18.1467 424.838 19.72C425.558 21.2933 425.918 23.1333 425.918 25.24V25.92C425.918 26.2133 425.824 26.44 425.638 26.6C425.478 26.76 425.264 26.84 424.998 26.84H411.158C411.158 26.8667 411.158 26.92 411.158 27C411.158 27.08 411.158 27.1467 411.158 27.2C411.211 28.2933 411.451 29.32 411.878 30.28C412.304 31.2133 412.918 31.9733 413.718 32.56C414.518 33.1467 415.478 33.44 416.598 33.44C417.558 33.44 418.358 33.2933 418.998 33C419.638 32.7067 420.158 32.3867 420.558 32.04C420.958 31.6667 421.224 31.3867 421.358 31.2C421.598 30.8533 421.784 30.6533 421.918 30.6C422.051 30.52 422.264 30.48 422.558 30.48H424.478C424.744 30.48 424.958 30.56 425.118 30.72C425.304 30.8533 425.384 31.0533 425.358 31.32C425.331 31.72 425.118 32.2133 424.718 32.8C424.318 33.36 423.744 33.92 422.998 34.48C422.251 35.04 421.344 35.5067 420.278 35.88C419.211 36.2267 417.984 36.4 416.598 36.4ZM411.158 24.08H422.118V23.96C422.118 22.76 421.891 21.6933 421.438 20.76C421.011 19.8267 420.384 19.0933 419.558 18.56C418.731 18 417.744 17.72 416.598 17.72C415.451 17.72 414.464 18 413.638 18.56C412.838 19.0933 412.224 19.8267 411.798 20.76C411.371 21.6933 411.158 22.76 411.158 23.96V24.08ZM428.511 36C428.298 36 428.098 35.92 427.911 35.76C427.751 35.6 427.671 35.4 427.671 35.16C427.671 35.08 427.684 34.9867 427.711 34.88C427.764 34.7467 427.844 34.6 427.951 34.44L434.911 25.36L428.391 16.76C428.284 16.6 428.204 16.4667 428.151 16.36C428.124 16.2533 428.111 16.1467 428.111 16.04C428.111 15.8 428.191 15.6 428.351 15.44C428.511 15.28 428.711 15.2 428.951 15.2H430.991C431.284 15.2 431.498 15.28 431.631 15.44C431.791 15.5733 431.924 15.7067 432.031 15.84L437.351 22.76L442.671 15.88C442.778 15.7467 442.898 15.6 443.031 15.44C443.191 15.28 443.418 15.2 443.711 15.2H445.671C445.911 15.2 446.111 15.28 446.271 15.44C446.431 15.6 446.511 15.8 446.511 16.04C446.511 16.1467 446.484 16.2533 446.431 16.36C446.404 16.4667 446.338 16.6 446.231 16.76L439.631 25.44L446.591 34.44C446.698 34.6 446.764 34.7333 446.791 34.84C446.844 34.9467 446.871 35.0533 446.871 35.16C446.871 35.4 446.791 35.6 446.631 35.76C446.471 35.92 446.271 36 446.031 36H443.911C443.644 36 443.431 35.9333 443.271 35.8C443.111 35.6667 442.978 35.5333 442.871 35.4L437.231 28.08L431.591 35.4C431.484 35.5067 431.351 35.64 431.191 35.8C431.058 35.9333 430.844 36 430.551 36H428.511ZM458.353 36C456.86 36 455.647 35.72 454.713 35.16C453.78 34.5733 453.1 33.76 452.673 32.72C452.247 31.6533 452.033 30.4 452.033 28.96V18.4H448.913C448.647 18.4 448.42 18.32 448.233 18.16C448.073 17.9733 447.993 17.7467 447.993 17.48V16.12C447.993 15.8533 448.073 15.64 448.233 15.48C448.42 15.2933 448.647 15.2 448.913 15.2H452.033V8.52C452.033 8.25333 452.113 8.04 452.273 7.88C452.46 7.69333 452.687 7.6 452.953 7.6H454.833C455.1 7.6 455.313 7.69333 455.473 7.88C455.66 8.04 455.753 8.25333 455.753 8.52V15.2H460.713C460.98 15.2 461.193 15.2933 461.353 15.48C461.54 15.64 461.633 15.8533 461.633 16.12V17.48C461.633 17.7467 461.54 17.9733 461.353 18.16C461.193 18.32 460.98 18.4 460.713 18.4H455.753V28.68C455.753 29.9333 455.967 30.92 456.393 31.64C456.82 32.36 457.58 32.72 458.673 32.72H461.113C461.38 32.72 461.593 32.8133 461.753 33C461.94 33.16 462.033 33.3733 462.033 33.64V35.08C462.033 35.3467 461.94 35.5733 461.753 35.76C461.593 35.92 461.38 36 461.113 36H458.353ZM474.983 44.32C474.716 44.32 474.49 44.2267 474.303 44.04C474.143 43.88 474.063 43.6667 474.063 43.4V1.08C474.063 0.813333 474.143 0.599999 474.303 0.439998C474.49 0.253332 474.716 0.159999 474.983 0.159999H476.543C476.81 0.159999 477.023 0.253332 477.183 0.439998C477.37 0.599999 477.463 0.813333 477.463 1.08V43.4C477.463 43.6667 477.37 43.88 477.183 44.04C477.023 44.2267 476.81 44.32 476.543 44.32H474.983ZM493.044 36C492.75 36 492.524 35.92 492.364 35.76C492.204 35.5733 492.124 35.3467 492.124 35.08V8.96C492.124 8.66666 492.204 8.44 492.364 8.28C492.524 8.09333 492.75 8 493.044 8H502.804C505.817 8 508.204 8.70667 509.964 10.12C511.724 11.5333 512.604 13.6267 512.604 16.4C512.604 18.4533 512.084 20.1333 511.044 21.44C510.03 22.72 508.644 23.6133 506.884 24.12L513.044 34.76C513.124 34.92 513.164 35.0667 513.164 35.2C513.164 35.4133 513.07 35.6 512.884 35.76C512.724 35.92 512.537 36 512.324 36H510.404C509.95 36 509.617 35.88 509.404 35.64C509.19 35.4 509.004 35.16 508.844 34.92L503.044 24.76H496.044V35.08C496.044 35.3467 495.95 35.5733 495.764 35.76C495.604 35.92 495.377 36 495.084 36H493.044ZM496.044 21.36H502.644C504.644 21.36 506.137 20.9467 507.124 20.12C508.11 19.2667 508.604 18.0133 508.604 16.36C508.604 14.7333 508.11 13.4933 507.124 12.64C506.164 11.7867 504.67 11.36 502.644 11.36H496.044V21.36ZM524.775 36.4C523.068 36.4 521.615 36.0267 520.415 35.28C519.241 34.5067 518.348 33.44 517.735 32.08C517.121 30.72 516.815 29.16 516.815 27.4V16.12C516.815 15.8533 516.895 15.64 517.055 15.48C517.241 15.2933 517.468 15.2 517.735 15.2H519.735C520.001 15.2 520.215 15.2933 520.375 15.48C520.561 15.64 520.655 15.8533 520.655 16.12V27.2C520.655 31.1733 522.388 33.16 525.855 33.16C527.508 33.16 528.828 32.64 529.815 31.6C530.828 30.5333 531.335 29.0667 531.335 27.2V16.12C531.335 15.8533 531.415 15.64 531.575 15.48C531.761 15.2933 531.988 15.2 532.255 15.2H534.215C534.508 15.2 534.735 15.2933 534.895 15.48C535.055 15.64 535.135 15.8533 535.135 16.12V35.08C535.135 35.3467 535.055 35.5733 534.895 35.76C534.735 35.92 534.508 36 534.215 36H532.375C532.108 36 531.881 35.92 531.695 35.76C531.535 35.5733 531.455 35.3467 531.455 35.08V33.32C530.735 34.2533 529.855 35 528.815 35.56C527.801 36.12 526.455 36.4 524.775 36.4ZM550.557 36.4C548.957 36.4 547.624 36.12 546.557 35.56C545.491 34.9733 544.637 34.2533 543.997 33.4V35.08C543.997 35.3467 543.904 35.5733 543.717 35.76C543.557 35.92 543.344 36 543.077 36H541.237C540.971 36 540.744 35.92 540.557 35.76C540.397 35.5733 540.317 35.3467 540.317 35.08V8.52C540.317 8.25333 540.397 8.04 540.557 7.88C540.744 7.69333 540.971 7.6 541.237 7.6H543.157C543.451 7.6 543.677 7.69333 543.837 7.88C543.997 8.04 544.077 8.25333 544.077 8.52V17.72C544.744 16.8933 545.597 16.2 546.637 15.64C547.704 15.08 549.011 14.8 550.557 14.8C552.051 14.8 553.317 15.0667 554.357 15.6C555.424 16.1067 556.291 16.8133 556.957 17.72C557.651 18.6267 558.171 19.6533 558.517 20.8C558.864 21.9467 559.051 23.1467 559.077 24.4C559.104 24.8267 559.117 25.2267 559.117 25.6C559.117 25.9733 559.104 26.3733 559.077 26.8C559.051 28.08 558.864 29.2933 558.517 30.44C558.171 31.5867 557.651 32.6133 556.957 33.52C556.291 34.4 555.424 35.1067 554.357 35.64C553.317 36.1467 552.051 36.4 550.557 36.4ZM549.717 33.16C551.104 33.16 552.184 32.8667 552.957 32.28C553.757 31.6667 554.331 30.88 554.677 29.92C555.024 28.9333 555.224 27.88 555.277 26.76C555.304 25.9867 555.304 25.2133 555.277 24.44C555.224 23.32 555.024 22.28 554.677 21.32C554.331 20.3333 553.757 19.5467 552.957 18.96C552.184 18.3467 551.104 18.04 549.717 18.04C548.464 18.04 547.424 18.3333 546.597 18.92C545.771 19.5067 545.144 20.2533 544.717 21.16C544.317 22.0667 544.104 22.9867 544.077 23.92C544.051 24.3467 544.037 24.8667 544.037 25.48C544.037 26.0667 544.051 26.5733 544.077 27C544.131 27.9867 544.344 28.96 544.717 29.92C545.117 30.8533 545.717 31.6267 546.517 32.24C547.344 32.8533 548.411 33.16 549.717 33.16ZM564.186 36C563.92 36 563.693 35.92 563.506 35.76C563.346 35.5733 563.266 35.3467 563.266 35.08V16.12C563.266 15.8533 563.346 15.64 563.506 15.48C563.693 15.2933 563.92 15.2 564.186 15.2H566.106C566.373 15.2 566.586 15.2933 566.746 15.48C566.906 15.64 566.986 15.8533 566.986 16.12V35.08C566.986 35.3467 566.906 35.5733 566.746 35.76C566.586 35.92 566.373 36 566.106 36H564.186ZM563.866 11.32C563.6 11.32 563.373 11.24 563.186 11.08C563.026 10.8933 562.946 10.6667 562.946 10.4V8.24C562.946 7.97333 563.026 7.76 563.186 7.6C563.373 7.41333 563.6 7.32 563.866 7.32H566.386C566.653 7.32 566.866 7.41333 567.026 7.6C567.213 7.76 567.306 7.97333 567.306 8.24V10.4C567.306 10.6667 567.213 10.8933 567.026 11.08C566.866 11.24 566.653 11.32 566.386 11.32H563.866ZM573.114 36C572.847 36 572.62 35.92 572.434 35.76C572.274 35.5733 572.194 35.3467 572.194 35.08V8.52C572.194 8.25333 572.274 8.04 572.434 7.88C572.62 7.69333 572.847 7.6 573.114 7.6H574.994C575.26 7.6 575.474 7.69333 575.634 7.88C575.82 8.04 575.914 8.25333 575.914 8.52V22.44L583.794 15.88C584.114 15.6133 584.354 15.44 584.514 15.36C584.7 15.2533 584.994 15.2 585.394 15.2H587.514C587.754 15.2 587.954 15.28 588.114 15.44C588.274 15.6 588.354 15.8 588.354 16.04C588.354 16.1467 588.314 16.2667 588.234 16.4C588.18 16.5333 588.06 16.6667 587.874 16.8L578.634 24.48L588.874 34.44C589.194 34.7067 589.354 34.9467 589.354 35.16C589.354 35.4 589.274 35.6 589.114 35.76C588.954 35.92 588.754 36 588.514 36H586.434C586.034 36 585.74 35.96 585.554 35.88C585.367 35.7733 585.127 35.5867 584.834 35.32L575.914 26.8V35.08C575.914 35.3467 575.82 35.5733 575.634 35.76C575.474 35.92 575.26 36 574.994 36H573.114ZM591.699 39C591.485 39 591.312 38.92 591.179 38.76C591.072 38.6 591.032 38.4 591.059 38.16L591.979 32.44C592.032 32.12 592.139 31.8533 592.299 31.64C592.485 31.4 592.752 31.28 593.099 31.28H595.779C595.965 31.28 596.112 31.3467 596.219 31.48C596.352 31.6133 596.419 31.7733 596.419 31.96C596.419 32.1733 596.365 32.3867 596.259 32.6L594.179 38.08C594.072 38.3467 593.925 38.56 593.739 38.72C593.579 38.9067 593.339 39 593.019 39H591.699ZM623.224 36C622.958 36 622.731 35.92 622.544 35.76C622.384 35.5733 622.304 35.3467 622.304 35.08V29.32H609.344C609.078 29.32 608.851 29.24 608.664 29.08C608.504 28.8933 608.424 28.6667 608.424 28.4V26.8C608.424 26.6933 608.451 26.5333 608.504 26.32C608.584 26.08 608.704 25.84 608.864 25.6L620.864 8.68C621.184 8.22667 621.678 8 622.344 8H625.224C625.491 8 625.704 8.09333 625.864 8.28C626.051 8.44 626.144 8.65333 626.144 8.92V25.84H629.744C630.038 25.84 630.264 25.9333 630.424 26.12C630.611 26.28 630.704 26.4933 630.704 26.76V28.4C630.704 28.6667 630.611 28.8933 630.424 29.08C630.264 29.24 630.051 29.32 629.784 29.32H626.144V35.08C626.144 35.3467 626.051 35.5733 625.864 35.76C625.704 35.92 625.491 36 625.224 36H623.224ZM612.704 25.92H622.344V12.2L612.704 25.92ZM643.908 36.4C642.068 36.4 640.508 36.12 639.228 35.56C637.975 34.9733 636.948 34.1733 636.148 33.16C635.348 32.1467 634.761 30.9867 634.388 29.68C634.041 28.3733 633.841 26.9867 633.788 25.52C633.761 24.8 633.735 24.04 633.708 23.24C633.708 22.44 633.708 21.64 633.708 20.84C633.735 20.0133 633.761 19.2267 633.788 18.48C633.815 17.0133 634.015 15.6267 634.388 14.32C634.788 12.9867 635.375 11.8267 636.148 10.84C636.948 9.82667 637.988 9.04 639.268 8.48C640.548 7.89333 642.095 7.6 643.908 7.6C645.748 7.6 647.295 7.89333 648.548 8.48C649.828 9.04 650.868 9.82667 651.668 10.84C652.468 11.8267 653.055 12.9867 653.428 14.32C653.828 15.6267 654.041 17.0133 654.068 18.48C654.095 19.2267 654.108 20.0133 654.108 20.84C654.135 21.64 654.135 22.44 654.108 23.24C654.108 24.04 654.095 24.8 654.068 25.52C654.041 26.9867 653.828 28.3733 653.428 29.68C653.055 30.9867 652.468 32.1467 651.668 33.16C650.895 34.1733 649.868 34.9733 648.588 35.56C647.335 36.12 645.775 36.4 643.908 36.4ZM643.908 33C645.988 33 647.521 32.32 648.508 30.96C649.521 29.5733 650.041 27.6933 650.068 25.32C650.121 24.5467 650.148 23.8 650.148 23.08C650.148 22.3333 650.148 21.6 650.148 20.88C650.148 20.1333 650.121 19.4 650.068 18.68C650.041 16.36 649.521 14.5067 648.508 13.12C647.521 11.7067 645.988 11 643.908 11C641.855 11 640.321 11.7067 639.308 13.12C638.321 14.5067 637.801 16.36 637.748 18.68C637.748 19.4 637.735 20.1333 637.708 20.88C637.708 21.6 637.708 22.3333 637.708 23.08C637.735 23.8 637.748 24.5467 637.748 25.32C637.801 27.6933 638.335 29.5733 639.348 30.96C640.361 32.32 641.881 33 643.908 33ZM659.739 43.6C659.472 43.6 659.245 43.5067 659.059 43.32C658.899 43.16 658.819 42.9467 658.819 42.68V16.12C658.819 15.8533 658.899 15.64 659.059 15.48C659.245 15.2933 659.472 15.2 659.739 15.2H661.579C661.845 15.2 662.059 15.2933 662.219 15.48C662.405 15.64 662.499 15.8533 662.499 16.12V17.88C663.139 17 663.992 16.2667 665.059 15.68C666.125 15.0933 667.459 14.8 669.059 14.8C670.552 14.8 671.819 15.0533 672.859 15.56C673.925 16.0667 674.792 16.76 675.459 17.64C676.152 18.52 676.672 19.52 677.019 20.64C677.365 21.76 677.552 22.96 677.579 24.24C677.605 24.6667 677.619 25.12 677.619 25.6C677.619 26.08 677.605 26.5333 677.579 26.96C677.552 28.2133 677.365 29.4133 677.019 30.56C676.672 31.68 676.152 32.68 675.459 33.56C674.792 34.4133 673.925 35.1067 672.859 35.64C671.819 36.1467 670.552 36.4 669.059 36.4C667.512 36.4 666.205 36.12 665.139 35.56C664.099 34.9733 663.245 34.2533 662.579 33.4V42.68C662.579 42.9467 662.499 43.16 662.339 43.32C662.179 43.5067 661.952 43.6 661.659 43.6H659.739ZM668.219 33.16C669.605 33.16 670.685 32.8667 671.459 32.28C672.259 31.6667 672.832 30.88 673.179 29.92C673.525 28.9333 673.725 27.88 673.779 26.76C673.805 25.9867 673.805 25.2133 673.779 24.44C673.725 23.32 673.525 22.28 673.179 21.32C672.832 20.3333 672.259 19.5467 671.459 18.96C670.685 18.3467 669.605 18.04 668.219 18.04C666.912 18.04 665.845 18.3467 665.019 18.96C664.219 19.5733 663.619 20.36 663.219 21.32C662.845 22.2533 662.632 23.2133 662.579 24.2C662.552 24.6267 662.539 25.1333 662.539 25.72C662.539 26.3067 662.552 26.8267 662.579 27.28C662.605 28.2133 662.819 29.1333 663.219 30.04C663.645 30.9467 664.272 31.6933 665.099 32.28C665.925 32.8667 666.965 33.16 668.219 33.16ZM689.692 36C688.199 36 686.986 35.72 686.052 35.16C685.119 34.5733 684.439 33.76 684.012 32.72C683.586 31.6533 683.372 30.4 683.372 28.96V18.4H680.252C679.986 18.4 679.759 18.32 679.572 18.16C679.412 17.9733 679.332 17.7467 679.332 17.48V16.12C679.332 15.8533 679.412 15.64 679.572 15.48C679.759 15.2933 679.986 15.2 680.252 15.2H683.372V8.52C683.372 8.25333 683.452 8.04 683.612 7.88C683.799 7.69333 684.026 7.6 684.292 7.6H686.172C686.439 7.6 686.652 7.69333 686.812 7.88C686.999 8.04 687.092 8.25333 687.092 8.52V15.2H692.052C692.319 15.2 692.532 15.2933 692.692 15.48C692.879 15.64 692.972 15.8533 692.972 16.12V17.48C692.972 17.7467 692.879 17.9733 692.692 18.16C692.532 18.32 692.319 18.4 692.052 18.4H687.092V28.68C687.092 29.9333 687.306 30.92 687.732 31.64C688.159 32.36 688.919 32.72 690.012 32.72H692.452C692.719 32.72 692.932 32.8133 693.092 33C693.279 33.16 693.372 33.3733 693.372 33.64V35.08C693.372 35.3467 693.279 35.5733 693.092 35.76C692.932 35.92 692.719 36 692.452 36H689.692ZM696.118 39C695.904 39 695.731 38.92 695.598 38.76C695.491 38.6 695.451 38.4 695.478 38.16L696.398 32.44C696.451 32.12 696.558 31.8533 696.718 31.64C696.904 31.4 697.171 31.28 697.518 31.28H700.198C700.384 31.28 700.531 31.3467 700.638 31.48C700.771 31.6133 700.838 31.7733 700.838 31.96C700.838 32.1733 700.784 32.3867 700.678 32.6L698.598 38.08C698.491 38.3467 698.344 38.56 698.158 38.72C697.998 38.9067 697.758 39 697.438 39H696.118ZM716.003 36C715.71 36 715.483 35.92 715.323 35.76C715.163 35.5733 715.083 35.3467 715.083 35.08V8.96C715.083 8.66666 715.163 8.44 715.323 8.28C715.483 8.09333 715.71 8 716.003 8H725.763C728.776 8 731.163 8.70667 732.923 10.12C734.683 11.5333 735.563 13.6267 735.563 16.4C735.563 18.4533 735.043 20.1333 734.003 21.44C732.99 22.72 731.603 23.6133 729.843 24.12L736.003 34.76C736.083 34.92 736.123 35.0667 736.123 35.2C736.123 35.4133 736.03 35.6 735.843 35.76C735.683 35.92 735.496 36 735.283 36H733.363C732.91 36 732.576 35.88 732.363 35.64C732.15 35.4 731.963 35.16 731.803 34.92L726.003 24.76H719.003V35.08C719.003 35.3467 718.91 35.5733 718.723 35.76C718.563 35.92 718.336 36 718.043 36H716.003ZM719.003 21.36H725.603C727.603 21.36 729.096 20.9467 730.083 20.12C731.07 19.2667 731.563 18.0133 731.563 16.36C731.563 14.7333 731.07 13.4933 730.083 12.64C729.123 11.7867 727.63 11.36 725.603 11.36H719.003V21.36ZM748.02 36.4C745.273 36.4 743.086 35.56 741.46 33.88C739.833 32.1733 738.94 29.8533 738.78 26.92C738.753 26.5733 738.74 26.1333 738.74 25.6C738.74 25.04 738.753 24.5867 738.78 24.24C738.886 22.3467 739.326 20.6933 740.1 19.28C740.873 17.84 741.926 16.7333 743.26 15.96C744.62 15.1867 746.206 14.8 748.02 14.8C750.046 14.8 751.74 15.2267 753.1 16.08C754.486 16.9333 755.54 18.1467 756.26 19.72C756.98 21.2933 757.34 23.1333 757.34 25.24V25.92C757.34 26.2133 757.246 26.44 757.06 26.6C756.9 26.76 756.686 26.84 756.42 26.84H742.58C742.58 26.8667 742.58 26.92 742.58 27C742.58 27.08 742.58 27.1467 742.58 27.2C742.633 28.2933 742.873 29.32 743.3 30.28C743.726 31.2133 744.34 31.9733 745.14 32.56C745.94 33.1467 746.9 33.44 748.02 33.44C748.98 33.44 749.78 33.2933 750.42 33C751.06 32.7067 751.58 32.3867 751.98 32.04C752.38 31.6667 752.646 31.3867 752.78 31.2C753.02 30.8533 753.206 30.6533 753.34 30.6C753.473 30.52 753.686 30.48 753.98 30.48H755.9C756.166 30.48 756.38 30.56 756.54 30.72C756.726 30.8533 756.806 31.0533 756.78 31.32C756.753 31.72 756.54 32.2133 756.14 32.8C755.74 33.36 755.166 33.92 754.42 34.48C753.673 35.04 752.766 35.5067 751.7 35.88C750.633 36.2267 749.406 36.4 748.02 36.4ZM742.58 24.08H753.54V23.96C753.54 22.76 753.313 21.6933 752.86 20.76C752.433 19.8267 751.806 19.0933 750.98 18.56C750.153 18 749.166 17.72 748.02 17.72C746.873 17.72 745.886 18 745.06 18.56C744.26 19.0933 743.646 19.8267 743.22 20.76C742.793 21.6933 742.58 22.76 742.58 23.96V24.08ZM769.842 44.8C768.029 44.8 766.536 44.56 765.362 44.08C764.216 43.6 763.309 43.0133 762.642 42.32C762.002 41.6533 761.536 40.9733 761.242 40.28C760.976 39.6133 760.829 39.08 760.802 38.68C760.776 38.4133 760.856 38.1867 761.042 38C761.256 37.8133 761.482 37.72 761.722 37.72H763.642C763.882 37.72 764.082 37.7733 764.242 37.88C764.402 37.9867 764.536 38.2133 764.642 38.56C764.802 38.96 765.042 39.4 765.362 39.88C765.682 40.3867 766.176 40.8133 766.842 41.16C767.509 41.5333 768.442 41.72 769.642 41.72C770.896 41.72 771.949 41.5467 772.802 41.2C773.656 40.88 774.296 40.2933 774.722 39.44C775.176 38.6133 775.402 37.4667 775.402 36V33.28C774.762 34.1067 773.922 34.8 772.882 35.36C771.842 35.8933 770.536 36.16 768.962 36.16C767.469 36.16 766.189 35.9067 765.122 35.4C764.056 34.8667 763.176 34.16 762.482 33.28C761.816 32.3733 761.309 31.3467 760.962 30.2C760.642 29.0533 760.456 27.8533 760.402 26.6C760.376 25.8533 760.376 25.12 760.402 24.4C760.456 23.1467 760.642 21.9467 760.962 20.8C761.309 19.6533 761.816 18.6267 762.482 17.72C763.176 16.8133 764.056 16.1067 765.122 15.6C766.189 15.0667 767.469 14.8 768.962 14.8C770.562 14.8 771.882 15.1067 772.922 15.72C773.989 16.3067 774.856 17.0267 775.522 17.88V16.16C775.522 15.8933 775.602 15.6667 775.762 15.48C775.949 15.2933 776.176 15.2 776.442 15.2H778.282C778.549 15.2 778.776 15.2933 778.962 15.48C779.149 15.6667 779.242 15.8933 779.242 16.16V35.56C779.242 37.3467 778.936 38.9333 778.322 40.32C777.736 41.7067 776.749 42.8 775.362 43.6C774.002 44.4 772.162 44.8 769.842 44.8ZM769.762 32.96C771.096 32.96 772.162 32.6533 772.962 32.04C773.789 31.4267 774.389 30.6533 774.762 29.72C775.162 28.7867 775.376 27.84 775.402 26.88C775.429 26.5067 775.442 26.0533 775.442 25.52C775.442 24.96 775.429 24.4933 775.402 24.12C775.376 23.16 775.162 22.2133 774.762 21.28C774.389 20.3467 773.789 19.5733 772.962 18.96C772.162 18.3467 771.096 18.04 769.762 18.04C768.429 18.04 767.362 18.3467 766.562 18.96C765.762 19.5467 765.189 20.3333 764.842 21.32C764.496 22.28 764.296 23.32 764.242 24.44C764.216 25.1333 764.216 25.84 764.242 26.56C764.296 27.68 764.496 28.7333 764.842 29.72C765.189 30.68 765.762 31.4667 766.562 32.08C767.362 32.6667 768.429 32.96 769.762 32.96ZM792.15 36.4C790.443 36.4 788.99 36.0267 787.79 35.28C786.616 34.5067 785.723 33.44 785.11 32.08C784.496 30.72 784.19 29.16 784.19 27.4V16.12C784.19 15.8533 784.27 15.64 784.43 15.48C784.616 15.2933 784.843 15.2 785.11 15.2H787.11C787.376 15.2 787.59 15.2933 787.75 15.48C787.936 15.64 788.03 15.8533 788.03 16.12V27.2C788.03 31.1733 789.763 33.16 793.23 33.16C794.883 33.16 796.203 32.64 797.19 31.6C798.203 30.5333 798.71 29.0667 798.71 27.2V16.12C798.71 15.8533 798.79 15.64 798.95 15.48C799.136 15.2933 799.363 15.2 799.63 15.2H801.59C801.883 15.2 802.11 15.2933 802.27 15.48C802.43 15.64 802.51 15.8533 802.51 16.12V35.08C802.51 35.3467 802.43 35.5733 802.27 35.76C802.11 35.92 801.883 36 801.59 36H799.75C799.483 36 799.256 35.92 799.07 35.76C798.91 35.5733 798.83 35.3467 798.83 35.08V33.32C798.11 34.2533 797.23 35 796.19 35.56C795.176 36.12 793.83 36.4 792.15 36.4ZM808.612 36C808.346 36 808.119 35.92 807.932 35.76C807.772 35.5733 807.692 35.3467 807.692 35.08V8.52C807.692 8.25333 807.772 8.04 807.932 7.88C808.119 7.69333 808.346 7.6 808.612 7.6H810.492C810.786 7.6 811.012 7.69333 811.172 7.88C811.332 8.04 811.412 8.25333 811.412 8.52V35.08C811.412 35.3467 811.332 35.5733 811.172 35.76C811.012 35.92 810.786 36 810.492 36H808.612ZM822.379 36.4C821.045 36.4 819.832 36.1333 818.739 35.6C817.645 35.0667 816.765 34.3467 816.099 33.44C815.432 32.5333 815.099 31.5067 815.099 30.36C815.099 28.52 815.845 27.0533 817.339 25.96C818.832 24.8667 820.779 24.1467 823.179 23.8L829.139 22.96V21.8C829.139 20.52 828.765 19.52 828.019 18.8C827.299 18.08 826.112 17.72 824.459 17.72C823.259 17.72 822.285 17.96 821.539 18.44C820.819 18.92 820.312 19.5333 820.019 20.28C819.859 20.68 819.579 20.88 819.179 20.88H817.379C817.085 20.88 816.859 20.8 816.699 20.64C816.565 20.4533 816.499 20.24 816.499 20C816.499 19.6 816.645 19.1067 816.939 18.52C817.259 17.9333 817.739 17.36 818.379 16.8C819.019 16.24 819.832 15.7733 820.819 15.4C821.832 15 823.059 14.8 824.499 14.8C826.099 14.8 827.445 15.0133 828.539 15.44C829.632 15.84 830.485 16.3867 831.099 17.08C831.739 17.7733 832.192 18.56 832.459 19.44C832.752 20.32 832.899 21.2133 832.899 22.12V35.08C832.899 35.3467 832.805 35.5733 832.619 35.76C832.459 35.92 832.245 36 831.979 36H830.139C829.845 36 829.619 35.92 829.459 35.76C829.299 35.5733 829.219 35.3467 829.219 35.08V33.36C828.872 33.84 828.405 34.32 827.819 34.8C827.232 35.2533 826.499 35.64 825.619 35.96C824.739 36.2533 823.659 36.4 822.379 36.4ZM823.219 33.4C824.312 33.4 825.312 33.1733 826.219 32.72C827.125 32.24 827.832 31.5067 828.339 30.52C828.872 29.5333 829.139 28.2933 829.139 26.8V25.68L824.499 26.36C822.605 26.6267 821.179 27.08 820.219 27.72C819.259 28.3333 818.779 29.12 818.779 30.08C818.779 30.8267 818.992 31.4533 819.419 31.96C819.872 32.44 820.432 32.8 821.099 33.04C821.792 33.28 822.499 33.4 823.219 33.4ZM838.769 36C838.502 36 838.276 35.92 838.089 35.76C837.929 35.5733 837.849 35.3467 837.849 35.08V16.16C837.849 15.8933 837.929 15.6667 838.089 15.48C838.276 15.2933 838.502 15.2 838.769 15.2H840.609C840.876 15.2 841.102 15.2933 841.289 15.48C841.476 15.6667 841.569 15.8933 841.569 16.16V17.92C842.102 17.0133 842.836 16.3333 843.769 15.88C844.702 15.4267 845.822 15.2 847.129 15.2H848.729C848.996 15.2 849.209 15.2933 849.369 15.48C849.529 15.64 849.609 15.8533 849.609 16.12V17.76C849.609 18.0267 849.529 18.24 849.369 18.4C849.209 18.56 848.996 18.64 848.729 18.64H846.329C844.889 18.64 843.756 19.0667 842.929 19.92C842.102 20.7467 841.689 21.88 841.689 23.32V35.08C841.689 35.3467 841.596 35.5733 841.409 35.76C841.222 35.92 840.996 36 840.729 36H838.769Z" fill="#7D8496"/>
</svg>
