<svg width="135" height="16" viewBox="0 0 135 16" fill="none" xmlns="http://www.w3.org/2000/svg">
<path d="M3.78585 16C3.25785 16 2.77385 15.8753 2.33385 15.626C1.90852 15.362 1.56385 15.0173 1.29985 14.592C1.05052 14.152 0.925854 13.668 0.925854 13.14V3.02C0.925854 2.492 1.05052 2.01533 1.29985 1.59C1.56385 1.15 1.90852 0.805332 2.33385 0.556C2.77385 0.291999 3.25785 0.159999 3.78585 0.159999H13.9059C14.4192 0.159999 14.8959 0.291999 15.3359 0.556C15.7759 0.805332 16.1205 1.15 16.3699 1.59C16.6339 2.01533 16.7659 2.492 16.7659 3.02V13.14C16.7659 13.668 16.6339 14.152 16.3699 14.592C16.1205 15.0173 15.7759 15.362 15.3359 15.626C14.8959 15.8753 14.4192 16 13.9059 16H3.78585ZM3.85185 13.624H13.8399C13.9865 13.624 14.1112 13.5727 14.2139 13.47C14.3165 13.3527 14.3679 13.2207 14.3679 13.074V3.086C14.3679 2.93933 14.3165 2.81467 14.2139 2.712C14.1112 2.59467 13.9865 2.536 13.8399 2.536H3.85185C3.70519 2.536 3.57319 2.59467 3.45585 2.712C3.35319 2.81467 3.30185 2.93933 3.30185 3.086V13.074C3.30185 13.2207 3.35319 13.3527 3.45585 13.47C3.57319 13.5727 3.70519 13.624 3.85185 13.624ZM32.8286 16L27.8786 10.082H30.9806L35.6006 15.56V16H32.8286ZM19.8486 16V0.181999H32.8066C33.3346 0.181999 33.8186 0.313999 34.2586 0.577999C34.6986 0.841999 35.0433 1.194 35.2926 1.634C35.5566 2.05933 35.6886 2.52867 35.6886 3.042V7.486C35.6886 8.014 35.5566 8.498 35.2926 8.938C35.0433 9.36333 34.6986 9.708 34.2586 9.972C33.8186 10.2213 33.3346 10.346 32.8066 10.346L22.2246 10.368V16H19.8486ZM22.7746 7.948H32.7626C32.9093 7.948 33.0339 7.89667 33.1366 7.794C33.2393 7.69133 33.2906 7.56667 33.2906 7.42V3.108C33.2906 2.96133 33.2393 2.83667 33.1366 2.734C33.0339 2.61667 32.9093 2.558 32.7626 2.558H22.7746C22.6279 2.558 22.4959 2.61667 22.3786 2.734C22.2759 2.83667 22.2246 2.96133 22.2246 3.108V7.42C22.2246 7.56667 22.2759 7.69133 22.3786 7.794C22.4959 7.89667 22.6279 7.948 22.7746 7.948ZM38.7289 16V0.159999H51.0489C51.5622 0.159999 52.0389 0.291999 52.4789 0.556C52.9189 0.805332 53.2636 1.15 53.5129 1.59C53.7769 2.01533 53.9089 2.492 53.9089 3.02V6.254C53.9089 6.44467 53.8869 6.63533 53.8429 6.826C53.8136 7.01667 53.7549 7.19267 53.6669 7.354C53.9602 7.76467 54.1802 8.15333 54.3269 8.52C54.4882 8.872 54.5689 9.23133 54.5689 9.598V13.14C54.5689 13.668 54.4369 14.152 54.1729 14.592C53.9236 15.0173 53.5789 15.362 53.1389 15.626C52.6989 15.8753 52.2149 16 51.6869 16H38.7289ZM41.6549 13.624H51.6429C51.7896 13.624 51.9142 13.5727 52.0169 13.47C52.1196 13.3527 52.1709 13.2207 52.1709 13.074V9.664C52.1709 9.51733 52.1196 9.39267 52.0169 9.29C51.9142 9.17267 51.7896 9.114 51.6429 9.114H41.6549C41.5082 9.114 41.3762 9.17267 41.2589 9.29C41.1562 9.39267 41.1049 9.51733 41.1049 9.664V13.074C41.1049 13.2207 41.1562 13.3527 41.2589 13.47C41.3762 13.5727 41.5082 13.624 41.6549 13.624ZM41.6549 6.738H50.9829C51.1296 6.738 51.2542 6.68667 51.3569 6.584C51.4596 6.46667 51.5109 6.33467 51.5109 6.188V3.086C51.5109 2.93933 51.4596 2.81467 51.3569 2.712C51.2542 2.59467 51.1296 2.536 50.9829 2.536H41.6549C41.5082 2.536 41.3762 2.59467 41.2589 2.712C41.1562 2.81467 41.1049 2.93933 41.1049 3.086V6.188C41.1049 6.33467 41.1562 6.46667 41.2589 6.584C41.3762 6.68667 41.5082 6.738 41.6549 6.738ZM57.5616 16V0.159999H59.9376V16H57.5616ZM69.0831 16V2.536H62.3511V0.159999H78.1911V2.536H71.4591V16H69.0831ZM93.4764 16L88.5264 10.082H91.6284L96.2484 15.56V16H93.4764ZM80.4964 16V0.181999H93.4544C93.9824 0.181999 94.4664 0.313999 94.9064 0.577999C95.3464 0.841999 95.6911 1.194 95.9404 1.634C96.2044 2.05933 96.3364 2.52867 96.3364 3.042V7.486C96.3364 8.014 96.2044 8.498 95.9404 8.938C95.6911 9.36333 95.3464 9.708 94.9064 9.972C94.4664 10.2213 93.9824 10.346 93.4544 10.346L82.8724 10.368V16H80.4964ZM83.4224 7.948H93.4104C93.5571 7.948 93.6818 7.89667 93.7844 7.794C93.8871 7.69133 93.9384 7.56667 93.9384 7.42V3.108C93.9384 2.96133 93.8871 2.83667 93.7844 2.734C93.6818 2.61667 93.5571 2.558 93.4104 2.558H83.4224C83.2758 2.558 83.1438 2.61667 83.0264 2.734C82.9238 2.83667 82.8724 2.96133 82.8724 3.108V7.42C82.8724 7.56667 82.9238 7.69133 83.0264 7.794C83.1438 7.89667 83.2758 7.948 83.4224 7.948ZM102.127 16C101.599 16 101.115 15.8753 100.675 15.626C100.249 15.362 99.9047 15.0173 99.6407 14.592C99.3914 14.152 99.2667 13.668 99.2667 13.14V3.02C99.2667 2.492 99.3914 2.01533 99.6407 1.59C99.9047 1.15 100.249 0.805332 100.675 0.556C101.115 0.291999 101.599 0.159999 102.127 0.159999H112.247C112.76 0.159999 113.237 0.291999 113.677 0.556C114.117 0.805332 114.461 1.15 114.711 1.59C114.975 2.01533 115.107 2.492 115.107 3.02V13.14C115.107 13.668 114.975 14.152 114.711 14.592C114.461 15.0173 114.117 15.362 113.677 15.626C113.237 15.8753 112.76 16 112.247 16H102.127ZM102.193 13.624H112.181C112.327 13.624 112.452 13.5727 112.555 13.47C112.657 13.3527 112.709 13.2207 112.709 13.074V3.086C112.709 2.93933 112.657 2.81467 112.555 2.712C112.452 2.59467 112.327 2.536 112.181 2.536H102.193C102.046 2.536 101.914 2.59467 101.797 2.712C101.694 2.81467 101.643 2.93933 101.643 3.086V13.074C101.643 13.2207 101.694 13.3527 101.797 13.47C101.914 13.5727 102.046 13.624 102.193 13.624ZM118.189 16V0.159999H121.027L131.631 12.788V0.159999H134.029V16H131.191L120.565 3.35V16H118.189Z" fill="white"/>
</svg>
