<svg width="192" height="16" viewBox="0 0 192 16" fill="none" xmlns="http://www.w3.org/2000/svg">
<path d="M3.048 16C2.52 16 2.036 15.8753 1.596 15.626C1.17067 15.362 0.826 15.0173 0.562 14.592C0.312667 14.152 0.188 13.668 0.188 13.14V3.02C0.188 2.492 0.312667 2.01533 0.562 1.59C0.826 1.15 1.17067 0.805332 1.596 0.556C2.036 0.291999 2.52 0.159999 3.048 0.159999H13.168C13.6813 0.159999 14.158 0.291999 14.598 0.556C15.038 0.805332 15.3827 1.15 15.632 1.59C15.896 2.01533 16.028 2.492 16.028 3.02V13.14C16.028 13.668 15.896 14.152 15.632 14.592C15.3827 15.0173 15.038 15.362 14.598 15.626C14.158 15.8753 13.6813 16 13.168 16H3.048ZM3.114 13.624H13.102C13.2487 13.624 13.3733 13.5727 13.476 13.47C13.5787 13.3527 13.63 13.2207 13.63 13.074V3.086C13.63 2.93933 13.5787 2.81467 13.476 2.712C13.3733 2.59467 13.2487 2.536 13.102 2.536H3.114C2.96733 2.536 2.83533 2.59467 2.718 2.712C2.61533 2.81467 2.564 2.93933 2.564 3.086V13.074C2.564 13.2207 2.61533 13.3527 2.718 13.47C2.83533 13.5727 2.96733 13.624 3.114 13.624ZM21.9268 16C21.3987 16 20.9147 15.8753 20.4748 15.626C20.0494 15.362 19.7047 15.0173 19.4407 14.592C19.1914 14.152 19.0667 13.668 19.0667 13.14V0.159999H21.4427V13.074C21.4427 13.2207 21.4941 13.3527 21.5968 13.47C21.7141 13.5727 21.8461 13.624 21.9927 13.624H31.9808C32.1274 13.624 32.2521 13.5727 32.3548 13.47C32.4574 13.3527 32.5088 13.2207 32.5088 13.074V0.159999H34.9068V13.14C34.9068 13.668 34.7748 14.152 34.5108 14.592C34.2614 15.0173 33.9168 15.362 33.4768 15.626C33.0368 15.8753 32.5601 16 32.0468 16H21.9268ZM43.9295 16V2.536H37.1975V0.159999H53.0375V2.536H46.3055V16H43.9295ZM55.3649 16V0.138H57.7409V13.624H71.2049V16H55.3649ZM73.0814 16V0.159999H75.4574V16H73.0814ZM78.5125 16V0.159999H81.3505L91.9545 12.788V0.159999H94.3525V16H91.5145L80.8885 3.35V16H78.5125ZM97.5212 16V0.159999H112.041V2.536H99.9192V6.892H109.665V9.268H99.9192V13.624H112.041V16H97.5212ZM130.734 16L121.56 0.159999H124.332L131.922 13.316L139.468 0.159999H142.24L133.088 16H130.734ZM144.68 16V0.159999H147.056V16H144.68ZM150.155 16V0.159999H164.675V2.536H152.553V6.892H162.299V9.268H152.553V13.624H164.675V16H150.155ZM172.917 16L167.153 0.159999H169.683L173.885 11.688L178.087 0.159999H180.595L184.819 11.688L188.999 0.159999H191.551L185.787 16H183.829L179.341 3.68L174.853 16H172.917Z" fill="#7D8496"/>
</svg>
