<svg width="76" height="80" viewBox="0 0 76 80" fill="none" xmlns="http://www.w3.org/2000/svg">
<g filter="url(#filter0_dd_54_491)">
<path d="M32.7016 27.3132C34.2966 26.8366 36.0566 26.5249 38 26.5249C46.7816 26.5249 53.895 33.6382 53.895 42.4199C53.895 51.2016 46.7816 58.3149 38 58.3149C29.2183 58.3149 22.105 51.2016 22.105 42.4199C22.105 39.1566 23.095 36.1132 24.7816 33.5832" fill="#0B3061"/>
<path d="M32.7016 27.3132C34.2966 26.8366 36.0566 26.5249 38 26.5249C46.7816 26.5249 53.895 33.6382 53.895 42.4199C53.895 51.2016 46.7816 58.3149 38 58.3149C29.2183 58.3149 22.105 51.2016 22.105 42.4199C22.105 39.1566 23.095 36.1132 24.7816 33.5832" stroke="#A6F6FF" stroke-width="3" stroke-linecap="round" stroke-linejoin="round"/>
<path d="M30.4282 27.7532L35.7266 21.6665" stroke="#A6F6FF" stroke-width="3" stroke-linecap="round" stroke-linejoin="round"/>
<path d="M30.4282 27.7529L36.6066 32.2629" stroke="#A6F6FF" stroke-width="3" stroke-linecap="round" stroke-linejoin="round"/>
</g>
<defs>
<filter id="filter0_dd_54_491" x="-4" y="-2" width="84" height="84" filterUnits="userSpaceOnUse" color-interpolation-filters="sRGB">
<feFlood flood-opacity="0" result="BackgroundImageFix"/>
<feColorMatrix in="SourceAlpha" type="matrix" values="0 0 0 0 0 0 0 0 0 0 0 0 0 0 0 0 0 0 127 0" result="hardAlpha"/>
<feOffset/>
<feGaussianBlur stdDeviation="10"/>
<feComposite in2="hardAlpha" operator="out"/>
<feColorMatrix type="matrix" values="0 0 0 0 0 0 0 0 0 0.94 0 0 0 0 1 0 0 0 1 0"/>
<feBlend mode="normal" in2="BackgroundImageFix" result="effect1_dropShadow_54_491"/>
<feColorMatrix in="SourceAlpha" type="matrix" values="0 0 0 0 0 0 0 0 0 0 0 0 0 0 0 0 0 0 127 0" result="hardAlpha"/>
<feOffset/>
<feGaussianBlur stdDeviation="1"/>
<feComposite in2="hardAlpha" operator="out"/>
<feColorMatrix type="matrix" values="0 0 0 0 0.108333 0 0 0 0 1 0 0 0 0 0.893 0 0 0 1 0"/>
<feBlend mode="normal" in2="effect1_dropShadow_54_491" result="effect2_dropShadow_54_491"/>
<feBlend mode="normal" in="SourceGraphic" in2="effect2_dropShadow_54_491" result="shape"/>
</filter>
</defs>
</svg>
