<svg width="37" height="12" viewBox="0 0 37 12" fill="none" xmlns="http://www.w3.org/2000/svg">
<path d="M0.714378 11C0.611711 11 0.532378 10.972 0.476377 10.916C0.420377 10.8507 0.392378 10.7713 0.392378 10.678V1.536C0.392378 1.43333 0.420377 1.354 0.476377 1.298C0.532378 1.23267 0.611711 1.2 0.714378 1.2H4.13038C5.18504 1.2 6.02038 1.44733 6.63638 1.942C7.25238 2.43667 7.56038 3.16933 7.56038 4.14C7.56038 4.85867 7.37838 5.44667 7.01438 5.904C6.65971 6.352 6.17438 6.66467 5.55838 6.842L7.71438 10.566C7.74238 10.622 7.75638 10.6733 7.75638 10.72C7.75638 10.7947 7.72371 10.86 7.65838 10.916C7.60238 10.972 7.53704 11 7.46238 11H6.79038C6.63171 11 6.51504 10.958 6.44038 10.874C6.36571 10.79 6.30038 10.706 6.24438 10.622L4.21438 7.066H1.76438V10.678C1.76438 10.7713 1.73171 10.8507 1.66638 10.916C1.61038 10.972 1.53104 11 1.42838 11H0.714378ZM1.76438 5.876H4.07438C4.77438 5.876 5.29704 5.73133 5.64238 5.442C5.98771 5.14333 6.16038 4.70467 6.16038 4.126C6.16038 3.55667 5.98771 3.12267 5.64238 2.824C5.30638 2.52533 4.78371 2.376 4.07438 2.376H1.76438V5.876ZM12.3802 11.14C11.7829 11.14 11.2742 11.0093 10.8542 10.748C10.4435 10.4773 10.1309 10.104 9.9162 9.628C9.70154 9.152 9.5942 8.606 9.5942 7.99V4.042C9.5942 3.94867 9.6222 3.874 9.6782 3.818C9.74354 3.75267 9.82287 3.72 9.9162 3.72H10.6162C10.7095 3.72 10.7842 3.75267 10.8402 3.818C10.9055 3.874 10.9382 3.94867 10.9382 4.042V7.92C10.9382 9.31067 11.5449 10.006 12.7582 10.006C13.3369 10.006 13.7989 9.824 14.1442 9.46C14.4989 9.08667 14.6762 8.57333 14.6762 7.92V4.042C14.6762 3.94867 14.7042 3.874 14.7602 3.818C14.8255 3.75267 14.9049 3.72 14.9982 3.72H15.6842C15.7869 3.72 15.8662 3.75267 15.9222 3.818C15.9782 3.874 16.0062 3.94867 16.0062 4.042V10.678C16.0062 10.7713 15.9782 10.8507 15.9222 10.916C15.8662 10.972 15.7869 11 15.6842 11H15.0402C14.9469 11 14.8675 10.972 14.8022 10.916C14.7462 10.8507 14.7182 10.7713 14.7182 10.678V10.062C14.4662 10.3887 14.1582 10.65 13.7942 10.846C13.4395 11.042 12.9682 11.14 12.3802 11.14ZM21.9641 11.14C21.4041 11.14 20.9374 11.042 20.5641 10.846C20.1907 10.6407 19.8921 10.3887 19.6681 10.09V10.678C19.6681 10.7713 19.6354 10.8507 19.5701 10.916C19.5141 10.972 19.4394 11 19.3461 11H18.7021C18.6087 11 18.5294 10.972 18.4641 10.916C18.4081 10.8507 18.3801 10.7713 18.3801 10.678V1.382C18.3801 1.28867 18.4081 1.214 18.4641 1.158C18.5294 1.09267 18.6087 1.06 18.7021 1.06H19.3741C19.4767 1.06 19.5561 1.09267 19.6121 1.158C19.6681 1.214 19.6961 1.28867 19.6961 1.382V4.602C19.9294 4.31267 20.2281 4.07 20.5921 3.874C20.9654 3.678 21.4227 3.58 21.9641 3.58C22.4867 3.58 22.9301 3.67333 23.2941 3.86C23.6674 4.03733 23.9707 4.28467 24.2041 4.602C24.4467 4.91933 24.6287 5.27867 24.7501 5.68C24.8714 6.08133 24.9367 6.50133 24.9461 6.94C24.9554 7.08933 24.9601 7.22933 24.9601 7.36C24.9601 7.49067 24.9554 7.63067 24.9461 7.78C24.9367 8.228 24.8714 8.65267 24.7501 9.054C24.6287 9.45533 24.4467 9.81467 24.2041 10.132C23.9707 10.44 23.6674 10.6873 23.2941 10.874C22.9301 11.0513 22.4867 11.14 21.9641 11.14ZM21.6701 10.006C22.1554 10.006 22.5334 9.90333 22.8041 9.698C23.0841 9.48333 23.2847 9.208 23.4061 8.872C23.5274 8.52667 23.5974 8.158 23.6161 7.766C23.6254 7.49533 23.6254 7.22467 23.6161 6.954C23.5974 6.562 23.5274 6.198 23.4061 5.862C23.2847 5.51667 23.0841 5.24133 22.8041 5.036C22.5334 4.82133 22.1554 4.714 21.6701 4.714C21.2314 4.714 20.8674 4.81667 20.5781 5.022C20.2887 5.22733 20.0694 5.48867 19.9201 5.806C19.7801 6.12333 19.7054 6.44533 19.6961 6.772C19.6867 6.92133 19.6821 7.10333 19.6821 7.318C19.6821 7.52333 19.6867 7.70067 19.6961 7.85C19.7147 8.19533 19.7894 8.536 19.9201 8.872C20.0601 9.19867 20.2701 9.46933 20.5501 9.684C20.8394 9.89867 21.2127 10.006 21.6701 10.006ZM27.2942 11C27.2009 11 27.1216 10.972 27.0562 10.916C27.0002 10.8507 26.9722 10.7713 26.9722 10.678V4.042C26.9722 3.94867 27.0002 3.874 27.0562 3.818C27.1216 3.75267 27.2009 3.72 27.2942 3.72H27.9662C28.0596 3.72 28.1342 3.75267 28.1902 3.818C28.2462 3.874 28.2742 3.94867 28.2742 4.042V10.678C28.2742 10.7713 28.2462 10.8507 28.1902 10.916C28.1342 10.972 28.0596 11 27.9662 11H27.2942ZM27.1822 2.362C27.0889 2.362 27.0096 2.334 26.9442 2.278C26.8882 2.21267 26.8602 2.13333 26.8602 2.04V1.284C26.8602 1.19067 26.8882 1.116 26.9442 1.06C27.0096 0.994666 27.0889 0.962 27.1822 0.962H28.0642C28.1576 0.962 28.2322 0.994666 28.2882 1.06C28.3536 1.116 28.3862 1.19067 28.3862 1.284V2.04C28.3862 2.13333 28.3536 2.21267 28.2882 2.278C28.2322 2.334 28.1576 2.362 28.0642 2.362H27.1822ZM30.9789 11C30.8855 11 30.8062 10.972 30.7409 10.916C30.6849 10.8507 30.6569 10.7713 30.6569 10.678V1.382C30.6569 1.28867 30.6849 1.214 30.7409 1.158C30.8062 1.09267 30.8855 1.06 30.9789 1.06H31.6369C31.7302 1.06 31.8049 1.09267 31.8609 1.158C31.9262 1.214 31.9589 1.28867 31.9589 1.382V6.254L34.7169 3.958C34.8289 3.86467 34.9129 3.804 34.9689 3.776C35.0342 3.73867 35.1369 3.72 35.2769 3.72H36.0189C36.1029 3.72 36.1729 3.748 36.2289 3.804C36.2849 3.86 36.3129 3.93 36.3129 4.014C36.3129 4.05133 36.2989 4.09333 36.2709 4.14C36.2522 4.18667 36.2102 4.23333 36.1449 4.28L32.9109 6.968L36.4949 10.454C36.6069 10.5473 36.6629 10.6313 36.6629 10.706C36.6629 10.79 36.6349 10.86 36.5789 10.916C36.5229 10.972 36.4529 11 36.3689 11H35.6409C35.5009 11 35.3982 10.986 35.3329 10.958C35.2675 10.9207 35.1835 10.8553 35.0809 10.762L31.9589 7.78V10.678C31.9589 10.7713 31.9262 10.8507 31.8609 10.916C31.8049 10.972 31.7302 11 31.6369 11H30.9789Z" fill="white"/>
</svg>
