<svg width="266" height="56" viewBox="0 0 266 56" fill="none" xmlns="http://www.w3.org/2000/svg">
<g filter="url(#filter0_dd_54_435)">
<path d="M23.004 36C22.4907 36 22.014 35.8753 21.574 35.626C21.134 35.362 20.782 35.0173 20.518 34.592C20.2687 34.152 20.144 33.668 20.144 33.14V32.216H22.52V33.074C22.52 33.2207 22.5713 33.3527 22.674 33.47C22.7913 33.5727 22.9233 33.624 23.07 33.624H33.058C33.2047 33.624 33.3293 33.5727 33.432 33.47C33.5347 33.3527 33.586 33.2207 33.586 33.074V29.818C33.586 29.6567 33.5347 29.5247 33.432 29.422C33.3293 29.3193 33.2047 29.268 33.058 29.268H23.004C22.4907 29.268 22.014 29.1433 21.574 28.894C21.134 28.63 20.782 28.2853 20.518 27.86C20.2687 27.42 20.144 26.936 20.144 26.408V23.02C20.144 22.492 20.2687 22.0153 20.518 21.59C20.782 21.15 21.134 20.8053 21.574 20.556C22.014 20.292 22.4907 20.16 23.004 20.16H33.124C33.6373 20.16 34.114 20.292 34.554 20.556C34.994 20.8053 35.3387 21.15 35.588 21.59C35.852 22.0153 35.984 22.492 35.984 23.02V23.944H33.586V23.086C33.586 22.9393 33.5347 22.8147 33.432 22.712C33.3293 22.5947 33.2047 22.536 33.058 22.536H23.07C22.9233 22.536 22.7913 22.5947 22.674 22.712C22.5713 22.8147 22.52 22.9393 22.52 23.086V26.342C22.52 26.5033 22.5713 26.6353 22.674 26.738C22.7913 26.8407 22.9233 26.892 23.07 26.892H33.124C33.6373 26.892 34.114 27.024 34.554 27.288C34.994 27.5373 35.3387 27.882 35.588 28.322C35.852 28.7473 35.984 29.224 35.984 29.752V33.14C35.984 33.668 35.852 34.152 35.588 34.592C35.3387 35.0173 34.994 35.362 34.554 35.626C34.114 35.8753 33.6373 36 33.124 36H23.004ZM39.0688 36V23.02C39.0688 22.492 39.1935 22.0153 39.4428 21.59C39.7068 21.15 40.0515 20.8053 40.4768 20.556C40.9168 20.292 41.4008 20.16 41.9288 20.16H52.0268C52.5548 20.16 53.0388 20.292 53.4788 20.556C53.9188 20.8053 54.2635 21.15 54.5128 21.59C54.7768 22.0153 54.9088 22.492 54.9088 23.02V36H52.5108V30.456H41.4448V36H39.0688ZM41.4448 28.08H52.5108V23.086C52.5108 22.9393 52.4595 22.8147 52.3568 22.712C52.2541 22.5947 52.1295 22.536 51.9828 22.536H41.9948C41.8481 22.536 41.7161 22.5947 41.5988 22.712C41.4961 22.8147 41.4448 22.9393 41.4448 23.086V28.08ZM64.0154 36V22.536H57.2834V20.16H73.1234V22.536H66.3914V36H64.0154ZM75.4728 36V20.16H89.9928V22.536H77.8708V26.892H87.6168V29.268H77.8708V33.624H89.9928V36H75.4728ZM92.9545 36V20.138H95.3305V33.624H108.795V36H92.9545ZM110.759 36V20.138H113.135V33.624H126.599V36H110.759ZM128.476 36V20.16H130.852V36H128.476ZM139.997 36V22.536H133.265V20.16H149.105V22.536H142.373V36H139.997ZM151.454 36V20.16H165.974V22.536H153.852V26.892H163.598V29.268H153.852V33.624H165.974V36H151.454ZM184.667 36L175.493 20.16H178.265L185.855 33.316L193.401 20.16H196.173L187.021 36H184.667ZM198.613 36V20.16H200.989V36H198.613ZM204.089 36V20.16H218.609V22.536H206.487V26.892H216.233V29.268H206.487V33.624H218.609V36H204.089ZM226.85 36L221.086 20.16H223.616L227.818 31.688L232.02 20.16H234.528L238.752 31.688L242.932 20.16H245.484L239.72 36H237.762L233.274 23.68L228.786 36H226.85Z" fill="#A6F6FF"/>
</g>
<defs>
<filter id="filter0_dd_54_435" x="0.143982" y="0.137939" width="265.34" height="55.8621" filterUnits="userSpaceOnUse" color-interpolation-filters="sRGB">
<feFlood flood-opacity="0" result="BackgroundImageFix"/>
<feColorMatrix in="SourceAlpha" type="matrix" values="0 0 0 0 0 0 0 0 0 0 0 0 0 0 0 0 0 0 127 0" result="hardAlpha"/>
<feOffset/>
<feGaussianBlur stdDeviation="10"/>
<feComposite in2="hardAlpha" operator="out"/>
<feColorMatrix type="matrix" values="0 0 0 0 0.0980392 0 0 0 0 0.54902 0 0 0 0 0.964706 0 0 0 1 0"/>
<feBlend mode="normal" in2="BackgroundImageFix" result="effect1_dropShadow_54_435"/>
<feColorMatrix in="SourceAlpha" type="matrix" values="0 0 0 0 0 0 0 0 0 0 0 0 0 0 0 0 0 0 127 0" result="hardAlpha"/>
<feOffset/>
<feGaussianBlur stdDeviation="1"/>
<feComposite in2="hardAlpha" operator="out"/>
<feColorMatrix type="matrix" values="0 0 0 0 0.0986806 0 0 0 0 0.550033 0 0 0 0 0.966667 0 0 0 1 0"/>
<feBlend mode="normal" in2="effect1_dropShadow_54_435" result="effect2_dropShadow_54_435"/>
<feBlend mode="normal" in="SourceGraphic" in2="effect2_dropShadow_54_435" result="shape"/>
</filter>
</defs>
</svg>
