<svg width="71" height="17" viewBox="0 0 71 17" fill="none" xmlns="http://www.w3.org/2000/svg">
<path opacity="0.5" d="M6.864 16.22C5.588 16.22 4.51733 16.0293 3.652 15.648C2.78667 15.252 2.11933 14.746 1.65 14.13C1.19533 13.4993 0.953333 12.832 0.924 12.128C0.924 12.0107 0.968 11.908 1.056 11.82C1.15867 11.7173 1.276 11.666 1.408 11.666H2.53C2.706 11.666 2.838 11.71 2.926 11.798C3.014 11.886 3.07267 11.9887 3.102 12.106C3.17533 12.458 3.35133 12.81 3.63 13.162C3.92333 13.4993 4.32667 13.7853 4.84 14.02C5.368 14.24 6.04267 14.35 6.864 14.35C8.12533 14.35 9.04933 14.13 9.636 13.69C10.2373 13.2353 10.538 12.634 10.538 11.886C10.538 11.3727 10.3767 10.962 10.054 10.654C9.746 10.3313 9.26933 10.0453 8.624 9.796C7.97867 9.54667 7.14267 9.27533 6.116 8.982C5.04533 8.674 4.158 8.33667 3.454 7.97C2.75 7.60333 2.222 7.14867 1.87 6.606C1.53267 6.06333 1.364 5.374 1.364 4.538C1.364 3.746 1.57667 3.042 2.002 2.426C2.42733 1.79533 3.036 1.29667 3.828 0.929999C4.63467 0.563332 5.61 0.379999 6.754 0.379999C7.66333 0.379999 8.45533 0.504666 9.13 0.754C9.81933 0.988666 10.3913 1.31133 10.846 1.722C11.3007 2.118 11.6453 2.55067 11.88 3.02C12.1147 3.47467 12.2393 3.922 12.254 4.362C12.254 4.46467 12.2173 4.56733 12.144 4.67C12.0707 4.758 11.9533 4.802 11.792 4.802H10.626C10.5233 4.802 10.4133 4.77267 10.296 4.714C10.1933 4.65533 10.1127 4.54533 10.054 4.384C9.966 3.78267 9.62867 3.27667 9.042 2.866C8.45533 2.45533 7.69267 2.25 6.754 2.25C5.80067 2.25 5.02333 2.43333 4.422 2.8C3.83533 3.16667 3.542 3.73867 3.542 4.516C3.542 5.01467 3.68133 5.43267 3.96 5.77C4.23867 6.09267 4.67867 6.37867 5.28 6.628C5.88133 6.87733 6.666 7.14133 7.634 7.42C8.80733 7.74267 9.768 8.08733 10.516 8.454C11.264 8.806 11.814 9.25333 12.166 9.796C12.5327 10.324 12.716 11.006 12.716 11.842C12.716 12.766 12.474 13.558 11.99 14.218C11.506 14.8633 10.824 15.362 9.944 15.714C9.07867 16.0513 8.052 16.22 6.864 16.22ZM19.8675 16.22C18.3569 16.22 17.1542 15.758 16.2595 14.834C15.3649 13.8953 14.8735 12.6193 14.7855 11.006C14.7709 10.8153 14.7635 10.5733 14.7635 10.28C14.7635 9.972 14.7709 9.72267 14.7855 9.532C14.8442 8.49067 15.0862 7.58133 15.5115 6.804C15.9369 6.012 16.5162 5.40333 17.2495 4.978C17.9975 4.55267 18.8702 4.34 19.8675 4.34C20.9822 4.34 21.9135 4.57467 22.6615 5.044C23.4242 5.51333 24.0035 6.18067 24.3995 7.046C24.7955 7.91133 24.9935 8.92333 24.9935 10.082V10.456C24.9935 10.6173 24.9422 10.742 24.8395 10.83C24.7515 10.918 24.6342 10.962 24.4875 10.962H16.8755C16.8755 10.9767 16.8755 11.006 16.8755 11.05C16.8755 11.094 16.8755 11.1307 16.8755 11.16C16.9049 11.7613 17.0369 12.326 17.2715 12.854C17.5062 13.3673 17.8435 13.7853 18.2835 14.108C18.7235 14.4307 19.2515 14.592 19.8675 14.592C20.3955 14.592 20.8355 14.5113 21.1875 14.35C21.5395 14.1887 21.8255 14.0127 22.0455 13.822C22.2655 13.6167 22.4122 13.4627 22.4855 13.36C22.6175 13.1693 22.7202 13.0593 22.7935 13.03C22.8669 12.986 22.9842 12.964 23.1455 12.964H24.2015C24.3482 12.964 24.4655 13.008 24.5535 13.096C24.6562 13.1693 24.7002 13.2793 24.6855 13.426C24.6709 13.646 24.5535 13.9173 24.3335 14.24C24.1135 14.548 23.7982 14.856 23.3875 15.164C22.9769 15.472 22.4782 15.7287 21.8915 15.934C21.3049 16.1247 20.6302 16.22 19.8675 16.22ZM16.8755 9.444H22.9035V9.378C22.9035 8.718 22.7789 8.13133 22.5295 7.618C22.2949 7.10467 21.9502 6.70133 21.4955 6.408C21.0409 6.1 20.4982 5.946 19.8675 5.946C19.2369 5.946 18.6942 6.1 18.2395 6.408C17.7995 6.70133 17.4622 7.10467 17.2275 7.618C16.9929 8.13133 16.8755 8.718 16.8755 9.378V9.444ZM30.8141 16.22C30.0808 16.22 29.4134 16.0733 28.8121 15.78C28.2108 15.4867 27.7268 15.0907 27.3601 14.592C26.9934 14.0933 26.8101 13.5287 26.8101 12.898C26.8101 11.886 27.2208 11.0793 28.0421 10.478C28.8634 9.87667 29.9341 9.48067 31.2541 9.29L34.5321 8.828V8.19C34.5321 7.486 34.3268 6.936 33.9161 6.54C33.5201 6.144 32.8674 5.946 31.9581 5.946C31.2981 5.946 30.7628 6.078 30.3521 6.342C29.9561 6.606 29.6774 6.94333 29.5161 7.354C29.4281 7.574 29.2741 7.684 29.0541 7.684H28.0641C27.9028 7.684 27.7781 7.64 27.6901 7.552C27.6168 7.44933 27.5801 7.332 27.5801 7.2C27.5801 6.98 27.6608 6.70867 27.8221 6.386C27.9981 6.06333 28.2621 5.748 28.6141 5.44C28.9661 5.132 29.4134 4.87533 29.9561 4.67C30.5134 4.45 31.1881 4.34 31.9801 4.34C32.8601 4.34 33.6008 4.45733 34.2021 4.692C34.8034 4.912 35.2728 5.21267 35.6101 5.594C35.9621 5.97533 36.2114 6.408 36.3581 6.892C36.5194 7.376 36.6001 7.86733 36.6001 8.366V15.494C36.6001 15.6407 36.5488 15.7653 36.4461 15.868C36.3581 15.956 36.2408 16 36.0941 16H35.0821C34.9208 16 34.7961 15.956 34.7081 15.868C34.6201 15.7653 34.5761 15.6407 34.5761 15.494V14.548C34.3854 14.812 34.1288 15.076 33.8061 15.34C33.4834 15.5893 33.0801 15.802 32.5961 15.978C32.1121 16.1393 31.5181 16.22 30.8141 16.22ZM31.2761 14.57C31.8774 14.57 32.4274 14.4453 32.9261 14.196C33.4248 13.932 33.8134 13.5287 34.0921 12.986C34.3854 12.4433 34.5321 11.7613 34.5321 10.94V10.324L31.9801 10.698C30.9388 10.8447 30.1541 11.094 29.6261 11.446C29.0981 11.7833 28.8341 12.216 28.8341 12.744C28.8341 13.1547 28.9514 13.4993 29.1861 13.778C29.4354 14.042 29.7434 14.24 30.1101 14.372C30.4914 14.504 30.8801 14.57 31.2761 14.57ZM40.2688 16C40.1221 16 39.9974 15.956 39.8948 15.868C39.8068 15.7653 39.7628 15.6407 39.7628 15.494V5.088C39.7628 4.94133 39.8068 4.81667 39.8948 4.714C39.9974 4.61133 40.1221 4.56 40.2688 4.56H41.2808C41.4274 4.56 41.5521 4.61133 41.6548 4.714C41.7574 4.81667 41.8088 4.94133 41.8088 5.088V6.056C42.1021 5.55733 42.5054 5.18333 43.0188 4.934C43.5321 4.68467 44.1481 4.56 44.8668 4.56H45.7468C45.8934 4.56 46.0108 4.61133 46.0988 4.714C46.1868 4.802 46.2308 4.91933 46.2308 5.066V5.968C46.2308 6.11467 46.1868 6.232 46.0988 6.32C46.0108 6.408 45.8934 6.452 45.7468 6.452H44.4268C43.6348 6.452 43.0114 6.68667 42.5568 7.156C42.1021 7.61067 41.8748 8.234 41.8748 9.026V15.494C41.8748 15.6407 41.8234 15.7653 41.7208 15.868C41.6181 15.956 41.4934 16 41.3468 16H40.2688ZM52.5253 16.22C51.484 16.22 50.582 16.022 49.8193 15.626C49.0713 15.2153 48.492 14.636 48.0813 13.888C47.6707 13.1253 47.4507 12.216 47.4213 11.16C47.4067 10.94 47.3993 10.6467 47.3993 10.28C47.3993 9.91333 47.4067 9.62 47.4213 9.4C47.4507 8.344 47.6707 7.442 48.0813 6.694C48.492 5.93133 49.0713 5.352 49.8193 4.956C50.582 4.54533 51.484 4.34 52.5253 4.34C53.376 4.34 54.102 4.45733 54.7033 4.692C55.3193 4.92667 55.8253 5.22733 56.2213 5.594C56.6173 5.96067 56.9107 6.35667 57.1013 6.782C57.3067 7.20733 57.4167 7.61067 57.4313 7.992C57.446 8.13867 57.402 8.256 57.2993 8.344C57.1967 8.432 57.072 8.476 56.9253 8.476H55.8693C55.7227 8.476 55.6127 8.44667 55.5393 8.388C55.466 8.31467 55.3927 8.19733 55.3193 8.036C55.0553 7.31733 54.696 6.81133 54.2413 6.518C53.7867 6.22467 53.222 6.078 52.5473 6.078C51.6673 6.078 50.9487 6.34933 50.3913 6.892C49.8487 7.43467 49.5553 8.30733 49.5113 9.51C49.4967 10.038 49.4967 10.5513 49.5113 11.05C49.5553 12.2673 49.8487 13.1473 50.3913 13.69C50.9487 14.218 51.6673 14.482 52.5473 14.482C53.222 14.482 53.7867 14.3353 54.2413 14.042C54.696 13.7487 55.0553 13.2427 55.3193 12.524C55.3927 12.3627 55.466 12.2527 55.5393 12.194C55.6127 12.1207 55.7227 12.084 55.8693 12.084H56.9253C57.072 12.084 57.1967 12.128 57.2993 12.216C57.402 12.304 57.446 12.4213 57.4313 12.568C57.4167 12.876 57.3507 13.1913 57.2333 13.514C57.116 13.8367 56.9253 14.1667 56.6613 14.504C56.412 14.8267 56.0967 15.12 55.7153 15.384C55.334 15.6333 54.872 15.8387 54.3293 16C53.8013 16.1467 53.2 16.22 52.5253 16.22ZM60.572 16C60.4253 16 60.3007 15.956 60.198 15.868C60.11 15.7653 60.066 15.6407 60.066 15.494V0.885999C60.066 0.739333 60.11 0.622 60.198 0.534C60.3007 0.431333 60.4253 0.379999 60.572 0.379999H61.672C61.8333 0.379999 61.958 0.431333 62.046 0.534C62.134 0.622 62.178 0.739333 62.178 0.885999V6.012C62.574 5.51333 63.058 5.11 63.63 4.802C64.202 4.494 64.928 4.34 65.808 4.34C66.7613 4.34 67.568 4.55267 68.228 4.978C68.9027 5.38867 69.4087 5.968 69.746 6.716C70.098 7.44933 70.274 8.30733 70.274 9.29V15.494C70.274 15.6407 70.23 15.7653 70.142 15.868C70.054 15.956 69.9293 16 69.768 16H68.668C68.5213 16 68.3967 15.956 68.294 15.868C68.206 15.7653 68.162 15.6407 68.162 15.494V9.4C68.162 8.37333 67.9127 7.574 67.414 7.002C66.9153 6.41533 66.182 6.122 65.214 6.122C64.3047 6.122 63.5713 6.41533 63.014 7.002C62.4567 7.574 62.178 8.37333 62.178 9.4V15.494C62.178 15.6407 62.134 15.7653 62.046 15.868C61.958 15.956 61.8333 16 61.672 16H60.572Z" fill="white"/>
</svg>
