<svg width="454" height="21" viewBox="0 0 454 21" fill="none" xmlns="http://www.w3.org/2000/svg">
<path d="M5.778 17.18C4.662 17.18 3.726 17.018 2.97 16.694C2.226 16.358 1.656 15.926 1.26 15.398C0.876 14.858 0.672 14.294 0.648 13.706C0.648 13.598 0.684 13.508 0.756 13.436C0.828 13.364 0.918 13.328 1.026 13.328H2.628C2.784 13.328 2.898 13.364 2.97 13.436C3.054 13.496 3.126 13.574 3.186 13.67C3.258 13.898 3.396 14.126 3.6 14.354C3.804 14.57 4.08 14.75 4.428 14.894C4.788 15.038 5.238 15.11 5.778 15.11C6.642 15.11 7.284 14.966 7.704 14.678C8.136 14.39 8.352 14 8.352 13.508C8.352 13.16 8.238 12.884 8.01 12.68C7.782 12.464 7.428 12.272 6.948 12.104C6.48 11.924 5.856 11.738 5.076 11.546C4.176 11.33 3.42 11.072 2.808 10.772C2.208 10.46 1.752 10.07 1.44 9.602C1.14 9.134 0.99 8.54 0.99 7.82C0.99 7.124 1.176 6.506 1.548 5.966C1.932 5.426 2.472 5 3.168 4.688C3.876 4.376 4.716 4.22 5.688 4.22C6.468 4.22 7.158 4.328 7.758 4.544C8.358 4.748 8.856 5.024 9.252 5.372C9.648 5.708 9.948 6.074 10.152 6.47C10.368 6.854 10.482 7.232 10.494 7.604C10.494 7.7 10.458 7.79 10.386 7.874C10.326 7.946 10.236 7.982 10.116 7.982H8.442C8.346 7.982 8.25 7.958 8.154 7.91C8.058 7.862 7.98 7.772 7.92 7.64C7.848 7.268 7.614 6.95 7.218 6.686C6.822 6.422 6.312 6.29 5.688 6.29C5.04 6.29 4.518 6.41 4.122 6.65C3.726 6.89 3.528 7.262 3.528 7.766C3.528 8.102 3.624 8.384 3.816 8.612C4.02 8.828 4.338 9.02 4.77 9.188C5.214 9.356 5.796 9.536 6.516 9.728C7.536 9.956 8.37 10.22 9.018 10.52C9.666 10.82 10.14 11.204 10.44 11.672C10.74 12.128 10.89 12.71 10.89 13.418C10.89 14.21 10.674 14.888 10.242 15.452C9.822 16.004 9.228 16.43 8.46 16.73C7.692 17.03 6.798 17.18 5.778 17.18ZM18.5148 17.18C17.4708 17.18 16.5648 17.006 15.7968 16.658C15.0288 16.298 14.4348 15.752 14.0148 15.02C13.5948 14.276 13.3848 13.328 13.3848 12.176V4.85C13.3848 4.718 13.4268 4.61 13.5108 4.526C13.5948 4.442 13.6968 4.4 13.8168 4.4H15.4548C15.5868 4.4 15.6888 4.442 15.7608 4.526C15.8448 4.61 15.8868 4.718 15.8868 4.85V12.176C15.8868 13.16 16.1208 13.892 16.5888 14.372C17.0568 14.84 17.6988 15.074 18.5148 15.074C19.3308 15.074 19.9668 14.84 20.4228 14.372C20.8908 13.892 21.1248 13.16 21.1248 12.176V4.85C21.1248 4.718 21.1668 4.61 21.2508 4.526C21.3348 4.442 21.4428 4.4 21.5748 4.4H23.1948C23.3268 4.4 23.4288 4.442 23.5008 4.526C23.5848 4.61 23.6268 4.718 23.6268 4.85V12.176C23.6268 13.328 23.4168 14.276 22.9968 15.02C22.5888 15.752 22.0008 16.298 21.2328 16.658C20.4768 17.006 19.5708 17.18 18.5148 17.18ZM27.2969 17C27.1769 17 27.0749 16.958 26.9909 16.874C26.9069 16.79 26.8649 16.688 26.8649 16.568V4.85C26.8649 4.718 26.9069 4.61 26.9909 4.526C27.0749 4.442 27.1769 4.4 27.2969 4.4H32.5169C33.4889 4.4 34.2809 4.55 34.8929 4.85C35.5049 5.138 35.9549 5.54 36.2429 6.056C36.5429 6.572 36.6929 7.172 36.6929 7.856C36.6929 8.312 36.6089 8.714 36.4409 9.062C36.2849 9.398 36.0869 9.674 35.8469 9.89C35.6189 10.106 35.3909 10.274 35.1629 10.394C35.6309 10.61 36.0449 10.97 36.4049 11.474C36.7649 11.978 36.9449 12.578 36.9449 13.274C36.9449 13.994 36.7829 14.636 36.4589 15.2C36.1349 15.764 35.6549 16.208 35.0189 16.532C34.3829 16.844 33.5969 17 32.6609 17H27.2969ZM29.3669 15.092H32.3729C33.0209 15.092 33.5129 14.918 33.8489 14.57C34.1849 14.21 34.3529 13.778 34.3529 13.274C34.3529 12.746 34.1789 12.308 33.8309 11.96C33.4949 11.612 33.0089 11.438 32.3729 11.438H29.3669V15.092ZM29.3669 9.566H32.1929C32.8289 9.566 33.3029 9.416 33.6149 9.116C33.9389 8.804 34.1009 8.402 34.1009 7.91C34.1009 7.406 33.9389 7.016 33.6149 6.74C33.3029 6.452 32.8289 6.308 32.1929 6.308H29.3669V9.566ZM47.1625 17C47.0425 17 46.9405 16.958 46.8565 16.874C46.7725 16.79 46.7305 16.688 46.7305 16.568V6.614H43.4005C43.2805 6.614 43.1785 6.572 43.0945 6.488C43.0105 6.404 42.9685 6.302 42.9685 6.182V4.85C42.9685 4.718 43.0105 4.61 43.0945 4.526C43.1785 4.442 43.2805 4.4 43.4005 4.4H52.5805C52.7125 4.4 52.8205 4.442 52.9045 4.526C52.9885 4.61 53.0305 4.718 53.0305 4.85V6.182C53.0305 6.302 52.9885 6.404 52.9045 6.488C52.8205 6.572 52.7125 6.614 52.5805 6.614H49.2685V16.568C49.2685 16.688 49.2265 16.79 49.1425 16.874C49.0585 16.958 48.9505 17 48.8185 17H47.1625ZM55.829 17C55.709 17 55.607 16.958 55.523 16.874C55.439 16.79 55.397 16.688 55.397 16.568V4.85C55.397 4.718 55.439 4.61 55.523 4.526C55.607 4.442 55.709 4.4 55.829 4.4H63.749C63.881 4.4 63.989 4.442 64.073 4.526C64.157 4.61 64.199 4.718 64.199 4.85V6.038C64.199 6.158 64.157 6.26 64.073 6.344C63.989 6.428 63.881 6.47 63.749 6.47H57.827V9.656H63.353C63.485 9.656 63.593 9.698 63.677 9.782C63.761 9.854 63.803 9.956 63.803 10.088V11.204C63.803 11.336 63.761 11.444 63.677 11.528C63.593 11.6 63.485 11.636 63.353 11.636H57.827V14.93H63.893C64.025 14.93 64.133 14.972 64.217 15.056C64.301 15.14 64.343 15.248 64.343 15.38V16.568C64.343 16.688 64.301 16.79 64.217 16.874C64.133 16.958 64.025 17 63.893 17H55.829ZM66.4322 17C66.3242 17 66.2342 16.964 66.1622 16.892C66.0902 16.82 66.0542 16.73 66.0542 16.622C66.0542 16.586 66.0602 16.55 66.0722 16.514C66.0842 16.478 66.0962 16.442 66.1082 16.406L70.1402 10.574L66.3602 4.994C66.3242 4.922 66.3062 4.85 66.3062 4.778C66.3062 4.67 66.3422 4.58 66.4142 4.508C66.4862 4.436 66.5702 4.4 66.6662 4.4H68.5202C68.6642 4.4 68.7782 4.436 68.8622 4.508C68.9462 4.58 69.0182 4.658 69.0782 4.742L71.7242 8.63L74.3882 4.742C74.4362 4.658 74.5022 4.58 74.5862 4.508C74.6822 4.436 74.8022 4.4 74.9462 4.4H76.6922C76.8002 4.4 76.8902 4.436 76.9622 4.508C77.0342 4.58 77.0702 4.67 77.0702 4.778C77.0702 4.85 77.0462 4.922 76.9982 4.994L73.2362 10.574L77.2682 16.406C77.2922 16.442 77.3102 16.478 77.3222 16.514C77.3342 16.55 77.3402 16.586 77.3402 16.622C77.3402 16.73 77.2982 16.82 77.2142 16.892C77.1422 16.964 77.0582 17 76.9622 17H75.0542C74.9102 17 74.7962 16.964 74.7122 16.892C74.6282 16.82 74.5622 16.748 74.5142 16.676L71.6342 12.608L68.8082 16.676C68.7602 16.748 68.6942 16.82 68.6102 16.892C68.5262 16.964 68.4062 17 68.2502 17H66.4322ZM82.7962 17C82.6762 17 82.5742 16.958 82.4902 16.874C82.4062 16.79 82.3642 16.688 82.3642 16.568V6.614H79.0342C78.9142 6.614 78.8122 6.572 78.7282 6.488C78.6442 6.404 78.6022 6.302 78.6022 6.182V4.85C78.6022 4.718 78.6442 4.61 78.7282 4.526C78.8122 4.442 78.9142 4.4 79.0342 4.4H88.2142C88.3462 4.4 88.4542 4.442 88.5382 4.526C88.6222 4.61 88.6642 4.718 88.6642 4.85V6.182C88.6642 6.302 88.6222 6.404 88.5382 6.488C88.4542 6.572 88.3462 6.614 88.2142 6.614H84.9022V16.568C84.9022 16.688 84.8602 16.79 84.7762 16.874C84.6922 16.958 84.5842 17 84.4522 17H82.7962ZM100.086 17.18C99.0185 17.18 98.1005 17.006 97.3325 16.658C96.5645 16.298 95.9645 15.752 95.5325 15.02C95.1005 14.276 94.8665 13.352 94.8305 12.248C94.8185 11.732 94.8125 11.222 94.8125 10.718C94.8125 10.214 94.8185 9.698 94.8305 9.17C94.8665 8.078 95.1065 7.166 95.5505 6.434C95.9945 5.702 96.6005 5.15 97.3685 4.778C98.1485 4.406 99.0545 4.22 100.086 4.22C101.118 4.22 102.024 4.406 102.804 4.778C103.584 5.15 104.196 5.702 104.64 6.434C105.084 7.166 105.324 8.078 105.36 9.17C105.384 9.698 105.396 10.214 105.396 10.718C105.396 11.222 105.384 11.732 105.36 12.248C105.324 13.352 105.09 14.276 104.658 15.02C104.226 15.752 103.62 16.298 102.84 16.658C102.072 17.006 101.154 17.18 100.086 17.18ZM100.086 15.11C100.866 15.11 101.502 14.882 101.994 14.426C102.486 13.958 102.75 13.202 102.786 12.158C102.81 11.63 102.822 11.144 102.822 10.7C102.822 10.244 102.81 9.758 102.786 9.242C102.762 8.546 102.63 7.982 102.39 7.55C102.162 7.106 101.85 6.788 101.454 6.596C101.058 6.392 100.602 6.29 100.086 6.29C99.5825 6.29 99.1325 6.392 98.7365 6.596C98.3405 6.788 98.0225 7.106 97.7825 7.55C97.5545 7.982 97.4285 8.546 97.4045 9.242C97.3925 9.758 97.3865 10.244 97.3865 10.7C97.3865 11.144 97.3925 11.63 97.4045 12.158C97.4405 13.202 97.7045 13.958 98.1965 14.426C98.6885 14.882 99.3185 15.11 100.086 15.11ZM108.732 17C108.612 17 108.51 16.958 108.426 16.874C108.342 16.79 108.3 16.688 108.3 16.568V4.85C108.3 4.718 108.342 4.61 108.426 4.526C108.51 4.442 108.612 4.4 108.732 4.4H116.544C116.676 4.4 116.784 4.442 116.868 4.526C116.952 4.61 116.994 4.718 116.994 4.85V6.11C116.994 6.242 116.952 6.35 116.868 6.434C116.784 6.506 116.676 6.542 116.544 6.542H110.766V9.962H116.184C116.316 9.962 116.424 10.004 116.508 10.088C116.592 10.172 116.634 10.28 116.634 10.412V11.672C116.634 11.792 116.592 11.894 116.508 11.978C116.424 12.062 116.316 12.104 116.184 12.104H110.766V16.568C110.766 16.688 110.724 16.79 110.64 16.874C110.556 16.958 110.448 17 110.316 17H108.732ZM124.472 17C124.352 17 124.25 16.958 124.166 16.874C124.082 16.79 124.04 16.688 124.04 16.568V4.85C124.04 4.718 124.082 4.61 124.166 4.526C124.25 4.442 124.352 4.4 124.472 4.4H128.864C130.076 4.4 131.072 4.586 131.852 4.958C132.644 5.33 133.238 5.882 133.634 6.614C134.042 7.346 134.252 8.24 134.264 9.296C134.288 9.824 134.3 10.292 134.3 10.7C134.3 11.108 134.288 11.57 134.264 12.086C134.24 13.202 134.036 14.126 133.652 14.858C133.268 15.578 132.686 16.118 131.906 16.478C131.138 16.826 130.154 17 128.954 17H124.472ZM126.542 14.93H128.864C129.536 14.93 130.082 14.834 130.502 14.642C130.922 14.45 131.228 14.144 131.42 13.724C131.624 13.292 131.732 12.728 131.744 12.032C131.756 11.672 131.762 11.36 131.762 11.096C131.774 10.82 131.774 10.55 131.762 10.286C131.762 10.01 131.756 9.698 131.744 9.35C131.72 8.366 131.474 7.64 131.006 7.172C130.538 6.704 129.794 6.47 128.774 6.47H126.542V14.93ZM136.216 17C136.12 17 136.03 16.964 135.946 16.892C135.874 16.82 135.838 16.73 135.838 16.622C135.838 16.574 135.85 16.52 135.874 16.46L140.212 4.85C140.248 4.73 140.314 4.628 140.41 4.544C140.518 4.448 140.662 4.4 140.842 4.4H142.804C142.984 4.4 143.122 4.448 143.218 4.544C143.314 4.628 143.386 4.73 143.434 4.85L147.772 16.46C147.784 16.52 147.79 16.574 147.79 16.622C147.79 16.73 147.754 16.82 147.682 16.892C147.61 16.964 147.526 17 147.43 17H145.864C145.696 17 145.57 16.964 145.486 16.892C145.414 16.808 145.366 16.73 145.342 16.658L144.496 14.462H139.15L138.304 16.658C138.28 16.73 138.226 16.808 138.142 16.892C138.07 16.964 137.95 17 137.782 17H136.216ZM139.78 12.392H143.866L141.814 6.83L139.78 12.392ZM151.897 17C151.777 17 151.675 16.958 151.591 16.874C151.507 16.79 151.465 16.688 151.465 16.568V6.614H148.135C148.015 6.614 147.913 6.572 147.829 6.488C147.745 6.404 147.703 6.302 147.703 6.182V4.85C147.703 4.718 147.745 4.61 147.829 4.526C147.913 4.442 148.015 4.4 148.135 4.4H157.315C157.447 4.4 157.555 4.442 157.639 4.526C157.723 4.61 157.765 4.718 157.765 4.85V6.182C157.765 6.302 157.723 6.404 157.639 6.488C157.555 6.572 157.447 6.614 157.315 6.614H154.003V16.568C154.003 16.688 153.961 16.79 153.877 16.874C153.793 16.958 153.685 17 153.553 17H151.897ZM158.039 17C157.943 17 157.853 16.964 157.769 16.892C157.697 16.82 157.661 16.73 157.661 16.622C157.661 16.574 157.673 16.52 157.697 16.46L162.035 4.85C162.071 4.73 162.137 4.628 162.233 4.544C162.341 4.448 162.485 4.4 162.665 4.4H164.627C164.807 4.4 164.945 4.448 165.041 4.544C165.137 4.628 165.209 4.73 165.257 4.85L169.595 16.46C169.607 16.52 169.613 16.574 169.613 16.622C169.613 16.73 169.577 16.82 169.505 16.892C169.433 16.964 169.349 17 169.253 17H167.687C167.519 17 167.393 16.964 167.309 16.892C167.237 16.808 167.189 16.73 167.165 16.658L166.319 14.462H160.973L160.127 16.658C160.103 16.73 160.049 16.808 159.965 16.892C159.893 16.964 159.773 17 159.605 17H158.039ZM161.603 12.392H165.689L163.637 6.83L161.603 12.392ZM176.264 20.744C176.144 20.744 176.042 20.702 175.958 20.618C175.874 20.534 175.832 20.432 175.832 20.312V1.304C175.832 1.184 175.874 1.082 175.958 0.997999C176.042 0.913999 176.144 0.872 176.264 0.872H177.434C177.554 0.872 177.656 0.913999 177.74 0.997999C177.824 1.082 177.866 1.184 177.866 1.304V20.312C177.866 20.432 177.824 20.534 177.74 20.618C177.656 20.702 177.554 20.744 177.434 20.744H176.264ZM186.119 17C185.999 17 185.897 16.958 185.813 16.874C185.729 16.79 185.687 16.688 185.687 16.568V4.85C185.687 4.718 185.729 4.61 185.813 4.526C185.897 4.442 185.999 4.4 186.119 4.4H190.781C192.233 4.4 193.379 4.736 194.219 5.408C195.059 6.08 195.479 7.058 195.479 8.342C195.479 9.23 195.257 9.968 194.813 10.556C194.381 11.144 193.799 11.57 193.067 11.834L195.695 16.424C195.731 16.496 195.749 16.562 195.749 16.622C195.749 16.73 195.707 16.82 195.623 16.892C195.551 16.964 195.467 17 195.371 17H193.733C193.529 17 193.373 16.946 193.265 16.838C193.157 16.73 193.073 16.622 193.013 16.514L190.691 12.248H188.189V16.568C188.189 16.688 188.147 16.79 188.063 16.874C187.991 16.958 187.889 17 187.757 17H186.119ZM188.189 10.214H190.727C191.459 10.214 192.005 10.052 192.365 9.728C192.725 9.392 192.905 8.924 192.905 8.324C192.905 7.724 192.725 7.256 192.365 6.92C192.017 6.572 191.471 6.398 190.727 6.398H188.189V10.214ZM203.361 17.18C202.317 17.18 201.411 17.006 200.643 16.658C199.875 16.298 199.281 15.752 198.861 15.02C198.441 14.276 198.231 13.328 198.231 12.176V4.85C198.231 4.718 198.273 4.61 198.357 4.526C198.441 4.442 198.543 4.4 198.663 4.4H200.301C200.433 4.4 200.535 4.442 200.607 4.526C200.691 4.61 200.733 4.718 200.733 4.85V12.176C200.733 13.16 200.967 13.892 201.435 14.372C201.903 14.84 202.545 15.074 203.361 15.074C204.177 15.074 204.813 14.84 205.269 14.372C205.737 13.892 205.971 13.16 205.971 12.176V4.85C205.971 4.718 206.013 4.61 206.097 4.526C206.181 4.442 206.289 4.4 206.421 4.4H208.041C208.173 4.4 208.275 4.442 208.347 4.526C208.431 4.61 208.473 4.718 208.473 4.85V12.176C208.473 13.328 208.263 14.276 207.843 15.02C207.435 15.752 206.847 16.298 206.079 16.658C205.323 17.006 204.417 17.18 203.361 17.18ZM212.143 17C212.023 17 211.921 16.958 211.837 16.874C211.753 16.79 211.711 16.688 211.711 16.568V4.85C211.711 4.718 211.753 4.61 211.837 4.526C211.921 4.442 212.023 4.4 212.143 4.4H217.363C218.335 4.4 219.127 4.55 219.739 4.85C220.351 5.138 220.801 5.54 221.089 6.056C221.389 6.572 221.539 7.172 221.539 7.856C221.539 8.312 221.455 8.714 221.287 9.062C221.131 9.398 220.933 9.674 220.693 9.89C220.465 10.106 220.237 10.274 220.009 10.394C220.477 10.61 220.891 10.97 221.251 11.474C221.611 11.978 221.791 12.578 221.791 13.274C221.791 13.994 221.629 14.636 221.305 15.2C220.981 15.764 220.501 16.208 219.865 16.532C219.229 16.844 218.443 17 217.507 17H212.143ZM214.213 15.092H217.219C217.867 15.092 218.359 14.918 218.695 14.57C219.031 14.21 219.199 13.778 219.199 13.274C219.199 12.746 219.025 12.308 218.677 11.96C218.341 11.612 217.855 11.438 217.219 11.438H214.213V15.092ZM214.213 9.566H217.039C217.675 9.566 218.149 9.416 218.461 9.116C218.785 8.804 218.947 8.402 218.947 7.91C218.947 7.406 218.785 7.016 218.461 6.74C218.149 6.452 217.675 6.308 217.039 6.308H214.213V9.566ZM225.023 17C224.903 17 224.801 16.958 224.717 16.874C224.633 16.79 224.591 16.688 224.591 16.568V4.832C224.591 4.712 224.633 4.61 224.717 4.526C224.801 4.442 224.903 4.4 225.023 4.4H226.715C226.847 4.4 226.949 4.442 227.021 4.526C227.105 4.61 227.147 4.712 227.147 4.832V16.568C227.147 16.688 227.105 16.79 227.021 16.874C226.949 16.958 226.847 17 226.715 17H225.023ZM230.942 17C230.822 17 230.72 16.958 230.636 16.874C230.552 16.79 230.51 16.688 230.51 16.568V4.85C230.51 4.718 230.552 4.61 230.636 4.526C230.72 4.442 230.822 4.4 230.942 4.4H232.526C232.658 4.4 232.766 4.442 232.85 4.526C232.934 4.61 232.976 4.718 232.976 4.85V9.062L237.044 4.724C237.092 4.664 237.17 4.598 237.278 4.526C237.398 4.442 237.554 4.4 237.746 4.4H239.528C239.624 4.4 239.708 4.436 239.78 4.508C239.864 4.58 239.906 4.67 239.906 4.778C239.906 4.862 239.882 4.934 239.834 4.994L234.884 10.43L240.176 16.388C240.236 16.46 240.266 16.538 240.266 16.622C240.266 16.73 240.224 16.82 240.14 16.892C240.068 16.964 239.984 17 239.888 17H238.034C237.83 17 237.668 16.958 237.548 16.874C237.44 16.778 237.368 16.712 237.332 16.676L232.976 11.906V16.568C232.976 16.688 232.934 16.79 232.85 16.874C232.766 16.958 232.658 17 232.526 17H230.942ZM242.099 18.35C241.991 18.35 241.907 18.314 241.847 18.242C241.787 18.17 241.763 18.08 241.775 17.972L242.261 14.912C242.285 14.756 242.339 14.624 242.423 14.516C242.519 14.396 242.657 14.336 242.837 14.336H244.493C244.589 14.336 244.667 14.372 244.727 14.444C244.787 14.504 244.817 14.582 244.817 14.678C244.817 14.762 244.799 14.84 244.763 14.912L243.611 17.9C243.563 18.02 243.491 18.122 243.395 18.206C243.311 18.302 243.185 18.35 243.017 18.35H242.099ZM255.944 17C255.812 17 255.704 16.958 255.62 16.874C255.548 16.79 255.512 16.688 255.512 16.568V7.244L252.776 9.35C252.668 9.422 252.56 9.452 252.452 9.44C252.344 9.416 252.248 9.35 252.164 9.242L251.408 8.27C251.336 8.162 251.306 8.048 251.318 7.928C251.342 7.808 251.408 7.712 251.516 7.64L255.548 4.526C255.62 4.466 255.692 4.43 255.764 4.418C255.836 4.406 255.914 4.4 255.998 4.4H257.582C257.702 4.4 257.804 4.442 257.888 4.526C257.972 4.61 258.014 4.712 258.014 4.832V16.568C258.014 16.688 257.972 16.79 257.888 16.874C257.804 16.958 257.702 17 257.582 17H255.944ZM265.734 17.18C264.942 17.18 264.234 17.084 263.61 16.892C262.986 16.7 262.458 16.43 262.026 16.082C261.606 15.734 261.282 15.326 261.054 14.858C260.838 14.39 260.73 13.868 260.73 13.292C260.73 12.596 260.898 11.996 261.234 11.492C261.582 10.976 262.032 10.58 262.584 10.304C262.14 10.028 261.792 9.674 261.54 9.242C261.3 8.81 261.18 8.306 261.18 7.73C261.18 7.034 261.354 6.428 261.702 5.912C262.062 5.384 262.578 4.97 263.25 4.67C263.934 4.37 264.762 4.22 265.734 4.22C266.706 4.22 267.528 4.37 268.2 4.67C268.872 4.958 269.382 5.366 269.73 5.894C270.078 6.41 270.252 7.016 270.252 7.712C270.252 8.288 270.132 8.792 269.892 9.224C269.652 9.656 269.316 10.016 268.884 10.304C269.448 10.568 269.898 10.964 270.234 11.492C270.57 12.008 270.738 12.614 270.738 13.31C270.738 14.066 270.54 14.738 270.144 15.326C269.76 15.902 269.19 16.358 268.434 16.694C267.69 17.018 266.79 17.18 265.734 17.18ZM265.734 15.308C266.202 15.308 266.622 15.23 266.994 15.074C267.378 14.906 267.678 14.672 267.894 14.372C268.122 14.072 268.236 13.718 268.236 13.31C268.236 12.89 268.122 12.536 267.894 12.248C267.678 11.948 267.378 11.72 266.994 11.564C266.622 11.396 266.202 11.312 265.734 11.312C265.266 11.312 264.84 11.396 264.456 11.564C264.084 11.72 263.784 11.948 263.556 12.248C263.34 12.536 263.232 12.89 263.232 13.31C263.232 13.718 263.34 14.072 263.556 14.372C263.784 14.672 264.084 14.906 264.456 15.074C264.84 15.23 265.266 15.308 265.734 15.308ZM265.734 9.53C266.13 9.518 266.49 9.44 266.814 9.296C267.15 9.152 267.414 8.96 267.606 8.72C267.81 8.468 267.912 8.168 267.912 7.82C267.912 7.472 267.816 7.172 267.624 6.92C267.444 6.656 267.186 6.452 266.85 6.308C266.526 6.164 266.154 6.092 265.734 6.092C265.314 6.092 264.936 6.164 264.6 6.308C264.276 6.452 264.018 6.656 263.826 6.92C263.646 7.172 263.556 7.472 263.556 7.82C263.556 8.168 263.646 8.468 263.826 8.72C264.018 8.972 264.276 9.17 264.6 9.314C264.936 9.458 265.314 9.53 265.734 9.53ZM274.018 17C273.898 17 273.796 16.958 273.712 16.874C273.628 16.79 273.586 16.688 273.586 16.568V4.85C273.586 4.718 273.628 4.61 273.712 4.526C273.796 4.442 273.898 4.4 274.018 4.4H278.842C279.778 4.4 280.594 4.55 281.29 4.85C281.986 5.138 282.526 5.582 282.91 6.182C283.294 6.77 283.486 7.508 283.486 8.396C283.486 9.296 283.294 10.04 282.91 10.628C282.526 11.204 281.986 11.636 281.29 11.924C280.594 12.212 279.778 12.356 278.842 12.356H276.16V16.568C276.16 16.688 276.118 16.79 276.034 16.874C275.962 16.958 275.86 17 275.728 17H274.018ZM276.124 10.358H278.752C279.448 10.358 279.982 10.196 280.354 9.872C280.726 9.536 280.912 9.044 280.912 8.396C280.912 7.796 280.738 7.316 280.39 6.956C280.042 6.584 279.496 6.398 278.752 6.398H276.124V10.358ZM289.196 17C289.076 17 288.974 16.958 288.89 16.874C288.806 16.79 288.764 16.688 288.764 16.568V6.614H285.434C285.314 6.614 285.212 6.572 285.128 6.488C285.044 6.404 285.002 6.302 285.002 6.182V4.85C285.002 4.718 285.044 4.61 285.128 4.526C285.212 4.442 285.314 4.4 285.434 4.4H294.614C294.746 4.4 294.854 4.442 294.938 4.526C295.022 4.61 295.064 4.718 295.064 4.85V6.182C295.064 6.302 295.022 6.404 294.938 6.488C294.854 6.572 294.746 6.614 294.614 6.614H291.302V16.568C291.302 16.688 291.26 16.79 291.176 16.874C291.092 16.958 290.984 17 290.852 17H289.196ZM295.964 18.35C295.856 18.35 295.772 18.314 295.712 18.242C295.652 18.17 295.628 18.08 295.64 17.972L296.126 14.912C296.15 14.756 296.204 14.624 296.288 14.516C296.384 14.396 296.522 14.336 296.702 14.336H298.358C298.454 14.336 298.532 14.372 298.592 14.444C298.652 14.504 298.682 14.582 298.682 14.678C298.682 14.762 298.664 14.84 298.628 14.912L297.476 17.9C297.428 18.02 297.356 18.122 297.26 18.206C297.176 18.302 297.05 18.35 296.882 18.35H295.964ZM306.677 17C306.545 17 306.437 16.958 306.353 16.874C306.269 16.79 306.227 16.688 306.227 16.568V4.85C306.227 4.718 306.269 4.61 306.353 4.526C306.437 4.442 306.545 4.4 306.677 4.4H308.099C308.267 4.4 308.393 4.448 308.477 4.544C308.561 4.628 308.615 4.694 308.639 4.742L312.113 11.222L315.623 4.742C315.647 4.694 315.701 4.628 315.785 4.544C315.869 4.448 315.995 4.4 316.163 4.4H317.567C317.699 4.4 317.807 4.442 317.891 4.526C317.975 4.61 318.017 4.718 318.017 4.85V16.568C318.017 16.688 317.975 16.79 317.891 16.874C317.807 16.958 317.699 17 317.567 17H316.055C315.923 17 315.815 16.958 315.731 16.874C315.659 16.79 315.623 16.688 315.623 16.568V8.774L313.103 13.58C313.043 13.688 312.965 13.784 312.869 13.868C312.773 13.94 312.647 13.976 312.491 13.976H311.753C311.585 13.976 311.453 13.94 311.357 13.868C311.273 13.784 311.201 13.688 311.141 13.58L308.621 8.774V16.568C308.621 16.688 308.579 16.79 308.495 16.874C308.411 16.958 308.309 17 308.189 17H306.677ZM321.789 17C321.669 17 321.567 16.958 321.483 16.874C321.399 16.79 321.357 16.688 321.357 16.568V4.85C321.357 4.718 321.399 4.61 321.483 4.526C321.567 4.442 321.669 4.4 321.789 4.4H329.709C329.841 4.4 329.949 4.442 330.033 4.526C330.117 4.61 330.159 4.718 330.159 4.85V6.038C330.159 6.158 330.117 6.26 330.033 6.344C329.949 6.428 329.841 6.47 329.709 6.47H323.787V9.656H329.313C329.445 9.656 329.553 9.698 329.637 9.782C329.721 9.854 329.763 9.956 329.763 10.088V11.204C329.763 11.336 329.721 11.444 329.637 11.528C329.553 11.6 329.445 11.636 329.313 11.636H323.787V14.93H329.853C329.985 14.93 330.093 14.972 330.177 15.056C330.261 15.14 330.303 15.248 330.303 15.38V16.568C330.303 16.688 330.261 16.79 330.177 16.874C330.093 16.958 329.985 17 329.853 17H321.789ZM333.526 17C333.406 17 333.304 16.958 333.22 16.874C333.136 16.79 333.094 16.688 333.094 16.568V4.85C333.094 4.718 333.136 4.61 333.22 4.526C333.304 4.442 333.406 4.4 333.526 4.4H337.918C339.13 4.4 340.126 4.586 340.906 4.958C341.698 5.33 342.292 5.882 342.688 6.614C343.096 7.346 343.306 8.24 343.318 9.296C343.342 9.824 343.354 10.292 343.354 10.7C343.354 11.108 343.342 11.57 343.318 12.086C343.294 13.202 343.09 14.126 342.706 14.858C342.322 15.578 341.74 16.118 340.96 16.478C340.192 16.826 339.208 17 338.008 17H333.526ZM335.596 14.93H337.918C338.59 14.93 339.136 14.834 339.556 14.642C339.976 14.45 340.282 14.144 340.474 13.724C340.678 13.292 340.786 12.728 340.798 12.032C340.81 11.672 340.816 11.36 340.816 11.096C340.828 10.82 340.828 10.55 340.816 10.286C340.816 10.01 340.81 9.698 340.798 9.35C340.774 8.366 340.528 7.64 340.06 7.172C339.592 6.704 338.848 6.47 337.828 6.47H335.596V14.93ZM346.722 17C346.602 17 346.5 16.958 346.416 16.874C346.332 16.79 346.29 16.688 346.29 16.568V4.832C346.29 4.712 346.332 4.61 346.416 4.526C346.5 4.442 346.602 4.4 346.722 4.4H348.414C348.546 4.4 348.648 4.442 348.72 4.526C348.804 4.61 348.846 4.712 348.846 4.832V16.568C348.846 16.688 348.804 16.79 348.72 16.874C348.648 16.958 348.546 17 348.414 17H346.722ZM357.231 17.18C356.187 17.18 355.281 17.006 354.513 16.658C353.745 16.298 353.151 15.752 352.731 15.02C352.311 14.276 352.101 13.328 352.101 12.176V4.85C352.101 4.718 352.143 4.61 352.227 4.526C352.311 4.442 352.413 4.4 352.533 4.4H354.171C354.303 4.4 354.405 4.442 354.477 4.526C354.561 4.61 354.603 4.718 354.603 4.85V12.176C354.603 13.16 354.837 13.892 355.305 14.372C355.773 14.84 356.415 15.074 357.231 15.074C358.047 15.074 358.683 14.84 359.139 14.372C359.607 13.892 359.841 13.16 359.841 12.176V4.85C359.841 4.718 359.883 4.61 359.967 4.526C360.051 4.442 360.159 4.4 360.291 4.4H361.911C362.043 4.4 362.145 4.442 362.217 4.526C362.301 4.61 362.343 4.718 362.343 4.85V12.176C362.343 13.328 362.133 14.276 361.713 15.02C361.305 15.752 360.717 16.298 359.949 16.658C359.193 17.006 358.287 17.18 357.231 17.18ZM366.031 17C365.899 17 365.791 16.958 365.707 16.874C365.623 16.79 365.581 16.688 365.581 16.568V4.85C365.581 4.718 365.623 4.61 365.707 4.526C365.791 4.442 365.899 4.4 366.031 4.4H367.453C367.621 4.4 367.747 4.448 367.831 4.544C367.915 4.628 367.969 4.694 367.993 4.742L371.467 11.222L374.977 4.742C375.001 4.694 375.055 4.628 375.139 4.544C375.223 4.448 375.349 4.4 375.517 4.4H376.921C377.053 4.4 377.161 4.442 377.245 4.526C377.329 4.61 377.371 4.718 377.371 4.85V16.568C377.371 16.688 377.329 16.79 377.245 16.874C377.161 16.958 377.053 17 376.921 17H375.409C375.277 17 375.169 16.958 375.085 16.874C375.013 16.79 374.977 16.688 374.977 16.568V8.774L372.457 13.58C372.397 13.688 372.319 13.784 372.223 13.868C372.127 13.94 372.001 13.976 371.845 13.976H371.107C370.939 13.976 370.807 13.94 370.711 13.868C370.627 13.784 370.555 13.688 370.495 13.58L367.975 8.774V16.568C367.975 16.688 367.933 16.79 367.849 16.874C367.765 16.958 367.663 17 367.543 17H366.031ZM387.223 17C387.043 17 386.899 16.952 386.791 16.856C386.695 16.748 386.629 16.616 386.593 16.46L384.451 4.922C384.451 4.886 384.445 4.856 384.433 4.832C384.433 4.808 384.433 4.79 384.433 4.778C384.433 4.67 384.469 4.58 384.541 4.508C384.625 4.436 384.715 4.4 384.811 4.4H386.395C386.695 4.4 386.863 4.52 386.899 4.76L388.393 12.914L390.013 7.64C390.049 7.544 390.109 7.448 390.193 7.352C390.289 7.244 390.427 7.19 390.607 7.19H391.579C391.771 7.19 391.909 7.244 391.993 7.352C392.077 7.448 392.131 7.544 392.155 7.64L393.793 12.896L395.287 4.76C395.323 4.52 395.491 4.4 395.791 4.4H397.375C397.471 4.4 397.555 4.436 397.627 4.508C397.699 4.58 397.735 4.67 397.735 4.778C397.735 4.79 397.735 4.808 397.735 4.832C397.735 4.856 397.729 4.886 397.717 4.922L395.575 16.46C395.551 16.616 395.485 16.748 395.377 16.856C395.269 16.952 395.125 17 394.945 17H393.739C393.559 17 393.415 16.952 393.307 16.856C393.211 16.76 393.145 16.658 393.109 16.55L391.093 10.538L389.077 16.55C389.029 16.658 388.957 16.76 388.861 16.856C388.765 16.952 388.621 17 388.429 17H387.223ZM400.821 17C400.701 17 400.599 16.958 400.515 16.874C400.431 16.79 400.389 16.688 400.389 16.568V4.85C400.389 4.718 400.431 4.61 400.515 4.526C400.599 4.442 400.701 4.4 400.821 4.4H408.741C408.873 4.4 408.981 4.442 409.065 4.526C409.149 4.61 409.191 4.718 409.191 4.85V6.038C409.191 6.158 409.149 6.26 409.065 6.344C408.981 6.428 408.873 6.47 408.741 6.47H402.819V9.656H408.345C408.477 9.656 408.585 9.698 408.669 9.782C408.753 9.854 408.795 9.956 408.795 10.088V11.204C408.795 11.336 408.753 11.444 408.669 11.528C408.585 11.6 408.477 11.636 408.345 11.636H402.819V14.93H408.885C409.017 14.93 409.125 14.972 409.209 15.056C409.293 15.14 409.335 15.248 409.335 15.38V16.568C409.335 16.688 409.293 16.79 409.209 16.874C409.125 16.958 409.017 17 408.885 17H400.821ZM412.558 17C412.438 17 412.336 16.958 412.252 16.874C412.168 16.79 412.126 16.688 412.126 16.568V4.832C412.126 4.712 412.168 4.61 412.252 4.526C412.336 4.442 412.438 4.4 412.558 4.4H414.25C414.382 4.4 414.484 4.442 414.556 4.526C414.64 4.61 414.682 4.712 414.682 4.832V16.568C414.682 16.688 414.64 16.79 414.556 16.874C414.484 16.958 414.382 17 414.25 17H412.558ZM422.941 17.18C421.837 17.18 420.895 16.988 420.115 16.604C419.347 16.22 418.747 15.668 418.315 14.948C417.895 14.216 417.667 13.346 417.631 12.338C417.619 11.822 417.613 11.27 417.613 10.682C417.613 10.082 417.619 9.518 417.631 8.99C417.667 7.994 417.895 7.142 418.315 6.434C418.747 5.726 419.353 5.18 420.133 4.796C420.925 4.412 421.861 4.22 422.941 4.22C423.817 4.22 424.585 4.34 425.245 4.58C425.905 4.808 426.451 5.108 426.883 5.48C427.327 5.84 427.657 6.23 427.873 6.65C428.101 7.07 428.221 7.46 428.233 7.82C428.245 7.928 428.215 8.018 428.143 8.09C428.071 8.162 427.975 8.198 427.855 8.198H426.001C425.881 8.198 425.791 8.174 425.731 8.126C425.671 8.078 425.617 8.006 425.569 7.91C425.473 7.658 425.323 7.412 425.119 7.172C424.915 6.92 424.639 6.71 424.291 6.542C423.943 6.374 423.493 6.29 422.941 6.29C422.125 6.29 421.471 6.506 420.979 6.938C420.499 7.37 420.241 8.084 420.205 9.08C420.169 10.124 420.169 11.18 420.205 12.248C420.241 13.268 420.505 14 420.997 14.444C421.501 14.888 422.161 15.11 422.977 15.11C423.517 15.11 423.997 15.014 424.417 14.822C424.849 14.63 425.185 14.33 425.425 13.922C425.677 13.514 425.803 12.992 425.803 12.356V11.798H423.607C423.487 11.798 423.385 11.756 423.301 11.672C423.217 11.588 423.175 11.48 423.175 11.348V10.394C423.175 10.262 423.217 10.154 423.301 10.07C423.385 9.986 423.487 9.944 423.607 9.944H427.909C428.041 9.944 428.143 9.986 428.215 10.07C428.299 10.154 428.341 10.262 428.341 10.394V12.284C428.341 13.292 428.119 14.162 427.675 14.894C427.243 15.626 426.619 16.19 425.803 16.586C424.999 16.982 424.045 17.18 422.941 17.18ZM431.62 17C431.5 17 431.398 16.964 431.314 16.892C431.23 16.808 431.188 16.7 431.188 16.568V4.85C431.188 4.718 431.23 4.61 431.314 4.526C431.398 4.442 431.5 4.4 431.62 4.4H433.258C433.39 4.4 433.492 4.442 433.564 4.526C433.648 4.61 433.69 4.718 433.69 4.85V9.494H439V4.85C439 4.718 439.042 4.61 439.126 4.526C439.21 4.442 439.312 4.4 439.432 4.4H441.052C441.184 4.4 441.292 4.442 441.376 4.526C441.46 4.61 441.502 4.718 441.502 4.85V16.568C441.502 16.688 441.46 16.79 441.376 16.874C441.292 16.958 441.184 17 441.052 17H439.432C439.312 17 439.21 16.958 439.126 16.874C439.042 16.79 439 16.688 439 16.568V11.744H433.69V16.568C433.69 16.688 433.648 16.79 433.564 16.874C433.492 16.958 433.39 17 433.258 17H431.62ZM448.046 17C447.926 17 447.824 16.958 447.74 16.874C447.656 16.79 447.614 16.688 447.614 16.568V6.614H444.284C444.164 6.614 444.062 6.572 443.978 6.488C443.894 6.404 443.852 6.302 443.852 6.182V4.85C443.852 4.718 443.894 4.61 443.978 4.526C444.062 4.442 444.164 4.4 444.284 4.4H453.464C453.596 4.4 453.704 4.442 453.788 4.526C453.872 4.61 453.914 4.718 453.914 4.85V6.182C453.914 6.302 453.872 6.404 453.788 6.488C453.704 6.572 453.596 6.614 453.464 6.614H450.152V16.568C450.152 16.688 450.11 16.79 450.026 16.874C449.942 16.958 449.834 17 449.702 17H448.046Z" fill="white"/>
</svg>
