<svg width="1073" height="639" viewBox="0 0 1073 639" fill="none" xmlns="http://www.w3.org/2000/svg">
<g filter="url(#filter0_b_6_300)">
<mask id="path-1-inside-1_6_300" fill="white">
<path fill-rule="evenodd" clip-rule="evenodd" d="M0.15625 10.5954C0.15625 5.07255 4.6334 0.595398 10.1562 0.595398H534.566C535.844 0.595398 537.109 0.840082 538.294 1.31622L611.247 30.6246C612.432 31.1007 613.698 31.3454 614.975 31.3454H804.672H1062.84C1068.37 31.3454 1072.84 35.8225 1072.84 41.3454V605.288C1072.84 608.135 1071.63 610.847 1069.51 612.744L1043.5 635.988C1041.67 637.626 1039.3 638.532 1036.84 638.532H48.1758C45.9853 638.532 43.8555 637.813 42.1135 636.485L4.094 607.504C1.61259 605.612 0.15625 602.671 0.15625 599.551V10.5954Z"/>
</mask>
<path fill-rule="evenodd" clip-rule="evenodd" d="M0.15625 10.5954C0.15625 5.07255 4.6334 0.595398 10.1562 0.595398H534.566C535.844 0.595398 537.109 0.840082 538.294 1.31622L611.247 30.6246C612.432 31.1007 613.698 31.3454 614.975 31.3454H804.672H1062.84C1068.37 31.3454 1072.84 35.8225 1072.84 41.3454V605.288C1072.84 608.135 1071.63 610.847 1069.51 612.744L1043.5 635.988C1041.67 637.626 1039.3 638.532 1036.84 638.532H48.1758C45.9853 638.532 43.8555 637.813 42.1135 636.485L4.094 607.504C1.61259 605.612 0.15625 602.671 0.15625 599.551V10.5954Z" fill="url(#paint0_linear_6_300)"/>
<path d="M4.094 607.504L7.12512 603.527L4.094 607.504ZM42.1135 636.485L45.1446 632.508L42.1135 636.485ZM1043.5 635.988L1040.17 632.26L1043.5 635.988ZM611.247 30.6246L609.383 35.2642L611.247 30.6246ZM1069.51 612.744L1066.18 609.016L1069.51 612.744ZM538.294 1.31622L540.158 -3.32337L538.294 1.31622ZM534.566 -4.4046H10.1562V5.5954H534.566V-4.4046ZM613.111 25.985L540.158 -3.32337L536.43 5.95581L609.383 35.2642L613.111 25.985ZM804.672 26.3454H614.975V36.3454H804.672V26.3454ZM1062.84 26.3454H804.672V36.3454H1062.84V26.3454ZM1077.84 605.288V41.3454H1067.84V605.288H1077.84ZM1066.18 609.016L1040.17 632.26L1046.83 639.716L1072.84 616.472L1066.18 609.016ZM48.1758 643.532H1036.84V633.532H48.1758V643.532ZM1.06287 611.48L39.0824 640.461L45.1446 632.508L7.12512 603.527L1.06287 611.48ZM-4.84375 10.5954V599.551H5.15625V10.5954H-4.84375ZM7.12512 603.527C5.88442 602.582 5.15625 601.111 5.15625 599.551H-4.84375C-4.84375 604.231 -2.65924 608.643 1.06287 611.48L7.12512 603.527ZM48.1758 633.532C47.0806 633.532 46.0156 633.172 45.1446 632.508L39.0824 640.461C41.6954 642.453 44.8901 643.532 48.1758 643.532V633.532ZM1040.17 632.26C1039.25 633.079 1038.07 633.532 1036.84 633.532V643.532C1040.52 643.532 1044.08 642.173 1046.83 639.716L1040.17 632.26ZM1062.84 36.3454C1065.61 36.3454 1067.84 38.584 1067.84 41.3454H1077.84C1077.84 33.0611 1071.13 26.3454 1062.84 26.3454V36.3454ZM609.383 35.2642C611.161 35.9784 613.059 36.3454 614.975 36.3454V26.3454C614.336 26.3454 613.703 26.2231 613.111 25.985L609.383 35.2642ZM10.1562 -4.4046C1.87197 -4.4046 -4.84375 2.31113 -4.84375 10.5954H5.15625C5.15625 7.83397 7.39482 5.5954 10.1562 5.5954V-4.4046ZM1067.84 605.288C1067.84 606.711 1067.24 608.067 1066.18 609.016L1072.84 616.472C1076.02 613.626 1077.84 609.558 1077.84 605.288H1067.84ZM534.566 5.5954C535.205 5.5954 535.838 5.71774 536.43 5.95581L540.158 -3.32337C538.38 -4.03758 536.482 -4.4046 534.566 -4.4046V5.5954Z" fill="url(#paint1_linear_6_300)" mask="url(#path-1-inside-1_6_300)"/>
</g>
<defs>
<filter id="filter0_b_6_300" x="-39.8438" y="-39.4046" width="1152.69" height="717.936" filterUnits="userSpaceOnUse" color-interpolation-filters="sRGB">
<feFlood flood-opacity="0" result="BackgroundImageFix"/>
<feGaussianBlur in="BackgroundImage" stdDeviation="20"/>
<feComposite in2="SourceAlpha" operator="in" result="effect1_backgroundBlur_6_300"/>
<feBlend mode="normal" in="SourceGraphic" in2="effect1_backgroundBlur_6_300" result="shape"/>
</filter>
<linearGradient id="paint0_linear_6_300" x1="536.5" y1="0.595398" x2="536.5" y2="638.532" gradientUnits="userSpaceOnUse">
<stop stop-color="#1D5C9F"/>
<stop offset="1" stop-color="#0F1E3D"/>
</linearGradient>
<linearGradient id="paint1_linear_6_300" x1="0.156232" y1="0.318083" x2="1062.45" y2="655.677" gradientUnits="userSpaceOnUse">
<stop stop-color="#B0D0FF"/>
<stop offset="0.5625" stop-color="#BAD5FF" stop-opacity="0"/>
<stop offset="1" stop-color="#A4C8FF"/>
</linearGradient>
</defs>
</svg>
