<svg width="1073" height="638" viewBox="0 0 1073 638" fill="none" xmlns="http://www.w3.org/2000/svg">
<g filter="url(#filter0_b_35_392)">
<mask id="path-1-inside-1_35_392" fill="white">
<path fill-rule="evenodd" clip-rule="evenodd" d="M0 10C0 4.47715 4.47715 0 10 0H534.41C535.687 0 536.953 0.244684 538.138 0.720824L611.091 30.0292C612.276 30.5053 613.541 30.75 614.819 30.75H804.516H1062.69C1068.21 30.75 1072.69 35.2272 1072.69 40.75V604.693C1072.69 607.539 1071.47 610.251 1069.35 612.149L1043.34 635.392C1041.51 637.031 1039.14 637.936 1036.68 637.936H48.0195C45.8291 637.936 43.6993 637.217 41.9573 635.889L3.93775 606.908C1.45634 605.017 0 602.076 0 598.955V10Z"/>
</mask>
<path fill-rule="evenodd" clip-rule="evenodd" d="M0 10C0 4.47715 4.47715 0 10 0H534.41C535.687 0 536.953 0.244684 538.138 0.720824L611.091 30.0292C612.276 30.5053 613.541 30.75 614.819 30.75H804.516H1062.69C1068.21 30.75 1072.69 35.2272 1072.69 40.75V604.693C1072.69 607.539 1071.47 610.251 1069.35 612.149L1043.34 635.392C1041.51 637.031 1039.14 637.936 1036.68 637.936H48.0195C45.8291 637.936 43.6993 637.217 41.9573 635.889L3.93775 606.908C1.45634 605.017 0 602.076 0 598.955V10Z" fill="url(#paint0_linear_35_392)"/>
<path d="M3.93775 606.908L6.36265 603.727L3.93775 606.908ZM41.9573 635.889L44.3822 632.708L41.9573 635.889ZM1043.34 635.392L1040.68 632.41L1043.34 635.392ZM611.091 30.0292L609.6 33.7408L611.091 30.0292ZM1069.35 612.149L1066.69 609.166L1069.35 612.149ZM538.138 0.720824L539.629 -2.99085L538.138 0.720824ZM534.41 -4H10V4H534.41V-4ZM612.582 26.3175L539.629 -2.99085L536.647 4.43249L609.6 33.7408L612.582 26.3175ZM804.516 26.75H614.819V34.75H804.516V26.75ZM1062.69 26.75H804.516V34.75H1062.69V26.75ZM1076.69 604.693V40.75H1068.69V604.693H1076.69ZM1066.69 609.166L1040.68 632.41L1046.01 638.375L1072.02 615.131L1066.69 609.166ZM48.0195 641.936H1036.68V633.936H48.0195V641.936ZM1.51285 610.09L39.5324 639.07L44.3822 632.708L6.36265 603.727L1.51285 610.09ZM-4 10V598.955H4V10H-4ZM6.36265 603.727C4.8738 602.592 4 600.828 4 598.955H-4C-4 603.324 -1.96112 607.441 1.51285 610.09L6.36265 603.727ZM48.0195 633.936C46.7053 633.936 45.4274 633.505 44.3822 632.708L39.5324 639.07C41.9712 640.93 44.9529 641.936 48.0195 641.936V633.936ZM1040.68 632.41C1039.58 633.393 1038.16 633.936 1036.68 633.936V641.936C1040.12 641.936 1043.44 640.669 1046.01 638.375L1040.68 632.41ZM1062.69 34.75C1066 34.75 1068.69 37.4363 1068.69 40.75H1076.69C1076.69 33.018 1070.42 26.75 1062.69 26.75V34.75ZM609.6 33.7408C611.259 34.4074 613.03 34.75 614.819 34.75V26.75C614.052 26.75 613.293 26.6032 612.582 26.3175L609.6 33.7408ZM10 -4C2.26801 -4 -4 2.26802 -4 10H4C4 6.68629 6.68629 4 10 4V-4ZM1068.69 604.693C1068.69 606.401 1067.96 608.028 1066.69 609.166L1072.02 615.131C1074.99 612.475 1076.69 608.678 1076.69 604.693H1068.69ZM534.41 4C535.176 4 535.936 4.14681 536.647 4.43249L539.629 -2.99085C537.97 -3.65744 536.198 -4 534.41 -4V4Z" fill="url(#paint1_linear_35_392)" mask="url(#path-1-inside-1_35_392)"/>
</g>
<defs>
<filter id="filter0_b_35_392" x="-40" y="-40" width="1152.69" height="717.937" filterUnits="userSpaceOnUse" color-interpolation-filters="sRGB">
<feFlood flood-opacity="0" result="BackgroundImageFix"/>
<feGaussianBlur in="BackgroundImage" stdDeviation="20"/>
<feComposite in2="SourceAlpha" operator="in" result="effect1_backgroundBlur_35_392"/>
<feBlend mode="normal" in="SourceGraphic" in2="effect1_backgroundBlur_35_392" result="shape"/>
</filter>
<linearGradient id="paint0_linear_35_392" x1="536.344" y1="0" x2="536.344" y2="637.936" gradientUnits="userSpaceOnUse">
<stop stop-color="#1D5C9F"/>
<stop offset="1" stop-color="#0F1E3D"/>
</linearGradient>
<linearGradient id="paint1_linear_35_392" x1="-1.78306e-05" y1="-0.277315" x2="1062.29" y2="655.082" gradientUnits="userSpaceOnUse">
<stop stop-color="#B0D0FF"/>
<stop offset="0.5625" stop-color="#BAD5FF" stop-opacity="0"/>
<stop offset="1" stop-color="#A4C8FF"/>
</linearGradient>
</defs>
</svg>
