<svg width="744" height="74" viewBox="0 0 744 74" fill="none" xmlns="http://www.w3.org/2000/svg">
<g filter="url(#filter0_dd_35_403)">
<path d="M27.89 47C27.69 47 27.52 46.94 27.38 46.82C27.26 46.68 27.2 46.51 27.2 46.31V28.67H21.44C21.24 28.67 21.07 28.61 20.93 28.49C20.81 28.35 20.75 28.18 20.75 27.98V26.72C20.75 26.5 20.81 26.33 20.93 26.21C21.07 26.07 21.24 26 21.44 26H35.9C36.12 26 36.29 26.07 36.41 26.21C36.55 26.33 36.62 26.5 36.62 26.72V27.98C36.62 28.18 36.55 28.35 36.41 28.49C36.29 28.61 36.12 28.67 35.9 28.67H30.17V46.31C30.17 46.51 30.1 46.68 29.96 46.82C29.84 46.94 29.67 47 29.45 47H27.89ZM41.1891 47.3C40.1891 47.3 39.2791 47.1 38.4591 46.7C37.6391 46.3 36.9791 45.76 36.4791 45.08C35.9791 44.4 35.7291 43.63 35.7291 42.77C35.7291 41.39 36.2891 40.29 37.4091 39.47C38.5291 38.65 39.9891 38.11 41.7891 37.85L46.2591 37.22V36.35C46.2591 35.39 45.9791 34.64 45.4191 34.1C44.8791 33.56 43.9891 33.29 42.7491 33.29C41.8491 33.29 41.1191 33.47 40.5591 33.83C40.0191 34.19 39.6391 34.65 39.4191 35.21C39.2991 35.51 39.0891 35.66 38.7891 35.66H37.4391C37.2191 35.66 37.0491 35.6 36.9291 35.48C36.8291 35.34 36.7791 35.18 36.7791 35C36.7791 34.7 36.8891 34.33 37.1091 33.89C37.3491 33.45 37.7091 33.02 38.1891 32.6C38.6691 32.18 39.2791 31.83 40.0191 31.55C40.7791 31.25 41.6991 31.1 42.7791 31.1C43.9791 31.1 44.9891 31.26 45.8091 31.58C46.6291 31.88 47.2691 32.29 47.7291 32.81C48.2091 33.33 48.5491 33.92 48.7491 34.58C48.9691 35.24 49.0791 35.91 49.0791 36.59V46.31C49.0791 46.51 49.0091 46.68 48.8691 46.82C48.7491 46.94 48.5891 47 48.3891 47H47.0091C46.7891 47 46.6191 46.94 46.4991 46.82C46.3791 46.68 46.3191 46.51 46.3191 46.31V45.02C46.0591 45.38 45.7091 45.74 45.2691 46.1C44.8291 46.44 44.2791 46.73 43.6191 46.97C42.9591 47.19 42.1491 47.3 41.1891 47.3ZM41.8191 45.05C42.6391 45.05 43.3891 44.88 44.0691 44.54C44.7491 44.18 45.2791 43.63 45.6591 42.89C46.0591 42.15 46.2591 41.22 46.2591 40.1V39.26L42.7791 39.77C41.3591 39.97 40.2891 40.31 39.5691 40.79C38.8491 41.25 38.4891 41.84 38.4891 42.56C38.4891 43.12 38.6491 43.59 38.9691 43.97C39.3091 44.33 39.7291 44.6 40.2291 44.78C40.7491 44.96 41.2791 45.05 41.8191 45.05ZM61.1019 47.3C59.9019 47.3 58.9019 47.09 58.1019 46.67C57.3019 46.23 56.6619 45.69 56.1819 45.05V46.31C56.1819 46.51 56.1119 46.68 55.9719 46.82C55.8519 46.94 55.6919 47 55.4919 47H54.1119C53.9119 47 53.7419 46.94 53.6019 46.82C53.4819 46.68 53.4219 46.51 53.4219 46.31V26.39C53.4219 26.19 53.4819 26.03 53.6019 25.91C53.7419 25.77 53.9119 25.7 54.1119 25.7H55.5519C55.7719 25.7 55.9419 25.77 56.0619 25.91C56.1819 26.03 56.2419 26.19 56.2419 26.39V33.29C56.7419 32.67 57.3819 32.15 58.1619 31.73C58.9619 31.31 59.9419 31.1 61.1019 31.1C62.2219 31.1 63.1719 31.3 63.9519 31.7C64.7519 32.08 65.4019 32.61 65.9019 33.29C66.4219 33.97 66.8119 34.74 67.0719 35.6C67.3319 36.46 67.4719 37.36 67.4919 38.3C67.5119 38.62 67.5219 38.92 67.5219 39.2C67.5219 39.48 67.5119 39.78 67.4919 40.1C67.4719 41.06 67.3319 41.97 67.0719 42.83C66.8119 43.69 66.4219 44.46 65.9019 45.14C65.4019 45.8 64.7519 46.33 63.9519 46.73C63.1719 47.11 62.2219 47.3 61.1019 47.3ZM60.4719 44.87C61.5119 44.87 62.3219 44.65 62.9019 44.21C63.5019 43.75 63.9319 43.16 64.1919 42.44C64.4519 41.7 64.6019 40.91 64.6419 40.07C64.6619 39.49 64.6619 38.91 64.6419 38.33C64.6019 37.49 64.4519 36.71 64.1919 35.99C63.9319 35.25 63.5019 34.66 62.9019 34.22C62.3219 33.76 61.5119 33.53 60.4719 33.53C59.5319 33.53 58.7519 33.75 58.1319 34.19C57.5119 34.63 57.0419 35.19 56.7219 35.87C56.4219 36.55 56.2619 37.24 56.2419 37.94C56.2219 38.26 56.2119 38.65 56.2119 39.11C56.2119 39.55 56.2219 39.93 56.2419 40.25C56.2819 40.99 56.4419 41.72 56.7219 42.44C57.0219 43.14 57.4719 43.72 58.0719 44.18C58.6919 44.64 59.4919 44.87 60.4719 44.87ZM79.2772 53.24C79.0772 53.24 78.9072 53.17 78.7672 53.03C78.6472 52.91 78.5872 52.75 78.5872 52.55V20.81C78.5872 20.61 78.6472 20.45 78.7672 20.33C78.9072 20.19 79.0772 20.12 79.2772 20.12H80.4472C80.6472 20.12 80.8072 20.19 80.9272 20.33C81.0672 20.45 81.1372 20.61 81.1372 20.81V52.55C81.1372 52.75 81.0672 52.91 80.9272 53.03C80.8072 53.17 80.6472 53.24 80.4472 53.24H79.2772ZM94.0227 47C93.8027 47 93.6327 46.94 93.5127 46.82C93.3927 46.68 93.3327 46.51 93.3327 46.31V26.72C93.3327 26.5 93.3927 26.33 93.5127 26.21C93.6327 26.07 93.8027 26 94.0227 26H95.5527C95.7727 26 95.9427 26.07 96.0627 26.21C96.2027 26.33 96.2727 26.5 96.2727 26.72V35H106.593V26.72C106.593 26.5 106.653 26.33 106.773 26.21C106.913 26.07 107.083 26 107.283 26H108.813C109.033 26 109.203 26.07 109.323 26.21C109.463 26.33 109.533 26.5 109.533 26.72V46.31C109.533 46.51 109.463 46.68 109.323 46.82C109.203 46.94 109.033 47 108.813 47H107.283C107.083 47 106.913 46.94 106.773 46.82C106.653 46.68 106.593 46.51 106.593 46.31V37.7H96.2727V46.31C96.2727 46.51 96.2027 46.68 96.0627 46.82C95.9427 46.94 95.7727 47 95.5527 47H94.0227ZM115.019 47C114.819 47 114.649 46.94 114.509 46.82C114.389 46.68 114.329 46.51 114.329 46.31V32.09C114.329 31.89 114.389 31.73 114.509 31.61C114.649 31.47 114.819 31.4 115.019 31.4H116.459C116.659 31.4 116.819 31.47 116.939 31.61C117.059 31.73 117.119 31.89 117.119 32.09V46.31C117.119 46.51 117.059 46.68 116.939 46.82C116.819 46.94 116.659 47 116.459 47H115.019ZM114.779 28.49C114.579 28.49 114.409 28.43 114.269 28.31C114.149 28.17 114.089 28 114.089 27.8V26.18C114.089 25.98 114.149 25.82 114.269 25.7C114.409 25.56 114.579 25.49 114.779 25.49H116.669C116.869 25.49 117.029 25.56 117.149 25.7C117.289 25.82 117.359 25.98 117.359 26.18V27.8C117.359 28 117.289 28.17 117.149 28.31C117.029 28.43 116.869 28.49 116.669 28.49H114.779ZM127.985 53.6C126.625 53.6 125.505 53.42 124.625 53.06C123.765 52.7 123.085 52.26 122.585 51.74C122.105 51.24 121.755 50.73 121.535 50.21C121.335 49.71 121.225 49.31 121.205 49.01C121.185 48.81 121.245 48.64 121.385 48.5C121.545 48.36 121.715 48.29 121.895 48.29H123.335C123.515 48.29 123.665 48.33 123.785 48.41C123.905 48.49 124.005 48.66 124.085 48.92C124.205 49.22 124.385 49.55 124.625 49.91C124.865 50.29 125.235 50.61 125.735 50.87C126.235 51.15 126.935 51.29 127.835 51.29C128.775 51.29 129.565 51.16 130.205 50.9C130.845 50.66 131.325 50.22 131.645 49.58C131.985 48.96 132.155 48.1 132.155 47V44.96C131.675 45.58 131.045 46.1 130.265 46.52C129.485 46.92 128.505 47.12 127.325 47.12C126.205 47.12 125.245 46.93 124.445 46.55C123.645 46.15 122.985 45.62 122.465 44.96C121.965 44.28 121.585 43.51 121.325 42.65C121.085 41.79 120.945 40.89 120.905 39.95C120.885 39.39 120.885 38.84 120.905 38.3C120.945 37.36 121.085 36.46 121.325 35.6C121.585 34.74 121.965 33.97 122.465 33.29C122.985 32.61 123.645 32.08 124.445 31.7C125.245 31.3 126.205 31.1 127.325 31.1C128.525 31.1 129.515 31.33 130.295 31.79C131.095 32.23 131.745 32.77 132.245 33.41V32.12C132.245 31.92 132.305 31.75 132.425 31.61C132.565 31.47 132.735 31.4 132.935 31.4H134.315C134.515 31.4 134.685 31.47 134.825 31.61C134.965 31.75 135.035 31.92 135.035 32.12V46.67C135.035 48.01 134.805 49.2 134.345 50.24C133.905 51.28 133.165 52.1 132.125 52.7C131.105 53.3 129.725 53.6 127.985 53.6ZM127.925 44.72C128.925 44.72 129.725 44.49 130.325 44.03C130.945 43.57 131.395 42.99 131.675 42.29C131.975 41.59 132.135 40.88 132.155 40.16C132.175 39.88 132.185 39.54 132.185 39.14C132.185 38.72 132.175 38.37 132.155 38.09C132.135 37.37 131.975 36.66 131.675 35.96C131.395 35.26 130.945 34.68 130.325 34.22C129.725 33.76 128.925 33.53 127.925 33.53C126.925 33.53 126.125 33.76 125.525 34.22C124.925 34.66 124.495 35.25 124.235 35.99C123.975 36.71 123.825 37.49 123.785 38.33C123.765 38.85 123.765 39.38 123.785 39.92C123.825 40.76 123.975 41.55 124.235 42.29C124.495 43.01 124.925 43.6 125.525 44.06C126.125 44.5 126.925 44.72 127.925 44.72ZM140.215 47C140.015 47 139.845 46.94 139.705 46.82C139.585 46.68 139.525 46.51 139.525 46.31V26.39C139.525 26.19 139.585 26.03 139.705 25.91C139.845 25.77 140.015 25.7 140.215 25.7H141.715C141.935 25.7 142.105 25.77 142.225 25.91C142.345 26.03 142.405 26.19 142.405 26.39V33.38C142.945 32.7 143.605 32.15 144.385 31.73C145.165 31.31 146.155 31.1 147.355 31.1C148.655 31.1 149.755 31.39 150.655 31.97C151.575 32.53 152.265 33.32 152.725 34.34C153.205 35.34 153.445 36.51 153.445 37.85V46.31C153.445 46.51 153.385 46.68 153.265 46.82C153.145 46.94 152.975 47 152.755 47H151.255C151.055 47 150.885 46.94 150.745 46.82C150.625 46.68 150.565 46.51 150.565 46.31V38C150.565 36.6 150.225 35.51 149.545 34.73C148.865 33.93 147.865 33.53 146.545 33.53C145.305 33.53 144.305 33.93 143.545 34.73C142.785 35.51 142.405 36.6 142.405 38V46.31C142.405 46.51 142.345 46.68 142.225 46.82C142.105 46.94 141.935 47 141.715 47H140.215ZM158.497 47C158.297 47 158.127 46.94 157.987 46.82C157.867 46.68 157.807 46.51 157.807 46.31V26.39C157.807 26.19 157.867 26.03 157.987 25.91C158.127 25.77 158.297 25.7 158.497 25.7H159.907C160.127 25.7 160.297 25.77 160.417 25.91C160.537 26.03 160.597 26.19 160.597 26.39V46.31C160.597 46.51 160.537 46.68 160.417 46.82C160.297 46.94 160.127 47 159.907 47H158.497ZM166.055 47C165.855 47 165.685 46.94 165.545 46.82C165.425 46.68 165.365 46.51 165.365 46.31V32.09C165.365 31.89 165.425 31.73 165.545 31.61C165.685 31.47 165.855 31.4 166.055 31.4H167.495C167.695 31.4 167.855 31.47 167.975 31.61C168.095 31.73 168.155 31.89 168.155 32.09V46.31C168.155 46.51 168.095 46.68 167.975 46.82C167.855 46.94 167.695 47 167.495 47H166.055ZM165.815 28.49C165.615 28.49 165.445 28.43 165.305 28.31C165.185 28.17 165.125 28 165.125 27.8V26.18C165.125 25.98 165.185 25.82 165.305 25.7C165.445 25.56 165.615 25.49 165.815 25.49H167.705C167.905 25.49 168.065 25.56 168.185 25.7C168.325 25.82 168.395 25.98 168.395 26.18V27.8C168.395 28 168.325 28.17 168.185 28.31C168.065 28.43 167.905 28.49 167.705 28.49H165.815ZM179.02 53.6C177.66 53.6 176.54 53.42 175.66 53.06C174.8 52.7 174.12 52.26 173.62 51.74C173.14 51.24 172.79 50.73 172.57 50.21C172.37 49.71 172.26 49.31 172.24 49.01C172.22 48.81 172.28 48.64 172.42 48.5C172.58 48.36 172.75 48.29 172.93 48.29H174.37C174.55 48.29 174.7 48.33 174.82 48.41C174.94 48.49 175.04 48.66 175.12 48.92C175.24 49.22 175.42 49.55 175.66 49.91C175.9 50.29 176.27 50.61 176.77 50.87C177.27 51.15 177.97 51.29 178.87 51.29C179.81 51.29 180.6 51.16 181.24 50.9C181.88 50.66 182.36 50.22 182.68 49.58C183.02 48.96 183.19 48.1 183.19 47V44.96C182.71 45.58 182.08 46.1 181.3 46.52C180.52 46.92 179.54 47.12 178.36 47.12C177.24 47.12 176.28 46.93 175.48 46.55C174.68 46.15 174.02 45.62 173.5 44.96C173 44.28 172.62 43.51 172.36 42.65C172.12 41.79 171.98 40.89 171.94 39.95C171.92 39.39 171.92 38.84 171.94 38.3C171.98 37.36 172.12 36.46 172.36 35.6C172.62 34.74 173 33.97 173.5 33.29C174.02 32.61 174.68 32.08 175.48 31.7C176.28 31.3 177.24 31.1 178.36 31.1C179.56 31.1 180.55 31.33 181.33 31.79C182.13 32.23 182.78 32.77 183.28 33.41V32.12C183.28 31.92 183.34 31.75 183.46 31.61C183.6 31.47 183.77 31.4 183.97 31.4H185.35C185.55 31.4 185.72 31.47 185.86 31.61C186 31.75 186.07 31.92 186.07 32.12V46.67C186.07 48.01 185.84 49.2 185.38 50.24C184.94 51.28 184.2 52.1 183.16 52.7C182.14 53.3 180.76 53.6 179.02 53.6ZM178.96 44.72C179.96 44.72 180.76 44.49 181.36 44.03C181.98 43.57 182.43 42.99 182.71 42.29C183.01 41.59 183.17 40.88 183.19 40.16C183.21 39.88 183.22 39.54 183.22 39.14C183.22 38.72 183.21 38.37 183.19 38.09C183.17 37.37 183.01 36.66 182.71 35.96C182.43 35.26 181.98 34.68 181.36 34.22C180.76 33.76 179.96 33.53 178.96 33.53C177.96 33.53 177.16 33.76 176.56 34.22C175.96 34.66 175.53 35.25 175.27 35.99C175.01 36.71 174.86 37.49 174.82 38.33C174.8 38.85 174.8 39.38 174.82 39.92C174.86 40.76 175.01 41.55 175.27 42.29C175.53 43.01 175.96 43.6 176.56 44.06C177.16 44.5 177.96 44.72 178.96 44.72ZM191.251 47C191.051 47 190.881 46.94 190.741 46.82C190.621 46.68 190.561 46.51 190.561 46.31V26.39C190.561 26.19 190.621 26.03 190.741 25.91C190.881 25.77 191.051 25.7 191.251 25.7H192.751C192.971 25.7 193.141 25.77 193.261 25.91C193.381 26.03 193.441 26.19 193.441 26.39V33.38C193.981 32.7 194.641 32.15 195.421 31.73C196.201 31.31 197.191 31.1 198.391 31.1C199.691 31.1 200.791 31.39 201.691 31.97C202.611 32.53 203.301 33.32 203.761 34.34C204.241 35.34 204.481 36.51 204.481 37.85V46.31C204.481 46.51 204.421 46.68 204.301 46.82C204.181 46.94 204.011 47 203.791 47H202.291C202.091 47 201.921 46.94 201.781 46.82C201.661 46.68 201.601 46.51 201.601 46.31V38C201.601 36.6 201.261 35.51 200.581 34.73C199.901 33.93 198.901 33.53 197.581 33.53C196.341 33.53 195.341 33.93 194.581 34.73C193.821 35.51 193.441 36.6 193.441 38V46.31C193.441 46.51 193.381 46.68 193.261 46.82C193.141 46.94 192.971 47 192.751 47H191.251ZM214.697 47C213.577 47 212.667 46.79 211.967 46.37C211.267 45.93 210.757 45.32 210.437 44.54C210.117 43.74 209.957 42.8 209.957 41.72V33.8H207.617C207.417 33.8 207.247 33.74 207.107 33.62C206.987 33.48 206.927 33.31 206.927 33.11V32.09C206.927 31.89 206.987 31.73 207.107 31.61C207.247 31.47 207.417 31.4 207.617 31.4H209.957V26.39C209.957 26.19 210.017 26.03 210.137 25.91C210.277 25.77 210.447 25.7 210.647 25.7H212.057C212.257 25.7 212.417 25.77 212.537 25.91C212.677 26.03 212.747 26.19 212.747 26.39V31.4H216.467C216.667 31.4 216.827 31.47 216.947 31.61C217.087 31.73 217.157 31.89 217.157 32.09V33.11C217.157 33.31 217.087 33.48 216.947 33.62C216.827 33.74 216.667 33.8 216.467 33.8H212.747V41.51C212.747 42.45 212.907 43.19 213.227 43.73C213.547 44.27 214.117 44.54 214.937 44.54H216.767C216.967 44.54 217.127 44.61 217.247 44.75C217.387 44.87 217.457 45.03 217.457 45.23V46.31C217.457 46.51 217.387 46.68 217.247 46.82C217.127 46.94 216.967 47 216.767 47H214.697ZM226.535 47.3C224.475 47.3 222.835 46.67 221.615 45.41C220.395 44.13 219.725 42.39 219.605 40.19C219.585 39.93 219.575 39.6 219.575 39.2C219.575 38.78 219.585 38.44 219.605 38.18C219.685 36.76 220.015 35.52 220.595 34.46C221.175 33.38 221.965 32.55 222.965 31.97C223.985 31.39 225.175 31.1 226.535 31.1C228.055 31.1 229.325 31.42 230.345 32.06C231.385 32.7 232.175 33.61 232.715 34.79C233.255 35.97 233.525 37.35 233.525 38.93V39.44C233.525 39.66 233.455 39.83 233.315 39.95C233.195 40.07 233.035 40.13 232.835 40.13H222.455C222.455 40.15 222.455 40.19 222.455 40.25C222.455 40.31 222.455 40.36 222.455 40.4C222.495 41.22 222.675 41.99 222.995 42.71C223.315 43.41 223.775 43.98 224.375 44.42C224.975 44.86 225.695 45.08 226.535 45.08C227.255 45.08 227.855 44.97 228.335 44.75C228.815 44.53 229.205 44.29 229.505 44.03C229.805 43.75 230.005 43.54 230.105 43.4C230.285 43.14 230.425 42.99 230.525 42.95C230.625 42.89 230.785 42.86 231.005 42.86H232.445C232.645 42.86 232.805 42.92 232.925 43.04C233.065 43.14 233.125 43.29 233.105 43.49C233.085 43.79 232.925 44.16 232.625 44.6C232.325 45.02 231.895 45.44 231.335 45.86C230.775 46.28 230.095 46.63 229.295 46.91C228.495 47.17 227.575 47.3 226.535 47.3ZM222.455 38.06H230.675V37.97C230.675 37.07 230.505 36.27 230.165 35.57C229.845 34.87 229.375 34.32 228.755 33.92C228.135 33.5 227.395 33.29 226.535 33.29C225.675 33.29 224.935 33.5 224.315 33.92C223.715 34.32 223.255 34.87 222.935 35.57C222.615 36.27 222.455 37.07 222.455 37.97V38.06ZM242.813 47.3C241.713 47.3 240.763 47.11 239.963 46.73C239.163 46.33 238.503 45.8 237.983 45.14C237.483 44.46 237.103 43.69 236.843 42.83C236.603 41.97 236.463 41.06 236.423 40.1C236.403 39.78 236.393 39.48 236.393 39.2C236.393 38.92 236.403 38.62 236.423 38.3C236.463 37.36 236.603 36.46 236.843 35.6C237.103 34.74 237.483 33.97 237.983 33.29C238.503 32.61 239.163 32.08 239.963 31.7C240.763 31.3 241.713 31.1 242.813 31.1C243.993 31.1 244.973 31.31 245.753 31.73C246.533 32.15 247.173 32.67 247.673 33.29V26.39C247.673 26.19 247.733 26.03 247.853 25.91C247.993 25.77 248.163 25.7 248.363 25.7H249.803C250.003 25.7 250.163 25.77 250.283 25.91C250.423 26.03 250.493 26.19 250.493 26.39V46.31C250.493 46.51 250.423 46.68 250.283 46.82C250.163 46.94 250.003 47 249.803 47H248.453C248.233 47 248.063 46.94 247.943 46.82C247.823 46.68 247.763 46.51 247.763 46.31V45.05C247.263 45.69 246.613 46.23 245.813 46.67C245.013 47.09 244.013 47.3 242.813 47.3ZM243.443 44.87C244.443 44.87 245.243 44.64 245.843 44.18C246.443 43.72 246.893 43.14 247.193 42.44C247.493 41.72 247.653 40.99 247.673 40.25C247.693 39.93 247.703 39.55 247.703 39.11C247.703 38.65 247.693 38.26 247.673 37.94C247.653 37.24 247.483 36.55 247.163 35.87C246.863 35.19 246.403 34.63 245.783 34.19C245.183 33.75 244.403 33.53 243.443 33.53C242.423 33.53 241.613 33.76 241.013 34.22C240.413 34.66 239.983 35.25 239.723 35.99C239.463 36.71 239.313 37.49 239.273 38.33C239.253 38.91 239.253 39.49 239.273 40.07C239.313 40.91 239.463 41.7 239.723 42.44C239.983 43.16 240.413 43.75 241.013 44.21C241.613 44.65 242.423 44.87 243.443 44.87ZM267.216 47C267.016 47 266.846 46.94 266.706 46.82C266.586 46.68 266.526 46.51 266.526 46.31V28.67H260.766C260.566 28.67 260.396 28.61 260.256 28.49C260.136 28.35 260.076 28.18 260.076 27.98V26.72C260.076 26.5 260.136 26.33 260.256 26.21C260.396 26.07 260.566 26 260.766 26H275.226C275.446 26 275.616 26.07 275.736 26.21C275.876 26.33 275.946 26.5 275.946 26.72V27.98C275.946 28.18 275.876 28.35 275.736 28.49C275.616 28.61 275.446 28.67 275.226 28.67H269.496V46.31C269.496 46.51 269.426 46.68 269.286 46.82C269.166 46.94 268.996 47 268.776 47H267.216ZM282.258 47.3C280.198 47.3 278.558 46.67 277.338 45.41C276.118 44.13 275.448 42.39 275.328 40.19C275.308 39.93 275.298 39.6 275.298 39.2C275.298 38.78 275.308 38.44 275.328 38.18C275.408 36.76 275.738 35.52 276.318 34.46C276.898 33.38 277.688 32.55 278.688 31.97C279.708 31.39 280.898 31.1 282.258 31.1C283.778 31.1 285.048 31.42 286.068 32.06C287.108 32.7 287.898 33.61 288.438 34.79C288.978 35.97 289.248 37.35 289.248 38.93V39.44C289.248 39.66 289.178 39.83 289.038 39.95C288.918 40.07 288.758 40.13 288.558 40.13H278.178C278.178 40.15 278.178 40.19 278.178 40.25C278.178 40.31 278.178 40.36 278.178 40.4C278.218 41.22 278.398 41.99 278.718 42.71C279.038 43.41 279.498 43.98 280.098 44.42C280.698 44.86 281.418 45.08 282.258 45.08C282.978 45.08 283.578 44.97 284.058 44.75C284.538 44.53 284.928 44.29 285.228 44.03C285.528 43.75 285.728 43.54 285.828 43.4C286.008 43.14 286.148 42.99 286.248 42.95C286.348 42.89 286.508 42.86 286.728 42.86H288.168C288.368 42.86 288.528 42.92 288.648 43.04C288.788 43.14 288.848 43.29 288.828 43.49C288.808 43.79 288.648 44.16 288.348 44.6C288.048 45.02 287.618 45.44 287.058 45.86C286.498 46.28 285.818 46.63 285.018 46.91C284.218 47.17 283.298 47.3 282.258 47.3ZM278.178 38.06H286.398V37.97C286.398 37.07 286.228 36.27 285.888 35.57C285.568 34.87 285.098 34.32 284.478 33.92C283.858 33.5 283.118 33.29 282.258 33.29C281.398 33.29 280.658 33.5 280.038 33.92C279.438 34.32 278.978 34.87 278.658 35.57C278.338 36.27 278.178 37.07 278.178 37.97V38.06ZM291.793 47C291.633 47 291.483 46.94 291.343 46.82C291.223 46.7 291.163 46.55 291.163 46.37C291.163 46.31 291.173 46.24 291.193 46.16C291.233 46.06 291.293 45.95 291.373 45.83L296.593 39.02L291.703 32.57C291.623 32.45 291.563 32.35 291.523 32.27C291.503 32.19 291.493 32.11 291.493 32.03C291.493 31.85 291.553 31.7 291.673 31.58C291.793 31.46 291.943 31.4 292.123 31.4H293.653C293.873 31.4 294.033 31.46 294.133 31.58C294.253 31.68 294.353 31.78 294.433 31.88L298.423 37.07L302.413 31.91C302.493 31.81 302.583 31.7 302.683 31.58C302.803 31.46 302.973 31.4 303.193 31.4H304.663C304.843 31.4 304.993 31.46 305.113 31.58C305.233 31.7 305.293 31.85 305.293 32.03C305.293 32.11 305.273 32.19 305.233 32.27C305.213 32.35 305.163 32.45 305.083 32.57L300.133 39.08L305.353 45.83C305.433 45.95 305.483 46.05 305.503 46.13C305.543 46.21 305.563 46.29 305.563 46.37C305.563 46.55 305.503 46.7 305.383 46.82C305.263 46.94 305.113 47 304.933 47H303.343C303.143 47 302.983 46.95 302.863 46.85C302.743 46.75 302.643 46.65 302.563 46.55L298.333 41.06L294.103 46.55C294.023 46.63 293.923 46.73 293.803 46.85C293.703 46.95 293.543 47 293.323 47H291.793ZM314.775 47C313.655 47 312.745 46.79 312.045 46.37C311.345 45.93 310.835 45.32 310.515 44.54C310.195 43.74 310.035 42.8 310.035 41.72V33.8H307.695C307.495 33.8 307.325 33.74 307.185 33.62C307.065 33.48 307.005 33.31 307.005 33.11V32.09C307.005 31.89 307.065 31.73 307.185 31.61C307.325 31.47 307.495 31.4 307.695 31.4H310.035V26.39C310.035 26.19 310.095 26.03 310.215 25.91C310.355 25.77 310.525 25.7 310.725 25.7H312.135C312.335 25.7 312.495 25.77 312.615 25.91C312.755 26.03 312.825 26.19 312.825 26.39V31.4H316.545C316.745 31.4 316.905 31.47 317.025 31.61C317.165 31.73 317.235 31.89 317.235 32.09V33.11C317.235 33.31 317.165 33.48 317.025 33.62C316.905 33.74 316.745 33.8 316.545 33.8H312.825V41.51C312.825 42.45 312.985 43.19 313.305 43.73C313.625 44.27 314.195 44.54 315.015 44.54H316.845C317.045 44.54 317.205 44.61 317.325 44.75C317.465 44.87 317.535 45.03 317.535 45.23V46.31C317.535 46.51 317.465 46.68 317.325 46.82C317.205 46.94 317.045 47 316.845 47H314.775ZM328.447 53.24C328.247 53.24 328.077 53.17 327.937 53.03C327.817 52.91 327.757 52.75 327.757 52.55V20.81C327.757 20.61 327.817 20.45 327.937 20.33C328.077 20.19 328.247 20.12 328.447 20.12H329.617C329.817 20.12 329.977 20.19 330.097 20.33C330.237 20.45 330.307 20.61 330.307 20.81V52.55C330.307 52.75 330.237 52.91 330.097 53.03C329.977 53.17 329.817 53.24 329.617 53.24H328.447ZM343.193 47C342.973 47 342.803 46.94 342.683 46.82C342.563 46.68 342.503 46.51 342.503 46.31V26.72C342.503 26.5 342.563 26.33 342.683 26.21C342.803 26.07 342.973 26 343.193 26H350.513C352.773 26 354.563 26.53 355.883 27.59C357.203 28.65 357.863 30.22 357.863 32.3C357.863 33.84 357.473 35.1 356.693 36.08C355.933 37.04 354.893 37.71 353.573 38.09L358.193 46.07C358.253 46.19 358.283 46.3 358.283 46.4C358.283 46.56 358.213 46.7 358.073 46.82C357.953 46.94 357.813 47 357.653 47H356.213C355.873 47 355.623 46.91 355.463 46.73C355.303 46.55 355.163 46.37 355.043 46.19L350.693 38.57H345.443V46.31C345.443 46.51 345.373 46.68 345.233 46.82C345.113 46.94 344.943 47 344.723 47H343.193ZM345.443 36.02H350.393C351.893 36.02 353.013 35.71 353.753 35.09C354.493 34.45 354.863 33.51 354.863 32.27C354.863 31.05 354.493 30.12 353.753 29.48C353.033 28.84 351.913 28.52 350.393 28.52H345.443V36.02ZM367.591 47.3C366.311 47.3 365.221 47.02 364.321 46.46C363.441 45.88 362.771 45.08 362.311 44.06C361.851 43.04 361.621 41.87 361.621 40.55V32.09C361.621 31.89 361.681 31.73 361.801 31.61C361.941 31.47 362.111 31.4 362.311 31.4H363.811C364.011 31.4 364.171 31.47 364.291 31.61C364.431 31.73 364.501 31.89 364.501 32.09V40.4C364.501 43.38 365.801 44.87 368.401 44.87C369.641 44.87 370.631 44.48 371.371 43.7C372.131 42.9 372.511 41.8 372.511 40.4V32.09C372.511 31.89 372.571 31.73 372.691 31.61C372.831 31.47 373.001 31.4 373.201 31.4H374.671C374.891 31.4 375.061 31.47 375.181 31.61C375.301 31.73 375.361 31.89 375.361 32.09V46.31C375.361 46.51 375.301 46.68 375.181 46.82C375.061 46.94 374.891 47 374.671 47H373.291C373.091 47 372.921 46.94 372.781 46.82C372.661 46.68 372.601 46.51 372.601 46.31V44.99C372.061 45.69 371.401 46.25 370.621 46.67C369.861 47.09 368.851 47.3 367.591 47.3ZM387.528 47.3C386.328 47.3 385.328 47.09 384.528 46.67C383.728 46.23 383.088 45.69 382.608 45.05V46.31C382.608 46.51 382.538 46.68 382.398 46.82C382.278 46.94 382.118 47 381.918 47H380.538C380.338 47 380.168 46.94 380.028 46.82C379.908 46.68 379.848 46.51 379.848 46.31V26.39C379.848 26.19 379.908 26.03 380.028 25.91C380.168 25.77 380.338 25.7 380.538 25.7H381.978C382.198 25.7 382.368 25.77 382.488 25.91C382.608 26.03 382.668 26.19 382.668 26.39V33.29C383.168 32.67 383.808 32.15 384.588 31.73C385.388 31.31 386.368 31.1 387.528 31.1C388.648 31.1 389.598 31.3 390.378 31.7C391.178 32.08 391.828 32.61 392.328 33.29C392.848 33.97 393.238 34.74 393.498 35.6C393.758 36.46 393.898 37.36 393.918 38.3C393.938 38.62 393.948 38.92 393.948 39.2C393.948 39.48 393.938 39.78 393.918 40.1C393.898 41.06 393.758 41.97 393.498 42.83C393.238 43.69 392.848 44.46 392.328 45.14C391.828 45.8 391.178 46.33 390.378 46.73C389.598 47.11 388.648 47.3 387.528 47.3ZM386.898 44.87C387.938 44.87 388.748 44.65 389.328 44.21C389.928 43.75 390.358 43.16 390.618 42.44C390.878 41.7 391.028 40.91 391.068 40.07C391.088 39.49 391.088 38.91 391.068 38.33C391.028 37.49 390.878 36.71 390.618 35.99C390.358 35.25 389.928 34.66 389.328 34.22C388.748 33.76 387.938 33.53 386.898 33.53C385.958 33.53 385.178 33.75 384.558 34.19C383.938 34.63 383.468 35.19 383.148 35.87C382.848 36.55 382.688 37.24 382.668 37.94C382.648 38.26 382.638 38.65 382.638 39.11C382.638 39.55 382.648 39.93 382.668 40.25C382.708 40.99 382.868 41.72 383.148 42.44C383.448 43.14 383.898 43.72 384.498 44.18C385.118 44.64 385.918 44.87 386.898 44.87ZM398.349 47C398.149 47 397.979 46.94 397.839 46.82C397.719 46.68 397.659 46.51 397.659 46.31V32.09C397.659 31.89 397.719 31.73 397.839 31.61C397.979 31.47 398.149 31.4 398.349 31.4H399.789C399.989 31.4 400.149 31.47 400.269 31.61C400.389 31.73 400.449 31.89 400.449 32.09V46.31C400.449 46.51 400.389 46.68 400.269 46.82C400.149 46.94 399.989 47 399.789 47H398.349ZM398.109 28.49C397.909 28.49 397.739 28.43 397.599 28.31C397.479 28.17 397.419 28 397.419 27.8V26.18C397.419 25.98 397.479 25.82 397.599 25.7C397.739 25.56 397.909 25.49 398.109 25.49H399.999C400.199 25.49 400.359 25.56 400.479 25.7C400.619 25.82 400.689 25.98 400.689 26.18V27.8C400.689 28 400.619 28.17 400.479 28.31C400.359 28.43 400.199 28.49 399.999 28.49H398.109ZM405.645 47C405.445 47 405.275 46.94 405.135 46.82C405.015 46.68 404.955 46.51 404.955 46.31V26.39C404.955 26.19 405.015 26.03 405.135 25.91C405.275 25.77 405.445 25.7 405.645 25.7H407.055C407.255 25.7 407.415 25.77 407.535 25.91C407.675 26.03 407.745 26.19 407.745 26.39V36.83L413.655 31.91C413.895 31.71 414.075 31.58 414.195 31.52C414.335 31.44 414.555 31.4 414.855 31.4H416.445C416.625 31.4 416.775 31.46 416.895 31.58C417.015 31.7 417.075 31.85 417.075 32.03C417.075 32.11 417.045 32.2 416.985 32.3C416.945 32.4 416.855 32.5 416.715 32.6L409.785 38.36L417.465 45.83C417.705 46.03 417.825 46.21 417.825 46.37C417.825 46.55 417.765 46.7 417.645 46.82C417.525 46.94 417.375 47 417.195 47H415.635C415.335 47 415.115 46.97 414.975 46.91C414.835 46.83 414.655 46.69 414.435 46.49L407.745 40.1V46.31C407.745 46.51 407.675 46.68 407.535 46.82C407.415 46.94 407.255 47 407.055 47H405.645ZM420.184 49.25C420.024 49.25 419.894 49.19 419.794 49.07C419.714 48.95 419.684 48.8 419.704 48.62L420.394 44.33C420.434 44.09 420.514 43.89 420.634 43.73C420.774 43.55 420.974 43.46 421.234 43.46H423.244C423.384 43.46 423.494 43.51 423.574 43.61C423.674 43.71 423.724 43.83 423.724 43.97C423.724 44.13 423.684 44.29 423.604 44.45L422.044 48.56C421.964 48.76 421.854 48.92 421.714 49.04C421.594 49.18 421.414 49.25 421.174 49.25H420.184ZM441.938 47.3C440.678 47.3 439.578 47.15 438.638 46.85C437.698 46.53 436.908 46.11 436.268 45.59C435.628 45.07 435.138 44.5 434.798 43.88C434.478 43.26 434.308 42.62 434.288 41.96C434.288 41.78 434.348 41.64 434.468 41.54C434.588 41.44 434.738 41.39 434.918 41.39H436.388C436.568 41.39 436.728 41.43 436.868 41.51C437.008 41.59 437.128 41.76 437.228 42.02C437.428 42.74 437.768 43.3 438.248 43.7C438.748 44.1 439.318 44.38 439.958 44.54C440.618 44.68 441.278 44.75 441.938 44.75C443.318 44.75 444.438 44.42 445.298 43.76C446.158 43.1 446.588 42.13 446.588 40.85C446.588 39.55 446.198 38.62 445.418 38.06C444.638 37.5 443.558 37.22 442.178 37.22H439.328C439.128 37.22 438.958 37.16 438.818 37.04C438.698 36.92 438.638 36.75 438.638 36.53V35.72C438.638 35.54 438.668 35.39 438.728 35.27C438.808 35.13 438.888 35.01 438.968 34.91L444.788 28.55H435.938C435.738 28.55 435.568 28.49 435.428 28.37C435.308 28.25 435.248 28.08 435.248 27.86V26.72C435.248 26.5 435.308 26.33 435.428 26.21C435.568 26.07 435.738 26 435.938 26H447.908C448.128 26 448.298 26.07 448.418 26.21C448.558 26.33 448.628 26.5 448.628 26.72V27.8C448.628 27.94 448.588 28.07 448.508 28.19C448.448 28.29 448.378 28.39 448.298 28.49L442.508 34.94L442.988 34.97C444.308 35.01 445.458 35.25 446.438 35.69C447.438 36.13 448.208 36.79 448.748 37.67C449.308 38.53 449.588 39.62 449.588 40.94C449.588 42.28 449.258 43.43 448.598 44.39C447.938 45.33 447.028 46.05 445.868 46.55C444.708 47.05 443.398 47.3 441.938 47.3ZM460.526 47.3C459.146 47.3 457.976 47.09 457.016 46.67C456.076 46.23 455.306 45.63 454.706 44.87C454.106 44.11 453.666 43.24 453.386 42.26C453.126 41.28 452.976 40.24 452.936 39.14C452.916 38.6 452.896 38.03 452.876 37.43C452.876 36.83 452.876 36.23 452.876 35.63C452.896 35.01 452.916 34.42 452.936 33.86C452.956 32.76 453.106 31.72 453.386 30.74C453.686 29.74 454.126 28.87 454.706 28.13C455.306 27.37 456.086 26.78 457.046 26.36C458.006 25.92 459.166 25.7 460.526 25.7C461.906 25.7 463.066 25.92 464.006 26.36C464.966 26.78 465.746 27.37 466.346 28.13C466.946 28.87 467.386 29.74 467.666 30.74C467.966 31.72 468.126 32.76 468.146 33.86C468.166 34.42 468.176 35.01 468.176 35.63C468.196 36.23 468.196 36.83 468.176 37.43C468.176 38.03 468.166 38.6 468.146 39.14C468.126 40.24 467.966 41.28 467.666 42.26C467.386 43.24 466.946 44.11 466.346 44.87C465.766 45.63 464.996 46.23 464.036 46.67C463.096 47.09 461.926 47.3 460.526 47.3ZM460.526 44.75C462.086 44.75 463.236 44.24 463.976 43.22C464.736 42.18 465.126 40.77 465.146 38.99C465.186 38.41 465.206 37.85 465.206 37.31C465.206 36.75 465.206 36.2 465.206 35.66C465.206 35.1 465.186 34.55 465.146 34.01C465.126 32.27 464.736 30.88 463.976 29.84C463.236 28.78 462.086 28.25 460.526 28.25C458.986 28.25 457.836 28.78 457.076 29.84C456.336 30.88 455.946 32.27 455.906 34.01C455.906 34.55 455.896 35.1 455.876 35.66C455.876 36.2 455.876 36.75 455.876 37.31C455.896 37.85 455.906 38.41 455.906 38.99C455.946 40.77 456.346 42.18 457.106 43.22C457.866 44.24 459.006 44.75 460.526 44.75ZM473.359 47C473.139 47 472.969 46.94 472.849 46.82C472.729 46.68 472.669 46.51 472.669 46.31V26.72C472.669 26.5 472.729 26.33 472.849 26.21C472.969 26.07 473.139 26 473.359 26H480.979C482.459 26 483.739 26.24 484.819 26.72C485.919 27.2 486.769 27.92 487.369 28.88C487.969 29.82 488.269 31 488.269 32.42C488.269 33.84 487.969 35.02 487.369 35.96C486.769 36.9 485.919 37.61 484.819 38.09C483.739 38.57 482.459 38.81 480.979 38.81H475.669V46.31C475.669 46.51 475.599 46.68 475.459 46.82C475.339 46.94 475.169 47 474.949 47H473.359ZM475.639 36.29H480.829C482.309 36.29 483.419 35.96 484.159 35.3C484.899 34.64 485.269 33.68 485.269 32.42C485.269 31.18 484.909 30.22 484.189 29.54C483.469 28.86 482.349 28.52 480.829 28.52H475.639V36.29ZM497.617 47C496.497 47 495.587 46.79 494.887 46.37C494.187 45.93 493.677 45.32 493.357 44.54C493.037 43.74 492.877 42.8 492.877 41.72V33.8H490.537C490.337 33.8 490.167 33.74 490.027 33.62C489.907 33.48 489.847 33.31 489.847 33.11V32.09C489.847 31.89 489.907 31.73 490.027 31.61C490.167 31.47 490.337 31.4 490.537 31.4H492.877V26.39C492.877 26.19 492.937 26.03 493.057 25.91C493.197 25.77 493.367 25.7 493.567 25.7H494.977C495.177 25.7 495.337 25.77 495.457 25.91C495.597 26.03 495.667 26.19 495.667 26.39V31.4H499.387C499.587 31.4 499.747 31.47 499.867 31.61C500.007 31.73 500.077 31.89 500.077 32.09V33.11C500.077 33.31 500.007 33.48 499.867 33.62C499.747 33.74 499.587 33.8 499.387 33.8H495.667V41.51C495.667 42.45 495.827 43.19 496.147 43.73C496.467 44.27 497.037 44.54 497.857 44.54H499.687C499.887 44.54 500.047 44.61 500.167 44.75C500.307 44.87 500.377 45.03 500.377 45.23V46.31C500.377 46.51 500.307 46.68 500.167 46.82C500.047 46.94 499.887 47 499.687 47H497.617ZM503.035 49.25C502.875 49.25 502.745 49.19 502.645 49.07C502.565 48.95 502.535 48.8 502.555 48.62L503.245 44.33C503.285 44.09 503.365 43.89 503.485 43.73C503.625 43.55 503.825 43.46 504.085 43.46H506.095C506.235 43.46 506.345 43.51 506.425 43.61C506.525 43.71 506.575 43.83 506.575 43.97C506.575 44.13 506.535 44.29 506.455 44.45L504.895 48.56C504.815 48.76 504.705 48.92 504.565 49.04C504.445 49.18 504.265 49.25 504.025 49.25H503.035ZM519.15 47C518.93 47 518.76 46.94 518.64 46.82C518.52 46.68 518.46 46.51 518.46 46.31V26.72C518.46 26.5 518.52 26.33 518.64 26.21C518.76 26.07 518.93 26 519.15 26H526.47C528.73 26 530.52 26.53 531.84 27.59C533.16 28.65 533.82 30.22 533.82 32.3C533.82 33.84 533.43 35.1 532.65 36.08C531.89 37.04 530.85 37.71 529.53 38.09L534.15 46.07C534.21 46.19 534.24 46.3 534.24 46.4C534.24 46.56 534.17 46.7 534.03 46.82C533.91 46.94 533.77 47 533.61 47H532.17C531.83 47 531.58 46.91 531.42 46.73C531.26 46.55 531.12 46.37 531 46.19L526.65 38.57H521.4V46.31C521.4 46.51 521.33 46.68 521.19 46.82C521.07 46.94 520.9 47 520.68 47H519.15ZM521.4 36.02H526.35C527.85 36.02 528.97 35.71 529.71 35.09C530.45 34.45 530.82 33.51 530.82 32.27C530.82 31.05 530.45 30.12 529.71 29.48C528.99 28.84 527.87 28.52 526.35 28.52H521.4V36.02ZM543.762 47.3C541.702 47.3 540.062 46.67 538.842 45.41C537.622 44.13 536.952 42.39 536.832 40.19C536.812 39.93 536.802 39.6 536.802 39.2C536.802 38.78 536.812 38.44 536.832 38.18C536.912 36.76 537.242 35.52 537.822 34.46C538.402 33.38 539.192 32.55 540.192 31.97C541.212 31.39 542.402 31.1 543.762 31.1C545.282 31.1 546.552 31.42 547.572 32.06C548.612 32.7 549.402 33.61 549.942 34.79C550.482 35.97 550.752 37.35 550.752 38.93V39.44C550.752 39.66 550.682 39.83 550.542 39.95C550.422 40.07 550.262 40.13 550.062 40.13H539.682C539.682 40.15 539.682 40.19 539.682 40.25C539.682 40.31 539.682 40.36 539.682 40.4C539.722 41.22 539.902 41.99 540.222 42.71C540.542 43.41 541.002 43.98 541.602 44.42C542.202 44.86 542.922 45.08 543.762 45.08C544.482 45.08 545.082 44.97 545.562 44.75C546.042 44.53 546.432 44.29 546.732 44.03C547.032 43.75 547.232 43.54 547.332 43.4C547.512 43.14 547.652 42.99 547.752 42.95C547.852 42.89 548.012 42.86 548.232 42.86H549.672C549.872 42.86 550.032 42.92 550.152 43.04C550.292 43.14 550.352 43.29 550.332 43.49C550.312 43.79 550.152 44.16 549.852 44.6C549.552 45.02 549.122 45.44 548.562 45.86C548.002 46.28 547.322 46.63 546.522 46.91C545.722 47.17 544.802 47.3 543.762 47.3ZM539.682 38.06H547.902V37.97C547.902 37.07 547.732 36.27 547.392 35.57C547.072 34.87 546.602 34.32 545.982 33.92C545.362 33.5 544.622 33.29 543.762 33.29C542.902 33.29 542.162 33.5 541.542 33.92C540.942 34.32 540.482 34.87 540.162 35.57C539.842 36.27 539.682 37.07 539.682 37.97V38.06ZM560.729 53.6C559.369 53.6 558.249 53.42 557.369 53.06C556.509 52.7 555.829 52.26 555.329 51.74C554.849 51.24 554.499 50.73 554.279 50.21C554.079 49.71 553.969 49.31 553.949 49.01C553.929 48.81 553.989 48.64 554.129 48.5C554.289 48.36 554.459 48.29 554.639 48.29H556.079C556.259 48.29 556.409 48.33 556.529 48.41C556.649 48.49 556.749 48.66 556.829 48.92C556.949 49.22 557.129 49.55 557.369 49.91C557.609 50.29 557.979 50.61 558.479 50.87C558.979 51.15 559.679 51.29 560.579 51.29C561.519 51.29 562.309 51.16 562.949 50.9C563.589 50.66 564.069 50.22 564.389 49.58C564.729 48.96 564.899 48.1 564.899 47V44.96C564.419 45.58 563.789 46.1 563.009 46.52C562.229 46.92 561.249 47.12 560.069 47.12C558.949 47.12 557.989 46.93 557.189 46.55C556.389 46.15 555.729 45.62 555.209 44.96C554.709 44.28 554.329 43.51 554.069 42.65C553.829 41.79 553.689 40.89 553.649 39.95C553.629 39.39 553.629 38.84 553.649 38.3C553.689 37.36 553.829 36.46 554.069 35.6C554.329 34.74 554.709 33.97 555.209 33.29C555.729 32.61 556.389 32.08 557.189 31.7C557.989 31.3 558.949 31.1 560.069 31.1C561.269 31.1 562.259 31.33 563.039 31.79C563.839 32.23 564.489 32.77 564.989 33.41V32.12C564.989 31.92 565.049 31.75 565.169 31.61C565.309 31.47 565.479 31.4 565.679 31.4H567.059C567.259 31.4 567.429 31.47 567.569 31.61C567.709 31.75 567.779 31.92 567.779 32.12V46.67C567.779 48.01 567.549 49.2 567.089 50.24C566.649 51.28 565.909 52.1 564.869 52.7C563.849 53.3 562.469 53.6 560.729 53.6ZM560.669 44.72C561.669 44.72 562.469 44.49 563.069 44.03C563.689 43.57 564.139 42.99 564.419 42.29C564.719 41.59 564.879 40.88 564.899 40.16C564.919 39.88 564.929 39.54 564.929 39.14C564.929 38.72 564.919 38.37 564.899 38.09C564.879 37.37 564.719 36.66 564.419 35.96C564.139 35.26 563.689 34.68 563.069 34.22C562.469 33.76 561.669 33.53 560.669 33.53C559.669 33.53 558.869 33.76 558.269 34.22C557.669 34.66 557.239 35.25 556.979 35.99C556.719 36.71 556.569 37.49 556.529 38.33C556.509 38.85 556.509 39.38 556.529 39.92C556.569 40.76 556.719 41.55 556.979 42.29C557.239 43.01 557.669 43.6 558.269 44.06C558.869 44.5 559.669 44.72 560.669 44.72ZM578.06 47.3C576.78 47.3 575.69 47.02 574.79 46.46C573.91 45.88 573.24 45.08 572.78 44.06C572.32 43.04 572.09 41.87 572.09 40.55V32.09C572.09 31.89 572.15 31.73 572.27 31.61C572.41 31.47 572.58 31.4 572.78 31.4H574.28C574.48 31.4 574.64 31.47 574.76 31.61C574.9 31.73 574.97 31.89 574.97 32.09V40.4C574.97 43.38 576.27 44.87 578.87 44.87C580.11 44.87 581.1 44.48 581.84 43.7C582.6 42.9 582.98 41.8 582.98 40.4V32.09C582.98 31.89 583.04 31.73 583.16 31.61C583.3 31.47 583.47 31.4 583.67 31.4H585.14C585.36 31.4 585.53 31.47 585.65 31.61C585.77 31.73 585.83 31.89 585.83 32.09V46.31C585.83 46.51 585.77 46.68 585.65 46.82C585.53 46.94 585.36 47 585.14 47H583.76C583.56 47 583.39 46.94 583.25 46.82C583.13 46.68 583.07 46.51 583.07 46.31V44.99C582.53 45.69 581.87 46.25 581.09 46.67C580.33 47.09 579.32 47.3 578.06 47.3ZM591.006 47C590.806 47 590.636 46.94 590.496 46.82C590.376 46.68 590.316 46.51 590.316 46.31V26.39C590.316 26.19 590.376 26.03 590.496 25.91C590.636 25.77 590.806 25.7 591.006 25.7H592.416C592.636 25.7 592.806 25.77 592.926 25.91C593.046 26.03 593.106 26.19 593.106 26.39V46.31C593.106 46.51 593.046 46.68 592.926 46.82C592.806 46.94 592.636 47 592.416 47H591.006ZM601.931 47.3C600.931 47.3 600.021 47.1 599.201 46.7C598.381 46.3 597.721 45.76 597.221 45.08C596.721 44.4 596.471 43.63 596.471 42.77C596.471 41.39 597.031 40.29 598.151 39.47C599.271 38.65 600.731 38.11 602.531 37.85L607.001 37.22V36.35C607.001 35.39 606.721 34.64 606.161 34.1C605.621 33.56 604.731 33.29 603.491 33.29C602.591 33.29 601.861 33.47 601.301 33.83C600.761 34.19 600.381 34.65 600.161 35.21C600.041 35.51 599.831 35.66 599.531 35.66H598.181C597.961 35.66 597.791 35.6 597.671 35.48C597.571 35.34 597.521 35.18 597.521 35C597.521 34.7 597.631 34.33 597.851 33.89C598.091 33.45 598.451 33.02 598.931 32.6C599.411 32.18 600.021 31.83 600.761 31.55C601.521 31.25 602.441 31.1 603.521 31.1C604.721 31.1 605.731 31.26 606.551 31.58C607.371 31.88 608.011 32.29 608.471 32.81C608.951 33.33 609.291 33.92 609.491 34.58C609.711 35.24 609.821 35.91 609.821 36.59V46.31C609.821 46.51 609.751 46.68 609.611 46.82C609.491 46.94 609.331 47 609.131 47H607.751C607.531 47 607.361 46.94 607.241 46.82C607.121 46.68 607.061 46.51 607.061 46.31V45.02C606.801 45.38 606.451 45.74 606.011 46.1C605.571 46.44 605.021 46.73 604.361 46.97C603.701 47.19 602.891 47.3 601.931 47.3ZM602.561 45.05C603.381 45.05 604.131 44.88 604.811 44.54C605.491 44.18 606.021 43.63 606.401 42.89C606.801 42.15 607.001 41.22 607.001 40.1V39.26L603.521 39.77C602.101 39.97 601.031 40.31 600.311 40.79C599.591 41.25 599.231 41.84 599.231 42.56C599.231 43.12 599.391 43.59 599.711 43.97C600.051 44.33 600.471 44.6 600.971 44.78C601.491 44.96 602.021 45.05 602.561 45.05ZM614.824 47C614.624 47 614.454 46.94 614.314 46.82C614.194 46.68 614.134 46.51 614.134 46.31V32.12C614.134 31.92 614.194 31.75 614.314 31.61C614.454 31.47 614.624 31.4 614.824 31.4H616.204C616.404 31.4 616.574 31.47 616.714 31.61C616.854 31.75 616.924 31.92 616.924 32.12V33.44C617.324 32.76 617.874 32.25 618.574 31.91C619.274 31.57 620.114 31.4 621.094 31.4H622.294C622.494 31.4 622.654 31.47 622.774 31.61C622.894 31.73 622.954 31.89 622.954 32.09V33.32C622.954 33.52 622.894 33.68 622.774 33.8C622.654 33.92 622.494 33.98 622.294 33.98H620.494C619.414 33.98 618.564 34.3 617.944 34.94C617.324 35.56 617.014 36.41 617.014 37.49V46.31C617.014 46.51 616.944 46.68 616.804 46.82C616.664 46.94 616.494 47 616.294 47H614.824ZM635.642 47C635.382 47 635.172 46.93 635.012 46.79C634.872 46.65 634.772 46.45 634.712 46.19L630.842 26.93C630.822 26.85 630.812 26.78 630.812 26.72C630.812 26.66 630.812 26.62 630.812 26.6C630.812 26.44 630.872 26.3 630.992 26.18C631.112 26.06 631.252 26 631.412 26H632.972C633.392 26 633.632 26.17 633.692 26.51L636.752 41.99L639.992 31.37C640.052 31.19 640.152 31.03 640.292 30.89C640.452 30.73 640.672 30.65 640.952 30.65H642.062C642.362 30.65 642.582 30.73 642.722 30.89C642.862 31.03 642.952 31.19 642.992 31.37L646.262 41.99L649.292 26.51C649.352 26.17 649.602 26 650.042 26H651.602C651.762 26 651.902 26.06 652.022 26.18C652.142 26.3 652.202 26.44 652.202 26.6C652.202 26.62 652.192 26.66 652.172 26.72C652.172 26.78 652.172 26.85 652.172 26.93L648.302 46.19C648.242 46.45 648.132 46.65 647.972 46.79C647.832 46.93 647.632 47 647.372 47H646.202C645.922 47 645.702 46.93 645.542 46.79C645.382 46.65 645.272 46.47 645.212 46.25L641.492 34.82L637.802 46.25C637.722 46.47 637.602 46.65 637.442 46.79C637.302 46.93 637.092 47 636.812 47H635.642ZM661.301 47.3C659.241 47.3 657.601 46.67 656.381 45.41C655.161 44.13 654.491 42.39 654.371 40.19C654.351 39.93 654.341 39.6 654.341 39.2C654.341 38.78 654.351 38.44 654.371 38.18C654.451 36.76 654.781 35.52 655.361 34.46C655.941 33.38 656.731 32.55 657.731 31.97C658.751 31.39 659.941 31.1 661.301 31.1C662.821 31.1 664.091 31.42 665.111 32.06C666.151 32.7 666.941 33.61 667.481 34.79C668.021 35.97 668.291 37.35 668.291 38.93V39.44C668.291 39.66 668.221 39.83 668.081 39.95C667.961 40.07 667.801 40.13 667.601 40.13H657.221C657.221 40.15 657.221 40.19 657.221 40.25C657.221 40.31 657.221 40.36 657.221 40.4C657.261 41.22 657.441 41.99 657.761 42.71C658.081 43.41 658.541 43.98 659.141 44.42C659.741 44.86 660.461 45.08 661.301 45.08C662.021 45.08 662.621 44.97 663.101 44.75C663.581 44.53 663.971 44.29 664.271 44.03C664.571 43.75 664.771 43.54 664.871 43.4C665.051 43.14 665.191 42.99 665.291 42.95C665.391 42.89 665.551 42.86 665.771 42.86H667.211C667.411 42.86 667.571 42.92 667.691 43.04C667.831 43.14 667.891 43.29 667.871 43.49C667.851 43.79 667.691 44.16 667.391 44.6C667.091 45.02 666.661 45.44 666.101 45.86C665.541 46.28 664.861 46.63 664.061 46.91C663.261 47.17 662.341 47.3 661.301 47.3ZM657.221 38.06H665.441V37.97C665.441 37.07 665.271 36.27 664.931 35.57C664.611 34.87 664.141 34.32 663.521 33.92C662.901 33.5 662.161 33.29 661.301 33.29C660.441 33.29 659.701 33.5 659.081 33.92C658.481 34.32 658.021 34.87 657.701 35.57C657.381 36.27 657.221 37.07 657.221 37.97V38.06ZM672.568 47C672.368 47 672.198 46.94 672.058 46.82C671.938 46.68 671.878 46.51 671.878 46.31V32.09C671.878 31.89 671.938 31.73 672.058 31.61C672.198 31.47 672.368 31.4 672.568 31.4H674.008C674.208 31.4 674.368 31.47 674.488 31.61C674.608 31.73 674.668 31.89 674.668 32.09V46.31C674.668 46.51 674.608 46.68 674.488 46.82C674.368 46.94 674.208 47 674.008 47H672.568ZM672.328 28.49C672.128 28.49 671.958 28.43 671.818 28.31C671.698 28.17 671.638 28 671.638 27.8V26.18C671.638 25.98 671.698 25.82 671.818 25.7C671.958 25.56 672.128 25.49 672.328 25.49H674.218C674.418 25.49 674.578 25.56 674.698 25.7C674.838 25.82 674.908 25.98 674.908 26.18V27.8C674.908 28 674.838 28.17 674.698 28.31C674.578 28.43 674.418 28.49 674.218 28.49H672.328ZM685.534 53.6C684.174 53.6 683.054 53.42 682.174 53.06C681.314 52.7 680.634 52.26 680.134 51.74C679.654 51.24 679.304 50.73 679.084 50.21C678.884 49.71 678.774 49.31 678.754 49.01C678.734 48.81 678.794 48.64 678.934 48.5C679.094 48.36 679.264 48.29 679.444 48.29H680.884C681.064 48.29 681.214 48.33 681.334 48.41C681.454 48.49 681.554 48.66 681.634 48.92C681.754 49.22 681.934 49.55 682.174 49.91C682.414 50.29 682.784 50.61 683.284 50.87C683.784 51.15 684.484 51.29 685.384 51.29C686.324 51.29 687.114 51.16 687.754 50.9C688.394 50.66 688.874 50.22 689.194 49.58C689.534 48.96 689.704 48.1 689.704 47V44.96C689.224 45.58 688.594 46.1 687.814 46.52C687.034 46.92 686.054 47.12 684.874 47.12C683.754 47.12 682.794 46.93 681.994 46.55C681.194 46.15 680.534 45.62 680.014 44.96C679.514 44.28 679.134 43.51 678.874 42.65C678.634 41.79 678.494 40.89 678.454 39.95C678.434 39.39 678.434 38.84 678.454 38.3C678.494 37.36 678.634 36.46 678.874 35.6C679.134 34.74 679.514 33.97 680.014 33.29C680.534 32.61 681.194 32.08 681.994 31.7C682.794 31.3 683.754 31.1 684.874 31.1C686.074 31.1 687.064 31.33 687.844 31.79C688.644 32.23 689.294 32.77 689.794 33.41V32.12C689.794 31.92 689.854 31.75 689.974 31.61C690.114 31.47 690.284 31.4 690.484 31.4H691.864C692.064 31.4 692.234 31.47 692.374 31.61C692.514 31.75 692.584 31.92 692.584 32.12V46.67C692.584 48.01 692.354 49.2 691.894 50.24C691.454 51.28 690.714 52.1 689.674 52.7C688.654 53.3 687.274 53.6 685.534 53.6ZM685.474 44.72C686.474 44.72 687.274 44.49 687.874 44.03C688.494 43.57 688.944 42.99 689.224 42.29C689.524 41.59 689.684 40.88 689.704 40.16C689.724 39.88 689.734 39.54 689.734 39.14C689.734 38.72 689.724 38.37 689.704 38.09C689.684 37.37 689.524 36.66 689.224 35.96C688.944 35.26 688.494 34.68 687.874 34.22C687.274 33.76 686.474 33.53 685.474 33.53C684.474 33.53 683.674 33.76 683.074 34.22C682.474 34.66 682.044 35.25 681.784 35.99C681.524 36.71 681.374 37.49 681.334 38.33C681.314 38.85 681.314 39.38 681.334 39.92C681.374 40.76 681.524 41.55 681.784 42.29C682.044 43.01 682.474 43.6 683.074 44.06C683.674 44.5 684.474 44.72 685.474 44.72ZM697.764 47C697.564 47 697.394 46.94 697.254 46.82C697.134 46.68 697.074 46.51 697.074 46.31V26.39C697.074 26.19 697.134 26.03 697.254 25.91C697.394 25.77 697.564 25.7 697.764 25.7H699.264C699.484 25.7 699.654 25.77 699.774 25.91C699.894 26.03 699.954 26.19 699.954 26.39V33.38C700.494 32.7 701.154 32.15 701.934 31.73C702.714 31.31 703.704 31.1 704.904 31.1C706.204 31.1 707.304 31.39 708.204 31.97C709.124 32.53 709.814 33.32 710.274 34.34C710.754 35.34 710.994 36.51 710.994 37.85V46.31C710.994 46.51 710.934 46.68 710.814 46.82C710.694 46.94 710.524 47 710.304 47H708.804C708.604 47 708.434 46.94 708.294 46.82C708.174 46.68 708.114 46.51 708.114 46.31V38C708.114 36.6 707.774 35.51 707.094 34.73C706.414 33.93 705.414 33.53 704.094 33.53C702.854 33.53 701.854 33.93 701.094 34.73C700.334 35.51 699.954 36.6 699.954 38V46.31C699.954 46.51 699.894 46.68 699.774 46.82C699.654 46.94 699.484 47 699.264 47H697.764ZM721.21 47C720.09 47 719.18 46.79 718.48 46.37C717.78 45.93 717.27 45.32 716.95 44.54C716.63 43.74 716.47 42.8 716.47 41.72V33.8H714.13C713.93 33.8 713.76 33.74 713.62 33.62C713.5 33.48 713.44 33.31 713.44 33.11V32.09C713.44 31.89 713.5 31.73 713.62 31.61C713.76 31.47 713.93 31.4 714.13 31.4H716.47V26.39C716.47 26.19 716.53 26.03 716.65 25.91C716.79 25.77 716.96 25.7 717.16 25.7H718.57C718.77 25.7 718.93 25.77 719.05 25.91C719.19 26.03 719.26 26.19 719.26 26.39V31.4H722.98C723.18 31.4 723.34 31.47 723.46 31.61C723.6 31.73 723.67 31.89 723.67 32.09V33.11C723.67 33.31 723.6 33.48 723.46 33.62C723.34 33.74 723.18 33.8 722.98 33.8H719.26V41.51C719.26 42.45 719.42 43.19 719.74 43.73C720.06 44.27 720.63 44.54 721.45 44.54H723.28C723.48 44.54 723.64 44.61 723.76 44.75C723.9 44.87 723.97 45.03 723.97 45.23V46.31C723.97 46.51 723.9 46.68 723.76 46.82C723.64 46.94 723.48 47 723.28 47H721.21Z" fill="#B7CBFF"/>
</g>
<defs>
<filter id="filter0_dd_35_403" x="0.75" y="0.120117" width="743.22" height="73.48" filterUnits="userSpaceOnUse" color-interpolation-filters="sRGB">
<feFlood flood-opacity="0" result="BackgroundImageFix"/>
<feColorMatrix in="SourceAlpha" type="matrix" values="0 0 0 0 0 0 0 0 0 0 0 0 0 0 0 0 0 0 127 0" result="hardAlpha"/>
<feOffset/>
<feGaussianBlur stdDeviation="10"/>
<feComposite in2="hardAlpha" operator="out"/>
<feColorMatrix type="matrix" values="0 0 0 0 0 0 0 0 0 0.94 0 0 0 0 1 0 0 0 1 0"/>
<feBlend mode="normal" in2="BackgroundImageFix" result="effect1_dropShadow_35_403"/>
<feColorMatrix in="SourceAlpha" type="matrix" values="0 0 0 0 0 0 0 0 0 0 0 0 0 0 0 0 0 0 127 0" result="hardAlpha"/>
<feOffset/>
<feGaussianBlur stdDeviation="1"/>
<feComposite in2="hardAlpha" operator="out"/>
<feColorMatrix type="matrix" values="0 0 0 0 0.108333 0 0 0 0 1 0 0 0 0 0.893 0 0 0 1 0"/>
<feBlend mode="normal" in2="effect1_dropShadow_35_403" result="effect2_dropShadow_35_403"/>
<feBlend mode="normal" in="SourceGraphic" in2="effect2_dropShadow_35_403" result="shape"/>
</filter>
</defs>
</svg>
