<svg width="620" height="34" viewBox="0 0 620 34" fill="none" xmlns="http://www.w3.org/2000/svg">
<path d="M7.89 27C7.69 27 7.52 26.94 7.38 26.82C7.26 26.68 7.2 26.51 7.2 26.31V8.67H1.44C1.24 8.67 1.07 8.61 0.93 8.49C0.81 8.35 0.75 8.18 0.75 7.98V6.72C0.75 6.5 0.81 6.33 0.93 6.21C1.07 6.07 1.24 6 1.44 6H15.9C16.12 6 16.29 6.07 16.41 6.21C16.55 6.33 16.62 6.5 16.62 6.72V7.98C16.62 8.18 16.55 8.35 16.41 8.49C16.29 8.61 16.12 8.67 15.9 8.67H10.17V26.31C10.17 26.51 10.1 26.68 9.96 26.82C9.84 26.94 9.67 27 9.45 27H7.89ZM21.1891 27.3C20.1891 27.3 19.2791 27.1 18.4591 26.7C17.6391 26.3 16.9791 25.76 16.4791 25.08C15.9791 24.4 15.7291 23.63 15.7291 22.77C15.7291 21.39 16.2891 20.29 17.4091 19.47C18.5291 18.65 19.9891 18.11 21.7891 17.85L26.2591 17.22V16.35C26.2591 15.39 25.9791 14.64 25.4191 14.1C24.8791 13.56 23.9891 13.29 22.7491 13.29C21.8491 13.29 21.1191 13.47 20.5591 13.83C20.0191 14.19 19.6391 14.65 19.4191 15.21C19.2991 15.51 19.0891 15.66 18.7891 15.66H17.4391C17.2191 15.66 17.0491 15.6 16.9291 15.48C16.8291 15.34 16.7791 15.18 16.7791 15C16.7791 14.7 16.8891 14.33 17.1091 13.89C17.3491 13.45 17.7091 13.02 18.1891 12.6C18.6691 12.18 19.2791 11.83 20.0191 11.55C20.7791 11.25 21.6991 11.1 22.7791 11.1C23.9791 11.1 24.9891 11.26 25.8091 11.58C26.6291 11.88 27.2691 12.29 27.7291 12.81C28.2091 13.33 28.5491 13.92 28.7491 14.58C28.9691 15.24 29.0791 15.91 29.0791 16.59V26.31C29.0791 26.51 29.0091 26.68 28.8691 26.82C28.7491 26.94 28.5891 27 28.3891 27H27.0091C26.7891 27 26.6191 26.94 26.4991 26.82C26.3791 26.68 26.3191 26.51 26.3191 26.31V25.02C26.0591 25.38 25.7091 25.74 25.2691 26.1C24.8291 26.44 24.2791 26.73 23.6191 26.97C22.9591 27.19 22.1491 27.3 21.1891 27.3ZM21.8191 25.05C22.6391 25.05 23.3891 24.88 24.0691 24.54C24.7491 24.18 25.2791 23.63 25.6591 22.89C26.0591 22.15 26.2591 21.22 26.2591 20.1V19.26L22.7791 19.77C21.3591 19.97 20.2891 20.31 19.5691 20.79C18.8491 21.25 18.4891 21.84 18.4891 22.56C18.4891 23.12 18.6491 23.59 18.9691 23.97C19.3091 24.33 19.7291 24.6 20.2291 24.78C20.7491 24.96 21.2791 25.05 21.8191 25.05ZM41.1019 27.3C39.9019 27.3 38.9019 27.09 38.1019 26.67C37.3019 26.23 36.6619 25.69 36.1819 25.05V26.31C36.1819 26.51 36.1119 26.68 35.9719 26.82C35.8519 26.94 35.6919 27 35.4919 27H34.1119C33.9119 27 33.7419 26.94 33.6019 26.82C33.4819 26.68 33.4219 26.51 33.4219 26.31V6.39C33.4219 6.19 33.4819 6.03 33.6019 5.91C33.7419 5.77 33.9119 5.7 34.1119 5.7H35.5519C35.7719 5.7 35.9419 5.77 36.0619 5.91C36.1819 6.03 36.2419 6.19 36.2419 6.39V13.29C36.7419 12.67 37.3819 12.15 38.1619 11.73C38.9619 11.31 39.9419 11.1 41.1019 11.1C42.2219 11.1 43.1719 11.3 43.9519 11.7C44.7519 12.08 45.4019 12.61 45.9019 13.29C46.4219 13.97 46.8119 14.74 47.0719 15.6C47.3319 16.46 47.4719 17.36 47.4919 18.3C47.5119 18.62 47.5219 18.92 47.5219 19.2C47.5219 19.48 47.5119 19.78 47.4919 20.1C47.4719 21.06 47.3319 21.97 47.0719 22.83C46.8119 23.69 46.4219 24.46 45.9019 25.14C45.4019 25.8 44.7519 26.33 43.9519 26.73C43.1719 27.11 42.2219 27.3 41.1019 27.3ZM40.4719 24.87C41.5119 24.87 42.3219 24.65 42.9019 24.21C43.5019 23.75 43.9319 23.16 44.1919 22.44C44.4519 21.7 44.6019 20.91 44.6419 20.07C44.6619 19.49 44.6619 18.91 44.6419 18.33C44.6019 17.49 44.4519 16.71 44.1919 15.99C43.9319 15.25 43.5019 14.66 42.9019 14.22C42.3219 13.76 41.5119 13.53 40.4719 13.53C39.5319 13.53 38.7519 13.75 38.1319 14.19C37.5119 14.63 37.0419 15.19 36.7219 15.87C36.4219 16.55 36.2619 17.24 36.2419 17.94C36.2219 18.26 36.2119 18.65 36.2119 19.11C36.2119 19.55 36.2219 19.93 36.2419 20.25C36.2819 20.99 36.4419 21.72 36.7219 22.44C37.0219 23.14 37.4719 23.72 38.0719 24.18C38.6919 24.64 39.4919 24.87 40.4719 24.87ZM59.2772 33.24C59.0772 33.24 58.9072 33.17 58.7672 33.03C58.6472 32.91 58.5872 32.75 58.5872 32.55V0.809999C58.5872 0.609999 58.6472 0.449999 58.7672 0.329998C58.9072 0.189999 59.0772 0.119999 59.2772 0.119999H60.4472C60.6472 0.119999 60.8072 0.189999 60.9272 0.329998C61.0672 0.449999 61.1372 0.609999 61.1372 0.809999V32.55C61.1372 32.75 61.0672 32.91 60.9272 33.03C60.8072 33.17 60.6472 33.24 60.4472 33.24H59.2772ZM80.8627 27.3C79.1627 27.3 77.7027 27.01 76.4827 26.43C75.2627 25.83 74.3227 24.92 73.6627 23.7C73.0027 22.46 72.6327 20.91 72.5527 19.05C72.5327 18.17 72.5227 17.33 72.5227 16.53C72.5227 15.71 72.5327 14.86 72.5527 13.98C72.6327 12.14 73.0127 10.61 73.6927 9.39C74.3927 8.15 75.3527 7.23 76.5727 6.63C77.8127 6.01 79.2427 5.7 80.8627 5.7C82.5027 5.7 83.9327 6.01 85.1527 6.63C86.3927 7.23 87.3627 8.15 88.0627 9.39C88.7627 10.61 89.1427 12.14 89.2027 13.98C89.2427 14.86 89.2627 15.71 89.2627 16.53C89.2627 17.33 89.2427 18.17 89.2027 19.05C89.1427 20.91 88.7727 22.46 88.0927 23.7C87.4327 24.92 86.4927 25.83 85.2727 26.43C84.0527 27.01 82.5827 27.3 80.8627 27.3ZM80.8627 24.75C82.4027 24.75 83.6527 24.29 84.6127 23.37C85.5927 22.45 86.1227 20.96 86.2027 18.9C86.2427 18 86.2627 17.2 86.2627 16.5C86.2627 15.78 86.2427 14.98 86.2027 14.1C86.1627 12.72 85.9027 11.6 85.4227 10.74C84.9627 9.88 84.3427 9.25 83.5627 8.85C82.7827 8.45 81.8827 8.25 80.8627 8.25C79.8827 8.25 79.0027 8.45 78.2227 8.85C77.4427 9.25 76.8127 9.88 76.3327 10.74C75.8727 11.6 75.6127 12.72 75.5527 14.1C75.5327 14.98 75.5227 15.78 75.5227 16.5C75.5227 17.2 75.5327 18 75.5527 18.9C75.6327 20.96 76.1627 22.45 77.1427 23.37C78.1227 24.29 79.3627 24.75 80.8627 24.75ZM99.3354 27C98.2154 27 97.3054 26.79 96.6054 26.37C95.9054 25.93 95.3954 25.32 95.0754 24.54C94.7554 23.74 94.5954 22.8 94.5954 21.72V13.8H92.2554C92.0554 13.8 91.8854 13.74 91.7454 13.62C91.6254 13.48 91.5654 13.31 91.5654 13.11V12.09C91.5654 11.89 91.6254 11.73 91.7454 11.61C91.8854 11.47 92.0554 11.4 92.2554 11.4H94.5954V6.39C94.5954 6.19 94.6554 6.03 94.7754 5.91C94.9154 5.77 95.0854 5.7 95.2854 5.7H96.6954C96.8954 5.7 97.0554 5.77 97.1754 5.91C97.3154 6.03 97.3854 6.19 97.3854 6.39V11.4H101.105C101.305 11.4 101.465 11.47 101.585 11.61C101.725 11.73 101.795 11.89 101.795 12.09V13.11C101.795 13.31 101.725 13.48 101.585 13.62C101.465 13.74 101.305 13.8 101.105 13.8H97.3854V21.51C97.3854 22.45 97.5454 23.19 97.8654 23.73C98.1854 24.27 98.7554 24.54 99.5754 24.54H101.405C101.605 24.54 101.765 24.61 101.885 24.75C102.025 24.87 102.095 25.03 102.095 25.23V26.31C102.095 26.51 102.025 26.68 101.885 26.82C101.765 26.94 101.605 27 101.405 27H99.3354ZM105.684 27C105.484 27 105.314 26.94 105.174 26.82C105.054 26.68 104.994 26.51 104.994 26.31V6.39C104.994 6.19 105.054 6.03 105.174 5.91C105.314 5.77 105.484 5.7 105.684 5.7H107.184C107.404 5.7 107.574 5.77 107.694 5.91C107.814 6.03 107.874 6.19 107.874 6.39V13.38C108.414 12.7 109.074 12.15 109.854 11.73C110.634 11.31 111.624 11.1 112.824 11.1C114.124 11.1 115.224 11.39 116.124 11.97C117.044 12.53 117.734 13.32 118.194 14.34C118.674 15.34 118.914 16.51 118.914 17.85V26.31C118.914 26.51 118.854 26.68 118.734 26.82C118.614 26.94 118.444 27 118.224 27H116.724C116.524 27 116.354 26.94 116.214 26.82C116.094 26.68 116.034 26.51 116.034 26.31V18C116.034 16.6 115.694 15.51 115.014 14.73C114.334 13.93 113.334 13.53 112.014 13.53C110.774 13.53 109.774 13.93 109.014 14.73C108.254 15.51 107.874 16.6 107.874 18V26.31C107.874 26.51 107.814 26.68 107.694 26.82C107.574 26.94 107.404 27 107.184 27H105.684ZM129.455 27.3C127.395 27.3 125.755 26.67 124.535 25.41C123.315 24.13 122.645 22.39 122.525 20.19C122.505 19.93 122.495 19.6 122.495 19.2C122.495 18.78 122.505 18.44 122.525 18.18C122.605 16.76 122.935 15.52 123.515 14.46C124.095 13.38 124.885 12.55 125.885 11.97C126.905 11.39 128.095 11.1 129.455 11.1C130.975 11.1 132.245 11.42 133.265 12.06C134.305 12.7 135.095 13.61 135.635 14.79C136.175 15.97 136.445 17.35 136.445 18.93V19.44C136.445 19.66 136.375 19.83 136.235 19.95C136.115 20.07 135.955 20.13 135.755 20.13H125.375C125.375 20.15 125.375 20.19 125.375 20.25C125.375 20.31 125.375 20.36 125.375 20.4C125.415 21.22 125.595 21.99 125.915 22.71C126.235 23.41 126.695 23.98 127.295 24.42C127.895 24.86 128.615 25.08 129.455 25.08C130.175 25.08 130.775 24.97 131.255 24.75C131.735 24.53 132.125 24.29 132.425 24.03C132.725 23.75 132.925 23.54 133.025 23.4C133.205 23.14 133.345 22.99 133.445 22.95C133.545 22.89 133.705 22.86 133.925 22.86H135.365C135.565 22.86 135.725 22.92 135.845 23.04C135.985 23.14 136.045 23.29 136.025 23.49C136.005 23.79 135.845 24.16 135.545 24.6C135.245 25.02 134.815 25.44 134.255 25.86C133.695 26.28 133.015 26.63 132.215 26.91C131.415 27.17 130.495 27.3 129.455 27.3ZM125.375 18.06H133.595V17.97C133.595 17.07 133.425 16.27 133.085 15.57C132.765 14.87 132.295 14.32 131.675 13.92C131.055 13.5 130.315 13.29 129.455 13.29C128.595 13.29 127.855 13.5 127.235 13.92C126.635 14.32 126.175 14.87 125.855 15.57C125.535 16.27 125.375 17.07 125.375 17.97V18.06ZM140.723 27C140.523 27 140.353 26.94 140.213 26.82C140.093 26.68 140.033 26.51 140.033 26.31V12.12C140.033 11.92 140.093 11.75 140.213 11.61C140.353 11.47 140.523 11.4 140.723 11.4H142.103C142.303 11.4 142.473 11.47 142.613 11.61C142.753 11.75 142.823 11.92 142.823 12.12V13.44C143.223 12.76 143.773 12.25 144.473 11.91C145.173 11.57 146.013 11.4 146.993 11.4H148.193C148.393 11.4 148.553 11.47 148.673 11.61C148.793 11.73 148.853 11.89 148.853 12.09V13.32C148.853 13.52 148.793 13.68 148.673 13.8C148.553 13.92 148.393 13.98 148.193 13.98H146.393C145.313 13.98 144.463 14.3 143.843 14.94C143.223 15.56 142.913 16.41 142.913 17.49V26.31C142.913 26.51 142.843 26.68 142.703 26.82C142.563 26.94 142.393 27 142.193 27H140.723ZM162.988 27C162.788 27 162.618 26.94 162.478 26.82C162.358 26.68 162.298 26.51 162.298 26.31V8.67H156.538C156.338 8.67 156.168 8.61 156.028 8.49C155.908 8.35 155.848 8.18 155.848 7.98V6.72C155.848 6.5 155.908 6.33 156.028 6.21C156.168 6.07 156.338 6 156.538 6H170.998C171.218 6 171.388 6.07 171.508 6.21C171.648 6.33 171.718 6.5 171.718 6.72V7.98C171.718 8.18 171.648 8.35 171.508 8.49C171.388 8.61 171.218 8.67 170.998 8.67H165.268V26.31C165.268 26.51 165.198 26.68 165.058 26.82C164.938 26.94 164.768 27 164.548 27H162.988ZM178.03 27.3C175.97 27.3 174.33 26.67 173.11 25.41C171.89 24.13 171.22 22.39 171.1 20.19C171.08 19.93 171.07 19.6 171.07 19.2C171.07 18.78 171.08 18.44 171.1 18.18C171.18 16.76 171.51 15.52 172.09 14.46C172.67 13.38 173.46 12.55 174.46 11.97C175.48 11.39 176.67 11.1 178.03 11.1C179.55 11.1 180.82 11.42 181.84 12.06C182.88 12.7 183.67 13.61 184.21 14.79C184.75 15.97 185.02 17.35 185.02 18.93V19.44C185.02 19.66 184.95 19.83 184.81 19.95C184.69 20.07 184.53 20.13 184.33 20.13H173.95C173.95 20.15 173.95 20.19 173.95 20.25C173.95 20.31 173.95 20.36 173.95 20.4C173.99 21.22 174.17 21.99 174.49 22.71C174.81 23.41 175.27 23.98 175.87 24.42C176.47 24.86 177.19 25.08 178.03 25.08C178.75 25.08 179.35 24.97 179.83 24.75C180.31 24.53 180.7 24.29 181 24.03C181.3 23.75 181.5 23.54 181.6 23.4C181.78 23.14 181.92 22.99 182.02 22.95C182.12 22.89 182.28 22.86 182.5 22.86H183.94C184.14 22.86 184.3 22.92 184.42 23.04C184.56 23.14 184.62 23.29 184.6 23.49C184.58 23.79 184.42 24.16 184.12 24.6C183.82 25.02 183.39 25.44 182.83 25.86C182.27 26.28 181.59 26.63 180.79 26.91C179.99 27.17 179.07 27.3 178.03 27.3ZM173.95 18.06H182.17V17.97C182.17 17.07 182 16.27 181.66 15.57C181.34 14.87 180.87 14.32 180.25 13.92C179.63 13.5 178.89 13.29 178.03 13.29C177.17 13.29 176.43 13.5 175.81 13.92C175.21 14.32 174.75 14.87 174.43 15.57C174.11 16.27 173.95 17.07 173.95 17.97V18.06ZM187.564 27C187.404 27 187.254 26.94 187.114 26.82C186.994 26.7 186.934 26.55 186.934 26.37C186.934 26.31 186.944 26.24 186.964 26.16C187.004 26.06 187.064 25.95 187.144 25.83L192.364 19.02L187.474 12.57C187.394 12.45 187.334 12.35 187.294 12.27C187.274 12.19 187.264 12.11 187.264 12.03C187.264 11.85 187.324 11.7 187.444 11.58C187.564 11.46 187.714 11.4 187.894 11.4H189.424C189.644 11.4 189.804 11.46 189.904 11.58C190.024 11.68 190.124 11.78 190.204 11.88L194.194 17.07L198.184 11.91C198.264 11.81 198.354 11.7 198.454 11.58C198.574 11.46 198.744 11.4 198.964 11.4H200.434C200.614 11.4 200.764 11.46 200.884 11.58C201.004 11.7 201.064 11.85 201.064 12.03C201.064 12.11 201.044 12.19 201.004 12.27C200.984 12.35 200.934 12.45 200.854 12.57L195.904 19.08L201.124 25.83C201.204 25.95 201.254 26.05 201.274 26.13C201.314 26.21 201.334 26.29 201.334 26.37C201.334 26.55 201.274 26.7 201.154 26.82C201.034 26.94 200.884 27 200.704 27H199.114C198.914 27 198.754 26.95 198.634 26.85C198.514 26.75 198.414 26.65 198.334 26.55L194.104 21.06L189.874 26.55C189.794 26.63 189.694 26.73 189.574 26.85C189.474 26.95 189.314 27 189.094 27H187.564ZM210.546 27C209.426 27 208.516 26.79 207.816 26.37C207.116 25.93 206.606 25.32 206.286 24.54C205.966 23.74 205.806 22.8 205.806 21.72V13.8H203.466C203.266 13.8 203.096 13.74 202.956 13.62C202.836 13.48 202.776 13.31 202.776 13.11V12.09C202.776 11.89 202.836 11.73 202.956 11.61C203.096 11.47 203.266 11.4 203.466 11.4H205.806V6.39C205.806 6.19 205.866 6.03 205.986 5.91C206.126 5.77 206.296 5.7 206.496 5.7H207.906C208.106 5.7 208.266 5.77 208.386 5.91C208.526 6.03 208.596 6.19 208.596 6.39V11.4H212.316C212.516 11.4 212.676 11.47 212.796 11.61C212.936 11.73 213.006 11.89 213.006 12.09V13.11C213.006 13.31 212.936 13.48 212.796 13.62C212.676 13.74 212.516 13.8 212.316 13.8H208.596V21.51C208.596 22.45 208.756 23.19 209.076 23.73C209.396 24.27 209.966 24.54 210.786 24.54H212.616C212.816 24.54 212.976 24.61 213.096 24.75C213.236 24.87 213.306 25.03 213.306 25.23V26.31C213.306 26.51 213.236 26.68 213.096 26.82C212.976 26.94 212.816 27 212.616 27H210.546ZM224.219 33.24C224.019 33.24 223.849 33.17 223.709 33.03C223.589 32.91 223.529 32.75 223.529 32.55V0.809999C223.529 0.609999 223.589 0.449999 223.709 0.329998C223.849 0.189999 224.019 0.119999 224.219 0.119999H225.389C225.589 0.119999 225.749 0.189999 225.869 0.329998C226.009 0.449999 226.079 0.609999 226.079 0.809999V32.55C226.079 32.75 226.009 32.91 225.869 33.03C225.749 33.17 225.589 33.24 225.389 33.24H224.219ZM238.964 27C238.744 27 238.574 26.94 238.454 26.82C238.334 26.68 238.274 26.51 238.274 26.31V6.72C238.274 6.5 238.334 6.33 238.454 6.21C238.574 6.07 238.744 6 238.964 6H246.284C248.544 6 250.334 6.53 251.654 7.59C252.974 8.65 253.634 10.22 253.634 12.3C253.634 13.84 253.244 15.1 252.464 16.08C251.704 17.04 250.664 17.71 249.344 18.09L253.964 26.07C254.024 26.19 254.054 26.3 254.054 26.4C254.054 26.56 253.984 26.7 253.844 26.82C253.724 26.94 253.584 27 253.424 27H251.984C251.644 27 251.394 26.91 251.234 26.73C251.074 26.55 250.934 26.37 250.814 26.19L246.464 18.57H241.214V26.31C241.214 26.51 241.144 26.68 241.004 26.82C240.884 26.94 240.714 27 240.494 27H238.964ZM241.214 16.02H246.164C247.664 16.02 248.784 15.71 249.524 15.09C250.264 14.45 250.634 13.51 250.634 12.27C250.634 11.05 250.264 10.12 249.524 9.48C248.804 8.84 247.684 8.52 246.164 8.52H241.214V16.02ZM263.362 27.3C262.082 27.3 260.992 27.02 260.092 26.46C259.212 25.88 258.542 25.08 258.082 24.06C257.622 23.04 257.392 21.87 257.392 20.55V12.09C257.392 11.89 257.452 11.73 257.572 11.61C257.712 11.47 257.882 11.4 258.082 11.4H259.582C259.782 11.4 259.942 11.47 260.062 11.61C260.202 11.73 260.272 11.89 260.272 12.09V20.4C260.272 23.38 261.572 24.87 264.172 24.87C265.412 24.87 266.402 24.48 267.142 23.7C267.902 22.9 268.282 21.8 268.282 20.4V12.09C268.282 11.89 268.342 11.73 268.462 11.61C268.602 11.47 268.772 11.4 268.972 11.4H270.442C270.662 11.4 270.832 11.47 270.952 11.61C271.072 11.73 271.132 11.89 271.132 12.09V26.31C271.132 26.51 271.072 26.68 270.952 26.82C270.832 26.94 270.662 27 270.442 27H269.062C268.862 27 268.692 26.94 268.552 26.82C268.432 26.68 268.372 26.51 268.372 26.31V24.99C267.832 25.69 267.172 26.25 266.392 26.67C265.632 27.09 264.622 27.3 263.362 27.3ZM283.299 27.3C282.099 27.3 281.099 27.09 280.299 26.67C279.499 26.23 278.859 25.69 278.379 25.05V26.31C278.379 26.51 278.309 26.68 278.169 26.82C278.049 26.94 277.889 27 277.689 27H276.309C276.109 27 275.939 26.94 275.799 26.82C275.679 26.68 275.619 26.51 275.619 26.31V6.39C275.619 6.19 275.679 6.03 275.799 5.91C275.939 5.77 276.109 5.7 276.309 5.7H277.749C277.969 5.7 278.139 5.77 278.259 5.91C278.379 6.03 278.439 6.19 278.439 6.39V13.29C278.939 12.67 279.579 12.15 280.359 11.73C281.159 11.31 282.139 11.1 283.299 11.1C284.419 11.1 285.369 11.3 286.149 11.7C286.949 12.08 287.599 12.61 288.099 13.29C288.619 13.97 289.009 14.74 289.269 15.6C289.529 16.46 289.669 17.36 289.689 18.3C289.709 18.62 289.719 18.92 289.719 19.2C289.719 19.48 289.709 19.78 289.689 20.1C289.669 21.06 289.529 21.97 289.269 22.83C289.009 23.69 288.619 24.46 288.099 25.14C287.599 25.8 286.949 26.33 286.149 26.73C285.369 27.11 284.419 27.3 283.299 27.3ZM282.669 24.87C283.709 24.87 284.519 24.65 285.099 24.21C285.699 23.75 286.129 23.16 286.389 22.44C286.649 21.7 286.799 20.91 286.839 20.07C286.859 19.49 286.859 18.91 286.839 18.33C286.799 17.49 286.649 16.71 286.389 15.99C286.129 15.25 285.699 14.66 285.099 14.22C284.519 13.76 283.709 13.53 282.669 13.53C281.729 13.53 280.949 13.75 280.329 14.19C279.709 14.63 279.239 15.19 278.919 15.87C278.619 16.55 278.459 17.24 278.439 17.94C278.419 18.26 278.409 18.65 278.409 19.11C278.409 19.55 278.419 19.93 278.439 20.25C278.479 20.99 278.639 21.72 278.919 22.44C279.219 23.14 279.669 23.72 280.269 24.18C280.889 24.64 281.689 24.87 282.669 24.87ZM294.121 27C293.921 27 293.751 26.94 293.611 26.82C293.491 26.68 293.431 26.51 293.431 26.31V12.09C293.431 11.89 293.491 11.73 293.611 11.61C293.751 11.47 293.921 11.4 294.121 11.4H295.561C295.761 11.4 295.921 11.47 296.041 11.61C296.161 11.73 296.221 11.89 296.221 12.09V26.31C296.221 26.51 296.161 26.68 296.041 26.82C295.921 26.94 295.761 27 295.561 27H294.121ZM293.881 8.49C293.681 8.49 293.511 8.43 293.371 8.31C293.251 8.17 293.191 8 293.191 7.8V6.18C293.191 5.98 293.251 5.82 293.371 5.7C293.511 5.56 293.681 5.49 293.881 5.49H295.771C295.971 5.49 296.131 5.56 296.251 5.7C296.391 5.82 296.461 5.98 296.461 6.18V7.8C296.461 8 296.391 8.17 296.251 8.31C296.131 8.43 295.971 8.49 295.771 8.49H293.881ZM301.417 27C301.217 27 301.047 26.94 300.907 26.82C300.787 26.68 300.727 26.51 300.727 26.31V6.39C300.727 6.19 300.787 6.03 300.907 5.91C301.047 5.77 301.217 5.7 301.417 5.7H302.827C303.027 5.7 303.187 5.77 303.307 5.91C303.447 6.03 303.517 6.19 303.517 6.39V16.83L309.427 11.91C309.667 11.71 309.847 11.58 309.967 11.52C310.107 11.44 310.327 11.4 310.627 11.4H312.217C312.397 11.4 312.547 11.46 312.667 11.58C312.787 11.7 312.847 11.85 312.847 12.03C312.847 12.11 312.817 12.2 312.757 12.3C312.717 12.4 312.627 12.5 312.487 12.6L305.557 18.36L313.237 25.83C313.477 26.03 313.597 26.21 313.597 26.37C313.597 26.55 313.537 26.7 313.417 26.82C313.297 26.94 313.147 27 312.967 27H311.407C311.107 27 310.887 26.97 310.747 26.91C310.607 26.83 310.427 26.69 310.207 26.49L303.517 20.1V26.31C303.517 26.51 303.447 26.68 303.307 26.82C303.187 26.94 303.027 27 302.827 27H301.417ZM315.955 29.25C315.795 29.25 315.665 29.19 315.565 29.07C315.485 28.95 315.455 28.8 315.475 28.62L316.165 24.33C316.205 24.09 316.285 23.89 316.405 23.73C316.545 23.55 316.745 23.46 317.005 23.46H319.015C319.155 23.46 319.265 23.51 319.345 23.61C319.445 23.71 319.495 23.83 319.495 23.97C319.495 24.13 319.455 24.29 319.375 24.45L317.815 28.56C317.735 28.76 317.625 28.92 317.485 29.04C317.365 29.18 317.185 29.25 316.945 29.25H315.955ZM337.71 27.3C336.45 27.3 335.35 27.15 334.41 26.85C333.47 26.53 332.68 26.11 332.04 25.59C331.4 25.07 330.91 24.5 330.57 23.88C330.25 23.26 330.08 22.62 330.06 21.96C330.06 21.78 330.12 21.64 330.24 21.54C330.36 21.44 330.51 21.39 330.69 21.39H332.16C332.34 21.39 332.5 21.43 332.64 21.51C332.78 21.59 332.9 21.76 333 22.02C333.2 22.74 333.54 23.3 334.02 23.7C334.52 24.1 335.09 24.38 335.73 24.54C336.39 24.68 337.05 24.75 337.71 24.75C339.09 24.75 340.21 24.42 341.07 23.76C341.93 23.1 342.36 22.13 342.36 20.85C342.36 19.55 341.97 18.62 341.19 18.06C340.41 17.5 339.33 17.22 337.95 17.22H335.1C334.9 17.22 334.73 17.16 334.59 17.04C334.47 16.92 334.41 16.75 334.41 16.53V15.72C334.41 15.54 334.44 15.39 334.5 15.27C334.58 15.13 334.66 15.01 334.74 14.91L340.56 8.55H331.71C331.51 8.55 331.34 8.49 331.2 8.37C331.08 8.25 331.02 8.08 331.02 7.86V6.72C331.02 6.5 331.08 6.33 331.2 6.21C331.34 6.07 331.51 6 331.71 6H343.68C343.9 6 344.07 6.07 344.19 6.21C344.33 6.33 344.4 6.5 344.4 6.72V7.8C344.4 7.94 344.36 8.07 344.28 8.19C344.22 8.29 344.15 8.39 344.07 8.49L338.28 14.94L338.76 14.97C340.08 15.01 341.23 15.25 342.21 15.69C343.21 16.13 343.98 16.79 344.52 17.67C345.08 18.53 345.36 19.62 345.36 20.94C345.36 22.28 345.03 23.43 344.37 24.39C343.71 25.33 342.8 26.05 341.64 26.55C340.48 27.05 339.17 27.3 337.71 27.3ZM356.297 27.3C354.917 27.3 353.747 27.09 352.787 26.67C351.847 26.23 351.077 25.63 350.477 24.87C349.877 24.11 349.437 23.24 349.157 22.26C348.897 21.28 348.747 20.24 348.707 19.14C348.687 18.6 348.667 18.03 348.647 17.43C348.647 16.83 348.647 16.23 348.647 15.63C348.667 15.01 348.687 14.42 348.707 13.86C348.727 12.76 348.877 11.72 349.157 10.74C349.457 9.74 349.897 8.87 350.477 8.13C351.077 7.37 351.857 6.78 352.817 6.36C353.777 5.92 354.937 5.7 356.297 5.7C357.677 5.7 358.837 5.92 359.777 6.36C360.737 6.78 361.517 7.37 362.117 8.13C362.717 8.87 363.157 9.74 363.437 10.74C363.737 11.72 363.897 12.76 363.917 13.86C363.937 14.42 363.947 15.01 363.947 15.63C363.967 16.23 363.967 16.83 363.947 17.43C363.947 18.03 363.937 18.6 363.917 19.14C363.897 20.24 363.737 21.28 363.437 22.26C363.157 23.24 362.717 24.11 362.117 24.87C361.537 25.63 360.767 26.23 359.807 26.67C358.867 27.09 357.697 27.3 356.297 27.3ZM356.297 24.75C357.857 24.75 359.007 24.24 359.747 23.22C360.507 22.18 360.897 20.77 360.917 18.99C360.957 18.41 360.977 17.85 360.977 17.31C360.977 16.75 360.977 16.2 360.977 15.66C360.977 15.1 360.957 14.55 360.917 14.01C360.897 12.27 360.507 10.88 359.747 9.84C359.007 8.78 357.857 8.25 356.297 8.25C354.757 8.25 353.607 8.78 352.847 9.84C352.107 10.88 351.717 12.27 351.677 14.01C351.677 14.55 351.667 15.1 351.647 15.66C351.647 16.2 351.647 16.75 351.647 17.31C351.667 17.85 351.677 18.41 351.677 18.99C351.717 20.77 352.117 22.18 352.877 23.22C353.637 24.24 354.777 24.75 356.297 24.75ZM369.13 27C368.91 27 368.74 26.94 368.62 26.82C368.5 26.68 368.44 26.51 368.44 26.31V6.72C368.44 6.5 368.5 6.33 368.62 6.21C368.74 6.07 368.91 6 369.13 6H376.75C378.23 6 379.51 6.24 380.59 6.72C381.69 7.2 382.54 7.92 383.14 8.88C383.74 9.82 384.04 11 384.04 12.42C384.04 13.84 383.74 15.02 383.14 15.96C382.54 16.9 381.69 17.61 380.59 18.09C379.51 18.57 378.23 18.81 376.75 18.81H371.44V26.31C371.44 26.51 371.37 26.68 371.23 26.82C371.11 26.94 370.94 27 370.72 27H369.13ZM371.41 16.29H376.6C378.08 16.29 379.19 15.96 379.93 15.3C380.67 14.64 381.04 13.68 381.04 12.42C381.04 11.18 380.68 10.22 379.96 9.54C379.24 8.86 378.12 8.52 376.6 8.52H371.41V16.29ZM393.388 27C392.268 27 391.358 26.79 390.658 26.37C389.958 25.93 389.448 25.32 389.128 24.54C388.808 23.74 388.648 22.8 388.648 21.72V13.8H386.308C386.108 13.8 385.938 13.74 385.798 13.62C385.678 13.48 385.618 13.31 385.618 13.11V12.09C385.618 11.89 385.678 11.73 385.798 11.61C385.938 11.47 386.108 11.4 386.308 11.4H388.648V6.39C388.648 6.19 388.708 6.03 388.828 5.91C388.968 5.77 389.138 5.7 389.338 5.7H390.748C390.948 5.7 391.108 5.77 391.228 5.91C391.368 6.03 391.438 6.19 391.438 6.39V11.4H395.158C395.358 11.4 395.518 11.47 395.638 11.61C395.778 11.73 395.848 11.89 395.848 12.09V13.11C395.848 13.31 395.778 13.48 395.638 13.62C395.518 13.74 395.358 13.8 395.158 13.8H391.438V21.51C391.438 22.45 391.598 23.19 391.918 23.73C392.238 24.27 392.808 24.54 393.628 24.54H395.458C395.658 24.54 395.818 24.61 395.938 24.75C396.078 24.87 396.148 25.03 396.148 25.23V26.31C396.148 26.51 396.078 26.68 395.938 26.82C395.818 26.94 395.658 27 395.458 27H393.388ZM398.807 29.25C398.647 29.25 398.517 29.19 398.417 29.07C398.337 28.95 398.307 28.8 398.327 28.62L399.017 24.33C399.057 24.09 399.137 23.89 399.257 23.73C399.397 23.55 399.597 23.46 399.857 23.46H401.867C402.007 23.46 402.117 23.51 402.197 23.61C402.297 23.71 402.347 23.83 402.347 23.97C402.347 24.13 402.307 24.29 402.227 24.45L400.667 28.56C400.587 28.76 400.477 28.92 400.337 29.04C400.217 29.18 400.037 29.25 399.797 29.25H398.807ZM414.921 27C414.701 27 414.531 26.94 414.411 26.82C414.291 26.68 414.231 26.51 414.231 26.31V6.72C414.231 6.5 414.291 6.33 414.411 6.21C414.531 6.07 414.701 6 414.921 6H422.241C424.501 6 426.291 6.53 427.611 7.59C428.931 8.65 429.591 10.22 429.591 12.3C429.591 13.84 429.201 15.1 428.421 16.08C427.661 17.04 426.621 17.71 425.301 18.09L429.921 26.07C429.981 26.19 430.011 26.3 430.011 26.4C430.011 26.56 429.941 26.7 429.801 26.82C429.681 26.94 429.541 27 429.381 27H427.941C427.601 27 427.351 26.91 427.191 26.73C427.031 26.55 426.891 26.37 426.771 26.19L422.421 18.57H417.171V26.31C417.171 26.51 417.101 26.68 416.961 26.82C416.841 26.94 416.671 27 416.451 27H414.921ZM417.171 16.02H422.121C423.621 16.02 424.741 15.71 425.481 15.09C426.221 14.45 426.591 13.51 426.591 12.27C426.591 11.05 426.221 10.12 425.481 9.48C424.761 8.84 423.641 8.52 422.121 8.52H417.171V16.02ZM439.534 27.3C437.474 27.3 435.834 26.67 434.614 25.41C433.394 24.13 432.724 22.39 432.604 20.19C432.584 19.93 432.574 19.6 432.574 19.2C432.574 18.78 432.584 18.44 432.604 18.18C432.684 16.76 433.014 15.52 433.594 14.46C434.174 13.38 434.964 12.55 435.964 11.97C436.984 11.39 438.174 11.1 439.534 11.1C441.054 11.1 442.324 11.42 443.344 12.06C444.384 12.7 445.174 13.61 445.714 14.79C446.254 15.97 446.524 17.35 446.524 18.93V19.44C446.524 19.66 446.454 19.83 446.314 19.95C446.194 20.07 446.034 20.13 445.834 20.13H435.454C435.454 20.15 435.454 20.19 435.454 20.25C435.454 20.31 435.454 20.36 435.454 20.4C435.494 21.22 435.674 21.99 435.994 22.71C436.314 23.41 436.774 23.98 437.374 24.42C437.974 24.86 438.694 25.08 439.534 25.08C440.254 25.08 440.854 24.97 441.334 24.75C441.814 24.53 442.204 24.29 442.504 24.03C442.804 23.75 443.004 23.54 443.104 23.4C443.284 23.14 443.424 22.99 443.524 22.95C443.624 22.89 443.784 22.86 444.004 22.86H445.444C445.644 22.86 445.804 22.92 445.924 23.04C446.064 23.14 446.124 23.29 446.104 23.49C446.084 23.79 445.924 24.16 445.624 24.6C445.324 25.02 444.894 25.44 444.334 25.86C443.774 26.28 443.094 26.63 442.294 26.91C441.494 27.17 440.574 27.3 439.534 27.3ZM435.454 18.06H443.674V17.97C443.674 17.07 443.504 16.27 443.164 15.57C442.844 14.87 442.374 14.32 441.754 13.92C441.134 13.5 440.394 13.29 439.534 13.29C438.674 13.29 437.934 13.5 437.314 13.92C436.714 14.32 436.254 14.87 435.934 15.57C435.614 16.27 435.454 17.07 435.454 17.97V18.06ZM456.501 33.6C455.141 33.6 454.021 33.42 453.141 33.06C452.281 32.7 451.601 32.26 451.101 31.74C450.621 31.24 450.271 30.73 450.051 30.21C449.851 29.71 449.741 29.31 449.721 29.01C449.701 28.81 449.761 28.64 449.901 28.5C450.061 28.36 450.231 28.29 450.411 28.29H451.851C452.031 28.29 452.181 28.33 452.301 28.41C452.421 28.49 452.521 28.66 452.601 28.92C452.721 29.22 452.901 29.55 453.141 29.91C453.381 30.29 453.751 30.61 454.251 30.87C454.751 31.15 455.451 31.29 456.351 31.29C457.291 31.29 458.081 31.16 458.721 30.9C459.361 30.66 459.841 30.22 460.161 29.58C460.501 28.96 460.671 28.1 460.671 27V24.96C460.191 25.58 459.561 26.1 458.781 26.52C458.001 26.92 457.021 27.12 455.841 27.12C454.721 27.12 453.761 26.93 452.961 26.55C452.161 26.15 451.501 25.62 450.981 24.96C450.481 24.28 450.101 23.51 449.841 22.65C449.601 21.79 449.461 20.89 449.421 19.95C449.401 19.39 449.401 18.84 449.421 18.3C449.461 17.36 449.601 16.46 449.841 15.6C450.101 14.74 450.481 13.97 450.981 13.29C451.501 12.61 452.161 12.08 452.961 11.7C453.761 11.3 454.721 11.1 455.841 11.1C457.041 11.1 458.031 11.33 458.811 11.79C459.611 12.23 460.261 12.77 460.761 13.41V12.12C460.761 11.92 460.821 11.75 460.941 11.61C461.081 11.47 461.251 11.4 461.451 11.4H462.831C463.031 11.4 463.201 11.47 463.341 11.61C463.481 11.75 463.551 11.92 463.551 12.12V26.67C463.551 28.01 463.321 29.2 462.861 30.24C462.421 31.28 461.681 32.1 460.641 32.7C459.621 33.3 458.241 33.6 456.501 33.6ZM456.441 24.72C457.441 24.72 458.241 24.49 458.841 24.03C459.461 23.57 459.911 22.99 460.191 22.29C460.491 21.59 460.651 20.88 460.671 20.16C460.691 19.88 460.701 19.54 460.701 19.14C460.701 18.72 460.691 18.37 460.671 18.09C460.651 17.37 460.491 16.66 460.191 15.96C459.911 15.26 459.461 14.68 458.841 14.22C458.241 13.76 457.441 13.53 456.441 13.53C455.441 13.53 454.641 13.76 454.041 14.22C453.441 14.66 453.011 15.25 452.751 15.99C452.491 16.71 452.341 17.49 452.301 18.33C452.281 18.85 452.281 19.38 452.301 19.92C452.341 20.76 452.491 21.55 452.751 22.29C453.011 23.01 453.441 23.6 454.041 24.06C454.641 24.5 455.441 24.72 456.441 24.72ZM473.831 27.3C472.551 27.3 471.461 27.02 470.561 26.46C469.681 25.88 469.011 25.08 468.551 24.06C468.091 23.04 467.861 21.87 467.861 20.55V12.09C467.861 11.89 467.921 11.73 468.041 11.61C468.181 11.47 468.351 11.4 468.551 11.4H470.051C470.251 11.4 470.411 11.47 470.531 11.61C470.671 11.73 470.741 11.89 470.741 12.09V20.4C470.741 23.38 472.041 24.87 474.641 24.87C475.881 24.87 476.871 24.48 477.611 23.7C478.371 22.9 478.751 21.8 478.751 20.4V12.09C478.751 11.89 478.811 11.73 478.931 11.61C479.071 11.47 479.241 11.4 479.441 11.4H480.911C481.131 11.4 481.301 11.47 481.421 11.61C481.541 11.73 481.601 11.89 481.601 12.09V26.31C481.601 26.51 481.541 26.68 481.421 26.82C481.301 26.94 481.131 27 480.911 27H479.531C479.331 27 479.161 26.94 479.021 26.82C478.901 26.68 478.841 26.51 478.841 26.31V24.99C478.301 25.69 477.641 26.25 476.861 26.67C476.101 27.09 475.091 27.3 473.831 27.3ZM486.778 27C486.578 27 486.408 26.94 486.268 26.82C486.148 26.68 486.088 26.51 486.088 26.31V6.39C486.088 6.19 486.148 6.03 486.268 5.91C486.408 5.77 486.578 5.7 486.778 5.7H488.188C488.408 5.7 488.578 5.77 488.698 5.91C488.818 6.03 488.878 6.19 488.878 6.39V26.31C488.878 26.51 488.818 26.68 488.698 26.82C488.578 26.94 488.408 27 488.188 27H486.778ZM497.703 27.3C496.703 27.3 495.793 27.1 494.973 26.7C494.153 26.3 493.493 25.76 492.993 25.08C492.493 24.4 492.243 23.63 492.243 22.77C492.243 21.39 492.803 20.29 493.923 19.47C495.043 18.65 496.503 18.11 498.303 17.85L502.773 17.22V16.35C502.773 15.39 502.493 14.64 501.933 14.1C501.393 13.56 500.503 13.29 499.263 13.29C498.363 13.29 497.633 13.47 497.073 13.83C496.533 14.19 496.153 14.65 495.933 15.21C495.813 15.51 495.603 15.66 495.303 15.66H493.953C493.733 15.66 493.563 15.6 493.443 15.48C493.343 15.34 493.293 15.18 493.293 15C493.293 14.7 493.403 14.33 493.623 13.89C493.863 13.45 494.223 13.02 494.703 12.6C495.183 12.18 495.793 11.83 496.533 11.55C497.293 11.25 498.213 11.1 499.293 11.1C500.493 11.1 501.503 11.26 502.323 11.58C503.143 11.88 503.783 12.29 504.243 12.81C504.723 13.33 505.063 13.92 505.263 14.58C505.483 15.24 505.593 15.91 505.593 16.59V26.31C505.593 26.51 505.523 26.68 505.383 26.82C505.263 26.94 505.103 27 504.903 27H503.523C503.303 27 503.133 26.94 503.013 26.82C502.893 26.68 502.833 26.51 502.833 26.31V25.02C502.573 25.38 502.223 25.74 501.783 26.1C501.343 26.44 500.793 26.73 500.133 26.97C499.473 27.19 498.663 27.3 497.703 27.3ZM498.333 25.05C499.153 25.05 499.903 24.88 500.583 24.54C501.263 24.18 501.793 23.63 502.173 22.89C502.573 22.15 502.773 21.22 502.773 20.1V19.26L499.293 19.77C497.873 19.97 496.803 20.31 496.083 20.79C495.363 21.25 495.003 21.84 495.003 22.56C495.003 23.12 495.163 23.59 495.483 23.97C495.823 24.33 496.243 24.6 496.743 24.78C497.263 24.96 497.793 25.05 498.333 25.05ZM510.596 27C510.396 27 510.226 26.94 510.086 26.82C509.966 26.68 509.906 26.51 509.906 26.31V12.12C509.906 11.92 509.966 11.75 510.086 11.61C510.226 11.47 510.396 11.4 510.596 11.4H511.976C512.176 11.4 512.346 11.47 512.486 11.61C512.626 11.75 512.696 11.92 512.696 12.12V13.44C513.096 12.76 513.646 12.25 514.346 11.91C515.046 11.57 515.886 11.4 516.866 11.4H518.066C518.266 11.4 518.426 11.47 518.546 11.61C518.666 11.73 518.726 11.89 518.726 12.09V13.32C518.726 13.52 518.666 13.68 518.546 13.8C518.426 13.92 518.266 13.98 518.066 13.98H516.266C515.186 13.98 514.336 14.3 513.716 14.94C513.096 15.56 512.786 16.41 512.786 17.49V26.31C512.786 26.51 512.716 26.68 512.576 26.82C512.436 26.94 512.266 27 512.066 27H510.596ZM531.414 27C531.154 27 530.944 26.93 530.784 26.79C530.644 26.65 530.544 26.45 530.484 26.19L526.614 6.93C526.594 6.85 526.584 6.78 526.584 6.72C526.584 6.66 526.584 6.62 526.584 6.6C526.584 6.44 526.644 6.3 526.764 6.18C526.884 6.06 527.024 6 527.184 6H528.744C529.164 6 529.404 6.17 529.464 6.51L532.524 21.99L535.764 11.37C535.824 11.19 535.924 11.03 536.064 10.89C536.224 10.73 536.444 10.65 536.724 10.65H537.834C538.134 10.65 538.354 10.73 538.494 10.89C538.634 11.03 538.724 11.19 538.764 11.37L542.034 21.99L545.064 6.51C545.124 6.17 545.374 6 545.814 6H547.374C547.534 6 547.674 6.06 547.794 6.18C547.914 6.3 547.974 6.44 547.974 6.6C547.974 6.62 547.964 6.66 547.944 6.72C547.944 6.78 547.944 6.85 547.944 6.93L544.074 26.19C544.014 26.45 543.904 26.65 543.744 26.79C543.604 26.93 543.404 27 543.144 27H541.974C541.694 27 541.474 26.93 541.314 26.79C541.154 26.65 541.044 26.47 540.984 26.25L537.264 14.82L533.574 26.25C533.494 26.47 533.374 26.65 533.214 26.79C533.074 26.93 532.864 27 532.584 27H531.414ZM557.073 27.3C555.013 27.3 553.373 26.67 552.153 25.41C550.933 24.13 550.263 22.39 550.143 20.19C550.123 19.93 550.113 19.6 550.113 19.2C550.113 18.78 550.123 18.44 550.143 18.18C550.223 16.76 550.553 15.52 551.133 14.46C551.713 13.38 552.503 12.55 553.503 11.97C554.523 11.39 555.713 11.1 557.073 11.1C558.593 11.1 559.863 11.42 560.883 12.06C561.923 12.7 562.713 13.61 563.253 14.79C563.793 15.97 564.063 17.35 564.063 18.93V19.44C564.063 19.66 563.993 19.83 563.853 19.95C563.733 20.07 563.573 20.13 563.373 20.13H552.993C552.993 20.15 552.993 20.19 552.993 20.25C552.993 20.31 552.993 20.36 552.993 20.4C553.033 21.22 553.213 21.99 553.533 22.71C553.853 23.41 554.313 23.98 554.913 24.42C555.513 24.86 556.233 25.08 557.073 25.08C557.793 25.08 558.393 24.97 558.873 24.75C559.353 24.53 559.743 24.29 560.043 24.03C560.343 23.75 560.543 23.54 560.643 23.4C560.823 23.14 560.963 22.99 561.063 22.95C561.163 22.89 561.323 22.86 561.543 22.86H562.983C563.183 22.86 563.343 22.92 563.463 23.04C563.603 23.14 563.663 23.29 563.643 23.49C563.623 23.79 563.463 24.16 563.163 24.6C562.863 25.02 562.433 25.44 561.873 25.86C561.313 26.28 560.633 26.63 559.833 26.91C559.033 27.17 558.113 27.3 557.073 27.3ZM552.993 18.06H561.213V17.97C561.213 17.07 561.043 16.27 560.703 15.57C560.383 14.87 559.913 14.32 559.293 13.92C558.673 13.5 557.933 13.29 557.073 13.29C556.213 13.29 555.473 13.5 554.853 13.92C554.253 14.32 553.793 14.87 553.473 15.57C553.153 16.27 552.993 17.07 552.993 17.97V18.06ZM568.34 27C568.14 27 567.97 26.94 567.83 26.82C567.71 26.68 567.65 26.51 567.65 26.31V12.09C567.65 11.89 567.71 11.73 567.83 11.61C567.97 11.47 568.14 11.4 568.34 11.4H569.78C569.98 11.4 570.14 11.47 570.26 11.61C570.38 11.73 570.44 11.89 570.44 12.09V26.31C570.44 26.51 570.38 26.68 570.26 26.82C570.14 26.94 569.98 27 569.78 27H568.34ZM568.1 8.49C567.9 8.49 567.73 8.43 567.59 8.31C567.47 8.17 567.41 8 567.41 7.8V6.18C567.41 5.98 567.47 5.82 567.59 5.7C567.73 5.56 567.9 5.49 568.1 5.49H569.99C570.19 5.49 570.35 5.56 570.47 5.7C570.61 5.82 570.68 5.98 570.68 6.18V7.8C570.68 8 570.61 8.17 570.47 8.31C570.35 8.43 570.19 8.49 569.99 8.49H568.1ZM581.305 33.6C579.945 33.6 578.825 33.42 577.945 33.06C577.085 32.7 576.405 32.26 575.905 31.74C575.425 31.24 575.075 30.73 574.855 30.21C574.655 29.71 574.545 29.31 574.525 29.01C574.505 28.81 574.565 28.64 574.705 28.5C574.865 28.36 575.035 28.29 575.215 28.29H576.655C576.835 28.29 576.985 28.33 577.105 28.41C577.225 28.49 577.325 28.66 577.405 28.92C577.525 29.22 577.705 29.55 577.945 29.91C578.185 30.29 578.555 30.61 579.055 30.87C579.555 31.15 580.255 31.29 581.155 31.29C582.095 31.29 582.885 31.16 583.525 30.9C584.165 30.66 584.645 30.22 584.965 29.58C585.305 28.96 585.475 28.1 585.475 27V24.96C584.995 25.58 584.365 26.1 583.585 26.52C582.805 26.92 581.825 27.12 580.645 27.12C579.525 27.12 578.565 26.93 577.765 26.55C576.965 26.15 576.305 25.62 575.785 24.96C575.285 24.28 574.905 23.51 574.645 22.65C574.405 21.79 574.265 20.89 574.225 19.95C574.205 19.39 574.205 18.84 574.225 18.3C574.265 17.36 574.405 16.46 574.645 15.6C574.905 14.74 575.285 13.97 575.785 13.29C576.305 12.61 576.965 12.08 577.765 11.7C578.565 11.3 579.525 11.1 580.645 11.1C581.845 11.1 582.835 11.33 583.615 11.79C584.415 12.23 585.065 12.77 585.565 13.41V12.12C585.565 11.92 585.625 11.75 585.745 11.61C585.885 11.47 586.055 11.4 586.255 11.4H587.635C587.835 11.4 588.005 11.47 588.145 11.61C588.285 11.75 588.355 11.92 588.355 12.12V26.67C588.355 28.01 588.125 29.2 587.665 30.24C587.225 31.28 586.485 32.1 585.445 32.7C584.425 33.3 583.045 33.6 581.305 33.6ZM581.245 24.72C582.245 24.72 583.045 24.49 583.645 24.03C584.265 23.57 584.715 22.99 584.995 22.29C585.295 21.59 585.455 20.88 585.475 20.16C585.495 19.88 585.505 19.54 585.505 19.14C585.505 18.72 585.495 18.37 585.475 18.09C585.455 17.37 585.295 16.66 584.995 15.96C584.715 15.26 584.265 14.68 583.645 14.22C583.045 13.76 582.245 13.53 581.245 13.53C580.245 13.53 579.445 13.76 578.845 14.22C578.245 14.66 577.815 15.25 577.555 15.99C577.295 16.71 577.145 17.49 577.105 18.33C577.085 18.85 577.085 19.38 577.105 19.92C577.145 20.76 577.295 21.55 577.555 22.29C577.815 23.01 578.245 23.6 578.845 24.06C579.445 24.5 580.245 24.72 581.245 24.72ZM593.536 27C593.336 27 593.166 26.94 593.026 26.82C592.906 26.68 592.846 26.51 592.846 26.31V6.39C592.846 6.19 592.906 6.03 593.026 5.91C593.166 5.77 593.336 5.7 593.536 5.7H595.036C595.256 5.7 595.426 5.77 595.546 5.91C595.666 6.03 595.726 6.19 595.726 6.39V13.38C596.266 12.7 596.926 12.15 597.706 11.73C598.486 11.31 599.476 11.1 600.676 11.1C601.976 11.1 603.076 11.39 603.976 11.97C604.896 12.53 605.586 13.32 606.046 14.34C606.526 15.34 606.766 16.51 606.766 17.85V26.31C606.766 26.51 606.706 26.68 606.586 26.82C606.466 26.94 606.296 27 606.076 27H604.576C604.376 27 604.206 26.94 604.066 26.82C603.946 26.68 603.886 26.51 603.886 26.31V18C603.886 16.6 603.546 15.51 602.866 14.73C602.186 13.93 601.186 13.53 599.866 13.53C598.626 13.53 597.626 13.93 596.866 14.73C596.106 15.51 595.726 16.6 595.726 18V26.31C595.726 26.51 595.666 26.68 595.546 26.82C595.426 26.94 595.256 27 595.036 27H593.536ZM616.982 27C615.862 27 614.952 26.79 614.252 26.37C613.552 25.93 613.042 25.32 612.722 24.54C612.402 23.74 612.242 22.8 612.242 21.72V13.8H609.902C609.702 13.8 609.532 13.74 609.392 13.62C609.272 13.48 609.212 13.31 609.212 13.11V12.09C609.212 11.89 609.272 11.73 609.392 11.61C609.532 11.47 609.702 11.4 609.902 11.4H612.242V6.39C612.242 6.19 612.302 6.03 612.422 5.91C612.562 5.77 612.732 5.7 612.932 5.7H614.342C614.542 5.7 614.702 5.77 614.822 5.91C614.962 6.03 615.032 6.19 615.032 6.39V11.4H618.752C618.952 11.4 619.112 11.47 619.232 11.61C619.372 11.73 619.442 11.89 619.442 12.09V13.11C619.442 13.31 619.372 13.48 619.232 13.62C619.112 13.74 618.952 13.8 618.752 13.8H615.032V21.51C615.032 22.45 615.192 23.19 615.512 23.73C615.832 24.27 616.402 24.54 617.222 24.54H619.052C619.252 24.54 619.412 24.61 619.532 24.75C619.672 24.87 619.742 25.03 619.742 25.23V26.31C619.742 26.51 619.672 26.68 619.532 26.82C619.412 26.94 619.252 27 619.052 27H616.982Z" fill="#0C7FBD"/>
</svg>
